<?xml version="1.0" encoding="utf-8"?>
<!-- Generator: Adobe Illustrator 18.1.1, SVG Export Plug-In . SVG Version: 6.00 Build 0)  -->
<!DOCTYPE svg PUBLIC "-//W3C//DTD SVG 1.1//EN" "http://www.w3.org/Graphics/SVG/1.1/DTD/svg11.dtd">
<svg version="1.1" id="Layer_1" xmlns="http://www.w3.org/2000/svg" xmlns:xlink="http://www.w3.org/1999/xlink" x="0px" y="0px"
	 viewBox="0 0 150 150" enable-background="new 0 0 150 150" xml:space="preserve">
<g>
	<g>
		<defs>
			<rect id="SVGID_1_" x="0" y="0" width="150" height="150"/>
		</defs>
		<clipPath id="SVGID_2_">
			<use xlink:href="#SVGID_1_"  overflow="visible"/>
		</clipPath>
		<path clip-path="url(#SVGID_2_)" fill="#5DBAB0" d="M150,75c0,41.4-33.6,75-75,75c-41.4,0-75-33.6-75-75C0,33.6,33.6,0,75,0
			C116.4,0,150,33.6,150,75"/>
	</g>
	<path fill="#228879" d="M88.6,148.7c-0.1-0.3-0.3-0.5-0.4-0.8c-0.1,0-0.3,0-0.4-0.1c-0.1-0.3-0.3-0.6-0.5-0.8c-0.1,0-0.3,0-0.4-0.1
		c-0.1-0.3-0.3-0.6-0.5-0.8c-0.1,0-0.3,0-0.4-0.1c-0.1-0.3-0.3-0.6-0.5-0.8c-0.1,0-0.3,0-0.4-0.1c-0.1-0.3-0.3-0.6-0.5-0.8
		c-0.1,0-0.3,0-0.4-0.1c-0.1-0.3-0.3-0.6-0.5-0.8c-0.1,0-0.3,0-0.4-0.1c-0.1-0.3-0.3-0.6-0.5-0.8c-0.1,0-0.3,0-0.4-0.1
		c-0.1-0.3-0.3-0.6-0.5-0.8c-0.1,0-0.3,0-0.4-0.1c-0.1-0.3-0.3-0.6-0.5-0.8c-0.1,0-0.3,0-0.4-0.1c-0.1-0.3-0.3-0.6-0.5-0.8
		c-0.1,0-0.3,0-0.4-0.1c-0.1-0.3-0.3-0.6-0.5-0.8c-0.1,0-0.3,0-0.4-0.1c-0.1-0.3-0.3-0.6-0.5-0.8c-0.1,0-0.3,0-0.4-0.1
		c-0.1-0.3-0.3-0.6-0.5-0.8c-0.1,0-0.3,0-0.4-0.1c-0.1-0.3-0.3-0.6-0.5-0.8c-0.1,0-0.3,0-0.4-0.1c-0.1-0.3-0.3-0.6-0.5-0.8
		c-0.1,0-0.3,0-0.4-0.1c-0.1-0.3-0.3-0.6-0.5-0.8c-0.1,0-0.3,0-0.4-0.1c-0.1-0.3-0.3-0.6-0.5-0.8c-0.1,0-0.3,0-0.4-0.1
		c-0.1-0.3-0.3-0.6-0.5-0.8c-0.1,0-0.3,0-0.4-0.1c-0.1-0.3-0.3-0.6-0.5-0.8c-0.1,0-0.3,0-0.4-0.1c-0.1-0.3-0.3-0.6-0.5-0.8
		c-0.1,0-0.3,0-0.4-0.1c-0.1-0.3-0.3-0.6-0.5-0.8c-0.1,0-0.3,0-0.4-0.1c-0.1-0.3-0.3-0.6-0.5-0.8c-0.1,0-0.3,0-0.4-0.1
		c-0.1-0.3-0.3-0.6-0.5-0.8c-0.1,0-0.3,0-0.4-0.1c-0.1-0.3-0.3-0.6-0.5-0.8c-0.1,0-0.3,0-0.4-0.1c-0.1-0.3-0.3-0.6-0.5-0.8
		c-0.1,0-0.3,0-0.4-0.1c-0.1-0.3-0.3-0.6-0.5-0.8c-0.1,0-0.3,0-0.4-0.1c-0.1-0.3-0.3-0.6-0.5-0.8c-0.1,0-0.3,0-0.4-0.1
		c-0.1-0.3-0.3-0.6-0.5-0.8c-0.1,0-0.3,0-0.4-0.1c-0.1-0.3-0.3-0.6-0.5-0.8c-0.1,0-0.3,0-0.4-0.1c-1.6-3.6-5.1-5.1-5.8-9.7
		c0.1-0.5,0.5-0.8,0.9-1.1l-0.2-0.3l-0.2,0c-0.3-0.3-0.5-0.6-0.7-0.9l-0.2,0c-0.3-0.3-0.5-0.6-0.7-0.9l-0.2,0
		c-0.3-0.3-0.5-0.6-0.7-0.9l-0.2,0c-0.3-0.3-0.5-0.6-0.7-0.9l-0.2,0c-0.3-0.3-0.5-0.6-0.7-0.9l-0.2,0c-0.3-0.3-0.5-0.6-0.7-0.9
		l-0.2,0c-0.3-0.3-0.5-0.6-0.7-0.9l-0.2,0c-0.3-0.3-0.5-0.6-0.7-0.9l-0.2,0c-0.3-0.3-0.5-0.6-0.7-0.9l-0.2,0
		c-0.3-0.3-0.5-0.6-0.7-0.9l-0.2,0c-1.8-1.9-1.1-3.9-0.5-6.2l-0.3-0.3l-0.1,0c-0.3-0.3-0.5-0.6-0.8-0.9l-0.1,0
		c-0.3-0.3-0.5-0.6-0.8-0.9l-0.1,0c-0.3-0.3-0.5-0.6-0.8-0.9l-0.1,0c-0.3-0.3-0.5-0.6-0.8-0.9l-0.1,0c-0.3-0.3-0.5-0.6-0.8-0.9
		l-0.1,0c-0.3-0.3-0.5-0.6-0.8-0.9l-0.1,0C34,82.9,43,71.3,52,71.3l0,0c2.6,0,5.2,1,7.4,3.2l0,0.1c0.3,0.3,0.6,0.5,0.9,0.8l0,0.1
		c0.3,0.3,0.6,0.5,0.9,0.8l0,0.1c0.3,0.3,0.6,0.5,0.9,0.8l0,0.1c0.3,0.3,0.6,0.5,0.9,0.8l0,0.1c0.3,0.3,0.6,0.5,0.9,0.8l0,0.1
		c0.3,0.3,0.6,0.5,0.9,0.8l0,0.1l0.4,0.3c0.5,0.1,1.1,0.2,1.7,0.2c0.6,0,1.2-0.1,2-0.3c0,0.4,0.1,0.7,0.2,1c0.2,0,0.4-0.1,0.6-0.1
		c-0.2-0.8-0.4-1.7-0.3-3c0.4-0.1,0.8-0.1,1.2-0.2c-0.3-0.2-0.6-0.5-0.8-0.8c-0.4-0.3-0.7-0.5-0.9-0.9c-0.4-0.3-0.7-0.5-0.9-0.9
		c-0.9-0.7-1.5-1.6-1.3-2.9c0.3-0.1,0.5-0.1,0.8-0.1c0.6,0,1.2,0.2,1.7,0.5c0.5,0.2,0.9,0.5,1.3,0.5c0.2,0,0.5-0.1,0.7-0.3
		c0.4-2.1-0.8-2.4-0.9-4c-0.1-0.4-0.2-0.6-0.4-0.9c-0.2,0-0.3,0-0.5,0.1c-0.1-0.4-0.3-0.7-0.4-1c-0.2,0-0.3,0-0.5,0.1
		c-0.1-0.4-0.3-0.7-0.4-1c-0.2,0-0.3,0-0.5,0.1c-0.3-1.1-1.1-1.5-0.9-3.1c0.3-0.3,0.7-0.5,1-0.5c0.9,0,1.9,0.9,3,1
		c0.3-1.8-0.9-2.7-0.2-3.9L70,59.6l0-0.1c-0.3-0.2-0.7-0.5-0.9-0.8l0-0.1c-0.3-0.2-0.7-0.5-0.9-0.8l0-0.1c-0.3-0.2-0.7-0.5-0.9-0.8
		l0-0.1c-0.3-0.2-0.7-0.5-0.9-0.8c0.5-0.6,0.8-0.8,1.3-0.8c0.3,0,0.6,0.1,0.9,0.1c0.4,0.1,0.8,0.1,1.3,0.1l0,0
		c0.8-1.3,0.8-1.9,0.6-3.4c-0.2,0-0.4,0-0.6-0.1c0.1-0.4,0-0.6-0.1-0.8c-0.3,0-0.5,0-0.8-0.1c0.1-0.4,0-0.6-0.1-0.8
		c-0.3,0-0.5,0-0.8-0.1c0.1-0.4,0-0.6-0.1-0.8c-0.3,0-0.6,0-0.8-0.1c0.2-1.2-0.8-1.1-0.4-2.6c0.3-0.1,0.5-0.1,0.7-0.1
		c0.6,0,1,0.2,1.4,0.3c0.4,0.2,0.8,0.3,1.4,0.3c0.2,0,0.3,0,0.5,0c0.7-1.7-0.3-1.7-0.4-3.6l0,0c-0.3-0.2-0.6-0.4-0.8-0.8
		c-0.4-0.2-0.7-0.5-0.9-0.9c-0.4-0.2-0.7-0.5-0.9-0.9c-0.6-0.3-1-0.8-1-1.5c0.3-0.1,0.5-0.4,0.4-1c1.2,0,2.4,0,3.5,0
		c0.1-1.2-0.1-2-0.4-2.6c0.2-0.1,0.3-0.1,0.5-0.1c-0.2-0.2-0.4-0.4-0.6-0.6c-0.3-0.2-0.6-0.5-0.9-0.9c-0.3-0.2-0.6-0.5-0.9-0.9
		c-0.5-0.4-1-0.9-1.3-1.6c0-0.9,0.8-1,1.6-1c0.1,0,0.3,0,0.4,0c0.2,0,0.3,0,0.4,0c0.6,0,1.2-0.1,1.5-0.5c0.2-1.6-1-2,0-3.1
		c0.9-0.3,2-0.5,3.1-0.6v-0.1c0.2,0,0.4,0,0.6,0c0.2,0,0.4,0,0.6,0v0.1c1.1,0.1,2.2,0.3,3.1,0.6c0.3,0.3,0.4,0.5,0.4,0.8
		c0.2,0,0.4,0.1,0.5,0.1c0.3,0.3,0.4,0.5,0.4,0.8c0.2,0,0.4,0.1,0.5,0.1c0.3,0.3,0.4,0.5,0.4,0.8c0.2,0,0.4,0.1,0.5,0.1
		c0.3,0.3,0.4,0.5,0.4,0.8c0.2,0,0.4,0.1,0.5,0.1c0.3,0.3,0.4,0.5,0.4,0.8c0.2,0,0.4,0.1,0.5,0.1c0.3,0.3,0.4,0.5,0.4,0.8
		c0.2,0,0.4,0.1,0.5,0.1c0.3,0.3,0.4,0.5,0.4,0.8c0.2,0,0.4,0.1,0.5,0.1c0.3,0.3,0.4,0.5,0.4,0.8c0.2,0,0.4,0.1,0.5,0.1
		c0.3,0.3,0.4,0.5,0.4,0.8c0.2,0,0.4,0.1,0.5,0.1c0.3,0.3,0.4,0.5,0.4,0.8c0.2,0,0.4,0.1,0.5,0.1c0.3,0.3,0.4,0.5,0.4,0.8
		c0.2,0,0.4,0.1,0.5,0.1c0.3,0.3,0.4,0.5,0.4,0.8c0.2,0,0.4,0.1,0.5,0.1c0.3,0.3,0.4,0.5,0.4,0.8c0.2,0,0.4,0.1,0.5,0.1
		c0.3,0.3,0.4,0.5,0.4,0.8c0.2,0,0.4,0.1,0.5,0.1c0.3,0.3,0.4,0.5,0.4,0.8c0.2,0,0.4,0.1,0.5,0.1c0.3,0.3,0.4,0.5,0.4,0.8
		c0.2,0,0.4,0.1,0.5,0.1c0.3,0.3,0.4,0.5,0.4,0.8c0.2,0,0.4,0.1,0.5,0.1c0.3,0.3,0.4,0.5,0.4,0.8c0.2,0,0.4,0.1,0.5,0.1
		c0.3,0.3,0.4,0.5,0.4,0.8c0.2,0,0.4,0.1,0.5,0.1c0.3,0.3,0.4,0.5,0.4,0.8c0.2,0,0.4,0.1,0.5,0.1c0.3,0.3,0.4,0.5,0.4,0.8
		c0.2,0,0.4,0.1,0.5,0.1c0.3,0.3,0.4,0.5,0.4,0.8c0.2,0,0.4,0.1,0.5,0.1c0.3,0.3,0.4,0.5,0.4,0.8c0.2,0,0.4,0.1,0.5,0.1
		c0.3,0.3,0.4,0.5,0.4,0.8c0.2,0,0.4,0.1,0.5,0.1c0.3,0.3,0.4,0.5,0.4,0.8c0.2,0,0.4,0.1,0.5,0.1c0.3,0.3,0.4,0.5,0.4,0.8
		c0.2,0,0.4,0.1,0.5,0.1c0.3,0.3,0.4,0.5,0.4,0.8c0.2,0,0.4,0.1,0.5,0.1c0.3,0.3,0.4,0.5,0.4,0.8c0.2,0,0.4,0.1,0.5,0.1
		c0.3,0.3,0.4,0.5,0.4,0.8c0.2,0,0.4,0.1,0.5,0.1c0.3,0.3,0.4,0.5,0.4,0.8c0.2,0,0.4,0.1,0.5,0.1c0.3,0.3,0.4,0.5,0.4,0.8
		c0.2,0,0.4,0.1,0.5,0.1c0.3,0.3,0.4,0.5,0.4,0.8c0.2,0,0.4,0.1,0.5,0.1c0.3,0.3,0.4,0.5,0.4,0.8c0.2,0,0.4,0.1,0.5,0.1
		c0.3,0.3,0.4,0.5,0.4,0.8c0.2,0,0.4,0.1,0.5,0.1c0.3,0.3,0.4,0.5,0.4,0.8c0.2,0,0.4,0.1,0.5,0.1c0.3,0.3,0.4,0.5,0.4,0.8
		c0.2,0,0.4,0.1,0.5,0.1c0.3,0.3,0.4,0.5,0.4,0.8c0.2,0,0.4,0.1,0.5,0.1c0.3,0.3,0.4,0.5,0.4,0.8c0.2,0,0.4,0.1,0.5,0.1
		c0.3,0.3,0.4,0.5,0.4,0.8c0.2,0,0.4,0.1,0.5,0.1c0.3,0.3,0.4,0.5,0.4,0.8c0.2,0,0.4,0.1,0.5,0.1c0.3,0.3,0.4,0.5,0.4,0.8
		c0.2,0,0.4,0.1,0.5,0.1c0.3,0.3,0.4,0.5,0.4,0.8c0.2,0,0.4,0.1,0.5,0.1c0.3,0.3,0.4,0.5,0.4,0.8c0.2,0,0.4,0.1,0.5,0.1
		c0.3,0.3,0.4,0.5,0.4,0.8c0.2,0,0.4,0.1,0.5,0.1c0.3,0.3,0.4,0.5,0.4,0.8c0.2,0,0.4,0.1,0.5,0.1c0.3,0.3,0.4,0.5,0.4,0.8
		c0.2,0,0.4,0.1,0.5,0.1c0.3,0.3,0.4,0.5,0.4,0.8c0.2,0,0.4,0.1,0.5,0.1c0.3,0.3,0.4,0.5,0.4,0.8c0.2,0,0.4,0.1,0.5,0.1
		c0.3,0.3,0.4,0.5,0.4,0.8c0.2,0,0.4,0.1,0.5,0.1c0.3,0.3,0.4,0.5,0.4,0.8c0.2,0,0.4,0.1,0.5,0.1c0.3,0.3,0.4,0.5,0.4,0.8
		c0.2,0,0.4,0.1,0.5,0.1c0.3,0.3,0.4,0.5,0.4,0.8c0.2,0,0.4,0.1,0.5,0.1c0.3,0.3,0.4,0.5,0.4,0.8c0.2,0,0.4,0.1,0.5,0.1
		c0.3,0.3,0.4,0.5,0.4,0.8c0.2,0,0.4,0.1,0.5,0.1c0.3,0.3,0.4,0.5,0.4,0.8c0.2,0,0.4,0.1,0.5,0.1c0.3,0.3,0.4,0.5,0.4,0.8
		c0.2,0,0.4,0.1,0.5,0.1c0.3,0.3,0.4,0.5,0.4,0.8c0.2,0,0.4,0.1,0.5,0.1c0.3,0.3,0.4,0.5,0.4,0.8c0.2,0,0.4,0.1,0.5,0.1
		c0.3,0.3,0.4,0.5,0.4,0.8c0.2,0,0.4,0.1,0.5,0.1c0.3,0.3,0.4,0.5,0.4,0.8c0.2,0,0.4,0.1,0.5,0.1c0.3,0.3,0.4,0.5,0.4,0.8
		c0.2,0,0.4,0.1,0.5,0.1c0.3,0.3,0.4,0.5,0.4,0.8c0.2,0,0.4,0.1,0.5,0.1c0.3,0.3,0.4,0.5,0.4,0.8c0.2,0,0.4,0.1,0.5,0.1
		c0.3,0.3,0.4,0.5,0.4,0.8c0.2,0,0.4,0.1,0.5,0.1c0.3,0.3,0.4,0.5,0.4,0.8c0.2,0,0.4,0.1,0.5,0.1c0.3,0.3,0.4,0.5,0.4,0.8
		c0.2,0,0.4,0.1,0.5,0.1c0.3,0.3,0.4,0.5,0.4,0.8c0.2,0,0.4,0.1,0.5,0.1c0.3,0.3,0.4,0.5,0.4,0.8c0.2,0,0.4,0.1,0.5,0.1
		c0.3,0.3,0.4,0.5,0.4,0.8c0.2,0,0.4,0.1,0.5,0.1c0.3,0.3,0.4,0.5,0.4,0.8c0.2,0,0.4,0.1,0.5,0.1c0.3,0.3,0.4,0.5,0.4,0.8
		c0.2,0,0.4,0.1,0.5,0.1c0.3,0.3,0.4,0.5,0.4,0.8c0.2,0,0.4,0.1,0.5,0.1c0.3,0.3,0.4,0.5,0.4,0.8c0.2,0,0.4,0.1,0.5,0.1
		c0.3,0.3,0.4,0.5,0.4,0.8c0.2,0,0.4,0.1,0.5,0.1c0.3,0.3,0.4,0.5,0.4,0.8c0.2,0,0.4,0.1,0.5,0.1c0.3,0.3,0.4,0.5,0.4,0.8
		c0.2,0,0.4,0.1,0.5,0.1c0.3,0.3,0.4,0.5,0.4,0.8c0.2,0,0.4,0.1,0.5,0.1l0.1,0.1C139.2,122.9,116.7,143.6,88.6,148.7"/>
	<path fill="#FFFEE2" d="M90.6,74.5c0.2,2.1-0.2,3.5-0.9,4.6c-3.5,0.2-5,2-8.4,1c-0.1,1.2-0.7,1.9-0.4,3.6c0.5,1.7,3.7,0.5,4,1
		c-1.5,0.8-2.3,0.9-4,0.5c-1.5-2.6,0-3.8,0-7.2c-1.6-0.3-3.5-0.5-5.3-0.5v0c-0.2,0-0.4,0-0.6,0c-0.2,0-0.4,0-0.6,0v0
		c-1.8,0-3.7,0.2-5.3,0.5c0,3.4,1.5,4.6,0,7.2c-1.7,0.4-2.5,0.3-4-0.5c0.3-0.5,3.5,0.6,4-1c0.3-1.7-0.3-2.4-0.4-3.6
		c-3.4,1-5-0.8-8.4-1c-0.6-1.1-1.1-2.5-0.9-4.6c-9.8-10.1-27.9,5.9-16.8,16.9c2.7,0.3,5.3,0.8,6.2,3.1c-0.4,3.4-2.4,6.1,0,8.7
		c5.3-1.1,7,4.8,10.6,7.2c0.2,2.1-1.9,1.6-2.2,3.1c0.7,4.7,4.1,6.2,5.8,9.7c6.2,1.3,6.6-5.7,10.6-6.1c0.3,0,0.6,0,0.9,0v0.3
		c0.2-0.1,0.4-0.1,0.6-0.2c0.2,0.1,0.4,0.1,0.6,0.2V117c0.3,0,0.6-0.1,0.9,0c4,0.5,4.4,7.4,10.6,6.1c1.6-3.6,5.1-5.1,5.8-9.7
		c-0.3-1.5-2.4-1-2.2-3.1c3.6-2.4,5.4-8.2,10.6-7.2c2.4-2.6,0.4-5.3,0-8.7c1-2.3,3.5-2.8,6.2-3.1C118.5,80.4,100.4,64.4,90.6,74.5
		L90.6,74.5z M88.4,109.3c2.6,8.4-5.6,12-7.1,6.7C80.2,111.9,83.7,108.7,88.4,109.3L88.4,109.3z M61.6,109.3
		c4.7-0.6,8.2,2.6,7.1,6.7C67.2,121.2,59,117.7,61.6,109.3L61.6,109.3z M91.1,95.5c-0.8,7.9-5.7,11.1-10.6,14.3
		c-1.5-0.9-3.6-1.5-5.4-1.4c-1.9-0.1-3.9,0.6-5.4,1.4c-4.9-3.2-9.8-6.4-10.6-14.3c2.5-4.9,5.1,0.4,8.9,1c1,5.3,1.7,10.9,7.2,10.8
		c5.6,0,6.3-5.5,7.2-10.8C86,95.8,88.6,90.6,91.1,95.5L91.1,95.5z M83.5,72.4c-2.1-0.6-3.3,1.5-4.4,0.5c-0.4-2.3,1.1-2.5,0.9-4.6
		c-1.2-0.4-2.8-0.6-4.4-0.6v0c-0.2,0-0.4,0-0.6,0c-0.2,0-0.4,0-0.6,0v0c-1.7,0-3.2,0.2-4.4,0.6c-0.2,2.1,1.3,2.3,0.9,4.6
		c-1.1,1-2.3-1.1-4.4-0.5c-0.4,3.4,3.8,4.2,8,4.3v0h0.3l0.3,0l0.3,0h0.3v0C79.8,76.7,84,75.8,83.5,72.4L83.5,72.4z M82.7,66.3
		c0.3-1.1,1.1-1.5,0.9-3.1c-1.2-1.3-2.5,0.5-4,0.5c-0.3-1.9,1.1-2.8,0-4.1c-1.2,0.1-2.6,0.1-4,0v0c-0.2,0-0.4,0-0.6,0
		c-0.2,0-0.4,0-0.6,0v0c-1.4,0.1-2.7,0.1-4,0c-1.1,1.3,0.3,2.2,0,4.1c-1.4-0.1-2.7-1.8-4-0.5c-0.2,1.6,0.6,2,0.9,3.1
		c2.2-0.5,4.7-0.3,7.1,0v0.1c0.2,0,0.4,0,0.6-0.1c0.2,0,0.4,0,0.6,0.1v-0.1C78,66,80.4,65.8,82.7,66.3L82.7,66.3z M83.5,56.1
		c-1.1-1.4-1.6-0.5-3.5-0.5c-0.9-1.4-0.8-2.1-0.4-4.1c-1-0.3-2.5-0.5-4-0.6v0c-0.2,0-0.4,0-0.6,0c-0.2,0-0.4,0-0.6,0v0
		c-1.5,0.1-3,0.3-4,0.6c0.4,2,0.5,2.7-0.4,4.1c-1.9,0-2.5-0.9-3.5,0.5c1.6,2.1,5.1,2.3,8.5,2.1C78.5,58.3,81.9,58.1,83.5,56.1
		L83.5,56.1z M82.7,49.4c-0.2-1.2,0.8-1.1,0.4-2.6c-1.8-0.4-2.3,0.8-4,0.5c-0.7-1.7,0.3-1.7,0.4-3.6c-1-0.4-2.5-0.8-4-1v-0.1
		c-0.2,0-0.4,0-0.6,0.1c-0.2,0-0.4,0-0.6-0.1v0.1c-1.5,0.2-3,0.6-4,1c0.2,1.8,1.2,1.9,0.4,3.6c-1.7,0.3-2.2-0.9-4-0.5
		c-0.4,1.4,0.6,1.3,0.4,2.6c1.8,0.2,4.7,0.2,7.7,0.1C78,49.6,80.8,49.6,82.7,49.4L82.7,49.4z M83.1,39.7c-0.3-0.1-0.5-0.4-0.4-1
		c-1.2,0-2.4,0-3.5,0c-0.1-1.2,0.1-2,0.4-2.6c-1.3-0.5-2.9-0.6-4.6-0.6c-1.7,0-3.3,0.1-4.6,0.6c0.4,0.6,0.6,1.4,0.4,2.6
		c-1.2,0-2.4,0-3.5,0c0.1,0.6-0.1,0.9-0.4,1c0.1,2,2.9,2,4.9,2c0.8,0,1.7,0,2.6,0.1v0c0.2,0,0.4,0,0.6,0c0.2,0,0.4,0,0.6,0v0
		c0.9,0,1.8,0,2.6-0.1C80.2,41.7,83,41.7,83.1,39.7L83.1,39.7z M82.7,32c-0.1-1.9-3.3-0.3-4-1.5c-0.2-1.6,1-2,0-3.1
		c-0.9-0.3-2-0.5-3.1-0.6v-0.1c-0.2,0-0.4,0-0.6,0c-0.2,0-0.4,0-0.6,0v0.1c-1.1,0.1-2.2,0.3-3.1,0.6c-1,1.1,0.2,1.5,0,3.1
		c-0.7,1.2-3.9-0.4-4,1.5c1.1,2.6,4.2,2.6,7.7,2.2C78.5,34.6,81.6,34.6,82.7,32L82.7,32z"/>
</g>
</svg>
