<?xml version="1.0" encoding="utf-8"?>
<!-- Generator: Adobe Illustrator 18.1.1, SVG Export Plug-In . SVG Version: 6.00 Build 0)  -->
<!DOCTYPE svg PUBLIC "-//W3C//DTD SVG 1.1//EN" "http://www.w3.org/Graphics/SVG/1.1/DTD/svg11.dtd">
<svg version="1.1" id="Layer_1" xmlns="http://www.w3.org/2000/svg" xmlns:xlink="http://www.w3.org/1999/xlink" x="0px" y="0px"
	 viewBox="0 0 150 150" enable-background="new 0 0 150 150" xml:space="preserve">
<g>
	<g>
		<defs>
			<rect id="SVGID_1_" x="0" y="0" width="150" height="150"/>
		</defs>
		<clipPath id="SVGID_2_">
			<use xlink:href="#SVGID_1_"  overflow="visible"/>
		</clipPath>
		<path clip-path="url(#SVGID_2_)" fill="#5DBAB0" d="M150,75c0,41.4-33.6,75-75,75c-41.4,0-75-33.6-75-75C0,33.6,33.6,0,75,0
			C116.4,0,150,33.6,150,75"/>
	</g>
	<path fill="#228879" d="M87.8,148.9c-0.2-0.2-0.4-0.3-0.5-0.5l0.1,0c-0.3-0.3-0.7-0.6-1-0.9l0.1,0c-0.3-0.3-0.7-0.6-1-0.9l0.1,0
		c-0.3-0.3-0.7-0.6-1-0.9l0.1,0c-0.3-0.3-0.7-0.6-1-0.9l0.1,0c-0.3-0.3-0.7-0.6-1-0.9l0.1,0c-0.3-0.3-0.7-0.6-1-0.9l0.1,0
		c-0.3-0.3-0.7-0.6-1-0.9l0.1,0c-0.3-0.3-0.7-0.6-1-0.9l0.1,0c-0.3-0.3-0.7-0.6-1-0.9l0.1,0c-0.3-0.3-0.7-0.6-1-0.9l0.1,0
		c-0.3-0.3-0.7-0.6-1-0.9l0.1,0c-0.3-0.3-0.7-0.6-1-0.9l0.1,0c-0.3-0.3-0.7-0.6-1-0.9l0.1,0c-0.3-0.3-0.7-0.6-1-0.9l0.1,0
		c-0.3-0.3-0.7-0.6-1-0.9l0.1,0c-0.3-0.3-0.7-0.6-1-0.9l0.1,0c-0.3-0.3-0.7-0.6-1-0.9l0.1,0c-0.3-0.3-0.7-0.6-1-0.9l0.1,0
		c-0.3-0.3-0.7-0.6-1-0.9l0.1,0c-0.3-0.3-0.7-0.6-1-0.9l0.1,0c-0.3-0.3-0.7-0.6-1-0.9l0.1,0c-0.3-0.3-0.7-0.6-1-0.9l0.1,0
		c-0.3-0.3-0.7-0.6-1-0.9l0.1,0c-0.3-0.3-0.7-0.6-1-0.9l0.1,0c-0.3-0.3-0.7-0.6-1-0.9l0.1,0c-0.3-0.3-0.7-0.6-1-0.9l0.1,0
		c-0.3-0.3-0.7-0.6-1-0.9l0.1,0c-0.3-0.3-0.7-0.6-1-0.9l0.1,0c-0.3-0.3-0.7-0.6-1-0.9l0.1,0c-0.3-0.3-0.7-0.6-1-0.9l0.1,0
		c-0.3-0.3-0.7-0.6-1-0.9l0.1,0c-0.3-0.3-0.7-0.6-1-0.9l0.1,0c-0.3-0.3-0.7-0.6-1-0.9l0.1,0c-0.3-0.3-0.7-0.6-1-0.9l0.1,0
		c-0.3-0.3-0.7-0.6-1-0.9l0.1,0c-0.3-0.3-0.7-0.6-1-0.9l0.1,0c-0.3-0.3-0.7-0.6-1-0.9l0.1,0c-0.3-0.3-0.7-0.6-1-0.9l0.1,0
		c-0.3-0.3-0.7-0.6-1-0.9l0.1,0c-0.3-0.3-0.7-0.6-1-0.9l0.1,0c-0.3-0.3-0.7-0.6-1-0.9l0.1,0c-0.3-0.3-0.7-0.6-1-0.9l0.1,0
		c0.2,0,0.4,0.1,0.5,0.1l1,0.4l0.4,0l-0.1-0.1c-0.3-0.3-0.6-0.6-0.9-0.9c-0.3-0.3-0.6-0.6-0.9-0.9c-0.3-0.3-0.6-0.6-0.9-0.9
		c-0.3-0.3-0.6-0.6-0.9-0.9c-0.3-0.3-0.6-0.6-0.9-0.9c-0.4-0.4-0.8-0.7-1.1-1.1c-2.1-4.2-3.4-8.8-4.1-13.7c1.4,1.1,2.9,1.8,4.3,2.8
		c1.5,1.2,2.9,2.7,4.7,3.5c-0.2-0.2-0.3-0.4-0.5-0.5c-0.4-0.3-0.6-0.6-0.9-0.9c-0.4-0.3-0.6-0.6-0.9-0.9c-0.4-0.3-0.6-0.6-0.9-0.9
		c-0.4-0.3-0.7-0.6-0.9-0.9c-0.4-0.3-0.6-0.6-0.9-0.9c-0.4-0.3-0.6-0.6-0.9-0.9c-0.4-0.3-0.6-0.6-0.9-0.9c-0.4-0.3-0.6-0.6-0.9-0.9
		c-2.3-1.7-1.9-4.8-2.1-7.1c0.7,0.2,1.6,0.4,2.4,0.6c-0.1,0.2-0.2,0.4-0.3,0.6c0.4,0.1,0.8,0.2,1.2,0.3c-0.1,0.2-0.2,0.4-0.3,0.6
		c0.3,0.1,0.6,0.1,0.8,0.2c0.1-0.2,0.2-0.5,0.3-0.7c-0.2-0.1-0.3-0.1-0.5-0.2c0-0.2,0-0.3,0-0.5c-0.3-0.1-0.6-0.2-0.9-0.4
		c0-0.2,0-0.3,0-0.5c-0.3-0.1-0.6-0.2-0.9-0.4c0-0.2,0-0.3,0-0.5c-0.3-0.1-0.6-0.2-0.9-0.4c0-0.2,0-0.3,0-0.5
		c-0.3-0.1-0.6-0.2-0.9-0.4c0-2,0.1-4.4,0.3-6.5c0.8,0.9,1.7,1.4,2.7,1.9c0.8,0.1,1.6,0.2,2.4,0.3L46.6,77c-0.3-0.3-0.6-0.6-0.9-0.9
		c-0.3-0.3-0.6-0.6-0.9-0.9c-0.3-0.3-0.6-0.6-0.9-0.9c-0.6-0.5-1.2-1.1-1.5-1.9l-0.2-0.6l0.5-3.1c1.3,0.9,2.8,1.4,4.4,1.6l-0.2-0.2
		c-0.3-0.2-0.6-0.6-0.9-0.9c-0.3-0.2-0.6-0.6-0.9-0.9c-0.3-0.2-0.6-0.6-0.9-0.9c-0.4-0.3-0.8-0.7-1-1.1c0.3-1.1,0.5-2.2,0.9-3.3
		l0.1,0c0.5,0,0.9,0.2,1.2,0.5L45.1,64c0.4,0,0.8,0.2,1,0.5L46,64.9c0.3,0,0.6,0.1,0.8,0.3c0.1-0.3,0.3-0.7,0.6-0.9
		c0.2-0.1,0.4-0.2,0.6-0.2c-0.2-0.1-0.5-0.2-0.8-0.2c0.1-0.2,0.1-0.4,0.2-0.6c-0.3-0.2-0.7-0.3-1.1-0.3c0.1-0.2,0.1-0.4,0.2-0.6
		c-0.3-0.2-0.7-0.3-1.1-0.3c0.1-0.2,0.1-0.4,0.2-0.6c-0.3-0.2-0.7-0.3-1.1-0.3c0.4-1.6,1.1-3,1.6-4.5c0.2,0,0.4-0.1,0.6-0.1
		c0.1,0,0.2,0,0.3,0.1c0.4,0.2,0.7,0.6,0.9,0.9c0.3,0.2,0.6,0.5,0.9,0.9c0.3,0.2,0.6,0.5,0.9,0.9c0.3,0.2,0.6,0.5,0.9,0.9
		c0.3,0.2,0.6,0.5,0.9,0.9c0.3,0.2,0.6,0.5,0.9,0.9l0.2,0.2c0.1-0.4,0-0.7-0.4-1c-1-1-1.8-2.3-1.9-3.7c-0.2-0.1-0.4-0.2-0.6-0.2
		c0-0.2,0.1-0.3,0.2-0.5c-0.3-0.2-0.7-0.4-1.1-0.4c0-0.2,0.1-0.3,0.2-0.5c-0.3-0.2-0.7-0.4-1.1-0.4c0-0.2,0.1-0.3,0.2-0.5
		c-0.3-0.2-0.7-0.4-1.1-0.4c0.3-1,1-2,1.4-3c0.9-1.5,1.7-2.9,2.7-4.3l0,2.2c0.3-0.4,0.5-0.9,0.8-1.3l0,2.2c0.3-0.4,0.5-0.9,0.8-1.3
		l0,2.2c0.3-0.4,0.5-0.9,0.8-1.3l0,1.1c0.4-0.1,0.8-0.2,1-0.5c0-0.2,0-0.4,0-0.7c-0.3,0.1-0.6,0.2-0.9,0.3c0-0.4,0-0.8,0-1.1
		c-0.3,0.1-0.6,0.2-0.9,0.3c-0.1-2.1-0.1-4.1,1.4-5.5c1-0.8,2.2-1,3.4-1.3c0.7-0.3,1.3-0.8,1.3-1.5l-0.3,0c-0.5,0.1-0.7,0.8-1.2,0.8
		l-0.2,0c0.4-0.5,0.9-1,1.4-1.4c-0.2-0.1-0.5-0.2-0.7-0.2l-0.1,0c-0.5,0.1-0.7,0.8-1.2,0.8l-0.2,0c0.9-1,1.9-1.9,2.8-2.7
		c0.4,0.3,0.6,0.7,0.7,1.1l0.2-0.2c0.4,0.3,0.6,0.7,0.7,1.1l0.2-0.2c0.4,0.3,0.6,0.7,0.7,1.1l0.2-0.2c0.4,0.3,0.6,0.7,0.7,1.1
		l0.2-0.2l0.3,0.4c0.2-0.2,0.5-0.4,0.7-0.5c0.3-0.2,0.7-0.4,1-0.6c-0.1-0.2-0.2-0.5-0.2-0.7l-0.4,0.2c-0.2-0.3-0.4-0.7-0.4-1.1
		l-0.4,0.2c-0.8-1.1-0.6-2.6,0-3.7c0.7-1.6,2.6-1.7,4.1-2.1c0.2,0,0.4,0,0.6,0c1.8,0,3.4,0.7,4.5,2.1c0.3,0.3,0.6,0.6,0.9,0.9
		c0.3,0.3,0.6,0.6,0.9,0.9c0.3,0.3,0.6,0.6,0.9,0.9c0.3,0.3,0.6,0.5,0.9,0.9l0.4,0.3c0-1.4-0.5-3,0.7-4c1.1-1.3,2.6-2,4.3-2
		c0.3,0,0.6,0,0.9,0.1c1.1,0.2,2.2,0.6,3.2,1.1c0.2,0.2,0.4,0.5,0.5,0.7l0.4,0.2c0.2,0.2,0.4,0.5,0.5,0.7l0.4,0.2
		c0.2,0.2,0.4,0.5,0.5,0.7l0.4,0.2c0.2,0.2,0.4,0.5,0.5,0.7l0.4,0.2c0.2,0.2,0.4,0.5,0.5,0.7l0.1,0c0.1-0.4,0.1-0.8,0.6-1.1
		c1,0.9,2.1,1.8,3,2.7l0,0c0.3,0.3,0.6,0.6,0.9,0.9l0,0c0.3,0.3,0.6,0.6,0.9,0.9l0,0c0.3,0.3,0.6,0.6,0.9,0.9l0,0
		c0.3,0.3,0.6,0.6,0.9,0.9l0,0c0.3,0.3,0.6,0.6,0.9,0.9l0,0c0.3,0.3,0.6,0.6,0.9,0.9l0,0c0.3,0.3,0.6,0.6,0.9,0.9l0,0
		c0.3,0.3,0.6,0.6,0.9,0.9l0,0c0.3,0.3,0.6,0.6,0.9,0.9l0,0c0.3,0.3,0.6,0.6,0.9,0.9l0,0c0.3,0.3,0.6,0.6,0.9,0.9l0,0
		c0.3,0.3,0.6,0.6,0.9,0.9l0,0c0.3,0.3,0.6,0.6,0.9,0.9l0,0c0.3,0.3,0.6,0.6,0.9,0.9l0,0c0.3,0.3,0.6,0.6,0.9,0.9l0,0
		c0.3,0.3,0.6,0.6,0.9,0.9l0,0c0.3,0.3,0.6,0.6,0.9,0.9l0,0c0.3,0.3,0.6,0.6,0.9,0.9l0,0c0.3,0.3,0.6,0.6,0.9,0.9l0,0
		c0.3,0.3,0.6,0.6,0.9,0.9l0,0c0.3,0.3,0.6,0.6,0.9,0.9l0,0c0.3,0.3,0.6,0.6,0.9,0.9l0,0c0.3,0.3,0.6,0.6,0.9,0.9l0,0
		c0.3,0.3,0.6,0.6,0.9,0.9l0,0c0.3,0.3,0.6,0.6,0.9,0.9l0,0c0.3,0.3,0.6,0.6,0.9,0.9l0,0c0.3,0.3,0.6,0.6,0.9,0.9l0,0
		c0.3,0.3,0.6,0.6,0.9,0.9l0,0c0.3,0.3,0.6,0.6,0.9,0.9l0,0c0.3,0.3,0.6,0.6,0.9,0.9l0,0c0.3,0.3,0.6,0.6,0.9,0.9l0,0
		c0.3,0.3,0.6,0.6,0.9,0.9l0,0c0.3,0.3,0.6,0.6,0.9,0.9l0,0c0.3,0.3,0.6,0.6,0.9,0.9l0,0c0.3,0.3,0.6,0.6,0.9,0.9l0,0
		c0.3,0.3,0.6,0.6,0.9,0.9l0,0c0.3,0.3,0.6,0.6,0.9,0.9l0,0c0.3,0.3,0.6,0.6,0.9,0.9l0,0c0.3,0.3,0.6,0.6,0.9,0.9l0,0
		c0.3,0.3,0.6,0.6,0.9,0.9l0,0c0.3,0.3,0.6,0.6,0.9,0.9l0,0c0.3,0.3,0.6,0.6,0.9,0.9l0,0c0.3,0.3,0.6,0.6,0.9,0.9l0,0
		c0.3,0.3,0.6,0.6,0.9,0.9l0,0c0.3,0.3,0.6,0.6,0.9,0.9l0,0c0.3,0.3,0.6,0.6,0.9,0.9l0,0c0.3,0.3,0.6,0.6,0.9,0.9l0,0
		c0.3,0.3,0.6,0.6,0.9,0.9l0,0c0.3,0.3,0.6,0.6,0.9,0.9l0,0c0.3,0.3,0.6,0.6,0.9,0.9l0,0c0.3,0.3,0.6,0.6,0.9,0.9l0,0
		c0.3,0.3,0.6,0.6,0.9,0.9l0,0c0.3,0.3,0.6,0.6,0.9,0.9l0,0c0.3,0.3,0.6,0.6,0.9,0.9l0,0c0.3,0.3,0.6,0.6,0.9,0.9l0,0
		c0.3,0.3,0.6,0.6,0.9,0.9l0,0c0.3,0.3,0.6,0.6,0.9,0.9l0,0c0.3,0.3,0.6,0.6,0.9,0.9l0,0c0.3,0.3,0.6,0.6,0.9,0.9l0,0
		c0.3,0.3,0.6,0.6,0.9,0.9l0,0c0.3,0.3,0.6,0.6,0.9,0.9C139.7,122.6,116.5,144,87.8,148.9 M55.3,47.1l-0.2,0.1
		c-0.1,0.2-0.1,0.4-0.1,0.6l0,0C55.2,47.6,55.2,47.4,55.3,47.1 M54.4,46.2l-0.2,0.1c-0.1,0.2-0.1,0.4-0.1,0.7
		C54.2,46.8,54.3,46.5,54.4,46.2 M61,42.8c-0.1,0.3-0.2,0.6-0.3,0.8C60.9,43.4,61,43.1,61,42.8L61,42.8 M60.1,41.9
		c-0.1,0.3-0.2,0.6-0.3,0.8C60,42.5,60.1,42.2,60.1,41.9L60.1,41.9 M78.3,40.4c-0.2,0.1-0.4,0.3-0.5,0.4l0.2,0.3l0.2,0.2l0.1-0.1
		C78.3,40.9,78.3,40.7,78.3,40.4 M77.4,39.5c-0.2,0.1-0.4,0.3-0.5,0.4l0.2,0.3l0.3,0.3C77.4,40.2,77.4,39.9,77.4,39.5"/>
	<path fill="#FFFEE2" d="M77.7,80.7c-0.4,0.7-0.9,1.4-1,2.3c0,2.3-0.4,4.7,1.7,6.2c1.1,0.7,2.9,0.4,4.2,0.4c2.1-0.1,3.7-1.5,5.2-2.9
		c3.3-2.3,5.9-6.6,10.4-5.9c3.4,0.8,7.1,2.7,10.4,0.7c0-2.4-0.2-4.1-0.3-6.5c-0.9,0.7-1.7,1.3-2.6,1.8c-3,0.7-6.6,0.5-9.3-0.8
		c-2.2-0.4-4.1,0.6-5.7,2.1c-1.8,1.1-2.8,3.5-4.9,4c-0.5,0.5-0.9,1.3-1.7,1.2c-0.5-0.5-0.9,0.3-1.6,0.1c-0.3-0.1-0.5-0.3-0.6-0.6
		c0-0.4-0.1-0.7,0.3-1c0.7-0.5,1.6-0.8,2.4-1.2c0.9-0.7,2.3-0.9,2.6-2.2c0.3-1.4,0.1-2.9-0.9-3.8c-1.2-0.9-2.8-2-4.4-1.2
		c-0.8,0.3-1.4,0.8-2.3,0.7c-0.4-0.2-0.6-0.6-0.6-0.9c0.1-0.3,0.1-0.6,0.5-0.8c1.3-0.5,2.6-1.1,4-1.1c0.9,0,1.8,0.5,2.7,0.7
		c0.6,0.2,1-0.2,1.4-0.6c1.5-1.8,1.5-4.5,1.2-6.8c-0.5-1.7-2-3.3-3.7-3.7c-0.4-0.2-0.5-0.7-0.5-1c0-0.3,0.3-0.6,0.6-0.8
		c0.9-0.1,1.8,0.3,2.5,0.8c1.3-1.5,1.4-4,0.7-5.7c-0.5-1.4-1.9-2.4-3.1-3.1c-0.8-0.5-1.8-0.4-2.6-0.8c-0.3-0.3-0.4-0.7-0.3-1
		c0.1-0.2,0.3-0.5,0.6-0.6c1.7-0.1,3.3,0.5,4.6,1.6c0.4,0.1,0.6-0.3,0.8-0.5c0.8-1.4,1-3.3,0.5-4.9c-0.8-2.1-2.7-3.5-4.6-4.3
		c-0.6-0.1-1.2,0-1.6-0.4c-0.2-0.2-0.2-0.6-0.2-0.9c0.1-0.3,0.4-0.5,0.7-0.7c1.3-0.2,2.4,0.3,3.4,0.9c0.2-0.2,0.4-0.4,0.4-0.7
		c0.3-1.5-0.1-2.9-1.1-4c-1-0.5-2.1-0.9-3.2-1.1c-2-0.3-3.8,0.4-5.2,1.9c-1.3,1.1-0.5,3.1-0.7,4.6c0.9-0.9,2-1.6,3.4-1.5
		c0.4,0.2,0.7,0.5,0.7,1c-0.1,0.3-0.2,0.5-0.5,0.8c-1.7,0.2-2.9,1.5-3.4,3.4l-0.1,8.5l0.3,0.6c1.1-0.8,2.2-1.7,3.7-1.3
		c0.3,0.1,0.4,0.3,0.5,0.5c0.4,1.9-1.9,1-2.6,1.9c-0.6,0.8-1.6,1.1-1.9,2.1v6.6c0.2,0.4,0.4,0.8,0.7,1.1c0.8-0.5,1.8-0.7,2.7-0.9
		c2.2-0.3,4.2,0.6,5.3,2.4c0.1,0.4,0,0.7-0.2,1c-0.2,0.4-0.7,0.3-1.1,0.2c-0.3-0.2-0.6-0.6-0.8-0.9c-1-1-2.6-0.9-3.9-0.6
		c-1.3,0.3-2.2,1.7-2.6,2.9V77l0.1,0.1c1.1,0.8,2.7,0.2,4,0.2c0.2,0.1,0.4,0.3,0.5,0.6c0.1,0.3,0,0.7-0.3,1
		C79.8,79.3,78.7,79.8,77.7,80.7L77.7,80.7z M70.6,79.5c-0.5-0.4-1.3-0.3-1.7-0.8c-0.1-0.3-0.3-0.6-0.1-0.9c0.1-0.4,0.6-0.6,1-0.6
		c1.1,0.3,2.6,0.5,3.6-0.2v-9.1c-0.3-1-0.7-1.7-1.5-2.3c-1.2-0.7-2.8-1-4.2-0.5c-1,0.2-1.1,1.7-2.3,1.5c-0.2-0.1-0.5-0.3-0.6-0.6
		c-0.2-0.4,0.1-0.9,0.4-1.2c1.5-1.9,4-2.3,6.3-1.6c0.4,0.2,0.9,0.4,1.4,0.6l0.6-1v-6.5c-0.3-1.2-1.6-1.7-2.3-2.5
		c-0.4-0.4-1.1-0.3-1.7-0.4c-0.4-0.1-0.5-0.5-0.5-0.9c0-0.4,0.4-0.7,0.6-0.9c1.6-0.4,2.5,0.6,3.6,1.3c0.2-0.2,0.2-0.4,0.3-0.6
		L73.3,44c-0.3-1-0.7-1.7-1.4-2.5c-0.6-1.1-1.9-0.6-2.5-1.5c-0.1-0.5,0-1,0.4-1.3c1.4-0.2,2.5,0.6,3.5,1.5l0-3.6
		c-1.1-2.1-3.2-3.2-5.6-3c-1.5,0.4-3.4,0.5-4.1,2.1c-0.6,1.1-0.8,2.6,0,3.7c0.4-0.2,0.7-0.4,1.1-0.5c0.9-0.3,2-0.7,2.9,0
		c0.2,0.3,0.2,0.6,0.1,0.9c-0.1,0.3-0.4,0.4-0.6,0.5c-1.2,0-2.1,0.4-3,1c-1.9,1.2-3.2,3.3-3.1,5.4c0.2,1.2,0.3,2.5,1.3,3.3
		c0.7,0.1,1.1-0.7,1.7-0.9c1-0.4,2.2-0.9,3.3-0.6c0.4,0.2,0.5,0.7,0.5,1.1c-0.1,0.2-0.3,0.5-0.5,0.6c-1.8,0.1-3.2,1.2-4.5,2.2
		c-1.3,1.6-1.9,4.1-0.9,6.1c0.3,0.4,0.4,0.9,0.8,1.1c0.7-0.5,1.6-0.9,2.4-0.7c0.4,0.2,0.6,0.6,0.6,1c0,0.3-0.3,0.5-0.5,0.7
		c-1.8,0.4-3.6,2.4-3.8,4.3c-0.2,2.1,0,4.8,1.6,6.5c0.4,0.4,1,0.4,1.4,0.3c1.1-0.6,2.3-0.8,3.5-0.6c1.1,0.5,2.5,0.5,3.3,1.4
		c0.1,0.4,0.1,0.9-0.3,1.2c-0.3,0.1-0.6,0.3-0.9,0.1c-1.2-0.4-2.4-1.1-3.8-0.8c-1.6,0.5-3,1.7-3.3,3.4c-0.1,1.2,0.2,2.3,1.1,3.1
		c1.2,0.6,2.5,1.3,3.7,1.9c0.3,0.2,0.7,0.5,0.7,1c-0.1,0.3-0.2,0.6-0.5,0.8c-0.6,0.5-1.1-0.4-1.6,0c-0.3,0.1-0.7,0-0.9-0.2
		c-0.6-1.2-2-1.2-2.9-2.1c-1.4-1.9-3.3-3.3-5.2-4.4c-1.4-0.7-3.4-0.7-4.8,0c-2.4,1.1-5.2,0.8-7.8,0.4c-1-0.4-1.8-0.9-2.7-1.9
		c-0.3,2.1-0.3,4.5-0.3,6.5c3.1,1.8,6.9,0.3,9.9-0.6c2.3-0.6,4.5,0.3,6.1,1.8c3.7,2.3,6.3,7.2,10.9,7l0.7,0c1.2-0.2,2.5,0.2,3.2-1.3
		c1.6-1.3,0.9-3.4,1.1-5C73.1,81.8,72.2,80.2,70.6,79.5L70.6,79.5z M94.6,47.8c-1.3-0.3-2.4,0.4-3.4,1c-1.3,0.7-1.5,2.3-1.7,3.6
		c0.6,1.1,1,2.2,1,3.4c0.3,0.6,0.8,1.1,1.2,1.5c0.3-0.1,0.4-0.5,0.7-0.7c1-1,1.9-2.5,3.2-3c0.4,0.1,0.7,0.2,0.9,0.6
		c0.1,0.3,0.1,0.6,0,0.8c-3,2.8-5.3,6-5.6,9.9c0.1,1.7,0.9,3.2,2.5,3.9c0.5,0.1,1,0.4,1.5,0.1c2.3-0.1,4.5-0.4,6.8-0.6
		c0.2-0.4,0.6-0.3,1-0.3c0.7-1,0.7-2.6,0.2-3.8c-0.8-0.8-2.1-0.7-3.3-0.6c-0.7-0.1-1.6,0.4-2.1-0.3c-0.2-0.3-0.2-0.6-0.1-0.9
		c-0.8-1.1,0.8-1.6,1.2-2.5c1.9-2.2,0.6-5.5-0.5-7.7c-0.7-1.5-2.5-1.1-3.4-2.2c-0.1-0.3-0.1-0.7,0.1-0.9c0.5-0.8,1.3-0.2,1.9-0.2
		c0.1-1.9,0.1-3.9-1.3-5.3c-1.3-1.5-3.9-0.5-4.7-2.5c-0.1-0.3,0-0.7,0.2-1c0.9-1,1.5,0.6,2.4,0.5c-0.9-1-2-1.8-3-2.7
		c-0.6,0.3-0.5,1-0.7,1.5c-0.3,2.3,0.6,4.7,2.6,5.8c1.1,0.7,2.2,0,3.3,0.8c0.2,0.3,0.2,0.6,0.1,0.9C95.5,47.6,95,47.7,94.6,47.8
		L94.6,47.8z M53.7,51.1c-2.3,0.7-2.8,3.3-3.3,5.3c-0.4,1.9,0.5,3.5,1.8,4.8c0.8,0.4,0.2,1.3,0.3,1.9c0,0.4-0.3,0.7-0.6,0.8
		c-1.5,0-3.3-0.4-4.5,0.3c-1.1,0.8-0.7,2.4-0.5,3.5c0,1,1,0.2,1.4,0.8c1.7,0.1,3.3,0.3,4.9,0.4c1.4,0.1,2.7,0.4,3.9-0.3
		c1.4-0.9,2-2.3,1.9-3.9c-0.4-3.9-2.8-6.9-5.6-9.7l0-0.5c0-0.3,0.3-0.6,0.5-0.8c0.3-0.1,0.7-0.1,1,0.1c1.2,1.1,2.4,2.2,3.2,3.5
		c0.5-0.2,0.9-0.9,1.2-1.4c0.1-1.2,0.5-2.3,1-3.3c0.1-0.8-0.1-1.5-0.3-2.2c-0.3-1.7-2.2-2.1-3.5-2.7c-0.8-0.3-1.7,0.4-2.2-0.4
		c-0.2-0.3-0.2-0.8,0-1.1c0.3-0.4,0.8-0.4,1.2-0.5c1.4,0.1,2.6-0.6,3.5-1.6c0.7-1.2,1.4-2.6,1.2-4c-0.1-0.7,0-1.5-0.8-2.2
		c-1,0.8-1.9,1.7-2.8,2.7c0.7,0.2,0.8-0.7,1.4-0.8c0.3,0,0.7,0.1,0.9,0.2c0.2,0.2,0.2,0.4,0.3,0.7c0,0.7-0.6,1.2-1.3,1.5
		c-1.2,0.2-2.4,0.5-3.4,1.3c-1.5,1.4-1.5,3.4-1.4,5.5c0.5-0.2,1.3-0.6,1.8,0c0.3,0.3,0.3,0.7,0.2,1C54.8,50.8,54.2,51,53.7,51.1
		L53.7,51.1z M101.2,55.3c0.5-0.4,1-0.7,1.6-0.7c-1.2-2.5-2.6-5.1-4.3-7.4l0,2.9C100.3,51.3,100.7,53.4,101.2,55.3L101.2,55.3z
		 M51.2,50.2l-0.1-2.9c-1,1.4-1.8,2.9-2.7,4.3c-0.4,1-1.1,2-1.4,3c0.6,0.1,1.1,0.4,1.6,0.7C49.1,53.5,49.6,51.5,51.2,50.2L51.2,50.2
		z M101.4,58.1c-0.3,1.3-0.9,2.5-1.7,3.6c1.1,0,2.3,0,3.3,0.5c0.6-0.6,1.5-1.1,2.3-1.2c-0.5-1.5-1.1-3-1.6-4.5
		C102.6,56.1,102,57.3,101.4,58.1L101.4,58.1z M47,62.3c1-0.4,2.1-0.5,3.2-0.5c-0.8-1.1-1.5-2.3-1.7-3.6c-0.4-0.6-0.8-1.3-1.4-1.6
		c-0.3-0.2-0.6,0-0.9,0c-0.5,1.5-1.2,3-1.6,4.5c0.5,0,1,0.2,1.4,0.5C46.3,61.8,46.6,62.2,47,62.3L47,62.3z M90.6,59.2V59
		c-0.1-0.2-0.3-0.2-0.4-0.3c-0.4,0.9-0.7,1.7-1.3,2.5l0.5,0.7C89.8,61,90.1,60,90.6,59.2L90.6,59.2z M59.2,59.2
		c0.4,0.9,1,1.8,1.2,2.8c0.2-0.1,0.4-0.4,0.6-0.7c-0.7-0.7-0.9-1.7-1.4-2.4L59.2,59.2L59.2,59.2z M105,67.7c0.7-0.4,1.4-0.9,1.7-1.6
		l-0.8-3.2c-0.1,0-0.3-0.1-0.4,0.1c-0.4,0-0.6,0.2-0.8,0.4C105.3,64.6,105.3,66.3,105,67.7L105,67.7z M44.9,67.8
		c-0.4-1.6-0.3-2.7,0.3-4.2c-0.3-0.3-0.8-0.5-1.2-0.5c-0.4,1.1-0.6,2.2-0.9,3.3C43.6,67,44.3,67.7,44.9,67.8L44.9,67.8z M90.5,69.2
		c-0.3,1.6-1,3.1-2.2,4.2c-0.2,0.5,0.1,0.9,0.4,1.2c0.7,0.7,2,0.6,2.8,0.5c1.5-0.9,3.4-1.3,5.2-0.9c2.4,1.1,5.4,1.4,8.2,0.8
		c1.3-0.7,2.5-1.9,2.9-3.3c-0.2-1.1-0.3-2.2-0.6-3.2c-3.1,2.3-7.9,1.7-11.5,2.3C93.8,71.2,91.8,70.6,90.5,69.2L90.5,69.2z
		 M44.9,75.1c2.3,0.6,5.1,0.5,7.2-0.5c2.1-0.9,4.5-0.5,6.6,0.6c0.9,0,2,0.1,2.7-0.7c0.2-0.3,0.4-0.7,0.3-1.1
		c-1.2-1.2-1.9-2.7-2.3-4.3c-0.5,0.5-1.1,1-1.7,1.3c-1.2,0.5-2.6,0.7-3.9,0.4c-3.8-0.4-8.1,0-11.2-2.2l-0.5,3.1l0.2,0.6
		C42.8,73.6,43.9,74.4,44.9,75.1L44.9,75.1z M106.9,86.6c0,0.3-0.4,0.6-0.6,0.7c-0.4,0.1-0.9,0-1.1-0.3c-0.3-1-0.6-2.3-1.8-2.7
		c-1.8-0.4-3.5-1-5.3-1.5c1.1,1.7,1.5,3.8,0.8,5.8c-0.5,1.1-0.6,2.3-1.4,3.2c-0.3,0.2-0.6,0.1-0.9,0.1c-0.3-0.2-0.6-0.5-0.5-0.9
		c0.5-1.8,1.6-3.7,1.1-5.6c-0.3-0.9-0.7-2.1-1.8-2.3c-2.8,1.9-5.2,4.2-8,6.5c0.5-0.1,1-0.1,1.5,0.1c1.5,0.5,2.8,2,3.3,3.4
		c0.9,1.5-0.3,3.9,1.4,4.9c2.2,0.2,3.9-0.8,5.6-1.8c2.1-1.8,4.1-3.5,6.5-4.8c2.9-1.6,2.8-4.8,2.8-7.7c-0.7,0.3-1.5,0.5-2.3,0.6
		C106.5,84.9,106.9,85.7,106.9,86.6L106.9,86.6z M41.5,83.9c0.2,2.5-0.2,5.7,2.4,7.3c2.2,1.4,4.6,2.7,6.4,4.6
		c1.9,1.1,3.6,2.5,6.2,2.3c0.4-0.1,0.7-0.5,1-0.9c0.1-1.9,0.1-3.8,1.1-5.2c0.9-1.4,2.5-2.7,4.2-2.4c-2.1-1.7-4.2-3.6-6.3-5.3
		c-0.7-0.4-1.2-1.1-2-1.1c-1.3,0.9-1.6,2.1-1.7,3.5c0,1.7,1,2.9,1.3,4.5c-0.1,0.3-0.3,0.5-0.6,0.7c-0.3,0.1-0.8,0.1-1-0.2
		c-0.6-1.3-1.2-2.6-1.5-4c-0.3-1.8,0.2-3.4,1-4.9c-1.7,0.5-3.3,1.1-5,1.4l-0.6,0.3c-1.2,0.6-0.9,2.2-1.9,2.9c-0.4,0.1-0.9,0-1.2-0.4
		c-0.3-0.9,0.2-1.8,0.6-2.6C43.1,84.2,42.2,84.1,41.5,83.9L41.5,83.9z M77.9,91.1c-0.5,0.1-0.9,0.6-1.3,1l0.1,7.8
		c0.5,0.5,1.2,0.4,1.9,0.6c0.7,0.1,1.3,0.1,2,0.2c2.4-0.1,4.6-0.9,6.6-1.9c1.4-0.7,3.1-2.2,3.3-3.9c0.2-1.6-0.9-2.9-2.2-3.6
		c-0.4-0.3-0.6,0.3-1,0.4c-0.4,0.1-0.7,0-1-0.2c-0.4-0.3-0.2-0.9-0.1-1.2C83.9,91.7,80.6,91.8,77.9,91.1L77.9,91.1z M72,91.1
		c-2.7,0.7-5.8,0.6-8.2-0.7l0.1,0.2c0,0.3,0.2,0.7-0.2,0.9c-0.2,0.3-0.6,0.3-0.9,0.3c-0.4,0-0.4-0.5-0.8-0.5c-1,0.4-1.9,1.3-2.3,2.3
		c-0.2,1.1-0.2,2.4,0.8,3.2c2.1,2.6,5.2,3.3,8.3,3.8c1.6,0,3.3,0,4.6-0.7v-7.7C73.1,91.7,72.6,91.2,72,91.1L72,91.1z M93.8,99.9
		c-1.2,0.1-2.2-0.8-2.7-1.8c-2.2,2.8-5.6,3.7-8.8,4.3c-1.8,0.4-3.9,0.1-5.6-0.2v3.4c0.3,0.9,1.1,1.6,2,1.9c3.1,0.3,5.8,2.2,9.2,1.2
		c2.2-0.2,3.2-2.7,4.9-3.8c0.4-0.2,0.7-0.1,1,0.1c0.2,0.2,0.4,0.4,0.4,0.7c2.5-0.7,4.6-2.3,6.5-4.1c0.8-0.7,1.1-1.8,1.9-2.4
		c0.4-0.1,0.8,0,1.1,0.3c0.2,0.3,0.2,0.7,0.1,1c-1.3,2.5-4,4.5-6.4,6c-1.6,0.6-3.1,1.5-5,1.4c-2,2.9-5.6,3.1-8.7,2.7
		c-2.3-0.8-4.8-0.8-6.9-2v5.7l0.2,0.2c0.6,0.1,1.2-0.2,1.8-0.3c2.9-0.7,6,0.2,9-0.2c3.2-0.5,5.5-3.2,8.5-4c2.9-0.3,5.5-1.8,7.6-4
		c1.9-3.6,3.1-7.5,3.8-11.5c0.1-0.8,0.3-1.6,0.3-2.4c-2.3,1.7-4.8,3.1-6.9,5.2C98.7,98.7,96.6,100,93.8,99.9L93.8,99.9z M46.8,99.4
		c0.3-0.1,0.7-0.1,1,0.1c2,2.9,5,5.4,8.2,6.3c0-0.3,0.1-0.5,0.3-0.7c0.2-0.2,0.5-0.3,0.9-0.2c1.1,0.6,1.7,1.6,2.6,2.5
		c2,1.9,4.7,1.7,7,1.2c2.1-1.1,5.3-0.4,6.6-2.8l0.1-3.7c-1.6,0.3-3.3,0.6-5,0.5c-3.5-0.6-6.9-1.4-9.4-4.4l-0.8,1
		c-1.8,1.4-4.5,0.6-6.3-0.2c-2-0.8-3.7-2.5-5.4-3.9c-1.4-1-2.9-1.7-4.3-2.8c0.7,4.9,2,9.5,4.1,13.7c2.1,2.5,4.9,4,8.1,4.3
		c2.1,0.7,3.7,2.2,5.7,3.1c3.6,1.8,8.3-0.3,12,1.1c0.4,0,1,0.3,1.2-0.1v-5.7c-2.4,1.1-5.1,1.4-7.6,2.1c-2.9,0.2-6.1,0.1-8-2.7
		c-4.3-0.3-7.8-2.8-10.6-6c-0.3-0.6-1-1.1-0.9-2C46.4,99.7,46.6,99.5,46.8,99.4L46.8,99.4z M96.2,112c-1.6,0.6-3.1,1.9-4.7,2.7
		c-2.6,1.6-6,1.5-8.9,1.3c4.2,0.7,8.6,0.3,12.3-1.3c1.9-0.9,3.7-2.1,5.2-3.7c-0.4-0.1-0.6,0.3-0.9,0.2
		C98.3,111.6,97.3,111.8,96.2,112L96.2,112z M58.2,114.6c-2.1-1.2-4-2.9-6.6-2.9l-1-0.4c-0.2,0-0.4-0.1-0.6-0.1
		c4.5,4.6,11,5.9,17.5,4.8C64.3,116.3,60.8,116.2,58.2,114.6L58.2,114.6z M77.7,80.7c-0.4,0.7-0.9,1.4-1,2.3c0,2.3-0.4,4.7,1.7,6.2
		c1.1,0.7,2.9,0.4,4.2,0.4c2.1-0.1,3.7-1.5,5.2-2.9c3.3-2.3,5.9-6.6,10.4-5.9c3.4,0.8,7.1,2.7,10.4,0.7c0-2.4-0.2-4.1-0.3-6.5
		c-0.9,0.7-1.7,1.3-2.6,1.8c-3,0.7-6.6,0.5-9.3-0.8c-2.2-0.4-4.1,0.6-5.7,2.1c-1.8,1.1-2.8,3.5-4.9,4c-0.5,0.5-0.9,1.3-1.7,1.2
		c-0.5-0.5-0.9,0.3-1.6,0.1c-0.3-0.1-0.5-0.3-0.6-0.6c0-0.4-0.1-0.7,0.3-1c0.7-0.5,1.6-0.8,2.4-1.2c0.9-0.7,2.3-0.9,2.6-2.2
		c0.3-1.4,0.1-2.9-0.9-3.8c-1.2-0.9-2.8-2-4.4-1.2c-0.8,0.3-1.4,0.8-2.3,0.7c-0.4-0.2-0.6-0.6-0.6-0.9c0.1-0.3,0.1-0.6,0.5-0.8
		c1.3-0.5,2.6-1.1,4-1.1c0.9,0,1.8,0.5,2.7,0.7c0.6,0.2,1-0.2,1.4-0.6c1.5-1.8,1.5-4.5,1.2-6.8c-0.5-1.7-2-3.3-3.7-3.7
		c-0.4-0.2-0.5-0.7-0.5-1c0-0.3,0.3-0.6,0.6-0.8c0.9-0.1,1.8,0.3,2.5,0.8c1.3-1.5,1.4-4,0.7-5.7c-0.5-1.4-1.9-2.4-3.1-3.1
		c-0.8-0.5-1.8-0.4-2.6-0.8c-0.3-0.3-0.4-0.7-0.3-1c0.1-0.2,0.3-0.5,0.6-0.6c1.7-0.1,3.3,0.5,4.6,1.6c0.4,0.1,0.6-0.3,0.8-0.5
		c0.8-1.4,1-3.3,0.5-4.9c-0.8-2.1-2.7-3.5-4.6-4.3c-0.6-0.1-1.2,0-1.6-0.4c-0.2-0.2-0.2-0.6-0.2-0.9c0.1-0.3,0.4-0.5,0.7-0.7
		c1.3-0.2,2.4,0.3,3.4,0.9c0.2-0.2,0.4-0.4,0.4-0.7c0.3-1.5-0.1-2.9-1.1-4c-1-0.5-2.1-0.9-3.2-1.1c-2-0.3-3.8,0.4-5.2,1.9
		c-1.3,1.1-0.5,3.1-0.7,4.6c0.9-0.9,2-1.6,3.4-1.5c0.4,0.2,0.7,0.5,0.7,1c-0.1,0.3-0.2,0.5-0.5,0.8c-1.7,0.2-2.9,1.5-3.4,3.4
		l-0.1,8.5l0.3,0.6c1.1-0.8,2.2-1.7,3.7-1.3c0.3,0.1,0.4,0.3,0.5,0.5c0.4,1.9-1.9,1-2.6,1.9c-0.6,0.8-1.6,1.1-1.9,2.1v6.6
		c0.2,0.4,0.4,0.8,0.7,1.1c0.8-0.5,1.8-0.7,2.7-0.9c2.2-0.3,4.2,0.6,5.3,2.4c0.1,0.4,0,0.7-0.2,1c-0.2,0.4-0.7,0.3-1.1,0.2
		c-0.3-0.2-0.6-0.6-0.8-0.9c-1-1-2.6-0.9-3.9-0.6c-1.3,0.3-2.2,1.7-2.6,2.9V77l0.1,0.1c1.1,0.8,2.7,0.2,4,0.2
		c0.2,0.1,0.4,0.3,0.5,0.6c0.1,0.3,0,0.7-0.3,1C79.8,79.3,78.7,79.8,77.7,80.7L77.7,80.7z M70.6,79.5c-0.5-0.4-1.3-0.3-1.7-0.8
		c-0.1-0.3-0.3-0.6-0.1-0.9c0.1-0.4,0.6-0.6,1-0.6c1.1,0.3,2.6,0.5,3.6-0.2v-9.1c-0.3-1-0.7-1.7-1.5-2.3c-1.2-0.7-2.8-1-4.2-0.5
		c-1,0.2-1.1,1.7-2.3,1.5c-0.2-0.1-0.5-0.3-0.6-0.6c-0.2-0.4,0.1-0.9,0.4-1.2c1.5-1.9,4-2.3,6.3-1.6c0.4,0.2,0.9,0.4,1.4,0.6l0.6-1
		v-6.5c-0.3-1.2-1.6-1.7-2.3-2.5c-0.4-0.4-1.1-0.3-1.7-0.4c-0.4-0.1-0.5-0.5-0.5-0.9c0-0.4,0.4-0.7,0.6-0.9c1.6-0.4,2.5,0.6,3.6,1.3
		c0.2-0.2,0.2-0.4,0.3-0.6L73.3,44c-0.3-1-0.7-1.7-1.4-2.5c-0.6-1.1-1.9-0.6-2.5-1.5c-0.1-0.5,0-1,0.4-1.3c1.4-0.2,2.5,0.6,3.5,1.5
		l0-3.6c-1.1-2.1-3.2-3.2-5.6-3c-1.5,0.4-3.4,0.5-4.1,2.1c-0.6,1.1-0.8,2.6,0,3.7c0.4-0.2,0.7-0.4,1.1-0.5c0.9-0.3,2-0.7,2.9,0
		c0.2,0.3,0.2,0.6,0.1,0.9c-0.1,0.3-0.4,0.4-0.6,0.5c-1.2,0-2.1,0.4-3,1c-1.9,1.2-3.2,3.3-3.1,5.4c0.2,1.2,0.3,2.5,1.3,3.3
		c0.7,0.1,1.1-0.7,1.7-0.9c1-0.4,2.2-0.9,3.3-0.6c0.4,0.2,0.5,0.7,0.5,1.1c-0.1,0.2-0.3,0.5-0.5,0.6c-1.8,0.1-3.2,1.2-4.5,2.2
		c-1.3,1.6-1.9,4.1-0.9,6.1c0.3,0.4,0.4,0.9,0.8,1.1c0.7-0.5,1.6-0.9,2.4-0.7c0.4,0.2,0.6,0.6,0.6,1c0,0.3-0.3,0.5-0.5,0.7
		c-1.8,0.4-3.6,2.4-3.8,4.3c-0.2,2.1,0,4.8,1.6,6.5c0.4,0.4,1,0.4,1.4,0.3c1.1-0.6,2.3-0.8,3.5-0.6c1.1,0.5,2.5,0.5,3.3,1.4
		c0.1,0.4,0.1,0.9-0.3,1.2c-0.3,0.1-0.6,0.3-0.9,0.1c-1.2-0.4-2.4-1.1-3.8-0.8c-1.6,0.5-3,1.7-3.3,3.4c-0.1,1.2,0.2,2.3,1.1,3.1
		c1.2,0.6,2.5,1.3,3.7,1.9c0.3,0.2,0.7,0.5,0.7,1c-0.1,0.3-0.2,0.6-0.5,0.8c-0.6,0.5-1.1-0.4-1.6,0c-0.3,0.1-0.7,0-0.9-0.2
		c-0.6-1.2-2-1.2-2.9-2.1c-1.4-1.9-3.3-3.3-5.2-4.4c-1.4-0.7-3.4-0.7-4.8,0c-2.4,1.1-5.2,0.8-7.8,0.4c-1-0.4-1.8-0.9-2.7-1.9
		c-0.3,2.1-0.3,4.5-0.3,6.5c3.1,1.8,6.9,0.3,9.9-0.6c2.3-0.6,4.5,0.3,6.1,1.8c3.7,2.3,6.3,7.2,10.9,7l0.7,0c1.2-0.2,2.5,0.2,3.2-1.3
		c1.6-1.3,0.9-3.4,1.1-5C73.1,81.8,72.2,80.2,70.6,79.5L70.6,79.5z M94.6,47.8c-1.3-0.3-2.4,0.4-3.4,1c-1.3,0.7-1.5,2.3-1.7,3.6
		c0.6,1.1,1,2.2,1,3.4c0.3,0.6,0.8,1.1,1.2,1.5c0.3-0.1,0.4-0.5,0.7-0.7c1-1,1.9-2.5,3.2-3c0.4,0.1,0.7,0.2,0.9,0.6
		c0.1,0.3,0.1,0.6,0,0.8c-3,2.8-5.3,6-5.6,9.9c0.1,1.7,0.9,3.2,2.5,3.9c0.5,0.1,1,0.4,1.5,0.1c2.3-0.1,4.5-0.4,6.8-0.6
		c0.2-0.4,0.6-0.3,1-0.3c0.7-1,0.7-2.6,0.2-3.8c-0.8-0.8-2.1-0.7-3.3-0.6c-0.7-0.1-1.6,0.4-2.1-0.3c-0.2-0.3-0.2-0.6-0.1-0.9
		c-0.8-1.1,0.8-1.6,1.2-2.5c1.9-2.2,0.6-5.5-0.5-7.7c-0.7-1.5-2.5-1.1-3.4-2.2c-0.1-0.3-0.1-0.7,0.1-0.9c0.5-0.8,1.3-0.2,1.9-0.2
		c0.1-1.9,0.1-3.9-1.3-5.3c-1.3-1.5-3.9-0.5-4.7-2.5c-0.1-0.3,0-0.7,0.2-1c0.9-1,1.5,0.6,2.4,0.5c-0.9-1-2-1.8-3-2.7
		c-0.6,0.3-0.5,1-0.7,1.5c-0.3,2.3,0.6,4.7,2.6,5.8c1.1,0.7,2.2,0,3.3,0.8c0.2,0.3,0.2,0.6,0.1,0.9C95.5,47.6,95,47.7,94.6,47.8
		L94.6,47.8z M53.7,51.1c-2.3,0.7-2.8,3.3-3.3,5.3c-0.4,1.9,0.5,3.5,1.8,4.8c0.8,0.4,0.2,1.3,0.3,1.9c0,0.4-0.3,0.7-0.6,0.8
		c-1.5,0-3.3-0.4-4.5,0.3c-1.1,0.8-0.7,2.4-0.5,3.5c0,1,1,0.2,1.4,0.8c1.7,0.1,3.3,0.3,4.9,0.4c1.4,0.1,2.7,0.4,3.9-0.3
		c1.4-0.9,2-2.3,1.9-3.9c-0.4-3.9-2.8-6.9-5.6-9.7l0-0.5c0-0.3,0.3-0.6,0.5-0.8c0.3-0.1,0.7-0.1,1,0.1c1.2,1.1,2.4,2.2,3.2,3.5
		c0.5-0.2,0.9-0.9,1.2-1.4c0.1-1.2,0.5-2.3,1-3.3c0.1-0.8-0.1-1.5-0.3-2.2c-0.3-1.7-2.2-2.1-3.5-2.7c-0.8-0.3-1.7,0.4-2.2-0.4
		c-0.2-0.3-0.2-0.8,0-1.1c0.3-0.4,0.8-0.4,1.2-0.5c1.4,0.1,2.6-0.6,3.5-1.6c0.7-1.2,1.4-2.6,1.2-4c-0.1-0.7,0-1.5-0.8-2.2
		c-1,0.8-1.9,1.7-2.8,2.7c0.7,0.2,0.8-0.7,1.4-0.8c0.3,0,0.7,0.1,0.9,0.2c0.2,0.2,0.2,0.4,0.3,0.7c0,0.7-0.6,1.2-1.3,1.5
		c-1.2,0.2-2.4,0.5-3.4,1.3c-1.5,1.4-1.5,3.4-1.4,5.5c0.5-0.2,1.3-0.6,1.8,0c0.3,0.3,0.3,0.7,0.2,1C54.8,50.8,54.2,51,53.7,51.1
		L53.7,51.1z M101.2,55.3c0.5-0.4,1-0.7,1.6-0.7c-1.2-2.5-2.6-5.1-4.3-7.4l0,2.9C100.3,51.3,100.7,53.4,101.2,55.3L101.2,55.3z
		 M51.2,50.2l-0.1-2.9c-1,1.4-1.8,2.9-2.7,4.3c-0.4,1-1.1,2-1.4,3c0.6,0.1,1.1,0.4,1.6,0.7C49.1,53.5,49.6,51.5,51.2,50.2L51.2,50.2
		z M101.4,58.1c-0.3,1.3-0.9,2.5-1.7,3.6c1.1,0,2.3,0,3.3,0.5c0.6-0.6,1.5-1.1,2.3-1.2c-0.5-1.5-1.1-3-1.6-4.5
		C102.6,56.1,102,57.3,101.4,58.1L101.4,58.1z M47,62.3c1-0.4,2.1-0.5,3.2-0.5c-0.8-1.1-1.5-2.3-1.7-3.6c-0.4-0.6-0.8-1.3-1.4-1.6
		c-0.3-0.2-0.6,0-0.9,0c-0.5,1.5-1.2,3-1.6,4.5c0.5,0,1,0.2,1.4,0.5C46.3,61.8,46.6,62.2,47,62.3L47,62.3z M90.6,59.2V59
		c-0.1-0.2-0.3-0.2-0.4-0.3c-0.4,0.9-0.7,1.7-1.3,2.5l0.5,0.7C89.8,61,90.1,60,90.6,59.2L90.6,59.2z M59.2,59.2
		c0.4,0.9,1,1.8,1.2,2.8c0.2-0.1,0.4-0.4,0.6-0.7c-0.7-0.7-0.9-1.7-1.4-2.4L59.2,59.2L59.2,59.2z M105,67.7c0.7-0.4,1.4-0.9,1.7-1.6
		l-0.8-3.2c-0.1,0-0.3-0.1-0.4,0.1c-0.4,0-0.6,0.2-0.8,0.4C105.3,64.6,105.3,66.3,105,67.7L105,67.7z M44.9,67.8
		c-0.4-1.6-0.3-2.7,0.3-4.2c-0.3-0.3-0.8-0.5-1.2-0.5c-0.4,1.1-0.6,2.2-0.9,3.3C43.6,67,44.3,67.7,44.9,67.8L44.9,67.8z M90.5,69.2
		c-0.3,1.6-1,3.1-2.2,4.2c-0.2,0.5,0.1,0.9,0.4,1.2c0.7,0.7,2,0.6,2.8,0.5c1.5-0.9,3.4-1.3,5.2-0.9c2.4,1.1,5.4,1.4,8.2,0.8
		c1.3-0.7,2.5-1.9,2.9-3.3c-0.2-1.1-0.3-2.2-0.6-3.2c-3.1,2.3-7.9,1.7-11.5,2.3C93.8,71.2,91.8,70.6,90.5,69.2L90.5,69.2z
		 M44.9,75.1c2.3,0.6,5.1,0.5,7.2-0.5c2.1-0.9,4.5-0.5,6.6,0.6c0.9,0,2,0.1,2.7-0.7c0.2-0.3,0.4-0.7,0.3-1.1
		c-1.2-1.2-1.9-2.7-2.3-4.3c-0.5,0.5-1.1,1-1.7,1.3c-1.2,0.5-2.6,0.7-3.9,0.4c-3.8-0.4-8.1,0-11.2-2.2l-0.5,3.1l0.2,0.6
		C42.8,73.6,43.9,74.4,44.9,75.1L44.9,75.1z M106.9,86.6c0,0.3-0.4,0.6-0.6,0.7c-0.4,0.1-0.9,0-1.1-0.3c-0.3-1-0.6-2.3-1.8-2.7
		c-1.8-0.4-3.5-1-5.3-1.5c1.1,1.7,1.5,3.8,0.8,5.8c-0.5,1.1-0.6,2.3-1.4,3.2c-0.3,0.2-0.6,0.1-0.9,0.1c-0.3-0.2-0.6-0.5-0.5-0.9
		c0.5-1.8,1.6-3.7,1.1-5.6c-0.3-0.9-0.7-2.1-1.8-2.3c-2.8,1.9-5.2,4.2-8,6.5c0.5-0.1,1-0.1,1.5,0.1c1.5,0.5,2.8,2,3.3,3.4
		c0.9,1.5-0.3,3.9,1.4,4.9c2.2,0.2,3.9-0.8,5.6-1.8c2.1-1.8,4.1-3.5,6.5-4.8c2.9-1.6,2.8-4.8,2.8-7.7c-0.7,0.3-1.5,0.5-2.3,0.6
		C106.5,84.9,106.9,85.7,106.9,86.6L106.9,86.6z M41.5,83.9c0.2,2.5-0.2,5.7,2.4,7.3c2.2,1.4,4.6,2.7,6.4,4.6
		c1.9,1.1,3.6,2.5,6.2,2.3c0.4-0.1,0.7-0.5,1-0.9c0.1-1.9,0.1-3.8,1.1-5.2c0.9-1.4,2.5-2.7,4.2-2.4c-2.1-1.7-4.2-3.6-6.3-5.3
		c-0.7-0.4-1.2-1.1-2-1.1c-1.3,0.9-1.6,2.1-1.7,3.5c0,1.7,1,2.9,1.3,4.5c-0.1,0.3-0.3,0.5-0.6,0.7c-0.3,0.1-0.8,0.1-1-0.2
		c-0.6-1.3-1.2-2.6-1.5-4c-0.3-1.8,0.2-3.4,1-4.9c-1.7,0.5-3.3,1.1-5,1.4l-0.6,0.3c-1.2,0.6-0.9,2.2-1.9,2.9c-0.4,0.1-0.9,0-1.2-0.4
		c-0.3-0.9,0.2-1.8,0.6-2.6C43.1,84.2,42.2,84.1,41.5,83.9L41.5,83.9z M77.9,91.1c-0.5,0.1-0.9,0.6-1.3,1l0.1,7.8
		c0.5,0.5,1.2,0.4,1.9,0.6c0.7,0.1,1.3,0.1,2,0.2c2.4-0.1,4.6-0.9,6.6-1.9c1.4-0.7,3.1-2.2,3.3-3.9c0.2-1.6-0.9-2.9-2.2-3.6
		c-0.4-0.3-0.6,0.3-1,0.4c-0.4,0.1-0.7,0-1-0.2c-0.4-0.3-0.2-0.9-0.1-1.2C83.9,91.7,80.6,91.8,77.9,91.1L77.9,91.1z M72,91.1
		c-2.7,0.7-5.8,0.6-8.2-0.7l0.1,0.2c0,0.3,0.2,0.7-0.2,0.9c-0.2,0.3-0.6,0.3-0.9,0.3c-0.4,0-0.4-0.5-0.8-0.5c-1,0.4-1.9,1.3-2.3,2.3
		c-0.2,1.1-0.2,2.4,0.8,3.2c2.1,2.6,5.2,3.3,8.3,3.8c1.6,0,3.3,0,4.6-0.7v-7.7C73.1,91.7,72.6,91.2,72,91.1L72,91.1z M93.8,99.9
		c-1.2,0.1-2.2-0.8-2.7-1.8c-2.2,2.8-5.6,3.7-8.8,4.3c-1.8,0.4-3.9,0.1-5.6-0.2v3.4c0.3,0.9,1.1,1.6,2,1.9c3.1,0.3,5.8,2.2,9.2,1.2
		c2.2-0.2,3.2-2.7,4.9-3.8c0.4-0.2,0.7-0.1,1,0.1c0.2,0.2,0.4,0.4,0.4,0.7c2.5-0.7,4.6-2.3,6.5-4.1c0.8-0.7,1.1-1.8,1.9-2.4
		c0.4-0.1,0.8,0,1.1,0.3c0.2,0.3,0.2,0.7,0.1,1c-1.3,2.5-4,4.5-6.4,6c-1.6,0.6-3.1,1.5-5,1.4c-2,2.9-5.6,3.1-8.7,2.7
		c-2.3-0.8-4.8-0.8-6.9-2v5.7l0.2,0.2c0.6,0.1,1.2-0.2,1.8-0.3c2.9-0.7,6,0.2,9-0.2c3.2-0.5,5.5-3.2,8.5-4c2.9-0.3,5.5-1.8,7.6-4
		c1.9-3.6,3.1-7.5,3.8-11.5c0.1-0.8,0.3-1.6,0.3-2.4c-2.3,1.7-4.8,3.1-6.9,5.2C98.7,98.7,96.6,100,93.8,99.9L93.8,99.9z M46.8,99.4
		c0.3-0.1,0.7-0.1,1,0.1c2,2.9,5,5.4,8.2,6.3c0-0.3,0.1-0.5,0.3-0.7c0.2-0.2,0.5-0.3,0.9-0.2c1.1,0.6,1.7,1.6,2.6,2.5
		c2,1.9,4.7,1.7,7,1.2c2.1-1.1,5.3-0.4,6.6-2.8l0.1-3.7c-1.6,0.3-3.3,0.6-5,0.5c-3.5-0.6-6.9-1.4-9.4-4.4l-0.8,1
		c-1.8,1.4-4.5,0.6-6.3-0.2c-2-0.8-3.7-2.5-5.4-3.9c-1.4-1-2.9-1.7-4.3-2.8c0.7,4.9,2,9.5,4.1,13.7c2.1,2.5,4.9,4,8.1,4.3
		c2.1,0.7,3.7,2.2,5.7,3.1c3.6,1.8,8.3-0.3,12,1.1c0.4,0,1,0.3,1.2-0.1v-5.7c-2.4,1.1-5.1,1.4-7.6,2.1c-2.9,0.2-6.1,0.1-8-2.7
		c-4.3-0.3-7.8-2.8-10.6-6c-0.3-0.6-1-1.1-0.9-2C46.4,99.7,46.6,99.5,46.8,99.4L46.8,99.4z M96.2,112c-1.6,0.6-3.1,1.9-4.7,2.7
		c-2.6,1.6-6,1.5-8.9,1.3c4.2,0.7,8.6,0.3,12.3-1.3c1.9-0.9,3.7-2.1,5.2-3.7c-0.4-0.1-0.6,0.3-0.9,0.2
		C98.3,111.6,97.3,111.8,96.2,112L96.2,112z M58.2,114.6c-2.1-1.2-4-2.9-6.6-2.9l-1-0.4c-0.2,0-0.4-0.1-0.6-0.1
		c4.5,4.6,11,5.9,17.5,4.8C64.3,116.3,60.8,116.2,58.2,114.6L58.2,114.6z"/>
</g>
</svg>
