<?xml version="1.0" encoding="utf-8"?>
<!-- Generator: Adobe Illustrator 18.1.1, SVG Export Plug-In . SVG Version: 6.00 Build 0)  -->
<!DOCTYPE svg PUBLIC "-//W3C//DTD SVG 1.1//EN" "http://www.w3.org/Graphics/SVG/1.1/DTD/svg11.dtd">
<svg version="1.1" id="Layer_1" xmlns="http://www.w3.org/2000/svg" xmlns:xlink="http://www.w3.org/1999/xlink" x="0px" y="0px"
	 viewBox="0 0 150 150" enable-background="new 0 0 150 150" xml:space="preserve">
<g>
	<g>
		<defs>
			<rect id="SVGID_1_" x="0" y="0" width="150" height="150"/>
		</defs>
		<clipPath id="SVGID_2_">
			<use xlink:href="#SVGID_1_"  overflow="visible"/>
		</clipPath>
		<path clip-path="url(#SVGID_2_)" fill="#5DBAB0" d="M150,75c0,41.4-33.6,75-75,75c-41.4,0-75-33.6-75-75C0,33.6,33.6,0,75,0
			C116.4,0,150,33.6,150,75"/>
	</g>
	<path fill="#228879" d="M90.7,148.3l-0.1-0.1c-0.3-0.3-0.6-0.6-0.9-0.9c-0.3-0.3-0.6-0.6-0.9-0.9c-0.3-0.3-0.6-0.6-0.9-0.9
		c-0.3-0.3-0.6-0.6-0.9-0.9c-0.3-0.3-0.6-0.6-0.9-0.9c-0.3-0.3-0.6-0.6-0.9-0.9c-0.3-0.3-0.6-0.6-0.9-0.9c-0.3-0.3-0.6-0.6-0.9-0.9
		c-0.3-0.3-0.6-0.6-0.9-0.9c-0.3-0.3-0.6-0.6-0.9-0.9c-0.3-0.3-0.6-0.6-0.9-0.9c-0.3-0.3-0.6-0.6-0.9-0.9c-0.3-0.3-0.6-0.6-0.9-0.9
		c-0.3-0.3-0.6-0.6-0.9-0.9c-0.3-0.3-0.6-0.6-0.9-0.9c-0.3-0.3-0.6-0.6-0.9-0.9c-0.3-0.3-0.6-0.6-0.9-0.9c-0.3-0.3-0.6-0.6-0.9-0.9
		c-0.3-0.3-0.6-0.6-0.9-0.9c-0.3-0.3-0.6-0.6-0.9-0.9c-0.3-0.3-0.6-0.6-0.9-0.9c-0.3-0.3-0.6-0.6-0.9-0.9c-0.3-0.3-0.6-0.6-0.9-0.9
		c-0.3-0.3-0.6-0.6-0.9-0.9c-0.3-0.3-0.6-0.6-0.9-0.9c-0.3-0.3-0.6-0.6-0.9-0.9c-0.3-0.3-0.6-0.6-0.9-0.9c-0.3-0.3-0.6-0.6-0.9-0.9
		c-0.3-0.3-0.6-0.6-0.9-0.9c-0.3-0.3-0.6-0.6-0.9-0.9c-0.3-0.3-0.6-0.6-0.9-0.9c-0.3-0.3-0.6-0.6-0.9-0.9c-0.3-0.3-0.6-0.6-0.9-0.9
		c-0.3-0.3-0.6-0.6-0.9-0.9c-0.3-0.3-0.6-0.6-0.9-0.9c-0.3-0.3-0.6-0.6-0.9-0.9c-0.3-0.3-0.6-0.6-0.9-0.9c-0.3-0.3-0.6-0.6-0.9-0.9
		c-0.3-0.3-0.6-0.6-0.9-0.9c-0.3-0.3-0.6-0.6-0.9-0.9c-0.3-0.3-0.6-0.6-0.9-0.9c-0.3-0.3-0.6-0.6-0.9-0.9c-0.3-0.3-0.6-0.6-0.9-0.9
		c-0.3-0.3-0.6-0.6-0.9-0.9c-0.3-0.3-0.6-0.6-0.9-0.9c-0.3-0.3-0.6-0.6-0.9-0.9c-0.3-0.3-0.6-0.6-0.9-0.9c-0.3-0.3-0.6-0.6-0.9-0.9
		c-0.3-0.3-0.6-0.6-0.9-0.9c-0.3-0.3-0.6-0.6-0.9-0.9c-0.3-0.3-0.6-0.6-0.9-0.9c-0.3-0.3-0.6-0.6-0.9-0.9c-0.3-0.3-0.6-0.6-0.9-0.9
		c-0.3-0.3-0.6-0.6-0.9-0.9c-0.3-0.3-0.6-0.6-0.9-0.9c-0.3-0.3-0.6-0.6-0.9-0.9c-0.3-0.3-0.6-0.6-0.9-0.9c-0.3-0.3-0.6-0.6-0.9-0.9
		c-0.3-0.3-0.6-0.6-0.9-0.9c-6.4-6-9.9-16.4-9.6-27.6c1.7-12.2,10.3-19.7,20-19.7l0,0c3.9,0,8.1,1.3,12,4c0.3,0.3,0.6,0.5,0.8,0.8
		l0.1,0c0.3,0.3,0.6,0.6,0.8,0.8l0.1,0c0.3,0.3,0.6,0.6,0.8,0.8l0.1,0c0.3,0.3,0.6,0.6,0.8,0.8l0.1,0c0.3,0.3,0.6,0.6,0.8,0.8l0.1,0
		c0.3,0.3,0.5,0.5,0.8,0.8l0.1,0c0.3,0.3,0.6,0.6,0.8,0.8l0.1,0c0.3,0.3,0.6,0.6,0.8,0.8l0.1,0c0.3,0.3,0.6,0.6,0.8,0.8l0.1,0
		c0.3,0.3,0.6,0.6,0.8,0.8l0.1,0c0.3,0.3,0.6,0.6,0.8,0.8l0.1,0c0.3,0.3,0.6,0.6,0.8,0.8l0.1,0c0.3,0.3,0.6,0.6,0.8,0.8l0.1,0
		c0.3,0.3,0.6,0.6,0.8,0.8l0.1,0c0.3,0.3,0.6,0.6,0.8,0.8l0.1,0c0.3,0.3,0.6,0.5,0.8,0.8l0.1,0c0.3,0.3,0.6,0.6,0.8,0.8l0.1,0
		c0.3,0.3,0.6,0.6,0.8,0.8l0.1,0c0.3,0.3,0.6,0.6,0.8,0.8l0.1,0c0.3,0.3,0.6,0.6,0.8,0.8l0.1,0c0.3,0.3,0.6,0.5,0.8,0.8l0.1,0
		c0.3,0.3,0.6,0.6,0.8,0.8l0.1,0c0.3,0.3,0.6,0.5,0.8,0.8l0.1,0c0.3,0.3,0.6,0.6,0.8,0.8l0.1,0c0.3,0.3,0.6,0.5,0.8,0.8l0.1,0
		l0.2,0.2c0.3-0.3,0.7-0.5,1-0.8c1.5-1.1,3.6-1.5,4.6-3.3c2.8-4.9-4.4-5.6-2.4-13.1c0.4-1.9,1.8-3.8,3.3-5.2c3.9-2.7,8-4,12-4
		c5.2,0,10.1,2.2,13.7,6.1c0.3,0.3,0.6,0.6,0.9,0.9c0.3,0.3,0.6,0.6,0.9,0.9c0.3,0.3,0.6,0.6,0.9,0.9c0.3,0.3,0.6,0.6,0.9,0.9
		c0.3,0.3,0.6,0.6,0.9,0.9c0.3,0.3,0.6,0.6,0.9,0.9c0.3,0.3,0.6,0.6,0.9,0.9c0.3,0.3,0.6,0.6,0.9,0.9c0.3,0.3,0.6,0.6,0.9,0.9
		c0.3,0.3,0.6,0.6,0.9,0.9c0.3,0.3,0.6,0.6,0.9,0.9c0.3,0.3,0.6,0.6,0.9,0.9c0.3,0.3,0.6,0.6,0.9,0.9c0.3,0.3,0.6,0.6,0.9,0.9
		c0.3,0.3,0.6,0.6,0.9,0.9c0.3,0.3,0.6,0.6,0.9,0.9c0.3,0.3,0.6,0.6,0.9,0.9c0.3,0.3,0.6,0.6,0.9,0.9c0.3,0.3,0.6,0.6,0.9,0.9
		c0.3,0.3,0.6,0.6,0.9,0.9c0.3,0.3,0.6,0.6,0.9,0.9c0.3,0.3,0.6,0.6,0.9,0.9c0.3,0.3,0.6,0.6,0.9,0.9c0.3,0.3,0.6,0.6,0.9,0.9
		c0.3,0.3,0.6,0.6,0.9,0.9c0.3,0.3,0.6,0.6,0.9,0.9c0.3,0.3,0.6,0.6,0.9,0.9c0.3,0.3,0.6,0.6,0.9,0.9c0.3,0.3,0.6,0.6,0.9,0.9
		c0.3,0.3,0.6,0.6,0.9,0.9c0.3,0.3,0.6,0.6,0.9,0.9c0.3,0.3,0.6,0.6,0.9,0.9c0.3,0.3,0.6,0.6,0.9,0.9c0.3,0.3,0.6,0.6,0.9,0.9
		c0.3,0.3,0.6,0.6,0.9,0.9c0.3,0.3,0.6,0.6,0.9,0.9c0.3,0.3,0.6,0.6,0.9,0.9c0.3,0.3,0.6,0.6,0.9,0.9
		C143.4,118.3,120.3,142,90.7,148.3"/>
	<path fill="#FFFEE2" d="M121.3,68.4c-2.5-17.3-18.5-25-31.9-15.8c-1.5,1.4-2.9,3.3-3.3,5.2c-2,7.5,5.2,8.2,2.4,13.1
		c-1,1.8-3.1,2.2-4.6,3.3c-5.9,4.4-6,7-8.9,7c-3,0.1-3.8-3.3-8.9-7c-1.5-1.1-3.6-1.5-4.6-3.3c-2.8-4.9,4.4-5.6,2.4-13.1
		c-0.4-1.9-1.8-3.8-3.3-5.2c-13.4-9.3-29.5-1.5-31.9,15.8c-0.4,17.5,8.5,33,23,33c6.4-1,10.7-10.5,7.9-16.8
		c-0.7-1.6-3.6-2.2-3.4-4.2c0.3-3.6,5.7-1.6,7.6-0.3c4,2.8,6,12.6,5.2,19.8c2.3,0,3.9,0.1,6,0.1H75h0.1c2.1,0,3.8-0.1,6-0.1
		c-0.8-7.2,1.2-16.9,5.2-19.8c1.9-1.3,7.3-3.3,7.6,0.3c0.1,2-2.8,2.7-3.4,4.2c-2.7,6.3,1.5,15.8,7.9,16.8
		C112.9,101.4,121.7,85.9,121.3,68.4L121.3,68.4z"/>
</g>
</svg>
