<?xml version="1.0" encoding="utf-8"?>
<!-- Generator: Adobe Illustrator 18.1.1, SVG Export Plug-In . SVG Version: 6.00 Build 0)  -->
<!DOCTYPE svg PUBLIC "-//W3C//DTD SVG 1.1//EN" "http://www.w3.org/Graphics/SVG/1.1/DTD/svg11.dtd">
<svg version="1.1" id="Layer_1" xmlns="http://www.w3.org/2000/svg" xmlns:xlink="http://www.w3.org/1999/xlink" x="0px" y="0px"
	 viewBox="0 0 150 150" enable-background="new 0 0 150 150" xml:space="preserve">
<g>
	<g>
		<defs>
			<rect id="SVGID_1_" y="0" width="150" height="150"/>
		</defs>
		<clipPath id="SVGID_2_">
			<use xlink:href="#SVGID_1_"  overflow="visible"/>
		</clipPath>
		<path clip-path="url(#SVGID_2_)" fill="#5DBAB0" d="M75,150c41.4,0,75-33.6,75-75c0-41.4-33.6-75-75-75C33.6,0,0,33.6,0,75
			C0,116.4,33.6,150,75,150L75,150z"/>
	</g>
	<path fill="#FFFEE2" d="M98.1,42.1c0-6.5-5.3-11.8-11.7-11.8c-6.5,0-11.8,5.3-11.8,11.8c0,6.5,5.3,11.8,11.8,11.8
		C92.9,53.8,98.1,48.5,98.1,42.1L98.1,42.1z M75.4,55.7c-5.9,0-11.6,6.7-16.9,13.9c-0.4,0.5-0.3,1.3,0.1,1.8
		c0.5,0.5,1.2,0.5,1.8,0.1c2.9-2.1,6.5-4.3,8.3-4.9c-1.1,3-5.3,11.4-9.1,18.9c-4.4,8.8-7.1,14.2-7.6,15.8c-0.7,2.4-0.4,6.4,1.8,9.2
		c1.6,2.2,4.1,3.3,7,3.3c4.7,0,10.5-2.9,17.5-8.6c0.5-0.4,0.6-1.1,0.4-1.7c-0.3-0.6-0.9-0.9-1.5-0.8c0,0-3.8,0.7-7.7,0.7
		c-0.2,0-0.5,0-0.5-0.1c-0.2-0.4-0.9-2.8,5.8-14.3c6.7-11.4,13.4-25.3,6.4-31.1C79.4,56.4,77.5,55.7,75.4,55.7L75.4,55.7z"/>
</g>
</svg>
