<?xml version="1.0" encoding="utf-8"?>
<!-- Generator: Adobe Illustrator 19.0.0, SVG Export Plug-In . SVG Version: 6.00 Build 0)  -->
<!DOCTYPE svg PUBLIC "-//W3C//DTD SVG 1.1//EN" "http://www.w3.org/Graphics/SVG/1.1/DTD/svg11.dtd">
<svg version="1.1" id="Layer_1" xmlns="http://www.w3.org/2000/svg" xmlns:xlink="http://www.w3.org/1999/xlink" x="0px" y="0px"
	 viewBox="0 0 360 356.3" enable-background="new 0 0 360 356.3" xml:space="preserve">
<g>
	<g>
		<defs>
			<rect id="SVGID_1_" width="360" height="356.3"/>
		</defs>
		<clipPath id="SVGID_2_">
			<use xlink:href="#SVGID_1_"  overflow="visible"/>
		</clipPath>
		<path clip-path="url(#SVGID_2_)" fill="#ED0F5C" d="M175.3,0c3.2,0,6.4,0,9.6,0c1.4,0.4,2.9,0.3,4.3,0.3c1.5,0.1,3,0.2,4.5,0.3
			c11.9,0.8,23.6,2.9,35.1,6.1c29.2,8.2,54.8,22.7,76.5,43.7c27.1,26.1,44.3,57.7,51.5,94.7c1.5,7.8,2.5,15.7,2.8,23.6
			c0,1.4-0.2,2.9,0.3,4.3c0,3.4,0,6.9,0,10.3c-0.5,1.4-0.2,2.9-0.3,4.3c-0.3,7.3-1.2,14.6-2.5,21.8c-4.2,23.4-12.7,45.1-25.8,64.9
			c-23.3,35.3-55.1,59.6-95.2,72.9c-10.2,3.4-20.7,5.7-31.4,7.2c-4.6,0.6-9.1,1-13.7,1.4c-1.1-0.1-2.1,0.1-3.2,0.2
			c-1,0.1-2.1-0.2-3,0.3c-3.2,0-6.4,0-9.6,0c-2.2-0.5-4.4-0.4-6.6-0.6c-1.4-0.1-2.9-0.3-4.3-0.4c-9.8-0.8-19.5-2.4-29-4.8
			c-24.6-6.3-47-17.3-67-33C30.1,287.5,5,242.6,0.9,193.2c-0.1-1.6-0.2-3.2-0.4-4.8c0-0.3,0.1-0.9-0.6-0.7c0-4.4,0-8.9,0-13.3
			c0-0.9,0.1-1.8,0.2-2.8c0.2-1.3,0.4-2.6,0.3-3.9c0.1-0.6,0.2-1.3,0.1-1.9c0.1-0.5,0.2-0.9,0.1-1.4c0.3-0.9,0.3-1.9,0.3-2.9
			c0.1-0.4,0.2-0.8,0.1-1.3c0.1-0.3,0.2-0.6,0.2-1c0.5-4.9,1.2-9.7,2.1-14.5c4.2-21.6,12-41.7,23.7-60.2C50.3,48,82.4,23,123.3,9.1
			c10-3.4,20.3-5.7,30.8-7.2c5.6-0.8,11.2-1.3,16.9-1.7C172.5,0.3,173.9,0.4,175.3,0L175.3,0z M101.4,324.8c1-0.5,1.8-1.4,2.9-1.9
			c1,0.4,1.7,1.4,2.9,1.7c-0.4-1.2-0.7-2.2-1-3.2c0.9-0.7,1.7-1.3,2.8-2.1c-1.3-0.3-2.4,0.1-3.5-0.3c-0.4-1-0.7-2-1.1-3.1
			c-0.7,1.1-0.7,2.3-1.3,3.1c-1.1,0.3-2.2-0.1-3.3,0.3c0.8,0.9,1.9,1.3,2.5,2.1C102.2,322.7,101.4,323.7,101.4,324.8L101.4,324.8
			L101.4,324.8L101.4,324.8z M322.9,177.9c0-9.6-1-19-2.9-28.3c-5-23.9-15.4-45.1-31.6-63.4c-27.4-31-61.8-47.5-103.1-49.5
			c-11.8-0.6-23.6,0.5-35.2,3c-27.6,6-51.4,18.9-71.4,38.8c-32,32-46.5,77.3-39,121.9c3.5,20.9,11.5,40,23.7,57.2
			c25.5,35.8,65.9,58.6,110.9,60.5c12.5,0.5,24.9-0.5,37.2-3.2c23.1-5.1,43.8-15.1,61.7-30.6C305.6,256.3,322,220.7,322.9,177.9
			L322.9,177.9z M202.3,25.6c1.6-1.6,2.2-3.8,2.2-6c0-2.8-1-5.1-3.7-6.1c-4.2-1.7-8.8-0.3-9.6,5.1c-0.1,0.5-0.2,1-0.2,1.5
			c-0.2,4.2,2.3,6.9,6.5,7.2c2.4,0.2,3.2,0.4,5.1,1.5c0.1,0.1,0.3,0.1,0.5,0.1c0.5-0.5,0.9-1,1.1-1.6
			C203.7,26.6,202.8,26.4,202.3,25.6L202.3,25.6z M336.9,148.4c0.8,1.7,0.2,2.7-0.7,3.6c-0.6,0.6-1.2,1.3-1.9,1.9
			c-1.8,1.8-1.8,1.8-1.3,4.3c0,0.2,0.1,0.3,0.4,0.5c1.7-1.6,3.6-3,4.8-5.2c0.2,0.2,0.3,0.3,0.4,0.5c1,2.1,3.1,2.5,4.8,1.9
			c1.9-0.7,2.7-2.1,2.4-4.4c-0.3-2.1-0.7-4.1-1.1-6.2c-0.1-0.4,0-0.8-0.6-1.1c-4.3,0.8-8.8,1.7-13.3,2.6c0.2,1,0.2,1.8,0.7,2.7
			C333.3,149.1,335.1,148.8,336.9,148.4L336.9,148.4z M158.8,331c-0.4,4.7-0.8,9.2-1.2,13.6c1,0.4,1.8,0.4,2.7,0.3
			c0.2-1.9,0.4-3.7,0.6-5.5c1.5-0.3,2.5,0.2,3.1,1.4c0.9,1.6,1.8,3.2,2.7,4.8c1,0.1,2,0.1,3.2,0.2c-1.2-2.4-2.1-4.6-3.8-6.4
			c0.6-0.2,1-0.3,1.4-0.4c1.6-0.6,2.4-2,2.3-3.9c-0.1-1.6-1-2.8-2.6-3.2C164.5,331.2,161.7,331.3,158.8,331L158.8,331z M53.2,93.3
			c-3.9-2.5-7.7-5-11.6-7.5c-0.5,0.8-1,1.4-1.3,2.2c2.4,1.5,4.7,3.1,7,4.6c0,0.1-0.1,0.2-0.1,0.3c-3.4,0-6.7,0-10.1,0
			c-0.5,0.7-1,1.3-1.4,2.2c3.8,2.5,7.7,5,11.6,7.5c0.5-0.8,0.9-1.4,1.4-2.1c-2.3-1.6-4.7-3-7.2-4.8c3,0,5.7-0.1,8.3,0
			c1.6,0.1,2.5-0.4,3.1-1.8C52.9,93.8,53,93.6,53.2,93.3L53.2,93.3z M312.8,78.5c0-4.5-4.3-8-8.4-6.9c-2.1,0.6-3.8,1.9-5.1,3.8
			c-2.5,3.8,0.2,9.4,4.7,10.2c3.9,0.7,8.2-3.1,8.7-6.2C312.8,79,312.8,78.6,312.8,78.5L312.8,78.5z M179.2,24.2
			c-0.6-0.7-1.6-0.8-2-1.7c0.3-0.9,0.7-1.7,0.7-2.7c-1.7-0.5-1.8-0.6-2.3-0.4c-0.1,0.2-0.1,0.4-0.2,0.6c-0.1,0.2,0,0.4-0.3,0.5
			c-1.1-0.9-1.2-1-1.8-2c0.4-0.4,0.8-0.8,1.1-1.3c1.6-1.9,0.8-4.4-1.6-5c-1.1-0.2-2.1-0.2-3.1,0.2c-2,0.7-2.6,2.6-1.6,4.4
			c0.3,0.5,0.8,0.9,0.9,1.6c-0.3,0.2-0.5,0.4-0.8,0.6c-1.6,1.4-2.2,3-1.7,4.7c0.6,1.7,2.1,2.8,4.3,2.8c0.4,0,0.9-0.1,1.3-0.1
			c1.3-0.1,2.4-0.9,3.4-1.5c0.8,0.3,1.4,1,2.3,1.1C178.4,25.6,178.7,24.9,179.2,24.2L179.2,24.2z M236.3,336.9
			c2.3-0.9,4.6-1.6,6.6-2.8c1.5-0.9,2.3-2.4,2.3-4.2c0-2.7-0.9-5-2.7-6.9c-1.2-1.3-2.7-2-4.5-1.5c-2.4,0.6-4.5,1.6-6.9,2.6
			C232.8,328.4,234.5,332.6,236.3,336.9L236.3,336.9z M187.4,346.1c2.5-0.1,4.7-0.2,6.9-0.7c1.7-0.4,3-1.4,3.6-3.1
			c0.9-2.7,0.7-5.4-0.7-7.9c-0.8-1.4-2-2.4-3.7-2.5c-2.4-0.2-4.8,0.2-7.4,0.5C186.6,337,187,341.4,187.4,346.1L187.4,346.1z
			 M333.3,164.8c0.3,3.6,0.6,7,0.9,10.5c0.9,0,1.5,0,2.2-0.3c0.1-2.5-0.5-4.9-0.4-7.5c1.2-0.2,2.4-0.4,3.6-0.3
			c0.2,2.3,0.4,4.5,0.6,6.7c0.8,0.1,1.5,0.1,2.2-0.2c0.2-2.3-0.5-4.5-0.3-6.8c1.1-0.1,2-0.3,2.9-0.1c0.2,2.4,0.5,4.8,0.7,7.2
			c0.8,0,1.5,0.1,2.3-0.4c-0.3-3.3-0.6-6.6-0.9-10C342.5,164,338,164.4,333.3,164.8L333.3,164.8z M173.5,332
			c-0.2,4.8-0.3,9.3-0.5,13.9c3.6,0.1,7,0.2,10.4,0.4c0.2-0.8,0.2-1.5,0-2.2c-2.5-0.3-5-0.3-7.5-0.4c-0.1-1.3-0.1-2.4,0.1-3.6
			c2.3-0.2,4.6,0.2,6.8,0c0.2-0.8,0.2-1.4,0-2.1c-2.2-0.4-4.5,0-6.7-0.4c0-1-0.1-2,0.3-2.9c2.4,0,4.8,0.3,7.2,0.2c0-0.7,0-1.4,0-2.2
			C180.3,332.3,177,332.1,173.5,332L173.5,332z M229.3,330.1c-2.2,0.7-4.3,1.3-6.5,1.9c-0.4-1-0.7-1.9-0.9-2.9
			c2.4-0.7,4.7-1.5,7.1-2.3c-0.4-0.8-0.3-1.6-1-2.1c-3.2,1-6.3,2-9.6,3c1.4,4.5,2.7,8.8,4.1,13.3c3.5-1.1,6.7-2.1,10.2-3.1
			c-0.4-0.8-0.3-1.6-0.9-2.1c-2.4,0.6-4.7,1.6-7.2,2c-0.4-1.2-0.9-2.2-1-3.5c2.1-0.9,4.4-1.2,6.4-2.1
			C229.9,331.4,229.6,330.8,229.3,330.1L229.3,330.1z M36,105.7c-1.2,2-1.9,4.2-3.1,6.2c-0.9-0.5-1.8-0.7-2.6-1.4c1-2.2,2-4.4,3-6.6
			c-0.7-0.5-1.4-0.8-2.1-0.9c-1.4,3.1-2.8,6.1-4.3,9.2c4.2,2,8.4,3.9,12.6,5.9c1.5-3.3,3-6.4,4.4-9.5c-0.8-0.4-1.3-0.8-2.1-0.9
			c-1.1,2.3-2.1,4.5-3.3,6.9c-1.2-0.6-2.3-1-3.3-1.7c1-2.1,1.9-4.1,2.8-6.1C37.4,106.1,36.8,106,36,105.7L36,105.7z M118.2,26.5
			c-0.2-0.8-0.4-1.5-1.1-2.1c-3,1.3-6,2.7-9.2,4.1c1.9,4.3,3.7,8.4,5.6,12.7c3.3-1.5,6.4-2.9,9.6-4.3c-0.3-0.9-0.5-1.5-1.1-2.1
			c-2.3,1-4.6,2-6.9,3c-0.5-1.2-1.2-2.2-1.4-3.5c2.1-1,4.1-1.9,6.2-2.8c-0.3-0.8-0.5-1.5-1-2c-2.1,0.9-4.1,1.8-6.3,2.7
			c-0.4-1-0.8-1.8-1.2-2.8C113.8,28.5,115.9,27.6,118.2,26.5L118.2,26.5z M67.9,68.1c1.6,1.4,3.2,1.9,5,1.1c1.9-0.7,3.3-2.1,4.2-3.9
			c0.8-1.6,0.6-3.1-0.6-4.5c-1.1-1.4-2.8-1.8-4.5-1.2c-0.9,0.3-1.8,0.9-2.7,1.3c-0.5,0.3-1.1,0.6-1.6,0.8c-0.5,0.2-1.1,0.3-1.5-0.2
			c-0.5-0.6-0.2-1.1,0.1-1.7c0.8-1.5,1.9-1.9,4.2-1.4c0.5-0.6,1.2-1,1.6-1.8c-1.1-1.2-2.5-1.5-4-1c-2,0.7-3.5,2.1-4.4,4.1
			c-0.6,1.3-0.4,2.6,0.6,3.7c1,1.1,2.2,1.6,3.7,1.2c0.8-0.2,1.6-0.5,2.3-0.9c0.7-0.4,1.5-0.8,2.2-1.1c0.7-0.3,1.4-0.4,2,0.2
			c0.5,0.6,0.5,1.4,0.1,2.2c-0.9,1.7-2.5,2.3-4.3,1.5c-0.2-0.1-0.4-0.2-0.7-0.1C69,66.8,68.5,67.4,67.9,68.1L67.9,68.1z M221.3,17.2
			c-0.3,1.5-0.7,2.9-1,4.2c-0.4,1.6-0.7,3.2-1.2,4.8c-0.4,1.3-1,1.7-2.3,1.7c-2.1-0.1-3.2-1.3-2.8-3.4c0.3-1.7,0.8-3.5,1.1-5.2
			c0.2-1.2,0.7-2.3,0.7-3.6c-0.9-0.1-1.6-0.5-2.6-0.5c-0.8,3.4-1.8,6.7-2.2,10.2c-0.2,1.9,0.8,3.2,2.4,4c0.7,0.4,1.5,0.6,2.4,0.8
			c3.4,0.7,5.2-0.4,6.1-3.7c0.7-2.5,1.2-5.1,1.8-7.6c0.1-0.4,0.4-0.8,0.1-1.3C223,17.5,222.3,17.2,221.3,17.2L221.3,17.2z
			 M328.7,138.2c0.3,1,0.4,1.9,0.9,2.8c3.9-3,7.7-6,11.6-9c0-1-0.4-1.9-0.8-2.9c-4.9-0.4-9.7-0.9-14.8-1.4c0.4,1.1,0.5,2,1,2.8
			c1.1,0.1,2.2,0.2,3.3,0.4c0.5,1.8,1,3.5,1.5,5.2C330.4,136.8,329.6,137.4,328.7,138.2L328.7,138.2z M121.9,321.2
			c-3.4,3.6-6.7,7.1-10.2,10.9c1.1,0.3,1.8,0.9,2.8,1c0.7-0.8,1.5-1.5,2.3-2.4c1.7,0.7,3.3,1.3,5,2c0,1.1,0,2.2,0,3.3
			c0.9,0.4,1.7,0.9,2.8,0.9c0-5,0-9.9,0-14.8C123.7,321.9,122.9,321.6,121.9,321.2L121.9,321.2z M94.7,52.3
			c-4.3-2.8-8.4-5.5-12.5-8.2c-0.6,0.4-1,0.7-1.4,0.9c-0.9,0.5-1,1.1-0.7,2.1c0.6,2.2,1.1,4.4,1.6,6.6c0.5,2.1,1.1,4.2,1.6,6.4
			c0.9-0.5,1.6-1,2.3-1.5c0-1.2-0.6-2.2-0.6-3.4c1.5-1,2.9-2,4.4-3c1.2,0.5,1.9,1.4,3,1.7C93,53.4,93.7,52.9,94.7,52.3L94.7,52.3z
			 M236.9,36.2c0.9,0.4,1.7,0.7,2.8,0.8c-0.3-4.9-0.6-9.8-0.9-14.6c-0.9-0.5-1.8-0.8-2.9-1c-3.1,3.8-6.2,7.5-9.3,11.3
			c0.9,0.5,1.8,0.8,2.7,0.9c0.9-0.7,1.3-1.8,2.2-2.4c1.7,0.6,3.4,1,5.1,1.7C236.7,34,236.8,35.1,236.9,36.2L236.9,36.2z M15.3,152.5
			c2.6,2,11.3,7.4,12.6,7.7c0.1-0.9,0.5-1.7,0.4-2.6c-0.9-0.6-1.8-1.1-2.7-1.7c0.3-1.9,0.6-3.6,1-5.3c1.1-0.6,2.3-0.3,3.3-0.9
			c0-0.9,0.6-1.7,0.2-2.8c-4.8,0.9-9.6,1.8-14.3,2.8C15.6,150.7,15.2,151.5,15.3,152.5L15.3,152.5z M22,171.9c0-1.6,0.1-3,0-4.4
			c-0.2-1.9-1.7-3.2-3.7-3.4c-2.2-0.2-4,0.8-4.5,2.6c-0.6,2.5-0.5,5.1-0.4,7.8c4.7,0.2,9.2,0.3,13.7,0.5c0.2-1,0.2-1.8,0.1-2.7
			C25.5,171.9,23.8,172.2,22,171.9L22,171.9z M152,338.9c-0.2,0.4-0.4,0.7-0.7,1c-0.8,1-1.8,1.4-3.1,1.2c-1.3-0.2-2.1-1-2.4-2.3
			c-0.4-2-0.1-4,1-5.8c0.7-1.1,1.7-1.5,3-1.4c1.2,0.1,2.1,0.7,2.5,1.9c0.1,0.3,0.1,0.7,0.5,0.9c0.7,0,1.6,0.1,2.4-0.2
			c0-0.3,0-0.5,0-0.7c-0.8-4.5-7.2-5.5-10-2.8c-2.3,2.1-3.2,6.6-1.8,9.4c1.2,2.4,3.3,3.4,5.8,3.4c2.4,0,4-1.2,5-3.5
			C153.6,339.6,152.9,339.2,152,338.9L152,338.9z M137.4,335.6c-0.3,0.3-0.5,0.5-0.7,0.8c-0.9,1.1-2.1,1.4-3.4,1
			c-1.3-0.5-2-1.5-2-2.8c-0.1-1.9,0.4-3.6,1.5-5.2c0.9-1.2,2.3-1.5,3.7-1c1.4,0.5,1.8,1.6,2.1,3c0.9,0.1,1.8,0.3,2.7-0.1
			c0-1.3-0.3-2.3-1.1-3.3c-2.5-3.1-7.7-2.9-10,0.3c-1.1,1.5-1.6,3.1-1.8,5c-0.3,4.1,2.7,7.1,6.8,6.8c2-0.1,3.4-1.2,4.4-2.9
			C138.9,336.4,138.2,336,137.4,335.6L137.4,335.6z M332.9,118.2c1.3-1.1,1.5-1.5,1.8-2.6c0.9-3.5-2-7.5-5.6-7.7
			c-2.1-0.1-3.9,0.6-5.6,1.7c-3.2,2.1-3.9,5.8-1.7,9c1.4,2,3.3,2.7,5.8,2.1c0-0.2,0.1-0.3,0-0.5c-0.1-0.6-0.2-1.3-0.3-1.9
			c-0.4-0.3-0.7-0.2-1-0.2c-1.6-0.1-2.6-0.7-3.1-2.1c-0.4-1.3,0-2.6,1.1-3.6c0.9-0.8,2-1.3,3.2-1.7c1.8-0.6,3.3-0.2,4.2,1.1
			c0.9,1.3,0.8,2.4-0.3,4.1c0,0,0,0.1,0,0.3C331.8,116.8,332.3,117.5,332.9,118.2L332.9,118.2z M92.6,36.8c2.3,4.1,4.5,8.1,6.7,12.1
			c0.9-0.4,1.7-0.8,2.4-1.4c-0.9-1.7-1.8-3.3-2.7-5c1.6-1.2,3.4-1.8,4.9-3c-0.4-0.7-0.6-1.3-1.2-1.9c-1.7,0.9-3.2,1.8-4.9,2.7
			c-0.6-0.9-1.2-1.8-1.5-2.9c1.9-1.1,3.8-2.1,5.7-3.2c-0.2-0.4-0.3-0.7-0.5-1c-0.2-0.3-0.3-0.7-0.8-0.9
			C98.1,33.7,95.5,35.2,92.6,36.8L92.6,36.8z M319.4,89.6c1.3,1.9,2.4,3.7,3.7,5.6c0.7-0.5,1.4-0.7,1.9-1.4
			c-1.7-2.6-3.3-5.1-5.1-7.8c-3.9,2.6-7.8,5-11.6,7.5c0.5,0.9,0.9,1.7,1.6,2.3c1.6-1,3.2-2,4.8-3c1.3,1.5,2.1,3.3,3.4,4.7
			c0.6-0.5,1.3-0.7,1.7-1.3c-1-1.6-2-3.1-3-4.8C317.6,90.8,318.4,90.3,319.4,89.6L319.4,89.6z M285.2,66.8c1.1-1.2,2.1-2.2,3.1-3.3
			c0.6-0.7,1.3-1.1,2.2-1.3c2.6-0.6,5.1-1.3,7.9-2.1c-0.9-0.8-1.6-1.5-2.3-2.1c-2.1,0.4-3.9,1.3-6.1,1.6c0.4-1.8,0.7-3.4,1.1-5
			c0.1-0.4,0.4-0.9,0-1.3c-0.7-0.6-1.1-1.5-2.2-1.7c-0.5,2.6-1,5.1-1.4,7.6c-0.2,1-0.5,1.8-1.2,2.5c-1,1-2,2.1-3,3.2
			C283.9,65.5,284.5,66.1,285.2,66.8L285.2,66.8z M141.2,16.5c2,2.2,3.8,4.2,5.6,6.1c0.5,0.6,0.9,1.2,1,2c0.3,1.5,0.4,3,0.9,4.6
			c0.9-0.2,1.8-0.2,2.5-0.6c0-2.2-1.2-4.2-0.6-6.3c0.6-2,1.6-3.9,2.3-5.8c0.3-0.7,0.7-1.4,0.7-2.1c-0.6-0.2-1,0.1-1.5,0.1
			c-1.2,0-1.6,0.6-1.9,1.6c-0.5,1.5-1.1,2.9-1.6,4.4c-0.6-0.3-0.9-0.8-1.3-1.2c-0.8-0.9-1.6-1.8-2.4-2.8c-0.4-0.5-0.8-0.7-1.4-0.6
			C142.9,16.2,142.2,16.3,141.2,16.5L141.2,16.5z M17.7,139.6c0.8,0.4,1.5,0.6,2.2,0.6c0.6-1.2,0.7-2.6,1.3-3.7
			c3.7,0.8,7.2,2.2,11,3c0.3-0.9,0.7-1.7,0.7-2.6c-3.6-1.1-7.3-2.1-10.9-3.2c0.2-1.5,0.8-2.6,0.9-4c-0.7-0.2-1.4-0.6-2.2-0.4
			C19.7,132.7,18.7,136.1,17.7,139.6L17.7,139.6z M216.5,328.1c-3.5,0.7-7,1.4-10.5,2c-0.1,0.9,0.1,1.5,0.4,2.3
			c1.3-0.2,2.5-0.4,3.9-0.7c0.8,3.8,1.5,7.5,2.2,11.3c1-0.2,1.8-0.4,2.6-0.6c-0.5-3.8-1.6-7.5-2-11.2c1.3-0.5,2.7-0.4,3.8-1
			C216.9,329.5,216.9,328.8,216.5,328.1L216.5,328.1z M135.2,32.7c-1.2-3.6-2.3-7.2-3.5-10.9c1.4-0.5,2.5-0.9,3.8-1.3
			c-0.1-0.8-0.3-1.5-0.7-2.2c-3.5,1.1-6.9,2.3-10.5,3.4c0.5,0.8,0.5,1.5,0.9,2c1.3-0.1,2.5-0.9,3.9-0.9c1.2,3.6,2.4,7.2,3.5,10.7
			C133.5,33.3,134.3,33.1,135.2,32.7L135.2,32.7z M283.5,46.8c-3.1-2.1-6.1-4.1-9.1-6.1c-0.5,0.7-1,1.2-1.2,2
			c1.1,0.8,2.1,1.5,3.3,2.2c-2.2,3.2-4.3,6.3-6.4,9.5c0.7,0.7,1.4,1.2,2.3,1.5c2.1-3.1,4.2-6.2,6.4-9.4c1.3,0.6,2.2,1.6,3.5,2.1
			C282.7,48,283,47.5,283.5,46.8L283.5,46.8z M50.4,77.8c3.1,2.4,6,4.7,9,7c0.7-0.7,1.2-1.4,1.7-2.2c-3-2.4-6-4.7-9-7.1
			c0.9-1.2,1.7-2.2,2.4-3.2c-0.6-0.6-1.1-1.1-1.9-1.4c-2.2,2.8-4.4,5.7-6.6,8.5c0.6,0.6,1.1,1.1,1.8,1.4
			C48.7,79.9,49.4,78.9,50.4,77.8L50.4,77.8z M245,40c3,1.5,5.9,2.8,8.8,4.3c0.3-0.8,0.8-1.3,0.8-2.1c-2-1-4-2-6.1-3
			c1.7-3.5,3.3-6.8,4.9-10.2c-0.9-0.5-1.6-0.9-2.5-1.2C249,31.7,247.1,35.7,245,40L245,40z M266.6,35.6c-2.5,4-4.9,7.8-7.3,11.7
			c0.8,0.6,1.5,1.1,2.4,1.4c2.4-3.9,4.8-7.7,7.3-11.6C268.1,36.6,267.4,36.2,266.6,35.6L266.6,35.6z M202.6,344.4
			c1-0.1,1.9,0,2.7-0.4c-0.6-4.5-1-9.1-1.7-13.7c-1,0.2-1.8,0.3-2.7,0.5C201.4,335.4,202,339.8,202.6,344.4L202.6,344.4z M23,122.7
			c4.3,1.5,8.6,3,13,4.5c0.3-1,0.6-1.7,0.9-2.6c-4.4-1.5-8.7-3-13-4.5C23.4,121,23.2,121.7,23,122.7L23,122.7z M255.9,321.7
			c-0.2,1.2-0.8,2.1-0.8,3.4c1-0.7,1.9-1.3,2.7-1.9c1.1,0.4,1.8,1.4,3,1.8c-0.4-1.2-0.7-2.2-1-3.2c0.7-0.9,1.8-1.3,2.7-2.4
			c-1.3,0-2.4,0-3.5,0c-0.4-1.1-0.7-2.1-1.1-3.2c-0.7,1.1-0.7,2.3-1.5,3.3c-1,0-2.1,0-3.4,0C254.1,320.4,255,321,255.9,321.7
			L255.9,321.7z"/>
	</g>
	<path fill="#A1EBFA" d="M189.3,356.1c-0.4-0.1-0.9-0.1-1.3-0.1c1.1-0.1,2.1-0.3,3.2-0.2C190.6,355.9,189.9,356,189.3,356.1
		L189.3,356.1z"/>
	<path fill="#12BFFC" d="M118.3,236.3c-2.4-2.4-4.9-4.7-7.1-7.2c-8.3-9.3-14.7-19.8-19.7-31.2c-4.3-9.8-7.3-20-8.9-30.6
		c-0.8-5.6-0.9-11.3-0.4-16.9c0.9-10,3.1-19.7,7-29c9-21.6,23.9-37.9,44.5-48.9c10.5-5.6,21.6-9.1,33.4-10.8
		c8.3-1.2,16.6-1.5,24.9-0.6c11.3,1.2,22,4.4,32.2,9.6c18.7,9.5,33.4,23.4,44.2,41.4c5.8,9.7,9.9,20.2,11.9,31.4
		c1.2,6.4,1.4,12.9,1,19.4c-0.3,5.7-0.7,11.4-1.5,17.1c-1.2,8.1-3,16.1-6.4,23.7c-3.5,8-8.6,14.8-14.9,20.8
		c-3.9,3.7-8.1,7.1-12.4,10.4c-0.7,0.5-1.4,1.1-2.1,1.7c-0.5,0.3-0.9,0.4-1.3-0.2c-0.2-0.3-0.5-0.6-0.8-0.9
		c-8.8-9.9-17.6-19.7-26.4-29.6c-0.2-0.2-0.5-0.4-0.4-1c0.2-0.2,0.5-0.4,0.8-0.7c1.7-0.9,3.1-2.3,4.6-3.5c6.9-5.8,11.9-13,14.5-21.7
		c1.9-6.5,2.6-13.2,2.6-20c0-4.7-0.8-9.2-2.3-13.5c-5.5-15.7-15.8-27.3-30.3-35.1c-11.1-5.9-23-7.6-35.3-4.9
		c-15.7,3.6-27.7,12.5-36.2,26.1c-5.1,8.1-7.8,17-8.6,26.5c-0.6,7.7,0.4,15.1,3.5,22.3c2.6,6,6.1,11.4,10.1,16.6
		c2.2,2.9,4.4,5.7,7,8.2c0.4,0.4,0.7,0.9,1.1,1.3c4.1,4.4,8.4,8.6,12.8,12.6c11.6,10.6,23.9,20.3,36.5,29.7c1,0.8,2.1,1.6,3.1,2.4
		c-0.3,0.4-0.7,0.3-1,0.3c-17.6,0-35.2,0-52.9,0c-0.7,0-1.3-0.1-1.9-0.4c-7.4-2.6-14.1-6.3-20.3-11.1
		C121.3,238.7,119.8,237.5,118.3,236.3L118.3,236.3z"/>
	<path fill="#ED0F5C" d="M216,204.1c-0.3,0.3-0.6,0.5-0.8,0.7c-0.1,0.6,0.2,0.7,0.4,1c8.8,9.9,17.6,19.7,26.4,29.6
		c0.3,0.3,0.6,0.5,0.8,0.9c0.4,0.5,0.8,0.4,1.3,0.2c5.2,6,10.4,11.9,15.8,18c-52.5,0-104.7,0-157.3,0c5.3-6.2,10.5-12.1,15.7-18.1
		c1.5,1.2,2.9,2.3,4.4,3.5c6.2,4.8,12.9,8.6,20.3,11.1c0.6,0.2,1.3,0.4,1.9,0.4c17.6,0,35.2,0,52.9,0c0.3,0,0.7,0.1,1-0.3
		c-1-0.8-2.1-1.6-3.1-2.4c-12.5-9.4-24.9-19.1-36.5-29.7c-4.4-4-8.7-8.2-12.8-12.6c-0.4-0.4-0.7-0.8-1.1-1.3
		c0.4-0.4,0.8-0.8,1.1-1.2c9.5-11,19-21.9,28.6-32.9c0.4-0.5,0.8-1.1,1.4-1.4c0.5,1,1.2,1.6,2.3,1.7c0.2,0.5,0.2,1.1-0.2,1.2
		c-1.1,0.4-1.2,1.6-2,2.2c-0.4,0.3-0.5,0.9-0.5,1.5c-0.1,1.6,1.1,2.4,2.1,3.2c0.7,0.6,0.9,1.3,0.2,1.7c-0.8,0.4-1.1,1.2-1.7,1.8
		c-0.8,0.8-0.8,2.2,0.1,3c0.7,0.7,0.7,2,2,2.1c0.2,0,0.3,0.4,0.3,0.7c0.1,0.4,0.1,0.7,0.5,1c0.7,0.7,0.8,1.5,0.8,2.4
		c0,1.9,0,3.9,0,5.8c0,0.4-0.1,0.8,0.4,1.1c0.7-0.1,0.6-0.8,0.6-1.3c0-1.8-0.1-3.7,0-5.5c0.1-1.9,0.3-3.9,2.2-5
		c0.7-0.4,0.9-1.1,0.9-1.8c0-0.8-0.1-1.5-0.2-2.3c0-0.4-0.2-0.8-0.7-0.8c-0.5,0-0.6,0.5-0.6,0.9c0,0.8,0.1,1.5-0.1,2.3
		c-0.2,0.7-0.4,1.1-1.2,1c-0.5-1.2-0.4-2.4-0.2-3.6c0.1-0.9,1.1-0.6,1.6-1.2c-0.2-1-0.4-2.2,1-2.8c0.3-0.1,0.3-0.7,0.4-1
		c0.5-1.6,0.6-3.2-0.8-4.5c-0.2-0.2-0.3-0.6-0.5-0.9c-0.5-0.9-0.5-1.2,0.5-1.6c0.7-0.3,1.1-0.6,1.3-1.4c0.8,0.1,1,0.8,1.5,1.3
		c6.9,7.8,13.7,15.7,20.6,23.5C210.2,197.6,213.1,200.9,216,204.1L216,204.1z"/>
	<path fill="#12BFFC" d="M206.9,279.9c0.2,0.1,0.4,0.3,0.6,0.3c3.3,1.5,4.3,4.5,3.7,7.6c-0.7,3.4-3.2,5.7-6.6,6
		c-3.8,0.3-7.5,0.2-11.3,0.2c-1.4,0-2.7,0-4.2,0c0-9,0-17.7,0-26.4c0.4-0.4,0.8-0.3,1.2-0.3c3.6,0,7.2,0,10.8,0
		c1.1,0,2.2,0.1,3.3,0.3c2.8,0.5,4.7,2.1,5.4,4.8c0.7,2.7-0.1,5-2.4,6.8C207.3,279.3,207,279.5,206.9,279.9L206.9,279.9z
		 M194.5,282.4c-0.1,2.5-0.1,4.7,0,7c2.5,0,4.9,0,7.3,0c0.4,0,0.9,0,1.3-0.1c2.1-0.5,3.1-2.1,2.6-4.2c-0.4-1.6-1.6-2.4-3.1-2.5
		C200,282.3,197.4,282.4,194.5,282.4L194.5,282.4z M194.6,277.9c2,0,3.9,0,5.9,0c0.7,0,1.3,0,2-0.1c1.5-0.3,2.5-1.6,2.4-3.1
		c-0.1-1.4-1-2.6-2.5-2.7c-2.6-0.1-5.2,0-7.9,0C194.4,273.9,194.4,275.8,194.6,277.9L194.6,277.9z"/>
	<path fill="#12BFFC" d="M119.7,294c-1.5,0.1-3.1,0.1-4.7-0.1c0-8.8,0-17.6,0-26.5c1.6-0.2,3.2-0.1,4.9,0c0.6,0,0.8,0.7,1.1,1.2
		c3,4.8,5.9,9.6,8.9,14.5c0.3,0.5,0.6,1,1.2,1.4c0-5.6,0-11.2,0-17c1.7-0.2,3.3-0.1,5,0c0,8.9,0,17.7,0,26.5
		c-1.6,0.2-3.2,0.1-4.7,0.1c-0.7,0-0.9-0.5-1.2-1c-2.5-4-5-8-7.4-12c-0.7-1.2-1.5-2.3-2.2-3.6c-0.7,0.5-0.5,1.1-0.5,1.7
		c0,4.4,0,8.8,0,13.1C119.9,292.8,120,293.3,119.7,294L119.7,294z"/>
	<path fill="#12BFFC" d="M247.4,294c-1.7,0.1-3.4,0.1-5.2-0.1c0-3.8,0-7.6,0-11.5c-3.6-0.1-7-0.1-10.6,0c0,3.9,0,7.6,0,11.5
		c-1.9,0.2-3.5,0.1-5.3,0.1c0-8.9,0-17.7,0-26.6c1.7-0.1,3.4-0.1,5.2,0c0,3.5,0,6.8,0,10.1c1.3,0.4,7.7,0.5,10.6,0.2
		c0-3.4,0-6.8,0-10.3c1.9-0.1,3.5-0.1,5.1,0C247.6,268.7,247.7,291.6,247.4,294L247.4,294z"/>
	<path fill="#12BFFC" d="M175.9,293.8c-1,0.4-1.8,0.2-2.6,0.2c-1,0-2.1,0-3.2,0c-0.7-1.7-1.3-3.3-1.9-4.9c-0.3-0.9-0.8-1.2-1.7-1.2
		c-2.7,0.1-5.4,0.1-8.1,0c-1,0-1.5,0.4-1.8,1.3c-0.4,1.3-0.9,2.5-1.3,3.8c-0.2,0.7-0.6,1.1-1.4,1c-1.4-0.1-2.9,0-4.2,0
		c-0.4-0.6,0-1,0.1-1.4c3.1-8,6.2-16,9.3-24c0.4-1,0.9-1.4,1.9-1.3c1.4,0.1,2.8,0,4.3,0C168.9,276.1,172.4,284.9,175.9,293.8
		L175.9,293.8z M166.1,283.4c-1.2-3.2-2.3-6.3-3.5-9.3c-0.1,0-0.3,0-0.4,0c-1,3.1-2.4,6-3.2,9.3
		C161.4,283.4,163.6,283.4,166.1,283.4L166.1,283.4z"/>
	<path fill="#ED0F5C" d="M200.1,23.7c-0.8-0.4-1.4-1.1-2.3-1.4c-0.6,0.2-0.7,0.7-0.9,1.2c0.1,0.6,0.8,0.6,1,1.1
		c-1.6,0.4-3-0.3-3.6-1.8c-0.8-2.1-0.7-4.2,0.5-6c1.4-2.2,4.8-2,6.2,0.2C202.2,18.8,201.7,22,200.1,23.7L200.1,23.7z"/>
	<path fill="#ED0F5C" d="M339.4,148c1-0.4,2.1-0.5,3.2-0.7c0.5,1.3,0.8,2.7,0.8,4.2c0.1,0.9-0.4,1.4-1.3,1.6
		c-0.9,0.2-1.6-0.1-1.9-0.9C339.7,150.9,339.4,149.5,339.4,148L339.4,148z"/>
	<path fill="#ED0F5C" d="M161.1,337c0.1-1.1,0.2-2.2,0.3-3.3c1.4,0,2.7,0,4,0.3c1.1,0.2,1.6,0.9,1.5,1.8c-0.1,1-0.7,1.5-1.8,1.5
		C163.8,337.4,162.5,337.2,161.1,337L161.1,337z"/>
	<path fill="#ED0F5C" d="M304.7,82.9c-1.4,0-2.4-0.7-3.1-1.9c-0.8-1.2-0.7-2.6,0.1-3.8c0.8-1.4,2.1-2.3,3.5-2.9
		c1.6-0.6,3.2-0.1,4.3,1.3c1,1.4,1.1,3.1,0,4.4C308.1,81.6,306.7,82.8,304.7,82.9L304.7,82.9z"/>
	<path fill="#ED0F5C" d="M170.6,20c1.1,1,2,2,2.9,3c-1.4,1.4-3,1.7-3.9,0.7C168.6,22.7,168.9,21.4,170.6,20L170.6,20z"/>
	<path fill="#ED0F5C" d="M171.5,16.9c-1.4-1.3-1.6-1.9-1.1-2.5c0.6-0.6,1.7-0.5,2.2,0.1C173.2,15.2,172.9,15.8,171.5,16.9
		L171.5,16.9z"/>
	<path fill="#ED0F5C" d="M238,333.8c-1.2-2.9-2.3-5.7-3.4-8.5c1-0.6,2-1,3-1.2c1.3-0.3,2.4,0.1,3.2,1.2c0.9,1.3,1.5,2.8,1.7,4.4
		c0.2,1.2-0.3,2.2-1.4,2.7C240.1,332.9,239.1,333.3,238,333.8L238,333.8z"/>
	<path fill="#ED0F5C" d="M190,343.4c-0.3-3.1-0.5-6-0.8-9c1.2-0.2,2.3-0.4,3.4-0.3c1.1,0.1,2,0.7,2.4,1.8c0.6,1.7,0.8,3.5,0.4,5.4
		c-0.2,0.9-0.8,1.5-1.8,1.8C192.5,343.4,191.3,343.4,190,343.4L190,343.4z"/>
	<path fill="#ED0F5C" d="M337.3,131.6c-1.2,0.9-2.5,1.8-3.8,2.8c-0.7-1-0.8-2.2-1.2-3.4c1.7-0.1,3.2,0,4.8,0.2
		C337.2,131.4,337.2,131.5,337.3,131.6L337.3,131.6z"/>
	<path fill="#ED0F5C" d="M122,324.9c0,2,0,3.5,0,5.1c-1.3,0-2.2-0.7-3.6-1.1C119.6,327.5,120.7,326.4,122,324.9L122,324.9z"/>
	<path fill="#ED0F5C" d="M87.3,50.8c-1.1,0.8-2,1.4-3.1,2.1c-0.5-1.7-0.9-3.3-1.4-5.1C84.5,48.7,85.8,49.7,87.3,50.8L87.3,50.8z"/>
	<path fill="#ED0F5C" d="M236.2,25.2c0.3,1.8,0.3,3.3,0.3,5c-1.3-0.1-2.3-0.6-3.5-1C234,27.8,234.9,26.5,236.2,25.2L236.2,25.2z"/>
	<path fill="#ED0F5C" d="M18.9,151.8c1.7-0.4,3.3-0.7,5-0.9c0.1,1.2-0.3,2.3-0.5,3.5C21.7,153.7,20.4,152.8,18.9,151.8L18.9,151.8z"
		/>
	<path fill="#ED0F5C" d="M19.6,171.9c-1.4,0-2.6,0-3.8-0.2c-0.2-1.1-0.1-2.2,0.2-3.3c0.2-1,0.8-1.4,1.8-1.4c1,0,1.7,0.5,1.9,1.5
		C19.8,169.5,19.7,170.6,19.6,171.9L19.6,171.9z"/>
	<path fill="#578CC7" d="M181.6,136.2c0.4,0.4,0.8,0.3,1.2,0.2c4.2-1.7,7.3-4.5,8.7-8.9c0.4-1.4,0-2.8-0.3-4.1
		c-0.6,0.7-0.6,1.4-0.6,2.2c0,0.6-0.2,1.2-0.4,1.8c-1,2.1-2.1,4.1-3.9,5.7c-1.1,1.1-2.8,0.7-3.3-0.8c-0.1-0.3-0.1-0.7-0.1-1
		c0-2.3,0.1-4.5,0-6.8c0-1,0.4-1.3,1.4-1.5c1.5-0.3,2.9-0.9,3.3-2.6c1.1-0.2,1.5,1,2.3,1.1c0.4-0.3,0.2-0.6,0-0.9
		c-1.2-1.7-2.7-2-4.6-1.2c-1.6,0.7-1.6,0.7-2.9,0.4c0.3-1,0.6-2,1.4-2.7c1.3-1.3,2.6-1.5,4.2-0.7c1.4,0.7,2.5,1.6,3.5,2.7
		c1.8,2,2.8,4.3,2.9,6.9c0.1,2.1-0.6,4.1-1.7,5.8c-1.7,2.4-3.7,4.6-6.7,5.5c-0.4,0.1-0.7,0.3-1.1,0.5c-0.2,0.1-0.4,0.3-0.6,0.4
		c-0.1,0.6,0.1,0.9,0.5,1.1c1.1,0.6,1.5,1.8,2,2.7c0.6,0.9,0.5,2.3,0.1,3.5c-0.7,1.8-1.6,3.5-3.2,4.6c0,0.7,0.4,0.8,0.9,1
		c2.8,2.5,2.7,6.5,0.1,9c-0.5,0.4-1,0.9-1.2,1.6c0.7,0.9,1.9,1.5,2.2,2.8c0.7,1.8,0,3.6-0.4,5.3c-0.2,0.7-0.6,1.1-1.3,1.4
		c-1,0.4-1,0.7-0.5,1.6c0.2,0.3,0.3,0.6,0.5,0.9c1.4,1.3,1.2,2.9,0.8,4.5c-0.1,0.4-0.2,0.9-0.4,1c-1.4,0.6-1.2,1.8-1,2.8
		c-0.5,0.6-1.5,0.3-1.6,1.2c-0.1,1.2-0.3,2.4,0.2,3.6c0.8,0.1,1.1-0.4,1.2-1c0.2-0.8,0-1.5,0.1-2.3c0-0.4,0.1-0.8,0.6-0.9
		c0.5,0,0.7,0.4,0.7,0.8c0.1,0.8,0.2,1.5,0.2,2.3c0,0.7-0.2,1.4-0.9,1.8c-1.9,1.1-2.1,3.1-2.2,5c-0.1,1.8,0,3.7,0,5.5
		c0,0.5,0.1,1.1-0.6,1.3c-0.5-0.3-0.4-0.7-0.4-1.1c0-1.9-0.1-3.9,0-5.8c0-0.9-0.1-1.8-0.8-2.4c-0.3-0.3-0.4-0.6-0.5-1
		c0-0.3-0.1-0.7-0.3-0.7c-1.3-0.1-1.3-1.4-2-2.1c-0.8-0.8-0.9-2.2-0.1-3c0.6-0.6,0.9-1.4,1.7-1.8c0.8-0.4,0.5-1.1-0.2-1.7
		c-1-0.9-2.2-1.6-2.1-3.2c0-0.6,0.1-1.2,0.5-1.5c0.8-0.6,0.9-1.9,2-2.2c0.3-0.1,0.4-0.6,0.2-1.2c-1.1-0.1-1.8-0.8-2.3-1.7
		c0-0.2,0-0.5-0.1-0.6c-0.7-1.5-0.8-3-0.3-4.5c0.8-1,1.5-2,2.2-2.9c-0.2-0.9-0.9-1.2-1.4-1.8c-2.3-2.5-2.1-6.3,0.3-8.5
		c0.2-0.1,0.3-0.3,0.4-0.5c0.4-0.4,0.3-0.7-0.1-1c-0.4-0.4-0.9-0.9-1.3-1.3c-1.6-1.9-1.9-4.2-1.5-6.6c0.2-1,0.9-1.9,1.8-2.5
		c0.3-0.2,0.7-0.4,0.7-1c-0.3-0.6-1-0.9-1.6-1.1c-4.5-1.8-7.3-4.9-8.1-9.8c-0.8-4.9,2.1-9.1,6.1-11.1c1.8-0.9,3.3-0.5,4.4,1.3
		c0.5,0.7,1.2,1.3,1.1,2.4c-0.8,0.3-1.6,0-2.3-0.4c-2.4-1.3-4.1-0.8-5.6,1.6c-0.8,1.4-1.2,2.9-1.1,4.6c0.1,3.4,1.9,5.7,4.2,7.9
		c1.2,1.1,2.6,2,4.2,2.6l0,0c0.2,0.1,0.3,0.2,0.5,0.2c0.2,0.6,0.6,0.6,1,0.2c0.2-0.2,0.3-0.5,0.5-0.7
		C180.9,136.1,181.2,136.1,181.6,136.2L181.6,136.2z M183.6,168.3L183.6,168.3c1.3-2,0.7-3.8-1.7-4.6c-0.4,0.5-0.5,1.1-0.4,1.7
		c0.1,1-0.3,2.1,0,3.1c0.1,0.5,0.1,1,0.8,1.1c0.6,0.1,0.9-0.3,1.1-0.8C183.5,168.7,183.7,168.6,183.6,168.3L183.6,168.3z
		 M179.8,165.5c0.6-0.5,0.7-1.1,0.2-1.7c-2.4,0.4-3.2,2.1-2.1,4c0.3,0.5,0.5,1.1,0.9,1.6c0.4,0.6,1,0.5,1.4,0
		C180.6,168.7,180.4,166.3,179.8,165.5L179.8,165.5z M180.3,148.3c0.2-2.8,0.2-5.4-0.1-8.1c-2,0.9-3.3,2.8-3.1,4.6
		C177.4,146.5,178.6,148,180.3,148.3L180.3,148.3z M182,148.7c1.3-1.5,3-2.4,2.6-4.5c-0.3-1.5-1-3-2.6-3.7
		C181.1,142.3,181.1,146.4,182,148.7L182,148.7z M180.1,152.1c-1.8,1-3,3-2.7,4.4c0.3,1.4,1.5,2.8,2.8,3
		C180.5,158,180.5,153.7,180.1,152.1L180.1,152.1z M181.7,159.2c0.5,0.3,0.9,0.2,1.2-0.1c0.6-0.7,1.3-1.5,1.5-2.5
		c0.3-1.8-0.8-3.7-2.6-4.3C181.4,154.6,181.5,156.9,181.7,159.2L181.7,159.2z M183.4,176.2c0.1-0.5-0.3-1.1-0.3-1.8
		c0-0.3-0.2-0.5-0.5-0.6c-0.4-0.1-0.7,0.1-0.8,0.4c-0.3,1.2-0.3,2.4-0.1,3.6c0.1,0.4,0.5,0.6,0.9,0.5c0.4-0.1,0.6-0.3,0.6-0.7
		C183.3,177.3,183.3,176.9,183.4,176.2L183.4,176.2z M180.4,175.8c0-0.2,0-0.8-0.1-1.3c-0.1-0.6-0.9-0.8-1.3-0.3
		c-0.6,0.7-0.8,2.6-0.3,3.5c0.3,0.4,0.6,0.6,1.1,0.6c0.5-0.1,0.6-0.5,0.6-0.9C180.4,176.9,180.4,176.5,180.4,175.8L180.4,175.8z
		 M180.5,184.2c0-0.5,0-1-0.1-1.4c-0.1-0.4-0.4-0.5-0.7-0.5c-0.3,0-0.5,0.1-0.6,0.4c-0.4,1.1-0.4,2.2,0.1,3.3
		c0.1,0.3,0.4,0.4,0.7,0.3c0.3,0,0.5-0.2,0.6-0.5C180.4,185.4,180.4,184.8,180.5,184.2L180.5,184.2z"/>
	<path fill="#A1EBFA" d="M167,120.8c-0.7,0.7-0.8,1.4-0.8,2.5c0.1,1.1,0,2.3-0.1,3.4c-0.9-1-0.2-2.3-0.5-3.4
		c-0.8,0.1-1.5,0.4-2.2,0.3c-0.8-0.2-1.2,0.3-1.4,1.1c-0.3,1.1,0,1.9,1,2.5c0.8,0.5,1.7,0.8,2.6,0.8c0.2,1.4,1,2.5,1.7,3.7
		c-0.2,0-0.3,0.1-0.5,0.1c-0.6,0.2-0.7,0.7-0.6,1.3c0.1,0.4,0.4,0.5,0.8,0.4c0.7-0.2,0.5-0.7,0.5-1.2c0-0.1,0-0.1,0-0.2
		c0.5,0.3,0.9,0.7,0.5,1.4c-0.4,0.6-1,0.8-1.6,0.5c-0.9-0.3-1.8-0.7-2.5-1.5c0.9,0.1,1.2-0.5,1.4-1.3c0.2-0.9,0.5-1.8-0.3-2.4
		c-0.8-0.6-2-0.5-3-0.7c-0.3-0.1-0.5,0.3-0.7,0.6c-0.3,0.6-0.3,1.2-0.4,1.8c-0.1,0.7,0.4,0.7,0.8,0.8c-0.5,0.8-0.4,1.7-0.4,2.6
		c0,15.6,0,31.2,0,46.9c0,2.6,0,2.6-2.5,2.6c-3,0-6,0-9,0c-0.5,0-1,0-1.5-0.1c-0.6-0.1-0.9-0.4-0.9-1c0-0.4,0-0.8,0-1.2
		c0-16,0-31.9,0-47.9c0-0.6-0.1-1.2,0.4-2c2.8,0,5.8,0,8.6-0.1c0.5-1-0.5-1.7-0.2-2.5c0.4,0.3,0.6,0.8,0.8,1.2
		c0.3,0.6,0.9,1,1.5,1.2c0.6,0.2,1.1,0,1.4-0.5c0.3-0.6,0.1-1.1-0.3-1.5c-0.2-0.2-0.5-0.3-0.7-0.4c-0.9-0.2-1.8-0.6-2.7-0.6
		c-0.6-0.3-1.3-0.1-1.9-0.1c-0.7,0-1.6,0.2-1.9-0.8c0.3,0,0.5,0.1,0.8,0.1c1.5,0.2,2.1-0.2,2.1-1.7c0.1-1-0.1-1.9-0.1-2.8
		c-0.4-0.2-0.7-0.2-1,0c-0.9,0.5-1.8,1-2.9,0.9c-0.5,0-0.6,0.4-0.6,0.8c-0.1,1.1,0.4,1.9,1.2,2.6c-0.7,0.3-1.2-0.2-1.3-0.7
		c-0.3-1.9-1.6-3-3.2-3.9c0.5-0.3,0.9-0.6,0.6-1.2c-0.1-0.2-0.1-0.5-0.1-0.8c0.3-0.1,0.5-0.1,0.8-0.2c0.6,0.8,1.3,1.5,2.3,1.9
		c1.4,0.6,1.6,0.6,2.9-0.6c-0.2-0.7-0.2-1.6-0.6-2.3c-1.1-0.3-1.9,0.4-2.8,0.5c1.2-1,2.6-1.3,4.2-1.1c0,0.5,0.1,1,0.1,1.5
		c0,0.7,0.3,1.1,1,1.4c0.5,0.2,0.9,0.6,1.4,0.9c0.9,0.6,2.7,0,2.6-1c-0.1-1.6,0.3-3.3,0.1-4.9c0.4-0.2,0.9-0.4,1.4-0.5
		c0,0.8-0.3,1.5-0.6,2.2c-0.5,1.4,0,2.8,1.2,3.6c1.4,1,2.5,0.9,3.8-0.2c-1-1.6-0.7-3.2,0.5-4.7c0.2-0.2,0.2-0.6,0.2-0.9
		c0.3,0,0.5,0,0.8,0c-0.2,1-0.4,1.9-0.6,2.9C166.2,119.6,165.7,120.5,167,120.8L167,120.8z M156.4,123.8c-0.1,1.1-0.5,2.2,0.3,2.8
		c0.9,0.8,2.1,1.5,3.5,1.2c0.6-0.1,1-0.4,1-1.1c0-1,0-2.1-0.1-3.1c-0.1-0.8-0.5-1.1-1.1-0.8C158.9,123.6,157.7,123.6,156.4,123.8
		L156.4,123.8z"/>
	<path fill="#A1EBFA" d="M212.7,120.2c0.4,0,0.8,0.1,1.3,0.1c-0.3,0.5-0.6,1.1-0.9,1.6c0.2,0.4,0.6,0.5,0.9,0.7
		c-0.8,0.6-1.4,1.3-2.5,1.2c-0.1-0.1-0.2-0.2-0.3-0.1c-1.3,0.1-2.6,0.1-3.7-0.8c0,0-0.1,0-0.2,0c-0.8-0.2-1.2,0.1-1.1,0.9
		c0.1,0.8,0.3,1.5,0.3,2.3c0,1.2,0.4,1.4,1.5,1.3c0.7-0.1,1.3-0.2,1.9-0.3c-0.4,0.7-1.2,0.8-1.9,0.8c-1.2,0-2.1,0.3-2.9,1.1
		c0-0.2-0.1-0.6-0.3-0.6c-1,0.3-2.1,0.2-2.9,1.1c-0.4,0.4-0.6,1-0.1,1.5c0.4,0.5,0.9,0.5,1.4,0.3c0.5-0.2,0.9-0.6,1.3-1
		c0,0.9,0.6,1,1.4,1c2.2,0,4.4,0,6.7,0c0.4,0,0.8,0,1.2,0c1.3,0.1,1.4,0.2,1.5,1.5c0,0.3,0,0.6,0,0.8c0,15.9,0,31.7,0,47.6
		c0,0.3,0,0.7,0,1c-0.1,1-0.3,1.3-1.3,1.3c-3.8,0-7.5,0-11.3,0c-1.1,0-1.2-0.2-1.3-1.3c0-0.4,0-0.9,0-1.3c0-15.7,0-31.4,0-47.1
		c0-0.8,0.3-1.8-0.7-2.4c0-0.5-0.1-1-0.1-1.5c0-1.5-0.5-1.9-2-1.5c-0.8,0.2-1.6,0.6-2.5,0.5c0-0.3-0.1-0.5-0.1-0.8
		c1.4,0.1,2.4-0.5,3.4-1.3c0.8-0.6,0.3-1.3,0.2-2c-0.1-0.7-0.5-1-1.1-0.9c-0.8,0.1-1.4-0.4-2.1-0.5c-0.4,0.3-0.4,0.6-0.4,0.9
		c-0.7-0.3-0.5-0.9-0.3-1.4c0.1-0.5,0.1-0.9-0.4-1.1c-0.8-0.5-0.9-1.3-1.3-2c0.5-0.1,1.2,0,1.1-0.8c-0.1-1-0.2-2.1-1.4-2.5
		c0.8-0.8,2-0.5,3-1c0.8-0.5,2.1-0.2,3.1,0.4c-0.8,0-1.6,0.1-2.5,0c-1.1-0.2-1.8,0.6-1.3,1.6c0.7,1.5,0.6,3,0.2,4.5
		c1.7,1.1,3.9,0.7,4.8-0.8c0.1-0.2,0.3-0.4,0.2-0.6c-0.3-1.1,0.3-2.3-0.6-3.3c-0.2-0.3-0.2-0.7-0.3-1.1c0.5,0.3,0.9,0.9,1.7,0.6
		c0.6-0.2,1.3,0.2,1.7,0.7c-0.6,0.4-1-0.7-1.7-0.2c-0.4,0.4-0.1,0.8-0.1,1.2c0,0.9,0.4,1.8,0.2,2.8c-0.3,1.1-0.1,1.4,1,1.5
		c0.7,0.1,1.5,0,2.1-0.4c1.9-1.1,2.5-2.3,0.5-3.7c-0.4-0.3-0.9-0.6-1.2-1.1c0.2,0.1,0.5,0.1,0.6,0.2c1,0.6,2.1,1.2,3.3,1.5
		c-0.5,0.6-0.4,1.4-0.6,2c-0.3,0.9,0.1,1.3,1,1.5C210.5,122.9,212.3,121.8,212.7,120.2L212.7,120.2z M200.7,122.9
		c-0.2,0.7-0.1,1.3,0,2c0.1,0.5,0.2,0.9-0.1,1.4c-0.5,0.9-0.3,1.2,0.7,1.5c1.1,0.3,2-0.2,3-0.7c0.4-0.2,0.7-0.5,0.6-0.9
		c-0.2-0.8,0.4-1.6,0.3-2.4c-0.7-0.5-1.6,0-2.3-0.3C202.3,123.2,201.8,122.6,200.7,122.9L200.7,122.9z"/>
	<path fill="#A1EBFA" d="M185.6,164.3c-0.4-1.2-1.5-1.8-2.2-2.8c0.2-0.7,0.8-1.2,1.2-1.6c2.7-2.5,2.8-6.5-0.1-9
		c0.2-0.1,0.3-0.2,0.5-0.2c3.2-0.1,6.4-0.1,9.4,0c0.5,0.4,0.5,0.8,0.5,1.2c0,3.7,0,7.4,0,11.1c0,0.7-0.1,1.4-1,1.3
		C191.2,164.3,188.4,164.5,185.6,164.3L185.6,164.3z"/>
	<path fill="#A1EBFA" d="M177.6,150.7c-0.1,0.2-0.3,0.3-0.4,0.5c-2.4,2.3-2.6,6-0.3,8.5c0.5,0.5,1.2,0.9,1.4,1.8
		c-0.7,0.9-1.5,1.9-2.2,2.9c-2,0-4.1,0-6.1,0c-0.8,0-1.2-0.3-1.2-1.2c0-3.9,0-7.7,0-11.6c0-0.2,0.1-0.4,0.2-0.8
		C171.8,150.6,174.7,150.7,177.6,150.7L177.6,150.7z"/>
	<path fill="#578CC7" d="M174.7,120.1c0.8,1.7,1.8,2.7,3.6,2.8c0.9,0.1,1.3,0.6,1.3,1.4c0,1.8,0.1,3.5,0.1,5.3c0,0.5-0.1,1,0,1.5
		c0.2,1.2-0.5,1.7-1.3,2.3c-0.7,0.4-1.3,0.4-2-0.2c-1.6-1.5-2.7-3.2-3.6-5.1c-0.5-1.2-1-2.4-0.9-3.8
		C172,122.4,172.9,121.1,174.7,120.1L174.7,120.1z"/>
	<path fill="#578CC7" d="M166.2,116.1c-0.1,0.3-0.1,0.7-0.2,0.9c-1.2,1.5-1.4,3.1-0.5,4.7c-1.3,1.2-2.4,1.2-3.8,0.2
		c-1.2-0.8-1.7-2.3-1.2-3.6c0.3-0.7,0.5-1.4,0.6-2.2c0.3-0.3,0.7-0.3,1-0.4c0.2,0.1,0.3,0.2,0.5,0c0.4-0.1,0.8-0.2,1.2-0.3
		c0.7,0.2,1.4,0.6,2.1,0.3C166,115.9,166.1,116,166.2,116.1L166.2,116.1z"/>
	<path fill="#578CC7" d="M200.4,115.9c0.1,0.4,0.1,0.8,0.3,1.1c0.9,1,0.3,2.2,0.6,3.3c0.1,0.2-0.1,0.4-0.2,0.6
		c-1,1.5-3.2,1.9-4.8,0.8c0.4-1.5,0.5-3-0.2-4.5c-0.5-1,0.2-1.8,1.3-1.6c0.8,0.1,1.6,0,2.5,0C200,115.8,200.2,115.8,200.4,115.9
		L200.4,115.9z"/>
	<path fill="#578CC7" d="M159.7,116.6c0.3,1.6-0.2,3.3-0.1,4.9c0,1-1.7,1.6-2.6,1c-0.5-0.3-0.8-0.7-1.4-0.9c-0.6-0.2-0.9-0.7-1-1.4
		c0-0.5-0.1-1-0.1-1.5c0.3-0.8,1.1-0.8,1.7-1.1C157.4,117.2,158.5,116.8,159.7,116.6L159.7,116.6z"/>
	<path fill="#578CC7" d="M204.7,117.3c0.2,0.5,0.7,0.8,1.2,1.1c2,1.4,1.4,2.6-0.5,3.7c-0.6,0.4-1.4,0.4-2.1,0.4
		c-1.1-0.1-1.3-0.4-1-1.5c0.2-1-0.1-1.9-0.2-2.8c0-0.4-0.3-0.9,0.1-1.2c0.6-0.5,1.1,0.7,1.7,0.2
		C204.1,117.2,204.4,117.2,204.7,117.3L204.7,117.3z"/>
	<path fill="#578CC7" d="M180.5,118.8c0-0.4-0.2-0.8-0.1-1.1c0.1-1-0.2-1.7-0.9-2.5c-1.3-1.5-0.9-3.1,0.9-3.8c1.3,0.1,2.1,0.8,2.6,2
		c0,0.6,0,1.3-0.5,1.6c-0.9,0.5-1,1.3-1.1,2.2C180.8,117.6,181.3,118.5,180.5,118.8L180.5,118.8z"/>
	<path fill="#578CC7" d="M210,126.9c-0.6,0.1-1.3,0.2-1.9,0.3c-1.1,0.2-1.5-0.1-1.5-1.3c0-0.8-0.2-1.5-0.3-2.3
		c-0.1-0.8,0.3-1.1,1.1-0.9c0.1,0,0.1,0,0.2,0c1.1,0.9,2.4,0.9,3.7,0.8c0.1,0,0.2,0.1,0.3,0.1c-0.2,0.7-0.4,1.3-0.5,2
		C210.8,126.3,210.6,126.8,210,126.9L210,126.9z"/>
	<path fill="#578CC7" d="M151.8,127.2c-0.8-0.7-1.3-1.5-1.2-2.6c0.1-0.4,0.2-0.8,0.6-0.8c1.1,0,2-0.5,2.9-0.9c0.3-0.1,0.6-0.2,1,0
		c0,0.9,0.2,1.9,0.1,2.8c-0.1,1.5-0.7,1.9-2.1,1.7c-0.3,0-0.5-0.1-0.8-0.1C152.2,127.2,152,127.2,151.8,127.2L151.8,127.2z"/>
	<path fill="#578CC7" d="M196,128.6c0.9,0.2,1.7-0.2,2.5-0.5c1.4-0.4,1.9,0,2,1.5c0,0.5,0,1,0.1,1.5c-1.2,0.2-2.3,0.3-3.1,1.4
		c-0.3,0.4-0.7,0.5-1.2,0.4c0.3-1.4-0.5-2.6-0.6-3.9C195.8,129,195.9,128.8,196,128.6L196,128.6z"/>
	<path fill="#578CC7" d="M165.7,127.9c-1,0.1-1.8-0.3-2.6-0.8c-1-0.6-1.3-1.4-1-2.5c0.2-0.7,0.6-1.2,1.4-1.1
		c0.7,0.2,1.4-0.2,2.2-0.3c0.2,1.1-0.4,2.4,0.5,3.4C166.1,127.1,166.1,127.6,165.7,127.9L165.7,127.9z"/>
	<path fill="#578CC7" d="M161.7,131.3c-0.4-0.1-0.9-0.2-0.8-0.8c0.1-0.6,0.1-1.2,0.4-1.8c0.1-0.3,0.4-0.7,0.7-0.6
		c1,0.2,2.1,0.1,3,0.7c0.9,0.6,0.5,1.5,0.3,2.4c-0.2,0.8-0.4,1.4-1.4,1.3l0,0c0-0.2-0.1-0.3-0.3-0.3
		C163.3,131.3,162.6,131.1,161.7,131.3L161.7,131.3z"/>
	<path fill="#578CC7" d="M195.8,124.1c0.1-0.3,0.1-0.7,0.4-0.9c0.7,0.1,1.3,0.6,2.1,0.5c0.6-0.1,1,0.3,1.1,0.9
		c0.1,0.7,0.6,1.3-0.2,2c-1,0.8-2.1,1.4-3.4,1.3l0,0c-0.1-0.3-0.1-0.5-0.2-0.7C195.9,126.1,195.9,125.1,195.8,124.1L195.8,124.1z"/>
	<path fill="#578CC7" d="M212.7,120.2c-0.5,1.6-2.2,2.7-3.7,2.4c-0.9-0.2-1.2-0.7-1-1.5c0.2-0.7,0.1-1.4,0.6-2
		c0.8,0.1,1.5,0.7,2.3,0.6c0.1,0.2,0.3,0.2,0.4,0.1c0.2,0.1,0.5,0.2,0.7,0.3c0,0,0,0.1,0,0.1l0.1,0
		C212.4,120,212.5,120.1,212.7,120.2L212.7,120.2z"/>
	<path fill="#A1EBFA" d="M181.6,136.2c-0.4-0.1-0.7-0.1-1.1-0.2c-0.3-2.6-0.3-5.2-0.1-7.8c0.4,0,0.7-0.1,1.1-0.1
		C181.8,130.8,181.6,133.5,181.6,136.2L181.6,136.2z"/>
	<path fill="#578CC7" d="M150.4,119.9c0.9-0.1,1.7-0.8,2.8-0.5c0.4,0.7,0.4,1.5,0.6,2.3c-1.3,1.2-1.5,1.2-2.9,0.6
		c-1-0.4-1.6-1.1-2.3-1.9c0-0.1,0.1-0.2,0.1-0.2c0.2,0.1,0.4,0.1,0.6-0.1C149.6,120,150,120,150.4,119.9L150.4,119.9z"/>
	<path fill="#578CC7" d="M156.2,128.1c1,0,1.8,0.4,2.7,0.6c0.3,0.1,0.5,0.2,0.7,0.4c0.5,0.4,0.6,0.9,0.3,1.5
		c-0.3,0.6-0.8,0.7-1.4,0.5c-0.6-0.2-1.2-0.6-1.5-1.2c-0.2-0.4-0.4-0.9-0.8-1.2C156.2,128.5,156.2,128.3,156.2,128.1L156.2,128.1z"
		/>
	<path fill="#578CC7" d="M204.6,130.1c-0.4,0.3-0.9,0.7-1.3,1c-0.5,0.2-1,0.2-1.4-0.3c-0.4-0.5-0.3-1.1,0.1-1.5
		c0.8-0.8,1.9-0.7,2.9-1.1c0.2-0.1,0.2,0.3,0.3,0.6C204.9,129.2,204.8,129.7,204.6,130.1L204.6,130.1z"/>
	<path fill="#578CC7" d="M167,120.8c-1.2-0.3-0.8-1.2-0.6-1.8c0.2-0.9,0.4-1.9,0.6-2.9c0.2,0,0.4,0,0.6,0c0.1,0.9,0.7,1,1.4,1
		c0.1,0.1,0.2,0.3,0.2,0.4c-0.1,0-0.1,0.1-0.1,0.2c-0.1,0-0.1,0.1-0.1,0.1c-0.2,0-0.2,0.1-0.3,0.3c-0.4,0.6-1,0.9-1.2,1.6
		c-0.3,0.2-0.4,0.4-0.3,0.7C167.1,120.6,167,120.7,167,120.8L167,120.8z"/>
	<path fill="#A1EBFA" d="M195.7,129.1c0.1,1.3,0.9,2.5,0.6,3.9c-0.6,0.7-1.3,1.4-2.4,0.9c-0.6-0.3-1-0.6-0.2-1.1
		c0.6,0.8,0.9,0.9,1.4,0.4c0.7-0.8,0.5-1.4-0.6-2.2C195.1,130.4,195.2,129.6,195.7,129.1L195.7,129.1z"/>
	<path fill="#578CC7" d="M214,122.6c-0.3-0.2-0.7-0.3-0.9-0.7c0.3-0.5,0.6-1,0.9-1.6c0.3,0,0.6,0,0.8-0.1c0.2,0.3,0.5,0.5,0.7,0.8
		C215.4,121.9,214.6,122.2,214,122.6L214,122.6z"/>
	<path fill="#578CC7" d="M193.7,116.3c1.2,0.4,1.3,1.5,1.4,2.5c0.1,0.8-0.6,0.7-1.1,0.8l0,0c0-0.7-0.2-1.2-0.9-1.3l0,0
		c-0.1-0.3-0.2-0.7-0.3-1c0.1-0.1,0.2-0.2,0.3-0.3c0.2,0,0.3-0.1,0.3-0.3C193.4,116.5,193.5,116.4,193.7,116.3L193.7,116.3z"/>
	<path fill="#578CC7" d="M194.7,130.9c1.1,0.7,1.3,1.4,0.6,2.2c-0.5,0.5-0.8,0.4-1.4-0.4C194.1,132.1,194.4,131.5,194.7,130.9
		L194.7,130.9z"/>
	<path fill="#578CC7" d="M147.8,120.6c0,0.3,0,0.5,0.1,0.8c0.3,0.7,0,1-0.6,1.2c-0.6-0.2-0.9-0.6-1.1-1.1c0.1-0.3,0.1-0.6,0-0.9
		C146.8,120.3,147.3,120.2,147.8,120.6L147.8,120.6z"/>
	<path fill="#578CC7" d="M181.5,128.1c-0.4,0-0.7,0.1-1.1,0.1c-0.1-0.7-0.1-1.5,0.1-2.2c0.3,0,0.6,0,0.9,0
		C181.7,126.8,181.5,127.4,181.5,128.1L181.5,128.1z"/>
	<path fill="#A1EBFA" d="M181.4,126.1c-0.3,0-0.6,0-0.9,0c-0.3-0.5-0.2-1-0.2-1.4c0.4-0.2,0.7-0.3,1.1-0.5
		C181.7,124.8,181.7,125.4,181.4,126.1L181.4,126.1z"/>
	<path fill="#578CC7" d="M180.5,122.2c0-0.9,0-1.9,0-2.8c0.3,0.1,0.6,0.3,1,0.4c0.1,0.4,0.1,0.7,0,1.1
		C180.8,121.1,181.2,122,180.5,122.2L180.5,122.2z"/>
	<path fill="#A1EBFA" d="M183,113.3c-0.5-1.2-1.3-1.9-2.6-2C181.9,110.8,183.1,111.7,183,113.3L183,113.3z"/>
	<path fill="#A1EBFA" d="M181.4,119.7c-0.3-0.1-0.6-0.3-1-0.4c0-0.2,0-0.4,0-0.5c0.8-0.3,0.3-1.2,0.9-1.6
		C181.7,118,181.7,118.9,181.4,119.7L181.4,119.7z"/>
	<path fill="#578CC7" d="M181.4,124.1c-0.4,0.2-0.7,0.3-1.1,0.5c0-0.6,0-1.3,0.2-1.9c0.3,0,0.6,0,0.9,0.1
		C181.6,123.2,181.5,123.7,181.4,124.1L181.4,124.1z"/>
	<path fill="#A1EBFA" d="M181.4,122.8c-0.3,0-0.6,0-0.9-0.1c-0.1-0.2-0.1-0.4-0.1-0.6c0.7-0.2,0.4-1,0.9-1.3
		C181.7,121.5,181.7,122.1,181.4,122.8L181.4,122.8z"/>
	<path fill="#A1EBFA" d="M165.9,115.8c-0.8,0.3-1.4-0.2-2.1-0.3C164.6,114.9,165.3,115.2,165.9,115.8L165.9,115.8z"/>
	<path fill="#578CC7" d="M167.5,132.1c0,0.1,0,0.1,0,0.2c0,0.5,0.2,1-0.5,1.2c-0.3,0.1-0.7,0-0.8-0.4c-0.2-0.6-0.1-1.1,0.6-1.3
		c0.2-0.1,0.3-0.1,0.5-0.1C167.4,131.8,167.5,131.9,167.5,132.1L167.5,132.1z"/>
	<path fill="#A1EBFA" d="M169,117.1c-0.7,0-1.3-0.2-1.4-1C168.1,116.3,168.8,116.3,169,117.1L169,117.1z"/>
	<path fill="#A1EBFA" d="M192.9,118.2c0.7,0.1,0.9,0.7,0.9,1.3C193.3,119.2,193.1,118.7,192.9,118.2L192.9,118.2z"/>
	<path fill="#A1EBFA" d="M180,136.7c-0.4,0.4-0.8,0.4-1-0.2C179.4,136.4,179.7,136.5,180,136.7L180,136.7z"/>
	<path fill="#A1EBFA" d="M146.3,120.6c0.1,0.3,0.1,0.6,0,0.9C145.7,121.1,145.5,120.8,146.3,120.6L146.3,120.6z"/>
	<path fill="#A1EBFA" d="M215.5,121c-0.2-0.3-0.5-0.5-0.7-0.8C215.5,120.1,215.6,120.4,215.5,121L215.5,121z"/>
	<path fill="#A1EBFA" d="M149.3,120c-0.2,0.2-0.4,0.2-0.6,0.1C148.8,119.9,149,119.8,149.3,120L149.3,120z"/>
	<path fill="#A1EBFA" d="M167.2,120.5c-0.1-0.3,0-0.6,0.3-0.7C167.6,120.1,167.5,120.3,167.2,120.5L167.2,120.5z"/>
	<path fill="#A1EBFA" d="M192.6,117.1c0.1,0.3,0.2,0.7,0.3,1C192.4,118,192.1,117.7,192.6,117.1L192.6,117.1z"/>
	<path fill="#A1EBFA" d="M162.6,115.7c-0.1,0.2-0.3,0.2-0.5,0C162.3,115.6,162.4,115.6,162.6,115.7L162.6,115.7z"/>
	<path fill="#A1EBFA" d="M195.7,127.1c0.1,0.2,0.1,0.5,0.2,0.7C195.4,127.7,195.3,127.4,195.7,127.1L195.7,127.1z"/>
	<path fill="#A1EBFA" d="M211.3,119.6c-0.2,0.1-0.3,0.1-0.4-0.1C211.1,119.4,211.2,119.4,211.3,119.6L211.3,119.6z"/>
	<path fill="#A1EBFA" d="M193.3,116.5c0,0.2-0.1,0.3-0.3,0.3C193,116.7,193.1,116.5,193.3,116.5L193.3,116.5z"/>
	<polygon fill="#A1EBFA" points="212.2,119.9 212.1,120 212.1,119.9 212.1,119.9 212.2,119.9 	"/>
	<path fill="#A1EBFA" d="M169.1,117.7c0-0.1,0-0.1,0.1-0.2C169.2,117.6,169.2,117.7,169.1,117.7L169.1,117.7L169.1,117.7z"/>
	<path fill="#A1EBFA" d="M168.8,118.1c0-0.2,0.1-0.3,0.3-0.3C168.9,118,168.8,118,168.8,118.1L168.8,118.1z"/>
	<path fill="#A1EBFA" d="M163.6,132.2c0.2,0,0.3,0.1,0.3,0.3C163.8,132.4,163.7,132.3,163.6,132.2L163.6,132.2z"/>
	<polygon fill="#A1EBFA" points="178.5,136.3 178.5,136.2 178.5,136.3 	"/>
	<path fill="#A1EBFA" d="M180.1,152.1c0.4,1.6,0.4,5.8,0.1,7.4c-1.2-0.2-2.5-1.6-2.8-3C177.1,155.1,178.3,153.2,180.1,152.1
		L180.1,152.1z"/>
	<path fill="#A1EBFA" d="M181.7,159.2c-0.2-2.2-0.3-4.6,0-6.9c1.8,0.6,2.9,2.5,2.6,4.3c-0.2,1-0.8,1.8-1.5,2.5
		C182.6,159.4,182.2,159.5,181.7,159.2L181.7,159.2z"/>
	<path fill="#ED0F5C" d="M183.4,176.2c-0.1,0.7-0.1,1-0.1,1.4c-0.1,0.4-0.2,0.6-0.6,0.7c-0.4,0.1-0.9-0.1-0.9-0.5
		c-0.2-1.2-0.2-2.4,0.1-3.6c0.1-0.3,0.4-0.5,0.8-0.4c0.3,0.1,0.5,0.3,0.5,0.6C183.1,175.1,183.5,175.8,183.4,176.2L183.4,176.2z"/>
	<path fill="#ED0F5C" d="M177.9,167.8c0.6-0.8,1.3-1.5,1.9-2.3c0.6,0.8,0.8,3.2,0.4,3.9c-0.4,0.5-1,0.6-1.4,0
		C178.5,168.9,178.2,168.3,177.9,167.8L177.9,167.8z"/>
	<path fill="#ED0F5C" d="M181.6,165.4c1.1,0.7,2.2,1.4,2.1,2.9l0,0c-0.3,0-0.3,0.3-0.3,0.5c-0.2,0.5-0.4,0.9-1.1,0.8
		c-0.6-0.1-0.6-0.6-0.8-1.1C181.3,167.5,181.7,166.4,181.6,165.4L181.6,165.4z"/>
	<path fill="#ED0F5C" d="M180.4,175.8c0,0.7,0,1.1,0,1.5c0,0.4-0.1,0.8-0.6,0.9c-0.5,0.1-0.8-0.1-1.1-0.6c-0.5-0.8-0.3-2.8,0.3-3.5
		c0.4-0.4,1.1-0.3,1.3,0.3C180.4,175,180.4,175.6,180.4,175.8L180.4,175.8z"/>
	<path fill="#ED0F5C" d="M180.5,184.2c0,0.6-0.1,1.1-0.1,1.7c0,0.3-0.2,0.5-0.6,0.5c-0.3,0-0.6-0.1-0.7-0.3
		c-0.5-1.1-0.5-2.2-0.1-3.3c0.1-0.3,0.3-0.4,0.6-0.4c0.4,0,0.7,0.1,0.7,0.5C180.4,183.3,180.4,183.8,180.5,184.2L180.5,184.2z"/>
	<path fill="#578CC7" d="M156.4,123.8c1.3-0.2,2.5-0.2,3.6-0.9c0.6-0.4,1,0,1.1,0.8c0.1,1,0.1,2.1,0.1,3.1c0,0.7-0.4,0.9-1,1.1
		c-1.4,0.3-2.5-0.4-3.5-1.2C155.9,126,156.3,124.9,156.4,123.8L156.4,123.8z"/>
	<path fill="#578CC7" d="M200.7,122.9c1.1-0.4,1.6,0.3,2.3,0.6c0.7,0.3,1.5-0.2,2.3,0.3c0.1,0.8-0.5,1.5-0.3,2.4
		c0.1,0.4-0.3,0.7-0.6,0.9c-0.9,0.5-1.9,1-3,0.7c-1-0.2-1.2-0.5-0.7-1.5c0.3-0.5,0.2-0.9,0.1-1.4
		C200.6,124.3,200.5,123.6,200.7,122.9L200.7,122.9z"/>
</g>
</svg>
