<?xml version="1.0" encoding="utf-8"?>
<!-- Generator: Adobe Illustrator 19.0.0, SVG Export Plug-In . SVG Version: 6.00 Build 0)  -->
<!DOCTYPE svg PUBLIC "-//W3C//DTD SVG 1.1//EN" "http://www.w3.org/Graphics/SVG/1.1/DTD/svg11.dtd">
<svg version="1.1" id="Layer_1" xmlns="http://www.w3.org/2000/svg" xmlns:xlink="http://www.w3.org/1999/xlink" x="0px" y="0px"
	 viewBox="0 0 360 417" enable-background="new 0 0 360 417" xml:space="preserve">
<g>
	<g>
		<defs>
			<rect id="SVGID_1_" y="0" width="360" height="417"/>
		</defs>
		<clipPath id="SVGID_2_">
			<use xlink:href="#SVGID_1_"  overflow="visible"/>
		</clipPath>
		<path clip-path="url(#SVGID_2_)" fill="#E32129" d="M184.4,0c0.5,0.4,1.2,0.3,1.8,0.3c22.2,0.7,43.6,5.4,64.1,14.1
			c28.5,12.2,52.4,30.5,71.6,54.9c15.9,20.2,26.9,42.8,33.1,67.8c2.2,9,3.7,18.1,4.5,27.3c0.2,1.7,0.1,3.4,0.2,5.1
			c0,0.4-0.1,0.7,0.3,1c0,7.3,0,14.6,0,21.9c-0.4,0.1-0.3,0.4-0.4,0.7c-1.7,25.1-8.5,48.7-20.3,70.8c-17.4,32.6-42.4,57.5-74.9,75.1
			c-2.6,1.4-5.2,2.6-7.9,4.1c12.8,24.3,25.7,48.5,38.4,72.7c-0.5,0.5-1,0.3-1.5,0.4c-12.3,0.2-24.7,0.4-37,0.6
			c-0.6,0-1.3-0.3-1.9,0.3c-3.7,0-7.3,0-11,0c0.2-0.8-0.4-1.3-0.7-1.9c-10-18.6-20-37.1-30.1-55.7c-0.4-0.7-0.6-1.5-1.4-2.1
			c-10,1.7-20.1,2.6-30.4,2.7c-10.2,0-20.4-0.9-30.5-2.5c-0.2,0.3-0.4,0.6-0.5,0.8c-10.3,19-20.5,38.1-30.8,57.1
			c-0.2,0.4-0.7,0.9-0.5,1.5c-3.4,0-6.8,0-10.2,0c-0.6-0.5-1.3-0.3-1.9-0.3c-12.4-0.2-24.8-0.4-37.2-0.6c-0.6,0-1.2,0.1-2-0.3
			c3.1-6.1,6.3-12,9.5-18c3.2-6,6.4-12,9.5-18.1c3.2-6,6.4-12,9.6-18c3.2-6,6.3-12,9.5-18c-0.6-0.7-1.2-0.8-1.8-1.1
			c-30.7-14.8-55.4-36.4-74.1-64.9c-12.7-19.4-21.2-40.5-25.7-63.3c-1.7-8.5-2.7-17.2-3.1-25.9c0-0.5,0.4-1.3-0.6-1.3
			c0-4.9,0-9.7,0-14.6c0.8,0.1,0.6-0.5,0.6-0.9c0.2-2,0.2-4,0.4-6c1-12.9,3.4-25.5,7.2-37.9c9.6-31.2,26.5-57.9,50.5-80.1
			C78.8,29.2,102,15.9,128.1,7.9c11.4-3.5,23.1-5.8,35-6.9c3.8-0.3,7.5-0.6,11.3-0.7c0.4,0,0.9,0.1,1.2-0.3C178.5,0,181.5,0,184.4,0
			L184.4,0z M356.4,177.9c-1-96.4-81-175.4-178.8-173.9C81.6,5.4,3.5,84.6,4.2,181.5c0.7,94.9,77.9,175.1,177.4,174.6
			C280.1,355.6,357.8,274.2,356.4,177.9L356.4,177.9z M288.7,412.1c-11.9-22.5-23.7-44.9-35.6-67.4c-12.2,5.2-24.6,9.1-37.3,11.8
			c-0.1,0.7,0.2,1,0.4,1.4c9.7,17.9,19.4,35.8,29,53.8c0.6,1.1,1.2,1.5,2.4,1.4c13-0.2,26-0.4,39.1-0.6
			C287.3,412.4,287.9,412.6,288.7,412.1L288.7,412.1z M108.9,345.2c-11.9,22.4-23.6,44.7-35.4,66.9c0.8,0.4,1.4,0.3,2,0.3
			c13,0.2,25.9,0.4,38.9,0.6c1.3,0,2-0.4,2.7-1.6c9.5-17.6,19-35.2,28.4-52.8c0.3-0.6,0.8-1.1,0.7-1.9
			C133.5,354.3,121.1,350.3,108.9,345.2L108.9,345.2z"/>
	</g>
	<path fill="#E32129" d="M180.3,304.4C111.5,304.2,56,248.3,56,180c0-68.5,55.9-124.2,124.4-124.2c68.5,0,124.1,55.8,124.2,124.1
		C304.7,247.5,249.8,304.3,180.3,304.4L180.3,304.4z M180.2,59.5C113.5,59.6,59.8,114.2,59.8,180c0,66.5,54.4,120.7,120.7,120.6
		c66.3-0.1,120.4-54.2,120.4-120.6C300.8,113.6,246.6,59.5,180.2,59.5L180.2,59.5z"/>
	<path fill="#E32129" d="M39.4,255.5c-0.6,0.6-1.1,1.1-1.7,1.6c-1.3,1.2-2.8,1.6-4.6,1.4c-2.6-0.3-4.1-2.5-3.4-5
		c0.6-2.1,1.8-3.8,3.2-5.5c0.6-0.7,1.3-1.5,2-2.3c-0.8-1.5-1-3.1-2.3-4.3c-0.2-0.2-0.3-0.6-0.4-1c-2-5.9-4-11.7-6-17.6
		c-0.1-0.2-0.1-0.5-0.2-0.7c0.7-0.5,1.5-0.7,2.4-0.9c0.8,1.2,0.9,2.7,1.7,4.1c6.3-2.2,12.7-4.3,19.1-6.5c0.1,1.1-0.3,1.8-0.5,2.6
		c-0.1,0.7-0.8,0.7-1.3,0.9c-1.7,0.6-3.4,1.2-5.3,1.8c1.8,2,3.3,4,2.9,6.8c-0.5,3-2.1,5.2-4.3,7.2c-0.6-0.4-0.7-0.9-1.1-1.4
		c-0.5-0.8-1.1-1.5-1.8-2c-1.1-0.9-1.8-1-2.6-0.4c-1.3,1-1.7,1.9-1.3,3.1c0.8,2.4,2.4,4.4,3.3,7c6.2-2.8,12.3-5.5,18.6-8.2
		c0.3,1-0.1,1.8-0.2,2.6c-0.1,0.7-0.8,0.9-1.3,1.1c-3.7,1.7-7.4,3.3-11.2,5c-1.5,0.7-3.1,1.4-4.7,2.1c1.2,2.9,2.3,5.8,4.2,8.3
		c1.4-0.8,2.7-1.5,4-2.3c2.1-1.1,3.5-0.9,5,0.9c0.5,0.7,1.1,1.3,1.6,2c1.6,2,4.4,1.7,5.7-0.5c0.9-1.6,0.9-3.3,0.1-4.9
		c-0.9-1.9-2.3-3.2-4.3-4c-0.4-0.1-0.8-0.2-1.2-0.6c0.3-0.8,0.7-1.6,1.2-2.5c1.7,0.3,3.1,1.4,4.5,2.5c1.1-1.6,1.5-3.6,2.5-5.2
		c0.9,0,1.6,0.3,2.5,0.8c-0.7,1.8-1.5,3.5-2.3,5.4c1.9,0.6,3.8,1.1,5.6,1.6c0.1,1-0.2,1.9-0.3,2.8c-1.9-0.1-3.6-1-5.5-1.1
		c0.2,3.5-0.4,6.7-3,9.2c0.4,0.4,0.8,0.5,1.2,0.7c4.3,1.6,4.1,7.7,1,9.7c-1.6,1-3.2,2.2-4.8,3.3c-0.4,0.3-1,0.5-1.3,1
		c1,2.1,2.3,4,4.2,5.6c2.6-2.2,5.1-4.5,7.7-6.7c2.5-2.2,5-4.4,7.6-6.6c0.5,0.7,0.3,1.2,0.5,1.7c0.4,1-0.1,1.7-0.9,2.3
		c-3.8,3.2-7.5,6.5-11.3,9.8c-0.5,0.5-1.2,0.9-1.6,1.6c1.8,2.3,3.7,4.4,5.8,6.5c1.5-1.4,2.9-2.6,4.2-3.9c1.6-1.6,3.3-2.7,5.8-2.2
		c0.8-3.7,0.4-7.2,0.2-10.8c0.8-0.4,1.5-0.3,2.2-0.3c0.5,0.3,0.4,0.8,0.5,1.2c0.4,4.1,0.4,8.3-0.5,12.3c-0.2,0.8-0.4,1.6-0.9,2.4
		c-0.4,0.7-0.9,1.4-1.8,1.3c-0.9-0.1-1.4-0.6-1.7-1.4c-0.1-0.4-0.1-0.9-0.7-1.3c-1.7,1.5-3.4,3.1-5.3,4.8c1.3,1.4,2.5,2.7,3.7,4
		c-0.4,0.9-1.1,1.3-1.8,1.9c-0.6-0.3-0.9-0.8-1.3-1.2c-4.9-5.1-9.7-10.3-14.2-15.7c-1.1-1.4-2-3-3-4.5c-1.2-1.8-2.4-3.5-3.6-5.3
		c-0.4-0.6-0.6-1.3-1.5-1.5c-0.5-0.1-0.6-0.7-0.8-1.1c-2-3.4-3.9-6.7-5.8-10.1C40.2,256.5,40,255.9,39.4,255.5L39.4,255.5z
		 M55.8,260.6c-2-0.2-3.5-1.1-4.5-2.7c-0.4-0.6-0.9-1.2-1.3-1.7c-0.8-0.9-1.3-1.1-2.4-0.5c-1.1,0.6-2.2,1.3-3.4,1.9
		c0.4,0.7,0.7,1.3,1,1.8c1.6,3.4,4.1,6.3,6.3,9.4c0.5,0.6,0.8,1.4,1.5,1.9c0.2-0.1,0.3-0.1,0.3-0.2c0.4-2.4,0.8-4.8,1.2-7.2
		C54.5,262.3,54.6,261.3,55.8,260.6L55.8,260.6z M41.5,233.3c1.8-2.9,0.6-6.5-2.4-7.7c-0.3-0.1-0.6-0.2-0.9-0.1
		c-2.4,0.8-4.8,1.6-7.3,2.5c0.6,1.8,1.2,3.3,1.7,4.9C36.8,230.3,37.6,230.4,41.5,233.3L41.5,233.3z M55.9,269.9
		c1.6-1.1,3-1.9,4.2-2.9c1.4-1.1,1.4-2.9,0-4c-0.8-0.6-1.7-1.1-2.8-1.1c-0.1,0.2-0.2,0.3-0.2,0.4C56.7,264.7,56.3,267.1,55.9,269.9
		L55.9,269.9z M36,248.2c-1.6,1.5-2.7,3.1-3.3,5.1c-0.2,0.7-0.2,1.3,0.3,1.9c0.6,0.6,1.3,0.6,2,0.3c1.5-0.6,2.6-1.6,2.8-3.3
		C37.3,250.9,36.7,249.6,36,248.2L36,248.2z"/>
	<path fill="#E32129" d="M179.6,336.9c-1-0.1-1.4-0.7-2-1c-0.8-0.4-1-1-1-1.9c0-4.6,0-9.2,0-13.9c0-2.3,0-4.6,0-7
		c-1.4-0.5-2.7-0.2-4-0.2c-1.3-0.1-2.5,0-4,0c0,8.1,0,16,0,24.1c-1.2-0.4-1.9-1.1-2.7-1.6c-0.5-0.4-0.4-1-0.4-1.5c0-2.3,0-4.6,0-6.9
		c0-0.6,0.1-1.2-0.2-1.9c-2.3,0-4.6,0-7.1,0c-0.4,0.4-0.1,1-0.3,1.5c-0.4,1.2-1.3,1.7-2.4,1.2c-1.5-0.7-2.8-1.8-3.7-3.2
		c-0.8-1.1-0.2-2.4,1.2-2.6c0.6-0.1,1.2-0.1,1.7-0.1c0.3-0.6,0.3-1.2,0.1-1.7c-0.5-0.4-1.2-0.5-1.8-0.7c-2-0.8-3.7-2-4.7-3.9
		c-1.6-3.1,0.3-6.4,3.8-6.4c3.1-0.1,5.8,2.4,5.9,5.5c0.1,1.8,0,3.5,0,5.3c0,0.6,0,1.2,0,1.9c2.5,0,4.9,0,7.4,0
		c0.2-1.5,0.1-2.9,0.1-4.3c0-1.5,0-2.9,0-4.4c-1.2-0.5-2.4-0.4-3.5-0.2c-2.5,0.4-3.9-1-5.3-2.9c21.4,0,42.7,0,64,0
		c0.2,0.9,0.1,1.8,0,2.7c-1.6,0.5-3.4,0-5.2,0.4c0,7.9,0,15.8,0,23.8c-0.8-0.1-1.2-0.5-1.7-0.8c-1-0.5-1.4-1.3-1.4-2.5
		c0.1-3.7,0-7.4,0-11.1c0-0.6,0-1.2,0-2c-2.6,0-5.1-0.1-7.6,0c-1.2,0-2.1,1.1-2.3,2.5c-0.2,1-0.1,2,0.3,3.1c0.8,2.5,2.3,4.7,3.9,6.8
		c0.5,0.7,1.1,1.4,1.7,2.2c-0.5,0.7-1,1.2-1.8,1.8c-3-3.6-5.9-7.2-7.1-11.8c-1.1-3.9,1.3-7.2,5.4-7.6c1.8-0.1,3.6,0,5.5-0.1
		c0.7,0,1.3,0.1,2.1-0.2c0.2-1.4,0.1-2.8,0-4.3c-6.7,0-13.4,0-20.1,0c-0.4,0.3-0.3,0.9-0.3,1.3c0,1.9-0.1,3.8,0,5.7
		c0.2,2.7-0.4,5.1-2.9,6.7c2.6,3.6,5.8,6.3,9.3,8.9c-0.4,0.9-0.9,1.5-1.4,2.1c-0.6,0-0.9-0.4-1.3-0.7c-3.6-2.6-6.7-5.7-9.3-9.2
		c-0.9-1.2-1.7-2.4-2.2-3.8c-0.3-0.9-0.5-1.8,0.4-2.5c0.8-0.8,1.8-0.6,2.7-0.1c0.4,0.2,0.6,0.6,1.3,0.6c0.9-2.9,0.1-5.8,0.5-8.8
		c-1.6-0.4-3.2-0.2-4.6-0.2c-1.5,0-3,0-4.8,0c-0.1,2,0,4,0,6c0,2,0,4,0,6c0,1.9,0,3.9,0,5.8C179.6,332.8,179.6,334.8,179.6,336.9
		L179.6,336.9z M154.8,317.4c0.2-1.3,0.2-2.4,0.1-3.5c-0.1-1.2-0.6-1.7-1.6-1.9c-0.9-0.2-1.8,0.1-2.3,0.8c-0.5,0.7-0.4,1.7,0.3,2.5
		C152.1,316.4,153.3,317,154.8,317.4L154.8,317.4z"/>
	<path fill="#E32129" d="M312.4,213.7c0.6-1,1.3-1.5,2-2.1c0.4-0.3,0.8-0.1,1.2,0c1.8,0.4,3.6,0.8,5.7,1.3c-0.6-2.8-0.6-5.4,1.3-7.5
		c1.9-2.1,4.4-3.1,7.1-3.5c0.4,0.6,0.2,1.2,0.3,1.7c0,0.8,0.1,1.6,0.3,2.3c0.6,2.1,1.6,2.5,3.6,1.7c0.6-0.3,1-0.6,1.2-1.3
		c0.7-2.7,1-5.5,1.2-8.5c-6.8-0.7-13.4-1.4-20.2-2.2c0.3-1,1-1.5,1.5-2.2c0.5-0.6,1.1-0.4,1.7-0.3c3.9,0.4,7.7,0.8,11.6,1.2
		c1.8,0.2,3.6,0.4,5.5,0.6c0.9-2.7,0.3-5.4,0.5-8.3c-6.9-0.1-13.6-0.2-20.5-0.3c0.5-1.2,1.1-1.9,1.8-2.7c2.2,0,4.3,0,6.7,0
		c-1.1-2.6-1.7-5.2-0.2-7.7c1.5-2.4,3.8-3.7,6.3-5c-0.3-2.1-0.6-4.1-0.8-6.1c-0.3-2.4-2.2-2.7-3.8-2.3c-0.9,0.3-1.8,0.7-2.6,1.3
		c-1.5,1-2.8,2.2-4,3.4c-0.4,0.4-0.8,1-1.3,1.2c-0.6-0.3-1-0.9-1.5-1.5c2.5-2.8,5.1-5.4,8.6-6.9c4.1-1.7,7.2,1,7.4,4.4
		c0.1,1.3,0.4,2.6,0.6,4c0.1,0.6,0.3,1.3,0,2c-0.7,0.1-1.4,0.3-2.2,0.4c0,1.7,0.5,3.2,1.4,4.6c0.5,0.7,1.1,1.3,2.1,1
		c1.3-0.4,2.2-1.1,2.2-2.3c0-1.3,0-2.5,0-3.8c1-0.3,1.8-0.2,2.6-0.1c0.4,0.7,0.2,1.3,0.2,1.9c-0.1,5.7-0.3,11.4-0.3,17.1
		c0.1,4.3-0.6,8.6-1.1,12.9c-0.5,5-2.2,9.7-3.1,14.6c-1.5,8.1-4.5,15.8-6.9,23.6c-0.1,0.2-0.2,0.5-0.5,0.6c-0.5,0.1-1-0.3-1.5-0.4
		c-0.3-0.1-0.6-0.2-0.8-0.5c0.1-1.3,1-2.5,1-4.1c-6.3-2.1-12.7-4.1-19-6.2c0.1-0.7,0.6-0.9,1-1.2c0.8-0.8,1.7-1,2.8-0.5
		c2.1,0.8,4.3,1.4,6.4,2.1c0.4,0.1,0.8,0.2,1.4,0.4c0.7-1.8,1.3-3.6,1.8-5.4c-0.5-0.7-1.2-0.7-1.8-1c-1-0.5-1.2-1.4-0.4-2.2
		c1.2-1.1,2.7-1.7,4.3-1.6c1.3,0.1,1.9,1.1,1.6,2.5c-0.3,1.2-0.8,2.4-1.2,3.6c-0.5,1.6-1,3.1-1.5,4.8c1.8,0.9,3.7,1.3,5.7,2
		c1.6-5,3.5-9.8,4.3-15.1C325.7,216.8,319.1,215.3,312.4,213.7L312.4,213.7z M326.7,205.4c-1.5,0.8-2.6,1.6-2.9,3.2
		c-0.2,1.4-0.1,2.8,0.5,4.1c0.3,0.7,0.8,1.1,1.6,1.3c1.9,0.4,3.8,0.9,5.7,1.3c0.4,0.1,0.8,0.3,1.3-0.1c0.4-1.5,0.8-3.1,1.1-4.7
		C329.2,210.5,328.4,210,326.7,205.4L326.7,205.4z M337,183.7c0-1.7,0.2-3.4-0.1-5.1c-4.5,1-5,0.8-8-3.3c-2.7,1.9-2.8,5.8-0.4,8
		c0.3,0.3,0.6,0.4,1,0.4C331.9,183.7,334.3,183.7,337,183.7L337,183.7z"/>
	<path fill="#E32129" d="M266.8,46.1c0-2.9,0.1-5.4-0.1-7.9c-0.1-1.9-1.4-2.4-3-2.6c-0.1-1.4,0.3-2.7,0.4-4.3c1.5,1,2.6,1.8,3.8,2.7
		c0.7,0.5,1,1.4,1.1,2.2c0.3,1.6,0.3,3.1,0.3,4.7c0,1.9,0,3.8-0.1,5.7c0,0.6,0.1,1.1,0.7,1.6c4.9,3.3,9.4,7.1,14.2,10.6
		c1.4,1,2.7,2,4.1,3.1c-0.3,1-1,1.5-1.5,2.3c-1.2-0.9-2.4-1.7-3.6-2.6c-4.1,5.4-8.2,10.8-12.3,16.3c-0.2-0.4-0.3-0.5-0.4-0.7
		c-0.9-1.6-0.7-2.8,0.5-4.3c3.1-3.9,6-7.9,9-11.9c0.3-0.3,0.6-0.6,0.7-1.2c-1.3-1.3-3-2.3-4.5-3.5c-0.8,0.3-1.1,0.9-1.5,1.5
		c-1.6,2.1-3.2,4.3-4.8,6.4c-0.5,0.7-1.1,1.4-2.1,1.1c-1-0.3-1.2-1.1-1.3-2c-0.1-0.8-0.1-1.6-0.1-2.4c0.1-1.8,1-2.3,2.7-1.7
		c0.2,0.1,0.4,0.2,0.8,0.3c1.2-1.6,2.5-3.3,3.8-5c-2.1-1.7-4-3.4-6.5-4.7c-3.6,5.7-7.1,11.4-10.7,17c-0.7-0.2-0.7-0.8-0.9-1.2
		c-0.6-1-0.5-1.8,0.1-2.8c2.7-4.2,5.4-8.5,8-12.8c0.3-0.5,0.6-1,1-1.6c-0.5-0.8-1.4-1-2-1.5c-0.6-0.4-1.5-0.6-1.5-1.6
		c0-0.1-0.3-0.3-0.5-0.4c-1-0.5-1.9-0.9-3-1.5c-3,6.1-5.9,12.1-8.9,18.1c-1.8-1.5-2-2.3-1.1-4.1c0.7-1.4,1.4-2.8,2.2-4.5
		c-3-0.1-5.8-0.7-7.3-3.4c-1.3-2.3-1.8-4.7-1.5-7.3c0.7-0.3,1.2,0,1.7,0.1c0.8,0.2,1.7,0.2,2.5,0.2c1.4-0.1,2.1-0.5,2.3-1.4
		c0.3-1.5-0.1-2.6-1.3-3.2c-0.7-0.3-1.4-0.6-2-1c-0.5-0.3-1.5-0.2-1.3-1.3c0-0.2-0.4-0.3-0.6-0.3c-1.2-0.4-2.3-0.7-3.7-1.1
		c-1.1,3.3-2.1,6.5-3.2,9.7c-1,3.2-2.1,6.3-3.1,9.6c-0.8-0.4-1-1.1-1.5-1.5c-0.6-0.6-0.7-1.2-0.4-2c0.5-1.4,1-2.9,1.4-4.3
		c0.1-0.3,0.3-0.6-0.1-1c-3.7,1.6-7.5,3.3-11.2,5c-0.8-0.6-0.9-1.4-1.4-2.3c2.9-1.3,5.6-2.5,8.4-3.7c-0.1-0.7-0.7-1-1.1-1.4
		c-2-2.4-2.8-5.1-1.6-8.1c0.5-1.2,0.8-2.4,1.2-3.7c-0.8-0.8-2.1-0.7-3-1.4c0.1-0.9,0.4-1.6,0.8-2.5c6.5,2.1,12.9,4.2,19.2,6.2
		c0.5,0.5,0,1,0.2,1.3c0.2,0.2,0.3,0,0.5,0c0.6-0.1,1,0.3,1.5,0.5c4.5,2.2,9,4.3,13.4,6.6c1.5,0.8,3.2,1.1,4.2,2.8
		C263.7,44.8,265.4,45.2,266.8,46.1L266.8,46.1z M229,30.9c-0.5,1.6-1,2.9-1.4,4.3c-0.8,2.5-0.3,4.3,1.7,5.9c1.2,1,3.8,0.5,4.4-0.9
		c0.9-2.3,1.6-4.7,2.4-7.2C233.6,32.3,231.5,31.5,229,30.9L229,30.9z M244,45.8c0.4,2.8,2,4,5.1,4c1.6,0,2.8-0.4,3.4-2.1
		c0.3-1,0.9-1.9,1.3-2.8c0.4-0.9,1.1-1.7,1.2-2.8c-0.7-0.6-1.6-0.9-2.3-1.3c-0.7-0.4-1.4-0.9-2.3-1C249.5,44.4,248.8,45,244,45.8
		L244,45.8z"/>
	<path fill="#E32129" d="M294.5,271.1c0.3,0.7,0.3,1.4,0.3,2.3c-1.7,0.1-3.4-0.1-5,0.1c-2.5,0.3-4.7,1.1-6.7,2.7
		c-0.9,0.7-1.6,1.5-1.8,2.7c-0.1,0.3-0.1,0.6-0.1,0.9c0,1.2,0.8,2.6,1.6,2.9c0.8,0.2,1.9-0.4,2.6-1.6c0.5-0.8,0.9-1.7,1.3-2.6
		c0.7-1.4,1.8-2,3.4-2.1c1.6-0.1,3.1,0.3,4.6,1.1c2.1,1.2,2.6,3.2,1.1,5.2c-0.8,1.1-1.8,2.2-2.7,3.2c-0.3,0.3-0.5,0.7-0.8,1
		c0.2,0.8,0.9,1,1.3,1.5c0.8-0.1,1.1-0.8,1.5-1.3c2.4-2.8,4.7-5.7,7.2-8.5c1.1-1.3,2.5-2.5,3.4-4.3c-5.5-3.8-11-7.7-16.6-11.7
		c1-0.7,2-0.9,3-1.3c5.1,3.6,10.2,7.1,15.4,10.8c1.4-2.4,3.5-4,4.6-6.7c-5.8-3.4-11.6-6.7-17.6-10.2c0.9-0.8,1.8-1.1,2.8-1.6
		c1.7,0.9,3.4,1.9,5.2,3c0.1-1.1,0.1-2,0.2-2.9c0.4-3.5,2.6-6,5.9-6.8c3.7-0.9,6.9,1.6,6.9,5.4c0,3.2-1.9,5.4-4.2,7.3
		c-0.5,0.4-1.1,0.5-1.4,1.2c1.1,0.8,2.3,1.5,3.8,2.1c2.5-4.3,4.9-8.5,7.4-12.8c0.9,0.3,1.6,0.7,2.5,1.4c-4.6,7.4-8.2,15.4-13.6,22.4
		c2.6,0.2,5.1,0.6,7.7,0.4c1.2-0.1,2.1-0.5,2.3-1.9c0-0.3,0.1-0.6,0.5-0.9c1.2-0.1,2.5,0.3,4,0.7c-1,1.3-1.8,2.5-2.8,3.5
		c-1,1-2.4,1.2-3.7,1.1c-2.7-0.1-5.5-0.2-8.2-0.5c-1.2-0.1-1.8,0.2-2.6,1.2c-2,2.6-4.2,5-6.3,7.5c-2.1,2.5-4.1,4.9-6.3,7.5
		c1,0.5,1.9,0.8,2.7,1.3c1.4,0.7,2.5,1.8,3.1,3.3c1.2,2.9-0.5,5.6-3.7,5.8c-1.6,0.1-3-0.4-4.3-1.4c0.6-1,1.2-1.8,2.6-1.4
		c0.3,0.1,0.7,0,1.1-0.1c1.5-0.3,2-1.5,1.2-2.7c-0.9-1.4-2.3-2.1-3.9-2.5c-1-0.2-1.1,0.8-1.9,1.1c-0.7-0.3-1.3-0.9-1.9-1.6
		c0.7-1.3,1.9-2.2,2.7-3.5c-1-1.3-2.5-2.1-3.6-3.2c0.1-0.7,0.6-1,0.9-1.4c1.2-1.4,2.3-2.8,3.5-4.2c1-1.2,1-1.9,0.1-2.6
		c-1.1-0.9-2.4-0.8-3.3,0.2c-0.6,0.7-0.8,1.5-1.2,2.3c-1.2,2.8-4.1,3.5-6.4,3.1c-2.8-0.5-4.4-3.2-3.9-6.1c0.4-1.9,1.5-3.3,2.9-4.5
		c2.5-2,5.5-2.9,8.6-3.2C291.4,270.8,293,270.8,294.5,271.1L294.5,271.1z M305.6,254.5c-0.4,1-0.3,1.8-0.2,2.5
		c0.1,1.3,0.6,1.7,1.9,1.5c1.1-0.2,2.1-0.6,3-1.3c0.9-0.7,1.6-1.5,1.6-2.7C309.7,254.5,307.7,254.5,305.6,254.5L305.6,254.5z
		 M312.7,251.9c-0.3-1.9-1.6-3.2-3.1-3.2c-1.7,0.1-3.1,1.5-3.2,3.2C308.5,251.9,310.6,251.9,312.7,251.9L312.7,251.9z"/>
	<path fill="#E32129" d="M151.3,25.9c-1.6,0.4-3.3,0.8-5.2,1.2c2.1,2.1,3,4.4,2.6,7.2c-0.4,2.6-1.7,4.8-3.7,6.8
		c2.1,1.9,4.2,3.7,6.3,5.5c-0.6,0.8-1.2,1.4-2,1.9c-1.8-1.7-3.6-3.3-5.4-4.9c-0.8-0.8-1.6-1.4-2.8-1.3c-0.9,0.1-1.8-0.4-2.5-1
		c-0.8-0.8-1-1.9-0.5-2.7c0.5-0.8,1.5-1.1,2.6-0.6c0.6,0.2,1.1,0.6,1.6,0.9c1.4-0.5,2.1-1.7,2.7-2.9c-0.6-0.5-1.2-0.5-1.7-0.6
		c-1.3-0.3-2.5-0.7-3.6-1.4c-1.7-1.1-2.8-2.5-2.5-4.8c-2.9,0.1-5.1,1.7-7.7,2.6c2.4,6.4,4.8,12.7,7.2,18.8c-0.3,0.3-0.5,0.2-0.6,0.2
		c-1.8-0.1-2.7-0.9-3.3-2.7c-1.6-4.6-3.4-9.1-5.2-13.6c-0.2-0.6-0.3-1.2-0.9-1.6c-1.6,0.6-3.2,1.2-5.1,2c2.3,1.8,3.6,4,3.5,6.8
		c0,2.7-1.1,4.9-2.7,7.2c2.4,1.6,4.7,3.1,7,4.6c-0.5,0.9-1,1.5-1.7,2.1c-2.1-1.4-4.1-2.8-6.2-4.2c-0.8-0.6-1.5-1.1-2.7-0.8
		c-1,0.3-2.1-0.1-2.9-0.8c-0.8-0.7-1-1.7-0.6-2.5c0.4-0.8,1.1-1.1,2.2-1c0.4,0,0.7,0.2,1,0.3c0.3,0.1,0.7,0.3,1,0.5
		c1.3-0.8,1.9-2,2.2-3.5c-2-0.1-3.9-0.2-5.6-1c-1.8-0.9-3-2.2-3.2-4.4c-1.1,0.4-2.1,0.7-3.1,1c-0.5-0.8-0.7-1.6-1-2.5
		c7.9-3,15.6-6,23.3-9c0.7,0.2,0.6,1,1.1,1.3c0.4-0.6-0.3-1.1,0-1.9c8-1.8,16.1-3.7,24.3-5.6c0.5,0.8,0.6,1.6,0.7,2.5
		c-1.2,0.8-2.7,0.6-4.2,1.3c1.5,6.5,3,13,4.5,19.6c-0.6,0.2-0.9-0.1-1.3-0.2c-1.3-0.3-1.8-1-2.1-2.3c-1.1-5.1-2.3-10.2-3.5-15.3
		C151.8,26.8,151.8,26.3,151.3,25.9L151.3,25.9z M122.2,41c-0.1-2.5-1.6-4.2-3.8-4.5c-0.7-0.1-1.5-0.1-1.9,0.6
		c-0.4,0.7-0.3,1.4,0.1,2.1c0.2,0.4,0.6,0.8,1,1C119,41.1,120.5,41.4,122.2,41L122.2,41z M145.8,33.2c-0.1-2.7-1.2-4.2-3.2-4.9
		c-0.7-0.2-1.5-0.4-2,0.3c-0.6,0.7-0.6,1.4-0.2,2.2c0.3,0.8,0.9,1.3,1.6,1.6C143.2,33.1,144.4,33.4,145.8,33.2L145.8,33.2z"/>
	<path fill="#E32129" d="M44.6,193.2c-0.2,1-0.7,1.6-1,2.3c-0.3,0.8-1.1,0.7-1.7,0.8c-1.9,0.2-3.7,0.4-5.5,0.6
		c-0.2,0.4,0,0.6,0.1,0.8c1.7,3,1,6.4-1.5,8.7c-0.9,0.8-2,1.1-3.2,1.2c-1.5,0.2-3,0.3-4.5,0.5c-0.4,0-0.9,0-1.3,0.3
		c-0.4,0.7,0.2,1.5-0.2,2.3c-0.8,0.3-1.6,0.4-2.6,0.2c-0.8-9.5-2.4-19-2.3-28.6c-0.9-0.2-1.4,0.3-2.1,0.5c-1.9,0.5-3.7,0.4-5.4-0.9
		c-1.8-1.5-2.1-3.8-0.5-5.6c1.1-1.3,2.6-2.2,4.1-3c1.2-0.6,2.5-1.2,3.9-1.8c0.4-1.5,0-3.1,0.3-4.7c0.8-0.3,1.7-0.1,2.6,0
		c0.3,1.4-0.1,2.8,0,4.4c6.7,0.2,13.4,0.5,20.3,0.7c-0.5,1.1-1.1,1.8-1.8,2.7c-6.1-0.2-12.3-0.4-18.5-0.6c-0.4,1.7-0.5,6.8-0.1,9.3
		c2,0,4.1,0.1,6.1,0c2.1-0.1,3.9,0.3,5.3,2.2c3.1-2.1,5.2-5,7.3-7.8c0.6-0.1,0.8,0.3,1.2,0.6c0.3,0.2,0.6,0.4,0.8,0.8
		c0,0.5-0.5,0.9-0.8,1.4c-2.2,3-4.7,5.6-7.6,7.9c-1,0.7-2,1.4-3.1,1.8c-0.8,0.3-1.6,0.4-2.2-0.3c-0.6-0.7-0.7-1.4-0.3-2.2
		c0.2-0.3,0.3-0.7,0.4-1c-1.2-0.6-4.7-0.6-7.2-0.1c-0.2,2.9,0.1,5.9,0.6,9C31.2,194.6,37.8,193.9,44.6,193.2L44.6,193.2z
		 M25.4,205.5c2.5-0.3,4.8-0.5,7.1-0.7c0.7-0.1,1.4-0.5,1.8-1.2c0.8-1.5,0.7-2.9-0.2-4.3c-0.8-1.3-1.7-2.2-3.4-1.7
		c-0.6,0.2-1.2,0.1-1.8,0.2c-1.3,0.3-2.8,0-4.1,0.6C24.8,200.7,25.2,203,25.4,205.5L25.4,205.5z M20.8,174.1
		c-1.4,0.5-2.5,1.1-3.5,1.8c-0.7,0.5-1.4,1.1-1.9,1.9c-0.4,0.7-0.4,1.4,0.3,2c1.1,0.9,2.3,0.7,3.4,0.3c1-0.4,1.9-1.1,1.8-2.4
		C20.8,176.5,20.8,175.4,20.8,174.1L20.8,174.1z"/>
	<path fill="#E32129" d="M322.3,111.9c-5.8,3.5-11.6,6.9-17.3,10.4c-0.7-2.2-0.4-3,1.5-4.1c2.2-1.3,4.4-2.6,6.6-4
		c0.7-0.4,1.5-0.7,1.3-1.7c-0.2-1-0.6-1.9-1.6-2.3c-1-0.4-2.1-0.6-3.2-0.4c-0.8,0.1-1.5,0.3-2.3,0.4c-0.3-0.9-0.2-1.8-0.3-2.7
		c0.9-0.7,1.8-0.7,2.7-1c0.6-1.4,0.3-2.8-0.4-4c-0.6-1.1-2-1.4-3.4-0.7c-1.3,0.6-2.2,1.7-2.9,3c-1.2,2.1-1.5,4.5-1.5,6.9
		c0,0.7,0,1.4,0,2.3c-0.8,0.2-1.5,0.1-2.5-0.1c-0.1-4.7,0.4-9.1,3.3-13c1-1.2,2.2-2,3.8-2.4c3.2-0.7,6.1,1.4,6.4,4.8
		c0.1,1.1-0.1,2.2-0.3,3.3c2.6,0.8,4.4,2.2,4.7,5.3c1.4-0.8,2.6-1.6,4.1-2.4c-4.1-6.5-7.5-13.3-12.4-19.4c-5.5,4-10.9,7.9-16.6,12
		c-0.3-1.2-0.2-2.2-0.2-3.3c5-3.7,10-7.3,14.9-10.9c-0.1-0.8-0.7-1.3-1.1-1.9c-0.4-0.6-0.8-1.1-1.2-1.7c0.4-0.9,1.3-1.1,1.9-1.6
		c0.6,0.1,0.8,0.6,1.1,1c7.5,9.4,13.1,19.9,19.3,30c0.1,0.1,0.1,0.3,0.1,0.5c-0.1,0.5-0.5,0.6-0.8,0.7c-0.4,0.2-0.8,0.6-1.5,0.6
		C323.8,114.3,323.1,113.2,322.3,111.9L322.3,111.9z"/>
	<path fill="#E32129" d="M60.8,78.8c-1,1.1-1.9,2.1-2.8,3.2c-0.9-0.3-1.3-1-2.1-1.7c0.9-1.1,1.8-2.2,2.8-3.4c-3-0.1-4.9,1.1-6,3.7
		c-1.1-0.3-2.2-0.5-3.3-1.1c1.5-3.1,4.2-4.4,7.6-5.2c-1.4-1-2.7-1.3-4.1-1.6c-1.8-0.3-2.2,1.4-3.4,2.3c-0.8-0.3-1.7-0.5-2.6-0.9
		c0.8-1.4,1.8-2.4,2.8-3.5c0.7-0.8,1.7-0.8,2.7-0.7c2.3,0.4,4.4,1.3,6.5,2.4c0.8,0.4,1.6,0.9,2.5,1.4c1-1,1.9-2,2.7-3.2
		c0.8-1.2,2.1-2.1,3.3-3.2c1.1-1,2.2-2.1,3.3-3.1c1.1-1,2.2-2.1,3.3-3.1c0.8,0.6,1.3,1.2,1.9,1.9c-1.3,1.5-2.9,2.7-4.3,4.2
		c1.2,1.3,2.3,2.6,3.5,3.8c1.7,1.7,3.3,3.5,2.6,6.2c3.7,0.9,7.2,0.5,10.7,0.1c0.6,0.8,0.3,1.6,0.5,2.4c-1.3,0.4-2.6,0.5-3.9,0.5
		c-3.5,0.2-6.9,0-10.3-0.9c-0.7-0.2-1.4-0.4-2-0.8c-1.5-0.9-1.4-2.5,0.2-3.3c0.4-0.2,0.9-0.3,1.4-0.5c-0.3-1.3-1.4-1.9-2.2-2.9
		c-0.7-0.9-1.6-1.7-2.4-2.6c-3,1.8-4.6,4.8-6.9,7.4c5.1,4.4,10.2,8.9,15.3,13.3c-0.8,0.7-1.7,0.7-2.5,0.9c-0.7,0.2-1.1-0.4-1.5-0.8
		c-4-3.5-8.1-7-12.1-10.5C61.5,79.3,61.2,79.1,60.8,78.8L60.8,78.8z"/>
	<path fill="#E32129" d="M29.4,161.8c-1,0.6-1.8,1.3-2.8,1.6c-1.5,0.4-2.8,0.1-3.8-1.1c-1.3-1.6-1.4-3.5-0.6-5.3
		c0.9-1.9,3.1-3.3,5-3.2c0.8,0.1,1.5,0.5,2.1,1c0.4,0.4,0.6,1,1.2,1.1c1.5-1.9,1.4-5.3-0.2-6.9c-0.9-0.8-2.1-0.7-3.3-0.8
		c-0.5,0.7-0.4,1.5-0.6,2.3c-0.2,0.7-0.3,1.4-0.4,2.2c-0.9,0.4-1.8,0.7-3,0.9c0.8-4.4,1.7-8.6,2.5-12.8c1-0.4,1.7,0.2,2.6,0.2
		c0.1,1.5-0.5,2.8-0.6,4.4c6.6,1.3,13.2,2.6,19.8,3.9c-0.1,0.8-0.6,1-0.9,1.4c-0.7,0.9-1.5,1-2.6,0.8c-2.6-0.6-5.2-1.1-7.9-1.6
		c-0.6-0.1-1.2-0.3-1.7-0.2c-0.3,0.2-0.2,0.4-0.2,0.6c1,2.9,0.1,5.5-1.5,7.9c-0.4,0.5-1.1,0.9-0.9,1.7c0.3,1,0.7,1.8,1.6,2.4
		c1.3,0.9,2.9,0.6,3.9-0.9c0.3-0.4,0.6-0.9,0.5-1.5c-0.3-0.3-0.5-0.1-0.8,0c-0.9,0.2-1.6-0.1-2-0.8c-0.5-0.8-0.4-1.5,0.1-2.2
		c0.7-1.1,1.7-1.8,2.9-2.1c1.1-0.4,1.8,0.3,2.6,1c1.7-0.7,3.5-1.4,5.2-2.1c0.6,0.7,0.9,1.4,1.2,2.3c-1.9,0.7-3.8,1.4-5.7,2.1
		c-0.1,1.5-0.5,2.9-1.4,4.2c-0.5,0.6-1,1.2-1.6,1.7c-2.8,2.2-5.9,2.5-8.1-1.3C29.8,162.3,29.6,162.1,29.4,161.8L29.4,161.8z
		 M28.4,159.1c-0.5-1.2-0.8-2.6-2.5-2.5c-0.9,0-1.3,0.7-1.5,1.6c-0.2,1.1,0.2,2.3,0.9,2.6C26.2,161.1,27.2,160.6,28.4,159.1
		L28.4,159.1z"/>
	<path fill="#E32129" d="M88.5,54.7c-1.3-0.5-2.3-0.9-3.1-1.2c-0.3-0.6-0.1-0.9,0.1-1.2c1.5-3.1,5.4-5.2,8.6-4.7
		c3.4,0.5,4.7,2,5,5.8c2,0.2,3.9,0,5.6-1.3c1.4-1.1,1.5-2.2,0.6-3.8c-0.9-1.4-1.7-2.8-2.7-4.3c-1.1,0.7-2.2,1.3-3.2,2
		c-1.1,0.9-2.2,0.9-3.3,0.2c-0.3-0.2-0.7-0.2-1-0.8c4-2.5,7.9-5,12-7.5c0.8,0.5,1,1.4,1.5,2.1c-0.9,1.1-2.4,1.5-3.6,2.6
		c3.5,5.7,7,11.3,10.7,17.1c-1,0.3-1.8,0.1-2.6,0.1c-0.7,0-0.9-0.5-1.2-1c-1.3-2-2.5-4-3.9-6.2c-1.2,1.6-2.9,2.4-4.7,2.9
		c0,0.7,0.4,1,0.6,1.5c1.6,3.7-0.5,7.6-4.4,8.3c-2.3,0.4-4.6,0.1-6.8-0.7c-1.4-0.5-2.7-1-3.9-1.8c0-0.8,0.3-1.3,0.7-1.8
		c0.6-0.1,1.1,0.3,1.5,0.6c2.1,0.9,4.2,1.6,6.5,1.2c2.5-0.3,4-2.1,3.7-4.3c-0.1-1-0.7-1.8-1.6-2.2c-1-0.5-1.4-0.4-2.2,0.5
		c-0.2,0.2-0.4,0.5-0.6,0.7c-1.4,1.7-3.2,2.1-5.4,1.3c0.2-1.8,1.2-3.1,2.7-4.1c1.3-0.8,1.7-2.5,0.9-3.7c-0.7-1.2-2.1-1.4-3.5-0.6
		C89.9,51.3,88.9,52.7,88.5,54.7L88.5,54.7z"/>
	<path fill="#E32129" d="M53.9,98.3c1.8-0.8,3.2-1.6,4.2-3.1c1.2-1.9,0.9-3.2-1-4.4c-1.3-0.8-2.7-1.7-4.1-2.6
		c-0.7,1.1-1.5,2.1-2,3.2c-0.6,1.4-1.6,1.8-3.1,1.6c-0.3,0-0.6,0-1.2,0c2.5-4.3,5.2-8.3,7.7-12.4c0.9,0.5,1.6,0.8,2.3,1.5
		c-0.7,1.2-1.4,2.3-2.2,3.7c5.6,3.7,11.4,7.1,17.3,10.9c-1.1,0.5-1.9,0.9-2.9,1.4c-2.3-1.4-4.7-2.9-7.3-4.5
		c-0.3,2.1-1.5,3.5-2.8,4.7c0.2,0.5,0.7,0.6,1,0.9c3.2,2.6,3.1,6.9-0.1,9.4c-2.2,1.8-4.9,2.4-7.6,2.6c-1.1,0.1-2.2,0-3.3,0
		c-0.3-0.7-0.2-1.4-0.1-2.2c1.6-0.1,3.2,0,4.7-0.4c1.6-0.4,3-1,4.2-2.1c1.2-1.3,1.6-2.9,0.9-4.4c-0.5-1.1-1.4-1.7-2.6-1.8
		c-1.1-0.1-1.6,0.4-1.9,1.5c-0.1,0.2-0.1,0.5-0.2,0.7c-0.5,2.2-1.9,3.4-4.3,3.6c-0.6-1.7-0.3-3.3,0.7-4.8c0.8-1.3,0.3-2.9-0.9-3.8
		c-1.1-0.7-2.4-0.3-3.3,0.9c-0.8,1.1-1.2,2.4-1.2,3.8c0,0.5,0.1,0.9,0.1,1.5c-1.2,0.1-2.2,0.3-3.2,0.4c-0.6-0.4-0.5-0.8-0.5-1.2
		c0.3-3.9,2.8-8,7.7-8.3c2.1-0.1,3.5,0.7,4.4,2.5C53.5,97.7,53.7,97.9,53.9,98.3L53.9,98.3z"/>
	<path fill="#E32129" d="M306.6,81c-0.7,0.8-1.2,1.4-1.9,1.8c-1.2-0.7-1.9-2-3.2-3c-4.8,4.6-9.6,9.3-14.6,14
		c-0.4-0.5-0.3-1.1-0.5-1.5c-0.5-1.2,0-2,0.9-2.8c3.6-3.4,7.1-6.8,10.7-10.2c0.5-0.5,1-0.9,1.6-1.5c-1.3-1.4-2.5-2.8-4.1-4.1
		c-0.6,2.9-2.3,4.8-4.8,5.9c-2.5,1-5,0.8-7.6,0.3c-0.7,2.7-0.9,5.5-1.7,8.3c-0.9-0.3-1.6-0.3-2.4-0.8c0.2-2,0.8-4,1.1-6
		c0.1-0.5,0.2-1.1,0.3-1.6c0.3-0.9,0.2-1.6-0.3-2.4c-0.5-0.8-0.7-1.7-0.5-2.6c0.2-1.2,1-2,2-2c1,0,1.8,0.8,2,2c0.1,0.6,0,1.2,0,1.8
		c1.2,1,2.6,0.9,3.9,0.7c0.3-0.6-0.1-1-0.3-1.4c-0.4-1.2-0.7-2.5-0.7-3.7c0-2.2,0.7-3.9,2.7-4.9c-0.5-1.1-1.5-1.6-2.1-2.5
		c0.4-0.7,1.1-1.3,1.9-1.9C294.9,68.9,300.7,74.9,306.6,81L306.6,81z M290.3,76.7c2.3-1.4,3.1-3.2,2.5-5.3c-0.2-0.7-0.4-1.3-1.2-1.5
		c-0.8-0.2-1.4,0.2-1.9,0.8c-0.4,0.4-0.6,0.9-0.7,1.5C288.9,73.8,289.2,75.3,290.3,76.7L290.3,76.7z"/>
	<path fill="#E32129" d="M331.5,139.7c0.3-1.2-0.5-2.1-0.3-3.2c0.7-0.4,1.4-0.5,2.2-0.7c0.6,0.3,0.6,0.8,0.7,1.3
		c1.4,5.4,2.6,10.9,4.1,16.3c0.5,1.7,0.2,3.5,0.5,5.2c0.5,2.9,0.9,5.9,1.3,8.8c0.1,0.5,0.2,1.1,0,1.7c-0.7,0.4-1.5,0.3-2.5,0.5
		c-1-5.7-1.6-11.4-2.3-17.3c-6.8,1.7-13.3,3.3-20,4.9c0-1.1,0.5-1.8,0.7-2.6c0.2-0.7,0.8-0.7,1.3-0.8c1.7-0.5,3.4-0.9,5.1-1.3
		c0-0.1,0-0.2,0-0.2c0-0.1,0-0.1,0-0.2c-3.3-2.3-6.7-4.6-10.1-7c0.2-0.9,0.7-1.5,1.3-2.3c2.5,1.7,5,3.4,7.5,5.1
		c0.5-0.5,0.5-1.1,0.7-1.6c1-2.9,2.7-5.1,6-5.7C329,140.4,330.3,140,331.5,139.7L331.5,139.7z M332.4,142.4c-1.5,0.4-3,0.7-4.5,1.1
		c-2.6,0.7-3.9,2.2-4.1,4.8c-0.1,1.4,1.8,3.3,3.1,3c2.4-0.5,4.8-1.2,7.2-1.8C333.7,147.1,333.1,144.8,332.4,142.4L332.4,142.4z"/>
	<path fill="#E32129" d="M29,138c-0.7,0.7-0.6,1.6-1.2,2.2c-0.8,0-1.6-0.3-2.5-0.8c2.7-7.9,5.4-15.7,8.1-23.6c1,0.1,1.7,0.4,2.5,0.8
		c-0.1,1.5-0.9,2.7-1.2,4.2c6.3,2.2,12.7,4.4,19.2,6.6c-0.7,1-1.6,1.4-2.4,2.1c-5.9-2-11.7-4-17.6-6c-0.7,1.4-1.1,2.7-1.5,4.1
		c2.2,0.8,4.4,1.5,6.6,2.3c0.7,0.2,1.4,0.5,2,0.8c2.5,1.3,3.2,4.6,1.5,6.9c-1.9,2.4-4.8,3.3-7.8,2.3C32.8,139.3,30.9,138.7,29,138
		L29,138z M29.8,135.2c0.2,0.1,0.2,0.2,0.4,0.3c1.1,0.4,2.2,0.8,3.3,1.1c1.2,0.4,2.4,0.9,3.6,1.2c1.4,0.4,3-0.6,3.4-2.1
		c0.4-1.4-0.1-2.3-1.7-2.9c-2.4-0.9-4.8-1.7-7.3-2.5C30.7,132,30.2,133.6,29.8,135.2L29.8,135.2z"/>
	<path fill="#E32129" d="M179.9,21.4c0.2-1.1,0.9-0.9,1.4-0.8c3.4,0.1,6.8,0.2,10.2,0.2c1,0,1.9,0,2.9,0c0.4,0.9,0.2,1.7,0.2,2.6
		c-1.4,0.5-2.8-0.1-4.3,0.3c-0.1,6.7-0.3,13.4-0.4,20.2c-1-0.3-1.6-0.9-2.3-1.4c-0.5-0.4-0.4-1-0.4-1.5c0-1.7,0-3.4,0-5.2
		c-0.7,0.4-1.4,0.8-2.1,1.2c-3.3,1.7-6.5,1.3-8.9-1.2c-1.8-1.9-2.1-3.8-0.8-6.1c0.1-0.2,0.2-0.4,0.3-0.7c-0.6-0.5-1.1-1-1.6-1.5
		c-0.7-0.7-1.2-1.6-1.5-2.7c-0.5-1.7,0.1-3.5,1.6-4.5c1.4-0.9,3.2-0.9,4.6,0.1C179,20.7,179.4,21,179.9,21.4L179.9,21.4z
		 M179.8,21.5c1.1,2.2,0.6,4.1-1.1,5.9c1.7,0,3.5-0.4,3.7,1.9c-0.8,0.8-0.8,0.8-2.6,0.9c-1.3,0.1-2.2,0.8-2.4,1.9
		c-0.2,1.1,0.3,2.3,1.4,2.9c1.1,0.6,2.2,0.6,3.4,0.3c1.7-0.4,3.1-1.3,4.2-2.7c0.6-0.7,0.9-1.4,0.9-2.3c0-1.9,0-3.8,0.1-5.6
		c0-0.4,0.1-0.9-0.4-1.3c-0.2,0-0.6,0-0.9,0c-2.2,0.2-4.2,0.1-5.6-2C180.3,21.4,180.2,21.5,179.8,21.5L179.8,21.5z M176.5,22.4
		c-0.8,0-1.6,0.6-1.6,1.4c0,0.9,0.7,1.7,1.5,1.7c0.8,0,1.5-0.6,1.6-1.4C178.1,23.3,177.4,22.5,176.5,22.4L176.5,22.4z"/>
	<path fill="#E32129" d="M195.5,23.3c-0.1-1,0.2-1.7,0.3-2.7c6.4,1,12.7,2.2,19,3.3c0.1,1-0.2,1.7-0.3,2.6c-1.5,0-2.8-0.5-4.4-0.6
		c-1.2,6.7-2.4,13.3-3.6,20c-1-0.4-1.5-1.2-2.2-1.8c-0.4-0.4-0.2-0.9-0.1-1.4c0.5-2.7,1-5.5,1.4-8.4c-1.9-0.8-3.8-0.7-5.5-1.2
		c-0.7,0.5-0.6,1.2-0.8,1.8c-0.4,1.3-1.3,1.7-2.3,0.8c-1.2-1-1.9-2.4-2.1-4c-0.1-1.1,0.6-1.9,1.7-1.9c0.6,0,1.2,0.1,1.8,0.2
		c2.5,0.4,4.9,0.9,7.5,1.3c0.6-1.9,0.8-3.9,1.1-6C203.3,24.7,199.4,24,195.5,23.3L195.5,23.3z"/>
	<path fill="#E32129" d="M168.1,44c-1.1-0.2-1.7-0.8-2.4-1.1c-0.7-0.3-0.6-1-0.6-1.6c-0.3-3.9-0.5-7.9-0.8-11.8
		c-0.1-1.8-0.3-3.6-0.4-5.4c-1.5,0-2.8,0-4.3,0c-0.3-0.8-0.3-1.6-0.3-2.4c1.1-0.5,2.2-0.2,3.2-0.5c0.3-0.5-0.2-0.8-0.4-1.1
		c-1-1.2-2-2.5-3-3.7c-1.9-2.2-2.3-2.3-4.9-1.4c-1-1-1.5-1.8-2.1-3.5c1.6-0.3,3.1-0.3,4.7-0.3c1,0,1.8,0.8,2.5,1.5
		c1.5,1.4,2.6,3.1,3.8,4.6c0.3,0.3,0.5,0.7,0.8,1c2.1,2.6,2.1,2.6,5.4,2.4c0.4,0,0.8-0.1,1.3-0.1c0.4,0.9,0.3,1.7,0.3,2.6
		c-1.4,0.2-2.8,0.3-4.4,0.5C167.2,30.5,167.6,37.1,168.1,44L168.1,44z"/>
	<path fill="#E32129" d="M326.7,123.7c-6.4,2.6-12.5,5-18.8,7.6c-0.2-1.1,0.2-2,0.4-2.8c0.2-0.7,0.9-0.7,1.5-0.9
		c4.7-1.9,9.4-3.8,14-5.7c0.6-0.2,1.1-0.5,1.7-0.8c-0.3-1.4-1-2.6-1.4-4c0.6-0.7,1.5-0.7,2.4-1.3c1.5,3.7,2.9,7.2,4.3,10.7
		c-0.7,0.7-1.6,0.8-2.5,1.2C327.9,126.4,327.3,125.1,326.7,123.7L326.7,123.7z"/>
	<path fill="#E32129" d="M228.4,326.9c-2.3,0-4.1-1.8-4.1-4.1c0-2.2,1.9-4,4.1-4c2.2,0,4.1,1.9,4.1,4.1
		C232.5,325.1,230.6,326.9,228.4,326.9L228.4,326.9z"/>
	<path fill="#E32129" d="M143.9,322.8c0,2.3-1.7,4.1-4,4.1c-2.3,0-4.1-1.7-4.1-3.9c0-2.3,1.7-4.1,4-4.1
		C142,318.7,143.8,320.5,143.9,322.8L143.9,322.8z"/>
	<path fill="#E32129" d="M98.5,34.1c0.3-1.2,0.6-2.3,0.9-3.4c1.3,0.1,2.3,0.8,3.4,1.2c-0.2,1.2-0.5,2.4-1,3.6
		C100.7,35,99.7,34.6,98.5,34.1L98.5,34.1z"/>
	<path fill="#E32129" d="M180.2,274.3c-51.8,0.1-94.4-42.6-94.2-94.6c0.2-51.9,42.6-94,94.5-93.9c51.9,0.1,94.1,42.5,94,94.4
		C274.5,232.5,231.7,274.5,180.2,274.3L180.2,274.3z M214.3,138c-0.7-0.1-1.1,0.5-1.6,0.8c-8.8,5.7-17.6,11.4-26.3,17.1
		c-1.5,1-3.1,2-4.6,2.9c-11-7.1-21.9-14.2-32.8-21.2c-0.1,0.1-0.2,0.2-0.3,0.2c3.6,12.1,7.2,24.2,10.8,36.1
		c-0.1,0.2-0.1,0.3-0.1,0.3c-8.5,6.7-17,13.3-25.6,20c-0.1,0.1-0.3,0.3-0.4,0.4c0,0,0,0.1,0,0.2c0,0.1,0,0.1,0.1,0.3
		c11.9,0.2,23.8,0.5,35.7,0.7c4.2,11.4,8.3,22.6,12.4,33.9c0.1,0,0.3,0,0.4,0c3.8-10.9,7.7-21.8,11.5-32.7
		c12.3-0.6,24.4-0.9,36.6-1.9c-8.3-6.5-16.6-13.1-24.8-19.6c-0.2-0.7,0.1-1.2,0.2-1.8c2.9-11.2,5.8-22.5,8.7-33.7
		C214.3,139.3,214.6,138.7,214.3,138c0.1,0.1,0.2,0.1,0.2-0.1c0,0,0-0.1-0.1-0.1C214.3,137.8,214.3,137.9,214.3,138L214.3,138z
		 M264.2,147.6c0.1,0.1,0.2,0.3,0.4,0.1c0.2-0.1,0.1-0.3,0-0.4c-0.1-0.4-0.2-0.8-0.4-1.2c-2.6-6.4-5.9-12.6-10-18.2
		c-17.9-24.3-41.9-37.2-72-38.4c-10.2-0.4-20.2,1.3-30,4.5c-28.6,9.3-51.2,32.9-59.1,62c-3.6,13.2-4.3,26.5-1.8,39.9
		c4.3,23.5,16.2,42.3,35.2,56.8c0.4,0.3,0.7,0.7,1.3,0.6c0.1-0.6-0.2-1.1-0.4-1.6c-4-12.4-7.9-24.8-12-37.1
		c-0.4-1.1-0.3-1.9,0.4-2.9c2.6-3.9,5.1-7.8,7.7-11.8c0.3-0.4,0.8-0.8,0.6-1.6c-5.1-1.2-10.3-2.4-15.5-3.6
		c-4.9-13.8-9.7-27.6-14.5-41.2c0.3-0.3,0.3-0.4,0.4-0.5c11-7.9,22.1-15.8,33.1-23.7c0.8-0.6,1.4-0.7,2.3-0.3
		c4.8,1.7,9.6,3.4,14.5,5.1c0.6,0.2,1.2,0.6,1.9,0.4c0-0.4,0.1-0.9,0.1-1.3c0.2-4.9,0.4-9.7,0.4-14.6c0-1.7,0.6-2.7,1.9-3.8
		C159.4,107,169.8,99,180.4,91c0.4-0.3,0.8-0.8,1.4-0.8c0.2,0.1,0.4,0.2,0.6,0.4c10.8,8,21.5,16.1,32.3,24.1
		c0.8,0.6,1.1,1.2,1.1,2.1c0.2,3.8,0.4,7.7,0.7,11.5c0.1,1.6,0.2,3.1,0.4,4.6c0.7,0.1,1.1-0.1,1.5-0.3c4.6-1.6,9.2-3.1,13.8-4.8
		c1.1-0.4,1.9-0.3,2.8,0.3c7.5,5.1,15,10.1,22.6,15.2C259.8,144.8,261.9,146.4,264.2,147.6L264.2,147.6z M128.3,253.7
		c0,0.2,0,0.3,0,0.5c19.4,13.3,40.9,18.6,64.3,15.6c13.8-1.8,36.7-11.2,40.7-16.8c-0.7,0-1.4,0-2.1,0c-12,0-24,0-35.9,0
		c-1.1,0-1.8-0.3-2.5-1.1c-3.3-4-6.7-7.9-10.1-11.8c-0.3-0.3-0.5-0.9-1.2-0.9c-0.4,0.4-0.7,0.9-1.1,1.4c-2.6,3.5-5.3,7-7.9,10.5
		c-0.6,0.9-1.3,1.2-2.4,1.2c-12.5,0.3-25,0.7-37.6,1.1C131.2,253.5,129.8,253.6,128.3,253.7L128.3,253.7z M233.6,249.1
		c3.3-11.4,6.5-22.7,9.9-34.2c-12.1,0.3-23.9,0.7-35.9,1c-3,11.1-5.9,22-8.9,33.2C210.5,249.1,221.9,249.1,233.6,249.1L233.6,249.1z
		 M166.3,248.7c-4-11.5-8-22.6-12-33.9c-11.5,0.6-22.9,1.1-34.4,1.7c3.6,11.2,7.1,22.2,10.7,33.3
		C142.6,249.4,154.3,249.1,166.3,248.7L166.3,248.7z M254.9,186.4c3.6-11.2,7.1-22.2,10.6-33.3c-9.9-6.6-19.7-13.2-29.7-19.9
		c-3.3,11.6-6.6,23-9.9,34.5C235.5,174,245.1,180.1,254.9,186.4L254.9,186.4z M209.7,115.6c-9.5-7.1-18.7-14-28-20.9
		c-9.5,7.2-18.9,14.3-28.4,21.6c9.9,7,19.7,13.8,29.4,20.6C191.7,129.8,200.6,122.8,209.7,115.6L209.7,115.6z M98.5,154.9
		c4,11.3,7.9,22.4,11.9,33.7c9.7-7.4,19.1-14.5,28.6-21.7c-4.1-10.8-8-21.4-12.1-32.2C117.4,141.4,108,148.1,98.5,154.9L98.5,154.9z
		 M237.4,250.2c15.2-12.7,25.4-28.4,30.5-47.4c3.7-13.9,3.6-38.1-0.1-44.7c-0.2,0.6-0.4,1.2-0.6,1.8c-3.3,10.2-6.6,20.5-9.8,30.7
		c-0.3,0.9-0.8,1.5-1.7,1.9c-4.6,2-9.1,4.1-13.6,6.1c-0.6,0.3-1.4,0.5-1.9,1c0.1,0.5,0.4,0.8,0.7,1.2c2.2,2.9,4.3,5.9,6.5,8.8
		c0.7,0.9,0.9,1.8,0.6,3c-3.4,11.7-6.8,23.4-10.1,35C237.7,248.4,237.3,249.2,237.4,250.2L237.4,250.2z"/>
	<path fill="#E32129" d="M91.3,252.5c1.9-3.5,3.8-6.9,5.7-10.3c-0.1-0.1-0.2-0.2-0.3-0.3c-2.9,2-5.9,3.9-8.8,5.9
		c-0.7-0.3-0.9-0.9-1.3-1.6c2.8-1.9,5.7-3.9,8.6-5.8c-0.4-1.3-1.5-2.2-2-3.4c0.3-0.5,0.9-0.7,1.5-1.2c1.5,2.2,3,4.4,4.6,6.7
		c-0.6,1.1-1.2,2.2-1.7,3.2c0.1,0.2,0.1,0.4,0.1,0.5c0.9,1,1.5,2.4,2.7,2.9c1.2,0.5,2.4-0.7,3.7-0.9c0.7,0.8,1.4,1.6,2.2,2.4
		c0.4,0.4,0.2,0.9,0.1,1.4c-0.6,2.7-1.1,5.3-1.7,8c-0.1,0.3-0.1,0.6-0.2,1.3c2.2-2.3,4.1-4.3,6-6.3c0.7,0.1,1,0.7,1.5,1.2
		c-2.8,3-5.7,5.9-8.5,8.9c-1.7-0.9-1.8-1-1.4-2.7c0.5-2.4,1-4.7,1.6-7.1c0.1-0.4,0.2-0.8,0-1.5c-2,2.1-3.9,4.1-5.7,6.1
		c-0.7-0.3-1.1-0.7-1.5-1.4c2.4-2.6,4.9-5.1,7.4-7.7c-3.8,0.7-7.4,2.2-11,3.3C92,253.7,91.8,253.1,91.3,252.5L91.3,252.5z
		 M96.2,247.9c-0.7,1.1-1.3,2.1-1.9,3.5c1.4-0.5,2.6-0.7,3.7-1.4C97.6,249.2,97,248.4,96.2,247.9L96.2,247.9z"/>
	<path fill="#E32129" d="M274.7,220.2c1.3,0,2.5,0,3.8,0c0.5-1.4,1.1-2.7,1.6-4.2c-1-0.9-1.9-1.7-2.8-2.6c0.6-2.3,1.3-4.6,2-7
		c4.1,1.1,8,2.2,12,3.2c0.1,0.8-0.2,1.3-0.5,2c-3.3-0.9-6.5-1.7-9.9-2.6c-0.7,1-0.8,2.2-1.1,3.3c-0.2,0.7,0.4,1,0.8,1.3
		c2,1.8,4.1,3.7,6.1,5.5c0.4,0.4,0.9,0.8,1.3,1.2c0,0.8-0.4,1.3-0.7,2c-4,0-8,0-12,0c3,2.1,6.4,3.5,9.7,5.3
		c-0.4,1.2-0.9,2.3-1.6,3.3c-1.5,2.2-3.8,2.4-5.7,0.5c-0.2-0.2-0.3-0.4-0.5-0.6c-0.7-0.2-1.3,0.2-2,0.2c-2.7-0.3-4.2-2.5-3.3-5.1
		c0.3-0.9,0.7-1.7,1.1-2.5C273.5,222.4,274,221.4,274.7,220.2L274.7,220.2z M277.7,226.3c-1.1-0.5-2-1-3-1.4c-0.7,1-1.4,2-0.8,3.2
		c0.3,0.6,1,0.9,1.7,0.8C276.9,228.5,277.1,227.4,277.7,226.3L277.7,226.3z M279.6,227.4c-0.5,0.8-1,1.6-0.5,2.5
		c0.3,0.5,0.8,0.8,1.4,0.6c1-0.2,1.3-1.1,1.7-2C281.3,228.1,280.5,227.5,279.6,227.4L279.6,227.4z M281.7,217.3
		c-0.3,1.1-0.9,1.8-0.8,2.8c1.3,0,2.4,0,3.9,0C283.7,219.1,282.8,218.4,281.7,217.3L281.7,217.3z"/>
	<path fill="#E32129" d="M248.2,102.9c-1.4-0.5-1.9-1.3-1.7-2.7c0.3-2.8,0.5-5.6,0.8-8.6c-1.4,1-1.9,2.2-2.8,3.3
		c-0.9,1.1-1.7,2.2-2.6,3.5c-1.1-0.8-2-1.5-3.1-2.2c-0.3-1.3,0.6-2.5,0.4-4c-1.1-0.7-2.4-1.5-3.6-2.3c-1.1,0.8-2.1,1.5-3.1,2.2
		c-0.7-0.1-1.2-0.6-1.9-1.1c3.6-2.8,7.1-5.4,10.7-8.1c0.6,0.2,1.2,0.6,1.8,1.1c-0.7,3.9-1.5,7.8-2.2,11.7c0.1,0,0.2,0.1,0.3,0.1
		c2.2-2.9,4.4-5.8,6.5-8.6c1.4,0.4,1.8,1.2,1.7,2.5c-0.3,2.4-0.4,4.8-0.6,7.3c0,0.5-0.2,0.9,0.1,1.6c1.7-2.3,3.4-4.5,5-6.7
		c0.7,0.2,1.2,0.6,1.7,1.2C253.1,96.3,250.6,99.6,248.2,102.9L248.2,102.9z M237.2,88.5c1.1,0.5,1.7,1.1,2.6,1.4
		c0.5-1.2,0.7-2.4,0.8-3.9C239.3,86.9,238.4,87.6,237.2,88.5L237.2,88.5z"/>
	<path fill="#E32129" d="M146.5,276.8c0.7,0,1.2,0.3,1.9,0.7c-1.5,3.8-3,7.6-4.6,11.4c-0.8,0.1-1.4-0.3-2-0.6
		c-0.6-3.2-1.2-6.4-1.8-9.7c-0.1,0-0.3,0-0.4,0c-1,2.5-2,5-3,7.5c-0.7,0.1-1.2-0.3-1.9-0.6c1.3-3.2,2.5-6.3,3.8-9.5
		c-0.1-0.1-0.2-0.2-0.3-0.3c-2.8,2.5-5.6,5-8.4,7.4c-0.9,0-1.4-0.4-2-0.8c0.5-4.4,0.9-8.7,1.4-13.2c0.8,0.1,1.3,0.5,1.9,0.8
		c0.1,1.3-0.2,2.5-0.3,3.7c1.2,1,2.6,1.5,4,2.2c1-0.8,1.9-1.7,2.9-2.5c0.3,0.1,0.6,0.3,0.9,0.3c2.3,0.2,3.1,1.6,3.3,3.7
		c0.2,2.4,0.8,4.8,1.3,7.4c0.9-1.4,1.2-2.7,1.7-4C145.4,279.5,145.9,278.2,146.5,276.8L146.5,276.8z M133.2,277.2
		c-1-0.5-1.7-1.1-2.8-1.1c-0.1,1.2-0.2,2.4-0.3,3.5c0.1,0,0.2,0.1,0.3,0.1C131.4,279,132.2,278.2,133.2,277.2L133.2,277.2z"/>
	<path fill="#E32129" d="M118.3,91.3c-0.2,0.7,0.4,1.1,0.7,1.6c0.7,1.2,1.7,2.3,2.4,3.7c-0.9,0.7-1.9,1.4-2.8,2.1
		c-1.3-0.3-2.2-1.3-3.5-1.8c-1.2,0.7-2.3,1.7-3.5,2.6c0,1.3,0.7,2.5,0.9,3.8c-0.3,0.6-0.9,0.9-1.6,1.3c-1.3-4.3-2.6-8.5-3.8-12.6
		c0.3-0.7,0.9-1,1.6-1.4c3.1,1.9,6.3,3.8,9.5,5.7c0.1-0.1,0.2-0.2,0.3-0.4c-1.9-2.8-3.8-5.7-5.8-8.6c1.3-0.9,2.4-1.7,3.7-2.5
		c1.7-1,3.4-0.9,4.7,0.3c1.4,1.2,1.9,2.8,1.3,4.6c-0.1,0.2-0.2,0.4-0.3,0.8c1.4,1,3.1,1.4,4.6,2.3c-0.5,0.7-1.2,1-1.8,1.3
		C122.7,93.3,120.6,92,118.3,91.3c0-0.9,0.9-1,1.4-1.4c0.9-0.8,1.1-1.7,0.5-2.6c-0.6-1-1.6-1.3-2.6-0.7c-0.7,0.3-1.4,0.7-2,1.5
		C116.7,89,116.9,90.6,118.3,91.3L118.3,91.3z M109.9,93.8c-0.1-0.1-0.2-0.1-0.1,0C109.8,93.8,109.9,93.8,109.9,93.8
		c-0.3,1.3,0.6,2.3,0.9,3.6c0.9-0.4,1.6-1,2.3-1.8C112,94.9,111.1,94.2,109.9,93.8L109.9,93.8z"/>
	<path fill="#E32129" d="M250.5,255.2c0.2-0.8,0.7-1.5,1.4-2c1.3,0.1,2.3,1,3.7,1.2c0.9-1,1.9-2.1,2.9-3.1c-0.3-1.3-1.1-2.4-1.5-3.5
		c0.1-0.2,0.1-0.3,0.2-0.4c2-2.4,2-2.4,5.1-1.9c0.7,0.1,1.5,0.1,2.2,0.2c0.7,0.1,1.3,0.2,2,0.3c0.1,0.8-0.5,1.1-0.8,1.6
		c-0.7,1.2-0.6,2,0.4,2.7c0.9,0.7,1.9,0.6,2.8-0.3c0.5-0.5,0.9-1,1.3-1.8c-2.7-2.1-5.4-4.2-8-6.4c0.2-0.7,0.6-1.2,1.2-1.6
		c3.2,2.5,6.4,5,9.8,7.7c-1,1.2-1.9,2.5-2.9,3.6c-1.2,1.3-2.6,1.7-4.3,1.1c-1.7-0.6-2.7-1.8-2.9-3.6c0-0.4,0.1-0.8-0.1-1.4
		c-1.1-0.1-2.2-0.2-3.6-0.3c1.6,3.8,3.5,7.2,5.1,10.8c-0.2,0.7-0.8,1.1-1.3,1.6c-1.8-0.7-3.5-1.4-5.3-2.1c-2-0.8-4.1-1.7-6.1-2.4
		C251.2,255.1,250.8,254.6,250.5,255.2L250.5,255.2L250.5,255.2z M261.1,256.7c0.2,0.2-0.2,0.2,0.1,0.1c0,0,0.1,0,0.1,0
		C261.2,256.6,261.1,256.6,261.1,256.7c0-1.3-0.8-2.2-1.5-3.4c-0.7,0.7-1.4,1.2-1.8,2.2C258.9,255.9,259.9,256.6,261.1,256.7
		L261.1,256.7z"/>
	<path fill="#E32129" d="M293.4,160.5c0.3,0.7,0.4,1.3,0.5,2c-3.7,2.3-7.4,4.7-11.1,7c-0.5-0.2-0.5-0.5-0.5-0.7c0-0.4-0.2-0.8,0-1.4
		c0.9-0.6,1.9-1.3,2.9-1.9c0.1-1.3-0.4-2.5-0.5-3.7c-0.1-0.7-0.5-1-1.2-1.1c-0.9-0.1-1.8-0.3-2.7-0.5c-0.1-0.2-0.2-0.4-0.3-0.5
		c-0.6-2.8-0.6-2.8,1.4-4.9c1-1,2-2,2.9-3c0.1-0.1,0.2-0.1,0.5-0.2c0.2,0.6,0.3,1.2,0.5,1.8c0.4,1.1,1.3,1.5,2.3,1.2
		c1-0.3,1.6-1.1,1.5-2.2c-0.1-0.7-0.1-1.5-0.7-2.3c-3.2,0.8-6.5,1.6-9.8,2.4c-0.6-0.5-0.6-1.1-0.6-1.9c4-1,8-2,12-3
		c0.6,1.6,0.9,3,1.2,4.4c0.3,2-0.4,3.4-2,4.3c-1.7,0.9-3.3,0.8-4.7-0.5c-0.2-0.2-0.4-0.3-0.6-0.5c-1,0.8-1.8,1.7-2.7,2.9
		C285.6,159,289.5,159.7,293.4,160.5L293.4,160.5z M290.4,162.3c0-0.2-0.1-0.3-0.1-0.5c-1.2,0.2-2.4-0.7-3.7-0.2
		c0.2,0.9,0.4,1.7,0.6,2.7C288.4,163.5,289.4,162.9,290.4,162.3L290.4,162.3z"/>
	<path fill="#E32129" d="M275.7,139.1c-0.5-0.4-0.9,0.3-1.5,0c-1-2.2-2.2-4.5-3.3-7c0.7-1,1.5-2,2.3-3.1c-0.8-1.3-1.5-2.5-2.2-3.7
		c-1.4-0.2-2.6,0.5-3.9,0.4c-0.5-0.4-0.8-0.9-0.9-1.8c4.3-0.7,8.6-1.5,12.9-2.2c0.6,0.4,0.8,1,1.2,1.7c-2.3,3-4.7,6.1-7,9.2
		c0.1,0.1,0.2,0.3,0.3,0.4c3.2-1.3,6.3-2.9,9.5-4.3c0.6,0.4,0.7,1,0.9,1.8c-3.1,1.5-6.2,2.9-9.3,4.4
		C274.8,136.3,276.1,137.5,275.7,139.1L275.7,139.1L275.7,139.1z M274.5,127.2c0.9-0.9,1.7-1.8,2.3-3.1c-1.4,0.2-2.5,0.3-3.7,0.8
		C273.4,125.8,273.8,126.5,274.5,127.2L274.5,127.2z"/>
	<path fill="#E32129" d="M227,83.9c-1.8-0.8-3.4-1.5-4.9-2.2c0-0.7,0.2-1.2,0.7-1.8c2.4,1,4.8,2.1,7.2,3.2c-1,3.1-4.2,4.8-7.2,4.1
		c-3.5-0.9-5.5-4-4.9-7.4c0.7-3.6,3.9-6,7.2-5.5c3.4,0.5,5.8,3.2,5.5,6.5c-1.3-0.1-2-0.8-2.5-2c-1-2.3-3.8-3.1-6-1.8
		c-2.2,1.3-2.9,4.4-1.5,6.5C222.1,85.4,224.7,85.8,227,83.9L227,83.9z"/>
	<path fill="#E32129" d="M83.9,117.8c3.6,2.2,7.1,4.3,10.6,6.4c-0.4,1.4-1.1,1.9-2.5,1.9c-2.8-0.1-5.5,0.1-8.4,0.3
		c2.1,1.7,4.6,2.8,6.9,4.4c-0.2,0.7-0.5,1.2-1,1.7c-3.5-2.1-7.1-4.2-10.5-6.3c0.3-1.6,1.3-2,2.7-2c2.7,0.1,5.5,0,8.6,0
		c-1.3-1.3-2.6-1.8-3.8-2.5c-1.2-0.7-2.4-1.4-3.6-2.1C83,118.8,83.4,118.4,83.9,117.8L83.9,117.8z"/>
	<path fill="#E32129" d="M252.7,266.2c0,3.6-2.7,6.4-6.2,6.5c-3.8,0.2-6.8-2.9-6.8-6.6c0.1-3.5,2.9-6.5,6.3-6.5
		C249.6,259.6,252.6,262.6,252.7,266.2L252.7,266.2z M250.5,266.5c0-2.6-2-4.7-4.5-4.7c-2.4,0-4.3,1.9-4.3,4.2c0,2.5,2,4.5,4.5,4.6
		C248.7,270.7,250.5,268.9,250.5,266.5L250.5,266.5z"/>
	<path fill="#E32129" d="M285,199.4c2.7,0.5,5.4,0.9,8,1.4c0.4,0.7,0.1,1.2-0.1,2c-4.1-0.5-8.1-1.4-12.1-2c-0.3-0.8,0-1.3,0.1-2.1
		c3-1.2,6.1-2.5,9.3-3.8c0-0.1,0-0.2,0-0.3c-2.7-0.5-5.4-0.9-8.1-1.4c-0.2-0.8,0-1.3,0.4-2c4,0.7,8,1.4,12,2.1
		c0.2,1.5-0.4,2.2-1.7,2.7c-2.6,0.9-5.2,2.1-7.8,3.1C285,199.2,285,199.3,285,199.4L285,199.4z"/>
	<path fill="#E32129" d="M210,73.3c-0.4,1.5-0.8,2.9-1.1,4.2c-0.3,1.3-0.5,2.6-1,3.8c-0.7,0.2-1.2,0-1.9-0.5
		c1.1-3.9,2.1-7.9,3.2-11.8c2,0.2,2,0.2,2.5,1.7c0.8,2.7,1.7,5.4,2.6,8.6c1.1-3,1.4-5.7,2.3-8.3c0.7-0.2,1.2,0.2,2,0.3
		c-1.1,4.1-2.2,8.1-3.2,12c-1.5,0.1-2.2-0.4-2.5-1.8c-0.6-2.4-1.4-4.7-2.1-7C210.5,74.2,210.5,73.8,210,73.3L210,73.3z"/>
	<path fill="#E32129" d="M295.4,184.1c0,3.6-2.9,6.5-6.5,6.4c-3.7,0-6.7-3-6.6-6.6c0.1-3.6,2.9-6.3,6.6-6.3
		C292.5,177.7,295.4,180.5,295.4,184.1L295.4,184.1z M288.9,188.4c2.5,0,4.5-1.9,4.5-4.3c0-2.3-2-4.3-4.4-4.4
		c-2.5-0.1-4.6,1.9-4.6,4.4C284.4,186.5,286.3,188.4,288.9,188.4L288.9,188.4z"/>
	<path fill="#E32129" d="M81,142.8c-3.7-0.1-6.6-3-6.5-6.7c0.1-3.5,2.9-6.4,6.5-6.2c3.8,0.2,6.5,2.6,6.6,6.5
		C87.6,140.1,84.6,142.9,81,142.8L81,142.8z M85.5,136.6c0-2.4-2-4.5-4.5-4.5c-2.4,0-4.4,1.8-4.4,4.1c0,2.5,2,4.5,4.5,4.5
		C83.5,140.7,85.4,138.9,85.5,136.6L85.5,136.6z"/>
	<path fill="#E32129" d="M271.8,244.3c-3.4,0.3-6.4-3.5-6.1-7c0.3-3.5,3.2-6.1,6.8-5.9c3.7,0.2,6.4,3.3,6.2,7
		C278.5,241.9,275.5,244.5,271.8,244.3L271.8,244.3z M272.2,242.2c2.4,0,4.4-1.8,4.4-4.1c0-2.4-2.1-4.6-4.6-4.7
		c-2.3,0-4.3,1.9-4.4,4.2C267.7,240.1,269.8,242.2,272.2,242.2L272.2,242.2z"/>
	<path fill="#E32129" d="M159.2,75.2c0,3.6-2.9,6.5-6.5,6.5c-3.5,0-6.4-3-6.4-6.6c-0.1-3.6,2.8-6.5,6.4-6.5
		C156.3,68.5,159.1,71.4,159.2,75.2L159.2,75.2z M157,75.3c0-2.6-1.9-4.6-4.3-4.7c-2.3,0-4.3,2-4.3,4.5c0,2.5,2,4.6,4.5,4.6
		C155.2,79.6,157,77.7,157,75.3L157,75.3z"/>
	<path fill="#E32129" d="M102.6,97.8c3.6,0,6.6,2.9,6.6,6.6c0,3.5-2.8,6.4-6.3,6.5c-3.7,0-6.7-3-6.7-6.7
		C96.2,100.7,99,97.9,102.6,97.8L102.6,97.8z M107.1,104.6c0-2.6-2-4.6-4.6-4.6c-2.4,0-4.2,1.8-4.2,4.1c0,2.5,2.1,4.7,4.7,4.7
		C105.2,108.8,107.1,106.9,107.1,104.6L107.1,104.6z"/>
	<path fill="#E32129" d="M113.4,272c-3.5,0-6.4-2.9-6.4-6.4c0-3.2,2.4-6.6,6.6-6.7c3.5,0,6.5,3,6.5,6.5C120,269,116.9,272,113.4,272
		L113.4,272z M113.2,269.9c2.6,0,4.7-2,4.7-4.6c0-2.4-1.9-4.3-4.2-4.3c-2.5,0-4.5,2.1-4.6,4.5C109.1,268,110.9,269.9,113.2,269.9
		L113.2,269.9z"/>
	<path fill="#E32129" d="M78,181.6c-1.7,0.3-10.7,0-12.6-0.4c-0.2-2-0.2-4,0.4-5.9c0.6-2.1,2.2-3.3,4.3-3.8c4.2-1.1,7.9,1.7,8,6
		C78.1,178.9,78,180.3,78,181.6L78,181.6z M75.9,179.6c0.4-3.3,0-4.6-1.4-5.5c-1.5-1-3.9-1-5.4,0c-1.9,1.3-1.6,3.2-1.6,5.2
		C70.4,179.6,73.1,179.6,75.9,179.6L75.9,179.6z"/>
	<path fill="#E32129" d="M248.7,104.1c2.9-3.1,5.7-6.1,8.6-9.2c1.1,1,2,1.9,3,2.8c4.3,4,1.1,9.6-2.8,10.7c-1.7,0.5-3.3,0.3-4.7-0.6
		C251.4,106.8,250.2,105.4,248.7,104.1L248.7,104.1z M251.7,104c1.5,1.6,2.9,3.2,5.1,2.5c1.8-0.5,3-1.9,3.4-3.7
		c0.5-2.4-1.2-3.6-2.8-5C255.5,99.9,253.7,101.9,251.7,104L251.7,104z"/>
	<path fill="#E32129" d="M189.4,289.8c-1,0.1-2,0.1-3.1,0c0-3.7,0-7.3,0-10.8c0.3-0.3,0.6-0.2,0.9-0.2c0.2,0,0.5,0,0.8,0.4
		c0,2.7,0,5.5,0,8.3c0.1,0,0.3,0.1,0.4,0.1c1.1-2.8,2.2-5.7,3.3-8.5c0.6-0.4,1.2-0.3,2-0.1c1.4,3.5,2.8,7.1,4.2,10.7
		c-0.7,0.3-1.3,0.3-2,0.1c-0.4-1-0.8-1.9-1.3-3c-1.3,0-2.4,0-3.7,0C190.2,287.6,190.2,288.9,189.4,289.8L189.4,289.8z M191.6,284.8
		c0.9-0.1,1.5,0.2,2.3-0.2c-0.4-0.9-0.5-1.9-1.3-2.7C192.2,282.8,191.9,283.6,191.6,284.8L191.6,284.8z"/>
	<path fill="#E32129" d="M127.3,92.3c-1.9-3.9-3.7-7.5-5.5-11.4c1.8-0.9,3.5-2,5.3-2.4c3.4-0.8,6.8,1.8,7.3,5.5
		c0.4,2.8-0.6,4.9-3.1,6.2C130.1,90.9,128.7,91.6,127.3,92.3L127.3,92.3z M128.2,89.5c2-0.9,4.1-1.6,4.2-4c0.1-1.9-0.7-3.6-2.4-4.6
		c-2-1.2-3.7,0-5.4,1C125.7,84.5,126.9,86.9,128.2,89.5L128.2,89.5z"/>
	<path fill="#E32129" d="M284.2,146.5c-0.7,1.5-1.8,2.3-3.4,2.5c-1.5,0.2-2.6-0.3-3.4-1.6c-0.8-1.4-1.2-2.9-1.8-4.4
		c4-1.5,7.9-2.9,11.9-4.3c0.4,1,0.7,1.9,1,2.8C289.5,144.8,287.8,146.9,284.2,146.5L284.2,146.5z M278.3,144.3
		c0.3,1.1,0.5,2.2,1.7,2.6c0.7,0.2,1.5-0.1,1.9-0.8c0.7-1.1-0.1-2-0.5-3.2C280.3,143.5,279.3,143.6,278.3,144.3L278.3,144.3z
		 M283.5,142.5c0.3,1,0.5,1.9,1.6,2.1c0.6,0.1,1.2-0.1,1.4-0.7c0.3-0.9,0.3-1.8-0.5-2.5C285.2,141.7,284.3,141.8,283.5,142.5
		L283.5,142.5z"/>
	<path fill="#E32129" d="M161.9,68.9c0.4,3.3,0.8,6.6,1.2,9.9c-0.6,0.5-1.2,0.3-1.8,0.4c-0.5-1.4-1.6-9.9-1.6-12.3
		c1.4-0.4,2.9-0.5,4.4-0.6c1.9-0.1,3.3,0.8,3.9,2.4c0.6,1.6,0.5,3.2-0.8,4.6c-0.2,0.2-0.4,0.4-0.7,0.7c0.8,1.5,2.1,2.6,3,4.1
		c-1.9,0.7-2,0.7-3.1-0.6c-1.2-1.5-2.4-3-3.6-4.5c0.5-0.6,1.2-0.5,1.8-0.6c1.2-0.3,1.7-0.9,1.6-2c-0.1-1.2-0.8-1.9-2-1.9
		C163.4,68.4,162.6,68.4,161.9,68.9L161.9,68.9z"/>
	<path fill="#E32129" d="M88,111.7c0.8-1,1.4-1.9,2.2-2.7c1.9-2.1,4.2-1.9,5.8,0.4c0.2,0.2,0.3,0.5,0.5,0.9c1.3-0.1,2.5,0.1,3.5,1.1
		c1.4,1.4,1.7,2.7,0.8,4.4c-0.7,1.3-1.7,2.4-2.7,3.6C94.6,116.8,91.3,114.3,88,111.7L88,111.7z M97.5,116.6c0.8-1.1,1.8-1.8,1.3-3.2
		c-0.3-0.6-0.9-1.1-1.6-1c-1.2,0.2-1.7,1.1-2.3,2.1C95.8,115.2,96.6,115.8,97.5,116.6L97.5,116.6z M93.1,113.1
		c0.8-0.6,1.4-1.4,1.1-2.4c-0.1-0.6-0.6-0.9-1.2-1c-1.1,0-1.6,0.8-2.1,1.7C91.7,112,92.3,112.5,93.1,113.1L93.1,113.1z"/>
	<path fill="#E32129" d="M238.1,271.8c-1-1.7-2-3.4-3-5c0.4-0.6,0.9-0.9,1.7-1.1c2.1,3.4,4.1,7.1,6.4,10.5c-1.2,1.1-2.6,1.8-3.9,2.5
		c-1.7,0.9-3.4,0.6-4.7-0.7c-1.3-1.3-1.6-2.9-0.9-4.7c0.1-0.2,0.3-0.4,0.1-0.8c-1.4-0.8-2.9-1.5-4.4-2.4c1.1-1.3,2.1-1.4,3.4-0.6
		c1.5,1,3.2,1.7,4.8,2.5C237.9,272,238,271.9,238.1,271.8L238.1,271.8z M238.3,272.1c-0.4,0.3-0.6,0.5-0.9,0.7
		c-0.3,0.2-0.6,0.4-0.9,0.6c-1,0.8-1.2,1.6-0.7,2.5c0.6,1,1.5,1.4,2.6,0.8c0.7-0.3,1.5-0.6,1.9-1.4
		C239.7,274.3,239,273.2,238.3,272.1L238.3,272.1z"/>
	<path fill="#E32129" d="M78.5,190.9c0.6,1.5,0.5,2.5-0.8,3.3c-1.6,1-3,2.4-4.8,3.5c-0.3-0.6-0.2-1.1-0.3-1.7
		c-0.2-1.3-0.9-1.9-2.1-1.8c-1.2,0.1-1.8,0.8-1.9,2c0,0.7,0,1.3,0.3,2.2c3.4,0,6.8-0.8,10.1-0.9c0.5,0.6,0.4,1.1,0.4,1.8
		c-4.1,0.7-8.2,0.9-12.4,1.4c-0.2-1.9-0.7-3.6-0.4-5.4c0.2-1.6,1.2-2.7,2.7-3.1c1.5-0.5,3-0.3,4.2,0.9c0.3,0.3,0.5,0.5,0.8,0.9
		C75.8,192.9,77.1,191.9,78.5,190.9L78.5,190.9z"/>
	<path fill="#E32129" d="M79.7,213.3c2.8-0.2,5.2,1.7,5.9,4.8c0.7,2.9-0.6,6.1-4.2,7.6c-2.2,0.9-5.5,0.4-7.5-2.3
		c-2-2.6-1.7-5.9,0.8-8.5c0.7,0.9,1,1.7,0.4,2.9c-1.1,2.3-0.1,4.7,2.2,5.6c2.3,1,4.9-0.1,6-2.3c1-2.1,0.1-4.4-2-5.5
		C80,215,80,215,79.7,213.3L79.7,213.3z"/>
	<path fill="#E32129" d="M269.4,122.6c-3.4,1-6.1-1.3-7.1-3.6c-1.2-2.9-0.3-6.1,2.5-8c2.6-1.7,6.1-1.4,8.2,0.8
		c2.2,2.3,2.5,5.4,0.7,8c-0.8-0.8-1.3-1.5-1-2.8c0.5-2.3-1.1-4.4-3.4-4.8c-2.4-0.4-4.7,1.1-5.3,3.4c-0.6,2.4,0.7,4.5,3.1,5.1
		C268.7,121,268.7,121,269.4,122.6L269.4,122.6z"/>
	<path fill="#E32129" d="M71.2,202.1c0.6,1,0.6,1.9,0,3c-1.2,2.1-0.5,4.5,1.5,5.7c2.1,1.2,4.9,0.6,6.2-1.6c1.2-1.9,0.8-4.5-1.3-5.7
		c-1.1-0.6-1.4-1.4-1.5-2.5c2.2-0.3,4.6,1.6,5.3,4.2c0.9,3.4-0.7,6.6-4,7.8c-3,1.2-6.5,0-8.1-2.8C67.8,207.5,68.5,203.5,71.2,202.1
		L71.2,202.1z"/>
	<path fill="#E32129" d="M173.6,285.7c0-2.2,0-4.4,0-6.6c0.6-0.6,1.2-0.3,1.8-0.3c0,3.7,0,7.3,0,10.9c-0.6,0.3-1.2,0.1-1.8,0.1
		c-1.5-2.4-3-4.7-4.5-7.1c-0.1,0-0.2,0-0.3,0.1c0,2.3,0,4.6,0,6.9c-0.7,0.3-1.2,0.3-1.8,0.1c0-3.5,0-7.1,0-10.6
		c1.6-0.5,1.7-0.5,2.5,0.7c1.1,1.7,2.1,3.4,3.2,5.1C172.9,285.2,173,285.7,173.6,285.7L173.6,285.7z"/>
	<path fill="#E32129" d="M79.5,161.9c-0.1,0.7-0.1,1.3-0.6,2c-3.7-2.6-7.3-5.1-10.8-7.6c-0.1-0.8,0.3-1.3,0.3-2.1
		c4.4-0.6,8.8-1.1,13.1-1.6c0.4,0.5,0.2,0.8,0.1,1.2c-0.1,0.3-0.2,0.6-0.3,0.9c-1.2,0.2-2.4,0.4-3.7,0.5c-0.7,1.4-0.7,2.9-1.3,4.3
		C77.4,160.3,78.4,161.1,79.5,161.9L79.5,161.9z M75.2,155.6c-1.5-0.1-2.6,0.1-4.2,0.5c1.3,0.9,2.3,1.5,3.3,2.2
		C74.9,157.4,74.9,156.6,75.2,155.6L75.2,155.6z"/>
	<path fill="#E32129" d="M176.7,289.8c0-3.8,0-7.3,0-11c1.8-0.2,3.5-0.3,5.1,0.1c2.4,0.5,3.9,2.8,3.9,5.5c0,2.9-2,5.1-4.7,5.4
		C179.6,289.9,178.2,289.8,176.7,289.8L176.7,289.8z M178.5,280.9c-0.1,2.4-0.1,4.7,0,7.1c3.7,0.2,5.2-1,5.1-3.8
		C183.6,281.5,182,280.4,178.5,280.9L178.5,280.9z"/>
	<path fill="#E32129" d="M65.5,184.2c0.6-0.4,1.2-0.3,2-0.3c0.2,1.6,0.3,3.1,0.5,4.8c1,0.1,1.9-0.1,2.9-0.2c0.4-1.5-0.2-3.1,0.1-4.6
		c0.5-0.4,1.1-0.3,1.7-0.3c0.6,1.5,0.3,3.1,0.6,4.7c1,0.2,1.9-0.1,3-0.2c0.5-1.6-0.3-3.1,0-4.6c0.6-0.4,1.2-0.3,2-0.2
		c0.2,2.3,0.3,4.5,0.5,6.9c-4.2,0.3-8.3,0.6-12.6,0.9C65.8,188.6,65.6,186.4,65.5,184.2L65.5,184.2z"/>
	<path fill="#E32129" d="M79.1,234.1c-0.6-0.6-0.8-1.1-0.9-1.6c0-0.1,0-0.3,0.1-0.4c2.1-2.4,4.3-4.6,6.2-7.1
		c0.7-0.9,1.5-1.7,2.6-2.4c0.6,0.4,0.7,1,1,1.7c-0.8,0.9-1.7,1.9-2.6,2.9c0.7,1.4,1.3,2.7,1.9,4c1.3-0.1,2.6-0.1,3.8-0.2
		c0.4,0.5,0.7,1.1,1,1.9C87.8,233.4,83.4,233.7,79.1,234.1L79.1,234.1z M84,228.8c-1,1-1.8,1.9-2.8,3.1c1.6-0.1,2.8,0.1,4.1-0.6
		C84.9,230.5,84.5,229.8,84,228.8L84,228.8z"/>
	<path fill="#E32129" d="M231.1,283.1c-2.1,1-4.1,1.9-6.1,2.8c-0.7-0.4-0.8-1-1-1.7c1.2-1,2.8-1.3,4.2-2.2c-0.3-1-0.7-1.8-1.3-2.8
		c-1.4,0.7-2.9,1.3-4.3,1.9c-0.5-0.6-0.7-1.1-0.8-1.9c1.3-0.6,2.7-1.3,4.2-2c-0.2-1-0.7-1.9-1.2-2.8c-1.5,0.4-2.8,1.3-4.2,1.8
		c-0.6-0.3-0.7-0.9-1-1.6c2-1.1,4.1-2,6.3-3C227.5,275.5,229.3,279.2,231.1,283.1L231.1,283.1z"/>
	<path fill="#E32129" d="M189,74.1c0.7-0.4,1.2,0,1.6-0.1c0.5,0.4,0.3,0.8,0.4,1.2c0.2,0.8,0.7,1.3,1.6,1.3c0.7,0,1.3-0.3,1.6-1
		c0.3-0.7,0.2-1.4-0.4-2c-0.6-0.6-1.3-0.8-2-1.2c-1.1-0.6-1.9-1.3-2-2.6c-0.2-2.3,1.3-4,3.5-4c2.3,0,3.6,1.5,3.4,4.1
		c-0.2,0.3-0.5,0.2-0.8,0.2c-0.3,0-0.6-0.1-0.7-0.2c-0.4-0.3-0.4-0.6-0.4-0.9c-0.1-0.8-0.6-1.2-1.4-1.1c-0.7,0-1.1,0.4-1.3,1.1
		c-0.2,0.8,0.1,1.3,0.8,1.6c0.7,0.3,1.3,0.6,1.9,1c1.4,0.8,1.9,2,1.7,3.5c-0.2,1.6-0.9,2.9-2.5,3.5c-1.4,0.5-2.7,0.3-3.8-0.7
		C189,76.8,188.7,75.5,189,74.1L189,74.1z"/>
	<path fill="#E32129" d="M220.1,278.7c-0.4,0.4-0.9,0.5-1.4,0.6c-0.5-0.2-0.6-0.6-0.9-1c-0.6-0.6-1.2-0.8-2-0.4
		c-0.7,0.3-1.1,0.9-1,1.6c0.1,0.8,0.4,1.4,1.3,1.6c0.8,0.2,1.7,0.2,2.5,0.2c1.3,0,2.3,0.6,2.9,1.8c0.9,1.8,0.3,3.8-1.4,4.7
		c-1.8,1-3.6,0.5-4.7-1.3c-0.2-0.3-0.2-0.5-0.4-0.8c0.4-0.5,0.9-0.6,1.4-0.7c0.4,0,0.5,0.3,0.7,0.6c0.5,0.7,1.2,0.9,1.9,0.5
		c0.6-0.3,0.8-0.9,0.7-1.6c-0.2-0.8-0.8-1.1-1.5-1.1c-0.7,0-1.5,0-2.2,0c-1.9-0.1-3-1.3-3.3-3.3c-0.3-2.1,0.5-3.5,2.3-4.2
		c1.7-0.7,3.4-0.1,4.4,1.5C219.9,277.8,220.2,278.2,220.1,278.7L220.1,278.7z"/>
	<path fill="#E32129" d="M181.1,77.7c0-4.2,0-8.3,0-12.4c2.4,0,4.6,0,6.7,0c0.6,0.7,0.2,1.2,0.3,1.9c-1.6,0-3.1,0-4.7,0
		c-0.3,1.1-0.2,2-0.1,3c1.5,0.5,3.1,0,4.6,0.4c0.3,0.7,0.2,1.2,0,1.9c-1.6,0-3.1,0-4.6,0c-0.5,1-0.3,2-0.2,3
		c1.6,0.5,3.2,0.1,4.7,0.4c0.3,0.6,0.2,1.1,0.1,1.8C185.6,77.7,183.4,77.7,181.1,77.7L181.1,77.7z"/>
	<path fill="#E32129" d="M136.9,73.8c2.2-0.8,4.1-1.6,6.1-2.3c0.6,0.6,0.7,1.1,0.8,1.9c-1.3,0.5-2.7,1.1-4,1.6
		c0.1,1.1,0.5,1.9,1,2.9c1.4-0.5,2.7-1,4.1-1.5c0.6,0.5,0.7,1.1,0.8,1.7c-1.2,0.8-2.7,1-4,1.8c0.2,1.7,1.2,3.1,1.5,4.8
		c-0.4,0.5-1,0.6-1.8,0.8C139.9,81.7,138.4,77.8,136.9,73.8L136.9,73.8z"/>
	<path fill="#E32129" d="M282.3,172.3c-0.2-0.8-0.4-1.3,0-2c3.3-0.3,6.7-0.6,9.9-0.9c0.4-0.8,0-1.5,0.2-2.2c0.5-0.4,1.1-0.3,1.9-0.2
		c0.2,2.1,0.4,4.3,0.6,6.3c-0.6,0.5-1.2,0.4-1.8,0.3c-0.6-0.5-0.2-1.3-0.6-2.1C289.3,171.5,285.9,172.2,282.3,172.3L282.3,172.3z"/>
	<path fill="#E32129" d="M71,144.3c0.7,0.2,1.2,0.3,1.7,0.5c0.3,0.8-0.4,1.4-0.2,2.3c3.2,0.9,6.5,1.9,9.8,2.9c0,0.8-0.1,1.3-0.6,1.9
		c-3.2-0.9-6.5-1.8-9.7-2.7c-0.8,0.5-0.5,1.3-1.2,2c-0.5,0.1-1.1-0.1-1.7-0.5C69.7,148.5,70.4,146.6,71,144.3L71,144.3z"/>
	<path fill="#E32129" d="M201.9,69.5c-0.6,3.3-1.2,6.6-1.8,9.8c-0.7,0.4-1.3,0.1-2-0.1c0.3-3.4,1.3-6.8,1.6-10.1
		c-0.6-0.6-1.4-0.3-2-0.8c-0.2-0.6,0.1-1.1,0.3-1.8c2.1,0.2,4.2,0.7,6.2,1c0.4,0.6,0,1.2,0,1.7C203.5,69.7,202.8,69.2,201.9,69.5
		L201.9,69.5z"/>
	<path fill="#E32129" d="M250.4,255.2c-0.1,0.2,0,0.4,0.1,0.5c2.2,2.3,4.4,4.5,6.5,6.8c0.9-0.2,1.1-1.1,1.9-1.3
		c0.5,0.3,0.9,0.7,1.3,1.4c-1.5,1.5-3.1,3-4.6,4.4c-0.8-0.3-1.1-0.8-1.4-1.3c0.2-0.7,1-1,1.4-1.8c-2.3-2.4-4.7-4.9-7.1-7.4
		C249,255.8,249.5,255.1,250.4,255.2L250.4,255.2L250.4,255.2z"/>
	<path fill="#E32129" d="M119,275.7c0.9-0.2,1.8,0.1,2.7,0.6c1.8-3,3.5-5.9,5.3-8.8c0.8,0,1.2,0.5,1.9,0.9c-1.8,3-3.6,6-5.3,8.9
		c0.4,0.8,1.2,0.8,1.7,1.5c-0.1,0.5-0.5,1-0.9,1.6c-1.8-0.9-3.5-2-5.2-3c-0.3-0.2-0.5-0.5-0.6-0.9l0,0
		C119,276.2,119.2,276.1,119,275.7L119,275.7L119,275.7z"/>
	<path fill="#E32129" d="M69,163c3.4,0.4,6.7,0.8,10,1.3c0.2,0.7,0.2,1.3-0.3,2c-3.4-0.4-6.7-0.8-10-1.2c-0.6,0.6-0.3,1.4-0.7,2.1
		c-0.6,0.1-1.3,0.1-1.9-0.2c0.3-2.1,0.5-4.2,0.8-6.2c0.7-0.3,1.3-0.1,1.8,0C69.2,161.5,68.7,162.2,69,163L69,163z"/>
	<path fill="#E32129" d="M176,67.6c-0.8-0.4-1.5,0-2.1-0.4c-0.3-0.5-0.1-1.1-0.1-1.8c2.2,0,4.3,0,6.5,0c0.2,0.6,0.2,1.1,0,1.8
		c-0.6,0-1.2,0.1-2.1,0.2c-0.1,3.4,0.1,6.8,0,10.2c-0.6,0.5-1.2,0.3-1.9,0.3C176.2,74.4,176.1,71,176,67.6L176,67.6z"/>
	<path fill="#E32129" d="M118.7,276.4c-1.1-0.1-1.1-0.1-2.3-1c2-3.6,4.3-7,6.7-10.4c0.7,0,1.1,0.5,1.6,0.8c0.1,0.6-0.3,0.9-0.6,1.3
		c-1.5,2.4-3.1,4.8-4.6,7.2c-0.2,0.4-0.9,0.7-0.5,1.4l0,0C118.5,275.7,118.2,275.9,118.7,276.4L118.7,276.4L118.7,276.4z"/>
	<path fill="#E32129" d="M227,271.3c0.5-0.7,1.1-0.8,1.7-1.1c1.9,3.7,3.8,7.4,5.6,11c-0.3,0.7-1,0.7-1.7,1.3
		C230.7,278.6,228.8,274.9,227,271.3L227,271.3z"/>
	<path fill="#E32129" d="M205.4,68.1c0.8-0.2,1.3,0.1,2,0.4c-0.9,4-1.8,8-2.7,12c-0.8,0.2-1.3-0.1-2-0.4
		C203.5,76,204.5,72,205.4,68.1L205.4,68.1z"/>
	<path fill="#E32129" d="M275.7,139.1c0.5,0.6,1,0,1.4-0.2c2.4-0.9,4.8-1.9,7.2-2.9c0.5-0.2,1.1-0.6,1.7-0.5c0.5,0.4,0.6,1,0.7,1.8
		c-3.8,1.5-7.6,3.1-11.3,4.6c-0.7-0.4-0.7-1.1-0.9-1.5C274.7,139.6,275.8,139.9,275.7,139.1C275.7,139.1,275.7,139.1,275.7,139.1
		L275.7,139.1z"/>
	<path fill="#E32129" d="M83.9,145.6c-0.1,0.8-0.3,1.3-0.7,1.9c-3.8-1.3-7.7-2.6-11.5-3.9c-0.3-0.8,0.2-1.3,0.4-2.1
		C76.1,142.9,79.9,144.2,83.9,145.6L83.9,145.6z"/>
	<path fill="#E32129" d="M282.8,176.9c-0.4-0.7-0.3-1.2-0.2-1.9c4.1-0.4,8.2-0.4,12.2-0.5c0.4,0.7,0.4,1.2,0.2,2
		C291,176.8,286.8,176.7,282.8,176.9L282.8,176.9z"/>
	<path fill="#E32129" d="M66,169.9c-0.2-0.9-0.1-1.4,0.2-2.1c4,0.3,8,0.7,12,1c0.5,0.7,0.2,1.2,0.2,2
		C74.2,170.8,70.2,170.2,66,169.9L66,169.9z"/>
	<path fill="#E32129" d="M164.2,289.7c0-3.6,0-7.1,0-10.7c0.6-0.4,1.1-0.4,1.8-0.1c0,3.5,0,7.1,0,10.7
		C165.4,290,164.8,290,164.2,289.7L164.2,289.7z"/>
	<path fill="#E32129" d="M159.1,286.6c-1.4,0-2.6-1.2-2.6-2.7c0-1.4,1.3-2.7,2.7-2.7c1.4,0,2.6,1.3,2.6,2.7
		C161.7,285.3,160.5,286.6,159.1,286.6L159.1,286.6z"/>
	<path fill="#E32129" d="M204.2,282.8c0,1.5-1.1,2.7-2.6,2.7c-1.4,0-2.6-1.1-2.6-2.5c-0.1-1.5,1-2.7,2.5-2.8
		C202.9,280.1,204.1,281.3,204.2,282.8L204.2,282.8z"/>
</g>
</svg>
