<?xml version="1.0" encoding="utf-8"?>
<!-- Generator: Adobe Illustrator 18.1.1, SVG Export Plug-In . SVG Version: 6.00 Build 0)  -->
<!DOCTYPE svg PUBLIC "-//W3C//DTD SVG 1.1//EN" "http://www.w3.org/Graphics/SVG/1.1/DTD/svg11.dtd">
<svg version="1.1" id="Layer_1" xmlns="http://www.w3.org/2000/svg" xmlns:xlink="http://www.w3.org/1999/xlink" x="0px" y="0px"
	 viewBox="0 0 150 150" enable-background="new 0 0 150 150" xml:space="preserve">
<g>
	<path fill="#E67015" d="M75,150c41.4,0,75-33.6,75-75c0-41.4-33.6-75-75-75C33.6,0,0,33.6,0,75C0,116.4,33.6,150,75,150L75,150z"/>
	<path fill="#FFFEE2" d="M39.7,95.1l13.6-12.6c0,0,0,0,0,0c1.6-1.5,4.2-1.4,5.6,0.2l5.9,6.2c1.3,1.4,3.3,0.5,9.5-4.3
		c4.4-3.4,8.7-7.5,12.2-11.5c3.4-4,4.2-6,3-7.3L88,64.5l-5-4.9c-0.1-0.1-0.1-0.2-0.2-0.3c-1.6-2.2,0.9-4.4,1.9-5.3c0,0,0,0,0.1-0.1
		c0,0,13-12.7,13.3-13c0,0,0,0,0,0c1.6-1.5,3.8-1.4,5.3,0.2l4.5,4.9l1.2,1.4c0.1,0.2,11.4,16-17.1,43.5
		c-16.2,15.7-28.4,19.1-36,19.1c-0.3,0-0.6,0-0.8,0c-5-0.2-8.2-1.9-9.4-3.2l-6.1-6.2c-0.8-0.8-1.2-1.9-1.1-3
		C38.6,96.6,39,95.7,39.7,95.1L39.7,95.1z"/>
</g>
</svg>
