<?xml version="1.0" encoding="utf-8"?>
<!-- Generator: Adobe Illustrator 18.1.1, SVG Export Plug-In . SVG Version: 6.00 Build 0)  -->
<!DOCTYPE svg PUBLIC "-//W3C//DTD SVG 1.1//EN" "http://www.w3.org/Graphics/SVG/1.1/DTD/svg11.dtd">
<svg version="1.1" id="Layer_1" xmlns="http://www.w3.org/2000/svg" xmlns:xlink="http://www.w3.org/1999/xlink" x="0px" y="0px"
	 viewBox="0 0 150 150" enable-background="new 0 0 150 150" xml:space="preserve">
<g>
	<g>
		<defs>
			<rect id="SVGID_1_" y="0" width="150" height="150"/>
		</defs>
		<clipPath id="SVGID_2_">
			<use xlink:href="#SVGID_1_"  overflow="visible"/>
		</clipPath>
		<path clip-path="url(#SVGID_2_)" fill="#FFFEE2" d="M75,150c41.4,0,75-33.6,75-75c0-41.4-33.6-75-75-75C33.6,0,0,33.6,0,75
			C0,116.4,33.6,150,75,150L75,150z"/>
	</g>
	<path fill="#5DBAB0" d="M100.9,69.5l-25.8,35.8c0,0,0,0.1-0.1,0.1c0,0.1-0.1,0.2-0.2,0.3c-0.1,0.1-0.2,0.2-0.3,0.2
		c-5.2,6.2-14.3,7.4-20.9,2.6c-6.7-4.9-8.4-14.1-3.8-21.1c0.1-0.1,0.1-0.2,0.1-0.3c0,0,0,0,0-0.1l31.8-44.1c3.8-5.1,11-6.2,16.1-2.5
		c5,3.6,6.3,10.5,2.9,15.7c-0.3,0.4-4.3,6-27.7,38.5l-0.6,0.8c-0.1,0.1-0.2,0.2-0.3,0.3l-0.2,0.4c-1.2,1.6-2.9,2.7-4.9,3
		c-2,0.3-4-0.2-5.6-1.3c-3.3-2.4-4.1-7.1-1.7-10.4c0.1-0.1,0.1-0.2,0.2-0.3c0,0,0,0,0,0l22.2-30.8c0.4-0.6,0.3-1.3-0.3-1.7
		c-0.6-0.4-1.3-0.3-1.7,0.3L58,85.9c-0.1,0.1-0.2,0.3-0.3,0.5c0,0,0,0,0,0.1c-3,4.4-1.9,10.5,2.4,13.7c2.2,1.6,4.8,2.2,7.4,1.8
		c2.6-0.4,4.9-1.9,6.6-4.1l0.1-0.2c0,0,0.1-0.1,0.1-0.1l24.9-34.5c2.2-3,3.2-4.4,3.6-5.2l0.1,0c4.1-6.3,2.5-14.7-3.6-19.1
		c-6.2-4.5-15-3.1-19.6,3L48,85.8c-0.3,0.4-0.4,0.6-0.5,0.8c-5,8-3,18.5,4.7,24.1c3.1,2.3,6.8,3.4,10.5,3.4c5,0,9.9-2.1,13.4-6
		c0.1,0,0.1-0.1,0.2-0.1c0,0,0.5-0.5,0.8-1.1L103,71c0.4-0.6,0.3-1.3-0.3-1.7C102.1,68.8,101.3,69,100.9,69.5L100.9,69.5z"/>
</g>
</svg>
