<?xml version="1.0" encoding="utf-8"?>
<!-- Generator: Adobe Illustrator 17.0.0, SVG Export Plug-In . SVG Version: 6.00 Build 0)  -->
<!DOCTYPE svg PUBLIC "-//W3C//DTD SVG 1.1//EN" "http://www.w3.org/Graphics/SVG/1.1/DTD/svg11.dtd">
<svg version="1.1" id="Layer_1" xmlns="http://www.w3.org/2000/svg" xmlns:xlink="http://www.w3.org/1999/xlink" x="0px" y="0px"
	 width="1024px" height="700px" viewBox="0 0 1024 700" enable-background="new 0 0 1024 700" xml:space="preserve">
<path fill="#5DBAB0" d="M759.93,95.821C698.632,39.472,616.923,5,527.299,5C337.563,5,183.2,159.363,183.2,349.099
	s154.363,344.099,344.099,344.099c94.717,0,180.604-38.47,242.885-100.601l-68.097-68.097
	c-44.836,44.678-106.643,72.35-174.788,72.35c-136.614,0-247.751-111.137-247.751-247.751s111.137-247.751,247.751-247.751
	c63.066,0,120.662,23.722,164.445,62.66l-81.861,81.861h142.546h91.441v-31.561V11.882L759.93,95.821z"/>
</svg>
