<?xml version="1.0" encoding="utf-8"?>
<!-- Generator: Adobe Illustrator 18.1.1, SVG Export Plug-In . SVG Version: 6.00 Build 0)  -->
<!DOCTYPE svg PUBLIC "-//W3C//DTD SVG 1.1//EN" "http://www.w3.org/Graphics/SVG/1.1/DTD/svg11.dtd">
<svg version="1.1" id="Layer_1" xmlns="http://www.w3.org/2000/svg" xmlns:xlink="http://www.w3.org/1999/xlink" x="0px" y="0px"
	 viewBox="0 0 360 149" enable-background="new 0 0 360 149" xml:space="preserve">
<g>
	<path fill="#4E993F" d="M68,14h2.9c6.7-0.3,10.9-7.5,10.9-11.2V0h-2.9C72.1,0.3,68,7.5,68,11.2V14L68,14z"/>
	<path fill="#86B43F" d="M83.5,17.5h-9.8c-4.4,0-8,3.6-8,8v9.8h9.8c4.4,0,8-3.6,8-8V17.5L83.5,17.5z"/>
	<path fill="#A7C739" d="M83.5,17.5h-9.8c-4.4,0-8,3.6-8,8v9.8L83.5,17.5L83.5,17.5z"/>
	<path fill="#A6CE39" d="M42,17.5h9.8c4.4,0,8,3.6,8,8v9.8H50c-4.4,0-8-3.6-8-8V17.5L42,17.5z"/>
	<path fill="#F0BD1B" d="M20.8,41.6h12.1c1.6,0,2.8,1.3,2.8,2.8v12.1c0,1.6-1.3,2.8-2.8,2.8H20.8c-1.6,0-2.8-1.3-2.8-2.8V44.4
		C18,42.8,19.2,41.6,20.8,41.6"/>
	<path fill="#D6AD2A" d="M45,41.6h12.1c1.6,0,2.8,1.3,2.8,2.8v12.1c0,1.6-1.3,2.8-2.8,2.8H45c-1.6,0-2.8-1.3-2.8-2.8V44.4
		C42.2,42.8,43.5,41.6,45,41.6"/>
	<path fill="#77B943" d="M83.5,59.3h-9.8c-4.4,0-8-3.6-8-8v-9.8h9.8c4.4,0,8,3.6,8,8V59.3L83.5,59.3z"/>
	<path fill="#D6AD2A" d="M68.6,64.9h12.1c1.6,0,2.8,1.3,2.8,2.8v12.1c0,1.6-1.3,2.8-2.8,2.8H68.6c-1.6,0-2.8-1.3-2.8-2.8V67.7
		C65.8,66.2,67.1,64.9,68.6,64.9"/>
	<path fill="#A6CE39" d="M107.6,41.6h-9.8c-4.4,0-8,3.6-8,8v9.8h9.8c4.4,0,8-3.6,8-8V41.6L107.6,41.6z"/>
	<path fill="#77B943" d="M107.6,82.7h-9.8c-4.4,0-8-3.6-8-8v-9.8h9.8c4.4,0,8,3.6,8,8V82.7L107.6,82.7z"/>
	<path fill="#4E993F" d="M110.7,57.9h2.9c6.7-0.3,10.9-7.5,10.9-11.2v-2.9h-2.9c-6.7,0.3-10.9,7.5-10.9,11.2V57.9L110.7,57.9z"/>
	<path fill="#C8D22D" d="M45,65.4h12.1c1.6,0,2.8,1.3,2.8,2.8v12.1c0,1.6-1.3,2.8-2.8,2.8H45c-1.6,0-2.8-1.3-2.8-2.8V68.2
		C42.2,66.6,43.5,65.4,45,65.4"/>
	<path fill="#A6CE39" d="M60.8,106.9H51c-4.4,0-8-3.6-8-8v-9.8h9.8c4.4,0,8,3.6,8,8V106.9L60.8,106.9z"/>
	<path fill="#4E993F" d="M35.7,83.1h-2.9c-6.7-0.3-10.9-7.5-10.9-11.2v-2.9h2.9c6.7,0.3,10.9,7.5,10.9,11.2V83.1L35.7,83.1z"/>
	<path fill="#A6CE39" d="M6,41.6c3.3,0,6,2.7,6,6c0,3.3-2.7,6-6,6c-3.3,0-6-2.7-6-6C0,44.3,2.7,41.6,6,41.6"/>
	<path fill="#A7C739" d="M107.6,82.7v-9.8c0-4.4-3.6-8-8-8h-9.8L107.6,82.7L107.6,82.7z"/>
	<path fill="#F0BD1B" d="M88.1,118.8c-5.4,0-9.1-3.3-9.1-11.2c0-7.7,4-10.9,8.9-10.9c2.9,0,6.2,1.4,7.5,2.4l1.4-5.9
		c-2.6-1.9-5.2-2.9-9.8-3h-0.3c-8.4,0-16.3,5.6-16.3,17.1c0,12.1,7.2,17.9,16.9,17.9h0.1c4.2,0,6.8-1,9.6-2.9l-1.7-5.9
		C93.8,117.6,91.2,118.8,88.1,118.8"/>
	<path fill="#4E993F" d="M272.3,102.7v22h10.1v-23c0-9.3-3.9-16.1-13.1-16.2c-5.7-0.1-10.4,3-13.4,6.5l-0.8-5h-8.4v37.7h10.1V99
		c1.6-3.1,5.5-6,9.2-6C272,92.9,272.3,97.4,272.3,102.7 M245.4,107.8v-0.1c0-0.9,0.1-1.9,0.1-2.8v-0.1c0-10.1-5.3-19.2-16.8-19.2
		c-11.7,0-18.5,8.9-18.5,20c0,12.1,7.1,19.9,20.1,19.9c6.4,0,10.7-1.9,14-4.4l-2.8-6.2c-2.3,1.7-6.2,3.3-10.8,3.3
		c-6.5,0-10.4-3.4-10.6-10.3H245.4L245.4,107.8z M220.2,102.5c0.5-7.6,5.4-9.5,8.7-9.5c4.8,0,7.5,3.1,7.5,9.2v0.4H220.2L220.2,102.5
		z M210.3,107.8v-0.1c0-0.9,0.1-1.9,0.1-2.8v-0.1c0-10.1-5.3-19.2-16.8-19.2c-11.7,0-18.5,8.9-18.5,20c0,12.1,7.1,19.9,20.1,19.9
		c6.4,0,10.7-1.9,14-4.4l-2.8-6.2c-2.3,1.7-6.2,3.3-10.8,3.3c-6.5,0-10.4-3.4-10.6-10.3H210.3L210.3,107.8z M185,102.5
		c0.5-7.6,5.4-9.5,8.6-9.5c4.8,0,7.5,3.1,7.5,9.2v0.4H185L185,102.5z M176.5,87c-4.7,0-7.2,1.8-9.6,5.2l-0.7-5.2h-9.3v37.7h10v-20.8
		c0-5.6,1.3-9.3,8.4-9.3h2.7l-0.5-7.6H176.5L176.5,87z M144.2,115.2c-2.3,1.3-5.5,2-9.2,2c-10.2,0-15-7.8-15-18.2v-0.3
		c0.1-12.1,6.1-18.2,15.8-18.2c5.5,0,9.9,1.5,13.4,3.6l3.1-6.9c-4.4-3.6-10.1-5-17-5c-16.6,0-26,11.5-26,26.5
		c0,16.4,10.4,26.8,26.1,26.8c7.6,0,13-2.2,18.3-4.8v-24h-20.1l-0.4,7.3h11.1V115.2L144.2,115.2z"/>
	<path fill="#F0BD1B" d="M348.6,91.4H360v-5.9h-30.8v5.9h11.4v33.1h8V91.4L348.6,91.4z M288.9,104.9c0,12.7,8.4,20.2,19.5,20.2
		c11.2,0,19.6-7.5,19.6-20.2c0-12.8-8.4-20.3-19.6-20.3C297.3,84.6,288.9,92,288.9,104.9L288.9,104.9z M320,105
		c0,8.2-3.9,13.8-11.5,13.8c-7.6,0-11.4-5.6-11.4-13.8c0-8.2,3.8-14,11.4-14C316.2,90.9,320,96.7,320,105L320,105z"/>
	<path fill="#4E993F" d="M46.9,125.5h2.9c6.7-0.3,10.9-7.5,10.9-11.2v-2.9h-2.9c-6.7,0.3-10.9,7.5-10.9,11.2V125.5L46.9,125.5z"/>
	<path d="M353.9,141l5.1,0c0-0.9-0.3-1.6-0.7-2.1c-0.4-0.5-1-0.8-1.8-0.8c-0.8,0-1.4,0.3-1.8,0.8C354.2,139.4,353.9,140.1,353.9,141
		 M353.9,141.8L353.9,141.8c0,1.1,0.2,1.9,0.7,2.4c0.5,0.6,1.1,0.9,1.9,0.9c0.6,0,1.2-0.2,1.6-0.5c0.4-0.3,0.7-0.8,0.8-1.4h0.9
		c-0.1,0.8-0.5,1.5-1.1,2c-0.6,0.5-1.4,0.8-2.3,0.8c-1.1,0-2-0.4-2.6-1.1c-0.6-0.8-0.9-1.8-0.9-3.2c0-1.4,0.3-2.4,1-3.2
		c0.6-0.8,1.5-1.1,2.7-1.1c1.1,0,2,0.4,2.6,1.1c0.6,0.7,0.9,1.8,0.9,3.1v0.3H353.9L353.9,141.8z M346.4,145.7v-8.2h0.9v1.4
		c0.2-0.6,0.6-1,1-1.2c0.4-0.3,0.9-0.4,1.5-0.4h0.1v1h-0.1c-0.8,0-1.4,0.2-1.8,0.7c-0.4,0.5-0.6,1.2-0.6,2.2v4.5H346.4L346.4,145.7z
		 M341.3,135.1v2.4h1.5v0.8h-1.5v6c0,0.4,0,0.6,0.1,0.7c0.1,0.1,0.2,0.2,0.5,0.2c0.1,0,0.2,0,0.3,0c0.1,0,0.3-0.1,0.6-0.1l0,0.8
		c-0.2,0.1-0.4,0.1-0.6,0.1c-0.2,0-0.4,0-0.5,0c-0.5,0-0.8-0.1-1-0.4c-0.2-0.2-0.3-0.7-0.3-1.3v-6h-1.1v-0.8h1.1v-2.4H341.3
		L341.3,135.1z M334.8,144.5c-0.4,0.5-0.9,0.8-1.4,1c-0.5,0.2-1.1,0.3-1.6,0.3c-0.8,0-1.5-0.2-2-0.6c-0.5-0.4-0.7-1-0.7-1.7
		c0-0.5,0.1-0.9,0.3-1.2c0.2-0.3,0.5-0.6,1-0.8c0.5-0.2,1.3-0.4,2.4-0.5c0.2,0,0.4,0,0.5,0c0.1,0,0.2,0,0.3-0.1
		c0.8-0.2,1.2-0.5,1.2-1c0-0.6-0.2-1.1-0.5-1.4c-0.3-0.3-0.8-0.4-1.6-0.4c-0.7,0-1.3,0.2-1.7,0.5c-0.4,0.3-0.6,0.8-0.6,1.4l-0.9,0
		c0-0.8,0.3-1.5,0.9-1.9c0.6-0.5,1.4-0.7,2.4-0.7c1,0,1.7,0.2,2.2,0.6c0.5,0.4,0.8,1,0.8,1.9v4.5c0,0.3,0,0.6,0.1,0.6
		c0.1,0.1,0.2,0.1,0.5,0.1c0.1,0,0.1,0,0.2,0c0.1,0,0.1,0,0.2,0v0.7c-0.1,0-0.2,0-0.4,0.1c-0.1,0-0.2,0-0.3,0
		c-0.4,0-0.7-0.1-0.9-0.3c-0.2-0.2-0.3-0.5-0.3-0.9V144.5L334.8,144.5z M334.7,141.4c-0.3,0.1-0.6,0.2-1,0.2c-0.4,0.1-1,0.1-1.9,0.2
		c-0.6,0.2-1.1,0.4-1.4,0.7c-0.3,0.3-0.5,0.6-0.5,1.1c0,0.5,0.2,0.8,0.5,1.1c0.3,0.3,0.8,0.4,1.4,0.4c0.9,0,1.6-0.2,2.1-0.7
		c0.5-0.5,0.8-1.1,0.8-1.8V141.4L334.7,141.4z M319.6,141l5.1,0c0-0.9-0.3-1.6-0.7-2.1c-0.4-0.5-1-0.8-1.8-0.8
		c-0.8,0-1.4,0.3-1.8,0.8C319.9,139.4,319.6,140.1,319.6,141L319.6,141z M319.5,141.8L319.5,141.8c0,1.1,0.2,1.9,0.7,2.4
		c0.5,0.6,1.1,0.9,1.9,0.9c0.6,0,1.2-0.2,1.6-0.5c0.4-0.3,0.7-0.8,0.8-1.4h0.9c-0.1,0.8-0.5,1.5-1.1,2c-0.6,0.5-1.4,0.8-2.3,0.8
		c-1.1,0-2-0.4-2.6-1.1c-0.6-0.8-0.9-1.8-0.9-3.2c0-1.4,0.3-2.4,1-3.2c0.6-0.8,1.5-1.1,2.7-1.1c1.1,0,2,0.4,2.6,1.1
		c0.6,0.7,0.9,1.8,0.9,3.1v0.3H319.5L319.5,141.8z M308.4,145.7v-11.4h1v4.4c0.3-0.5,0.7-0.9,1.1-1.1c0.5-0.3,1-0.4,1.6-0.4
		c0.5,0,1,0.1,1.5,0.3c0.4,0.2,0.8,0.5,1,0.8c0.1,0.2,0.2,0.4,0.3,0.7c0.1,0.3,0.1,0.8,0.1,1.5v5h-1v-5c0-1-0.1-1.7-0.4-2.1
		c-0.3-0.3-0.8-0.5-1.6-0.5c-0.8,0-1.4,0.2-1.8,0.7c-0.5,0.5-0.7,1.2-0.7,2v4.8H308.4L308.4,145.7z M300.5,145.7v-10.4h-3.5v-0.9
		h8.1v0.9h-3.5v10.4H300.5L300.5,145.7z M283.1,145.7v-8.2h0.9v1.3c0.3-0.5,0.7-0.9,1.1-1.1c0.5-0.3,1-0.4,1.6-0.4
		c0.6,0,1.1,0.1,1.5,0.3c0.4,0.2,0.8,0.5,1,0.9c0.1,0.2,0.2,0.4,0.3,0.7c0,0.3,0.1,0.7,0.1,1.3v0.2v5h-1v-5.1c0-1-0.1-1.6-0.4-2
		c-0.3-0.3-0.8-0.5-1.6-0.5c-0.8,0-1.4,0.2-1.8,0.7c-0.4,0.5-0.7,1.1-0.7,2v4.8H283.1L283.1,145.7z M271.7,141.6
		c0-1.4,0.3-2.4,1-3.2c0.7-0.8,1.6-1.1,2.8-1.1c1.2,0,2.1,0.4,2.8,1.1c0.7,0.8,1,1.8,1,3.2c0,1.4-0.3,2.4-1,3.2
		c-0.7,0.8-1.6,1.1-2.8,1.1c-1.2,0-2.1-0.4-2.8-1.1C272.1,144,271.7,143,271.7,141.6L271.7,141.6z M272.7,141.6c0,1.1,0.2,2,0.7,2.6
		c0.5,0.6,1.2,0.9,2.1,0.9c0.9,0,1.6-0.3,2.1-0.9c0.5-0.6,0.7-1.5,0.7-2.6c0-1.1-0.2-2-0.7-2.6c-0.5-0.6-1.2-0.9-2.1-0.9
		c-0.9,0-1.6,0.3-2.1,0.9C273,139.6,272.7,140.5,272.7,141.6L272.7,141.6z M266.9,145.7v-8.2h0.9v8.2H266.9L266.9,145.7z
		 M266.9,135.8v-1.4h0.9v1.4H266.9L266.9,135.8z M261.7,135.1v2.4h1.5v0.8h-1.5v6c0,0.4,0,0.6,0.1,0.7c0.1,0.1,0.2,0.2,0.5,0.2
		c0.1,0,0.2,0,0.3,0c0.1,0,0.3-0.1,0.6-0.1l0,0.8c-0.2,0.1-0.4,0.1-0.6,0.1c-0.2,0-0.4,0-0.5,0c-0.5,0-0.8-0.1-1-0.4
		c-0.2-0.2-0.3-0.7-0.3-1.3v-6h-1.1v-0.8h1.1v-2.4H261.7L261.7,135.1z M255.2,144.5c-0.4,0.5-0.9,0.8-1.4,1c-0.5,0.2-1,0.3-1.6,0.3
		c-0.8,0-1.5-0.2-2-0.6c-0.5-0.4-0.7-1-0.7-1.7c0-0.5,0.1-0.9,0.3-1.2c0.2-0.3,0.5-0.6,1-0.8c0.5-0.2,1.3-0.4,2.4-0.5
		c0.2,0,0.4,0,0.5,0c0.1,0,0.2,0,0.3-0.1c0.8-0.2,1.2-0.5,1.2-1c0-0.6-0.2-1.1-0.5-1.4c-0.3-0.3-0.8-0.4-1.6-0.4
		c-0.7,0-1.3,0.2-1.7,0.5c-0.4,0.3-0.6,0.8-0.6,1.4l-0.9,0c0-0.8,0.3-1.5,0.9-1.9c0.6-0.5,1.4-0.7,2.4-0.7c1,0,1.7,0.2,2.2,0.6
		c0.5,0.4,0.8,1,0.8,1.9v4.5c0,0.3,0,0.6,0.1,0.6c0.1,0.1,0.2,0.1,0.5,0.1c0.1,0,0.1,0,0.2,0c0.1,0,0.1,0,0.2,0v0.7
		c-0.1,0-0.2,0-0.4,0.1c-0.1,0-0.2,0-0.3,0c-0.4,0-0.7-0.1-0.9-0.3c-0.2-0.2-0.3-0.5-0.3-0.9V144.5L255.2,144.5z M255.2,141.4
		c-0.3,0.1-0.6,0.2-1,0.2c-0.4,0.1-1,0.1-1.9,0.2c-0.6,0.2-1.1,0.4-1.4,0.7c-0.3,0.3-0.5,0.6-0.5,1.1c0,0.5,0.2,0.8,0.5,1.1
		c0.3,0.3,0.8,0.4,1.4,0.4c0.9,0,1.6-0.2,2.1-0.7c0.5-0.5,0.8-1.1,0.8-1.8V141.4L255.2,141.4z M243,145.7v-8.2h0.9v1.4
		c0.2-0.6,0.6-1,1-1.2c0.4-0.3,0.9-0.4,1.5-0.4h0.1v1h-0.1c-0.8,0-1.4,0.2-1.8,0.7c-0.4,0.5-0.6,1.2-0.6,2.2v4.5H243L243,145.7z
		 M233.1,141l5.1,0c0-0.9-0.3-1.6-0.7-2.1c-0.4-0.5-1-0.8-1.8-0.8c-0.8,0-1.4,0.3-1.8,0.8C233.4,139.4,233.1,140.1,233.1,141
		L233.1,141z M233.1,141.8L233.1,141.8c0,1.1,0.2,1.9,0.7,2.4c0.5,0.6,1.1,0.9,1.9,0.9c0.6,0,1.2-0.2,1.6-0.5
		c0.4-0.3,0.7-0.8,0.8-1.4h0.9c-0.1,0.8-0.5,1.5-1.1,2c-0.6,0.5-1.4,0.8-2.3,0.8c-1.1,0-2-0.4-2.6-1.1c-0.6-0.8-0.9-1.8-0.9-3.2
		c0-1.4,0.3-2.4,1-3.2c0.6-0.8,1.5-1.1,2.7-1.1c1.1,0,2,0.4,2.6,1.1c0.6,0.7,0.9,1.8,0.9,3.1v0.3H233.1L233.1,141.8z M221.3,149
		v-11.5h1v1.5c0.3-0.6,0.7-1,1.2-1.3c0.5-0.3,1-0.4,1.7-0.4c1.1,0,2,0.4,2.7,1.2c0.6,0.8,1,1.8,1,3.2c0,1.3-0.3,2.4-1,3.2
		c-0.7,0.8-1.6,1.1-2.7,1.1c-0.6,0-1.2-0.1-1.6-0.4c-0.5-0.3-0.9-0.7-1.2-1.2v4.7H221.3L221.3,149z M222.2,141.6
		c0,1.1,0.2,1.9,0.7,2.6c0.5,0.6,1.2,0.9,2,0.9c0.9,0,1.6-0.3,2.1-0.9c0.5-0.6,0.7-1.5,0.7-2.6c0-1.1-0.2-2-0.7-2.6
		c-0.5-0.6-1.2-0.9-2.1-0.9c-0.9,0-1.6,0.3-2,0.9C222.4,139.6,222.2,140.5,222.2,141.6L222.2,141.6z M206.9,140
		c0-1.8,0.5-3.3,1.4-4.4c0.9-1.1,2.2-1.6,3.8-1.6c1.6,0,2.9,0.5,3.8,1.6c0.9,1.1,1.4,2.5,1.4,4.4c0,1.8-0.5,3.3-1.4,4.4
		c-0.9,1.1-2.2,1.6-3.8,1.6c-1.6,0-2.9-0.5-3.8-1.6C207.4,143.3,206.9,141.9,206.9,140L206.9,140z M208,140c0,1.6,0.4,2.8,1.1,3.7
		c0.7,0.9,1.7,1.4,3,1.4c1.3,0,2.3-0.5,3-1.4c0.7-0.9,1.1-2.1,1.1-3.7c0-1.6-0.4-2.8-1.1-3.7c-0.7-0.9-1.8-1.4-3-1.4
		c-1.3,0-2.3,0.5-3,1.4C208.4,137.2,208,138.5,208,140L208,140z M192.4,145.7v-8.2h0.9v1.3c0.3-0.5,0.7-0.9,1.1-1.1
		c0.5-0.3,1-0.4,1.6-0.4c0.6,0,1.1,0.1,1.5,0.3c0.4,0.2,0.8,0.5,1,0.9c0.1,0.2,0.2,0.4,0.3,0.7c0,0.3,0.1,0.7,0.1,1.3v0.2v5h-1v-5.1
		c0-1-0.1-1.6-0.4-2c-0.3-0.3-0.8-0.5-1.6-0.5c-0.8,0-1.4,0.2-1.8,0.7c-0.4,0.5-0.7,1.1-0.7,2v4.8H192.4L192.4,145.7z M182.5,141
		l5.1,0c0-0.9-0.3-1.6-0.7-2.1c-0.4-0.5-1-0.8-1.8-0.8c-0.8,0-1.4,0.3-1.8,0.8C182.8,139.4,182.5,140.1,182.5,141L182.5,141z
		 M182.5,141.8L182.5,141.8c0,1.1,0.2,1.9,0.7,2.4c0.5,0.6,1.1,0.9,1.9,0.9c0.6,0,1.2-0.2,1.6-0.5c0.4-0.3,0.7-0.8,0.8-1.4h0.9
		c-0.1,0.8-0.5,1.5-1.1,2c-0.6,0.5-1.4,0.8-2.3,0.8c-1.1,0-2-0.4-2.6-1.1c-0.6-0.8-0.9-1.8-0.9-3.2c0-1.4,0.3-2.4,1-3.2
		c0.6-0.8,1.5-1.1,2.7-1.1c1.1,0,2,0.4,2.6,1.1c0.6,0.7,0.9,1.8,0.9,3.1v0.3H182.5L182.5,141.8z M172,141l5.1,0
		c0-0.9-0.3-1.6-0.7-2.1c-0.4-0.5-1-0.8-1.8-0.8c-0.8,0-1.4,0.3-1.8,0.8C172.3,139.4,172.1,140.1,172,141L172,141z M172,141.8
		L172,141.8c0,1.1,0.2,1.9,0.7,2.4c0.5,0.6,1.1,0.9,1.9,0.9c0.6,0,1.2-0.2,1.6-0.5c0.4-0.3,0.7-0.8,0.8-1.4h0.9
		c-0.1,0.8-0.5,1.5-1.1,2c-0.6,0.5-1.4,0.8-2.3,0.8c-1.1,0-2-0.4-2.6-1.1c-0.6-0.8-0.9-1.8-0.9-3.2c0-1.4,0.3-2.4,1-3.2
		c0.6-0.8,1.5-1.1,2.7-1.1c1.1,0,2,0.4,2.6,1.1c0.6,0.7,0.9,1.8,0.9,3.1v0.3H172L172,141.8z M164.5,145.7v-8.2h0.9v1.4
		c0.2-0.6,0.6-1,1-1.2c0.4-0.3,0.9-0.4,1.5-0.4h0.1v1H168c-0.8,0-1.4,0.2-1.8,0.7c-0.4,0.5-0.6,1.2-0.6,2.2v4.5H164.5L164.5,145.7z
		 M159.5,145.7l-0.1-2c-0.4,0.7-0.9,1.3-1.6,1.7c-0.7,0.4-1.5,0.6-2.4,0.6c-1.6,0-2.8-0.5-3.7-1.6c-0.9-1.1-1.4-2.5-1.4-4.4
		c0-1.8,0.5-3.3,1.4-4.4c0.9-1.1,2.2-1.6,3.8-1.6c1.3,0,2.4,0.3,3.2,0.9c0.8,0.6,1.3,1.5,1.5,2.7h-1.1c-0.2-0.8-0.6-1.5-1.2-2
		c-0.6-0.5-1.5-0.7-2.4-0.7c-1.3,0-2.3,0.4-3,1.3c-0.7,0.9-1.1,2.1-1.1,3.7c0,1.6,0.4,2.8,1.1,3.7c0.7,0.9,1.7,1.4,2.9,1.4
		c1.3,0,2.2-0.4,2.9-1.1c0.7-0.7,1-1.8,1-3.1v0h-3.8v-0.9h4.7v5.8H159.5L159.5,145.7z M142.2,134.3v11.4h-0.9v-1.4
		c-0.3,0.5-0.7,0.9-1.2,1.2c-0.5,0.3-1.1,0.4-1.7,0.4c-1.1,0-2-0.4-2.6-1.2c-0.6-0.8-1-1.8-1-3.2c0-1.3,0.3-2.4,1-3.2
		c0.7-0.8,1.5-1.2,2.7-1.2c0.6,0,1.2,0.1,1.7,0.4c0.5,0.3,0.9,0.7,1.2,1.2v-4.6H142.2L142.2,134.3z M135.7,141.6
		c0,1.1,0.2,2,0.7,2.6c0.5,0.6,1.2,0.9,2,0.9c0.9,0,1.6-0.3,2.1-0.9c0.5-0.6,0.7-1.5,0.7-2.6c0-1.1-0.2-2-0.7-2.6
		c-0.5-0.6-1.2-0.9-2.1-0.9c-0.9,0-1.6,0.3-2,0.9C136,139.6,135.7,140.5,135.7,141.6L135.7,141.6z M125.2,141l5.1,0
		c0-0.9-0.3-1.6-0.7-2.1c-0.4-0.5-1-0.8-1.8-0.8c-0.8,0-1.4,0.3-1.8,0.8C125.5,139.4,125.3,140.1,125.2,141L125.2,141z M125.2,141.8
		L125.2,141.8c0,1.1,0.2,1.9,0.7,2.4c0.5,0.6,1.1,0.9,1.9,0.9c0.6,0,1.2-0.2,1.6-0.5c0.4-0.3,0.7-0.8,0.8-1.4h0.9
		c-0.1,0.8-0.5,1.5-1.1,2c-0.6,0.5-1.4,0.8-2.3,0.8c-1.1,0-2-0.4-2.6-1.1c-0.6-0.8-0.9-1.8-0.9-3.2c0-1.4,0.3-2.4,1-3.2
		c0.6-0.8,1.5-1.1,2.7-1.1c1.1,0,2,0.4,2.6,1.1c0.6,0.7,0.9,1.8,0.9,3.1v0.3H125.2L125.2,141.8z M119.4,145.7v-8.2h0.9v8.2H119.4
		L119.4,145.7z M119.4,135.8v-1.4h0.9v1.4H119.4L119.4,135.8z M113.5,145.7v-7.4h-1.2v-0.8h1.2V136c0-0.6,0.2-1.1,0.5-1.4
		c0.3-0.3,0.8-0.4,1.5-0.4c0.1,0,0.1,0,0.2,0c0.1,0,0.2,0,0.3,0v0.8c0,0-0.1,0-0.1,0c-0.2,0-0.4,0-0.4,0c-0.4,0-0.6,0.1-0.7,0.2
		c-0.1,0.1-0.2,0.4-0.2,0.8v1.4h1.5v0.8h-1.5v7.4H113.5L113.5,145.7z M107.8,145.7v-8.2h0.9v8.2H107.8L107.8,145.7z M107.8,135.8
		v-1.4h0.9v1.4H107.8L107.8,135.8z M102.6,135.1v2.4h1.5v0.8h-1.5v6c0,0.4,0,0.6,0.1,0.7c0.1,0.1,0.2,0.2,0.5,0.2c0.1,0,0.2,0,0.3,0
		c0.1,0,0.3-0.1,0.6-0.1l0,0.8c-0.2,0.1-0.4,0.1-0.6,0.1c-0.2,0-0.4,0-0.5,0c-0.5,0-0.8-0.1-1-0.4c-0.2-0.2-0.3-0.7-0.3-1.3v-6h-1.1
		v-0.8h1.1v-2.4H102.6L102.6,135.1z M94.4,145.7v-8.2h0.9v1.4c0.2-0.6,0.6-1,1-1.2c0.4-0.3,0.9-0.4,1.5-0.4H98v1h-0.1
		c-0.8,0-1.4,0.2-1.8,0.7c-0.4,0.5-0.6,1.2-0.6,2.2v4.5H94.4L94.4,145.7z M84.5,141l5.1,0c0-0.9-0.3-1.6-0.7-2.1
		c-0.4-0.5-1-0.8-1.8-0.8c-0.8,0-1.4,0.3-1.8,0.8C84.8,139.4,84.6,140.1,84.5,141L84.5,141z M84.5,141.8L84.5,141.8
		c0,1.1,0.2,1.9,0.7,2.4c0.5,0.6,1.1,0.9,1.9,0.9c0.6,0,1.2-0.2,1.6-0.5c0.4-0.3,0.7-0.8,0.8-1.4h0.9c-0.1,0.8-0.5,1.5-1.1,2
		c-0.6,0.5-1.4,0.8-2.3,0.8c-1.1,0-2-0.4-2.6-1.1c-0.6-0.8-0.9-1.8-0.9-3.2c0-1.4,0.3-2.4,1-3.2c0.6-0.8,1.5-1.1,2.7-1.1
		c1.1,0,2,0.4,2.6,1.1c0.6,0.7,0.9,1.8,0.9,3.1v0.3H84.5L84.5,141.8z M79.1,142h1c-0.1,1.3-0.5,2.2-1.3,3c-0.8,0.7-1.9,1.1-3.2,1.1
		c-1.5,0-2.7-0.5-3.6-1.6c-0.9-1.1-1.3-2.5-1.3-4.4c0-1.9,0.4-3.3,1.3-4.4c0.9-1.1,2.1-1.6,3.6-1.6c1.3,0,2.3,0.3,3.1,1
		c0.8,0.7,1.2,1.5,1.3,2.6h-1c-0.1-0.8-0.4-1.5-1-2c-0.6-0.5-1.4-0.7-2.3-0.7c-1.2,0-2.2,0.4-2.9,1.3c-0.7,0.9-1,2.1-1,3.7
		c0,1.6,0.3,2.9,1,3.8c0.7,0.9,1.7,1.4,2.9,1.4c1,0,1.8-0.3,2.4-0.8C78.6,143.7,79,143,79.1,142L79.1,142z"/>
	<path fill="#86B43F" d="M95.9,23.2c3.3,0,6,2.7,6,6c0,3.3-2.7,6-6,6c-3.3,0-6-2.7-6-6C89.9,25.9,92.6,23.2,95.9,23.2"/>
</g>
</svg>
