<?xml version="1.0" encoding="utf-8"?>
<!-- Generator: Adobe Illustrator 17.0.0, SVG Export Plug-In . SVG Version: 6.00 Build 0)  -->
<!DOCTYPE svg PUBLIC "-//W3C//DTD SVG 1.1//EN" "http://www.w3.org/Graphics/SVG/1.1/DTD/svg11.dtd">
<svg version="1.1" id="Layer_1" xmlns="http://www.w3.org/2000/svg" xmlns:xlink="http://www.w3.org/1999/xlink" x="0px" y="0px"
	 width="1024px" height="700px" viewBox="0 0 1024 700" enable-background="new 0 0 1024 700" xml:space="preserve">
<path fill="#FFFFFF" d="M751.458,176.708h75.225v-75.225c0-11.815,9.452-21.268,20.874-21.268h59.077
	c11.815,0,20.874,9.452,20.874,21.268v12.209c-5.514,3.151-11.422,8.271-11.422,8.271l-31.114,23.631
	c-1.575,1.182-2.757,3.545-2.757,5.908c0,4.332,3.545,7.483,7.483,7.483c1.575,0,3.151-0.394,4.332-1.182l20.48-15.36
	c0.394,0,0.394-0.394,0.788-0.394c0.788,0,1.575,0.788,1.575,1.575c0,0.394,0,0.788-0.394,1.182l-31.114,23.631
	c-1.969,1.575-2.757,3.545-2.757,5.908c0,4.332,3.545,7.483,7.483,7.483c1.575,0,3.151-0.394,4.726-1.575l24.025-18.117
	c0.394,0,0.394-0.394,0.788-0.394c0.788,0,1.575,0.788,1.575,1.575c0,0.394,0,0.788-0.394,1.182l-28.751,22.055
	c-1.969,1.575-3.151,3.545-3.151,6.302c0,4.332,3.545,7.483,7.483,7.483c1.575,0,3.151-0.394,4.332-1.575l24.025-18.117
	c0.394,0,0.394-0.394,0.788-0.394c0.788,0,1.575,0.788,1.575,1.575c0,0.394,0,0.788-0.394,1.182l-44.898,33.871
	c-1.575,1.182-2.363,3.151-2.363,5.514c0,4.332,3.545,7.483,7.483,7.483c1.969,0,3.545-0.788,4.726-1.575l66.166-50.018
	c0.394-0.394,1.182-0.394,1.969-0.394c1.575,0,3.151,1.575,3.151,3.151c0,0,0,0,0,0.394l-3.151,22.449c0,0.394,0,0.394,0,0.788
	c0,4.332,3.545,7.483,7.483,7.483s7.089-2.757,7.483-6.302l3.938-28.357h24.418c11.815,0,21.268,9.452,21.268,20.874v59.077
	c0,11.815-9.452,21.268-21.268,21.268h-75.225v75.225c0,11.815-9.452,21.268-20.874,21.268h-59.077
	c-11.815,0-20.874-9.452-20.874-21.268v-11.815h0.394c6.695,0,18.905-10.634,19.298-11.028l31.114-23.631
	c1.575-1.575,2.757-3.545,2.757-5.908c0-4.332-3.545-7.483-7.483-7.483c-1.575,0-3.151,0.394-4.332,1.182l-20.48,15.36
	c-0.394,0-0.394,0.394-0.788,0.394c-0.788,0-1.575-0.788-1.575-1.575c0-0.394,0-0.788,0.394-1.182l31.114-23.631
	c1.575-1.575,2.757-3.545,2.757-5.908c0-4.332-3.545-7.483-7.483-7.483c-1.575,0-3.151,0.394-4.726,1.575l-24.025,18.511
	c-0.394,0-0.394,0.394-0.788,0.394c-0.788,0-1.575-0.788-1.575-1.575c0-0.394,0-0.788,0.394-1.182l28.751-22.055
	c1.969-1.182,3.151-3.545,3.151-6.302c0-4.332-3.545-7.483-7.483-7.483c-1.575,0-3.151,0.394-4.332,1.575L837.711,273.2
	c0,0-0.394,0.394-0.788,0.394c-0.788,0-1.575-0.788-1.575-1.575c0-0.394,0-0.788,0.394-1.182l44.505-33.477
	c1.575-1.182,2.363-3.151,2.363-5.514c0-4.332-3.545-7.483-7.483-7.483c-1.969,0-3.545,0.788-4.726,1.575l-65.379,49.625
	c-0.394,0.394-1.182,0.394-1.969,0.394c-1.575,0-3.151-1.575-3.151-3.151v-0.394l3.151-22.449c0-0.394,0-0.394,0-0.788
	c0-4.332-3.545-7.483-7.483-7.483c-3.938,0-7.089,2.757-7.483,6.695l-3.938,29.145c0,0,0,0.394,0,1.182h-32.295
	c-11.815,0-21.268-9.452-21.268-21.268v-59.077C730.585,185.766,739.643,176.708,751.458,176.708"/>
<path fill="#FFFFFF" d="M102.4,56.191l33.871,29.538c12.603,11.028,19.298,23.237,19.298,38.203
	c0,47.655-64.591,51.988-47.655,115.397c0.788,5.514,4.726,16.935,6.302,17.329c32.295,7.483,48.837-11.028,46.08-41.354
	c-0.394-7.877-3.545-13.391-7.877-19.692h1.969l34.265,30.326c5.908,7.483,11.028,13.391,11.028,23.237
	c0,22.843-20.48,40.566-46.08,40.566c-11.422,0-20.874-3.938-27.963-9.846l-38.991-34.265c-11.422-10.24-17.329-25.6-17.329-40.566
	c0-48.049,42.929-69.711,42.929-116.972c0-13.391-1.575-23.237-10.24-32.689h0.394V56.191z"/>
<path fill="#FFFFFF" d="M231.582,322.825l38.203,35.446l-0.394,0.394c-13.785-8.665-32.295-9.452-41.354-10.634
	c-60.652-5.908-88.222,44.505-148.48,44.505c-19.692,0-38.597-6.695-51.594-18.117L0,346.849c0,0,26.782,4.332,33.477,5.12
	c89.797,12.997,88.615-48.837,149.662-48.837C202.437,303.132,217.797,309.828,231.582,322.825"/>
<polygon fill="#FFFFFF" points="118.548,433.889 131.545,433.889 131.545,452.4 148.874,452.4 148.874,433.889 162.265,433.889 
	162.265,484.302 148.874,484.302 148.874,463.428 131.545,463.428 131.545,484.302 118.548,484.302 "/>
<polygon fill="#FFFFFF" points="208.738,433.889 248.911,433.889 248.911,444.523 221.735,444.523 221.735,453.188 246.548,453.188 
	246.548,463.428 221.735,463.428 221.735,473.274 249.698,473.274 249.698,484.302 208.738,484.302 "/>
<path fill="#FFFFFF" d="M315.865,465.397h11.422l-5.514-17.723l0,0L315.865,465.397L315.865,465.397z M315.077,433.889h13.391
	l18.905,50.806h-13.785l-3.151-9.058h-17.723l-3.151,9.058h-13.391L315.077,433.889L315.077,433.889z"/>
<polygon fill="#FFFFFF" points="386.363,433.889 399.36,433.889 399.36,473.274 422.991,473.274 422.991,484.302 386.363,484.302 
	"/>
<polygon fill="#FFFFFF" points="500.972,445.311 486.006,445.311 486.006,484.302 472.615,484.302 472.615,445.311 457.649,445.311 
	457.649,433.889 500.972,433.889 "/>
<polygon fill="#FFFFFF" points="547.446,433.889 560.443,433.889 560.443,452.4 578.166,452.4 578.166,433.889 591.163,433.889 
	591.163,484.302 578.166,484.302 578.166,463.428 560.443,463.428 560.443,484.302 547.446,484.302 "/>
<path fill="#FFFFFF" d="M673.477,452.006c-0.788-5.12-4.726-7.877-10.24-7.877c-8.665,0-11.815,7.483-11.815,14.966
	s3.151,14.966,11.815,14.966c6.302,0,9.846-3.545,10.24-9.452h12.997c-0.788,12.997-10.24,20.874-23.237,20.874
	c-15.36,0-25.206-11.815-25.206-26.388s9.846-26.388,25.206-26.388c11.028,0,22.843,7.089,23.237,19.298L673.477,452.006
	L673.477,452.006z"/>
<path fill="#FFFFFF" d="M745.157,465.397h11.422l-5.514-17.723l0,0L745.157,465.397L745.157,465.397z M744.369,433.889h13.391
	l18.905,50.806H762.88l-3.151-9.058h-17.723l-3.151,9.058h-13.391L744.369,433.889L744.369,433.889z"/>
<path fill="#FFFFFF" d="M835.348,455.945h11.028c3.938,0,5.908-1.969,5.908-5.908c0-3.938-3.151-5.514-6.695-5.514h-10.634v11.422
	H835.348z M822.351,433.889h25.6c9.058,0,17.723,3.938,17.723,14.178c0,5.514-2.757,10.634-7.877,12.603l0,0
	c5.514,1.182,7.089,7.483,7.483,12.209c0,1.969,0.394,9.452,1.969,11.422h-12.997c-1.182-1.575-1.182-6.695-1.575-8.271
	c-0.394-5.12-1.182-10.24-7.483-10.24h-9.846v18.511h-12.997V433.889L822.351,433.889z"/>
<polygon fill="#FFFFFF" points="913.723,433.889 953.895,433.889 953.895,444.523 927.114,444.523 927.114,453.188 951.926,453.188 
	951.926,463.428 927.114,463.428 927.114,473.274 954.683,473.274 954.683,484.302 913.723,484.302 "/>
<path fill="#FFFFFF" d="M509.637,309.04h50.806v-3.151h-4.726c-10.634,0-12.997-2.363-12.997-4.726c0-2.363,1.575-5.514,3.938-9.058
	l33.083-42.142l41.354,55.532h-20.874v3.151h76.012v-3.151h-14.572l-59.865-81.526l20.874-25.994
	c11.422-14.572,18.511-18.511,27.569-18.511h3.938v-3.151h-45.292v3.151h3.151c9.058,0,12.209,1.575,12.209,4.726
	c0,2.363-2.363,5.514-6.302,10.634l-19.298,24.418l-29.145-39.385h16.935v-3.151H512v3.151h16.148l48.443,66.954l-33.083,39.385
	c-9.058,10.634-16.148,19.298-29.932,19.298h-3.938L509.637,309.04L509.637,309.04L509.637,309.04z"/>
<path fill="#FFFFFF" d="M407.631,309.04h40.566v-3.151h-5.514c-4.726,0-10.634-0.788-10.634-7.089c0-1.575,0-3.938,0.788-4.726
	l11.422-26.782h20.874v-3.938h-19.298l19.298-46.868v-12.997l-38.597,91.372c-2.363,6.302-6.302,11.422-14.572,11.422h-3.938v2.757
	H407.631z M465.132,267.292h21.662l16.148,38.597h-17.723v3.151h65.378v-3.151h-10.634l-59.471-131.545h-3.151l-12.209,29.145
	v12.997l19.298,46.868h-19.298V267.292L465.132,267.292z"/>
<path fill="#FFFFFF" d="M245.366,309.04h42.929v-3.151h-3.151c-12.209,0-16.148-2.363-16.148-17.723V181.434h0.788l52.382,127.606
	h6.302l50.806-126.031h0.788v122.88h-19.298v3.151h70.105v-3.151H414.72V179.858h16.148v-3.151h-52.775l-37.022,91.372h-0.788
	l-36.234-91.372h-57.108v3.151h16.148v109.883c0,8.271-2.363,16.148-16.935,16.148h-0.788L245.366,309.04L245.366,309.04z"/>
</svg>
