<?xml version="1.0" encoding="utf-8"?>
<!-- Generator: Adobe Illustrator 19.1.0, SVG Export Plug-In . SVG Version: 6.00 Build 0)  -->
<!DOCTYPE svg PUBLIC "-//W3C//DTD SVG 1.1//EN" "http://www.w3.org/Graphics/SVG/1.1/DTD/svg11.dtd">
<svg version="1.1" id="Layer_1" xmlns="http://www.w3.org/2000/svg" xmlns:xlink="http://www.w3.org/1999/xlink" x="0px" y="0px"
	 viewBox="0 0 150 150" style="enable-background:new 0 0 150 150;" xml:space="preserve">
<style type="text/css">
	.st0{clip-path:url(#SVGID_2_);fill:#666669;}
	.st1{fill:#545457;}
	.st2{clip-path:url(#SVGID_4_);fill:#FFFFFF;}
	.st3{clip-path:url(#SVGID_4_);fill:#5DBAB0;}
	.st4{clip-path:url(#SVGID_7_);}
	.st5{clip-path:url(#SVGID_8_);fill:#228879;}
	.st6{fill:#FFFEE2;}
</style>
<g>
	<g>
		<defs>
			<rect id="SVGID_1_" x="0" y="0" width="150" height="150"/>
		</defs>
		<clipPath id="SVGID_2_">
			<use xlink:href="#SVGID_1_"  style="overflow:visible;"/>
		</clipPath>
		<path class="st0" d="M150,74.9c0.1,41.4-33.4,75.1-74.9,75.1C33.7,150.1,0.1,116.6,0,75.1C-0.1,33.7,33.4,0.1,74.9,0
			C116.3-0.1,149.9,33.4,150,74.9"/>
	</g>
	<path class="st1" d="M77,23.1h-7c0,10,0,11.4,0,21.4c0.5,6.6-3.9,10-7.8,13c-12,9.8-11.9,20.7-4.7,27.3c0.3,0.3,0.6,0.6,0.9,0.9
		c0.3,0.3,0.6,0.6,0.9,0.9c0.3,0.3,0.6,0.6,0.9,0.9c0.3,0.3,0.6,0.6,0.9,0.9c0.3,0.3,0.6,0.6,0.9,0.9c0.3,0.3,0.6,0.6,0.9,0.9
		c0.3,0.3,0.6,0.6,0.9,0.9c0.3,0.3,0.6,0.6,0.9,0.9c0.2,0.2,0.4,0.4,0.6,0.6c-2,0-3.9,0-5.7,0l-0.1,0c-8.1,0-9,11.2-4,15.2
		c0.3,0.3,0.5,0.6,0.9,0.8c0.3,0.3,0.6,0.6,0.9,0.9c0.3,0.3,0.6,0.6,0.9,0.9c0.3,0.3,0.6,0.6,0.9,0.9c0.3,0.3,0.6,0.6,0.9,0.9
		c0.3,0.3,0.6,0.6,0.9,0.9c0.3,0.3,0.6,0.6,0.9,0.9c0.3,0.3,0.6,0.6,0.9,0.9c0.3,0.3,0.6,0.6,0.9,0.9c0.3,0.3,0.6,0.6,0.9,0.9
		c0.3,0.3,0.6,0.6,0.9,0.9c0.3,0.3,0.6,0.6,0.9,0.9c0.3,0.3,0.6,0.6,0.9,0.9c0.3,0.3,0.6,0.6,0.9,0.9c0.3,0.3,0.6,0.6,0.9,0.9
		c0.3,0.3,0.6,0.6,0.9,0.9c0.3,0.3,0.6,0.6,0.9,0.9c0.1,1.4,0.6,2.8,1.1,4.1c0.2,0,0.4,0,0.5,0c0.1,0.3,0.2,0.6,0.3,0.9
		c0.2,0,0.4,0,0.5,0c0.1,0.3,0.2,0.6,0.3,0.9c0.2,0,0.4,0,0.5,0c0.1,0.3,0.2,0.6,0.3,0.9c0.2,0,0.4,0,0.5,0c0.1,0.3,0.2,0.6,0.3,0.9
		c0.2,0,0.4,0,0.5,0c0.1,0.3,0.2,0.6,0.3,0.9c0.2,0,0.4,0,0.5,0c0.1,0.3,0.2,0.6,0.3,0.9c0.2,0,0.4,0,0.5,0c0.1,0.3,0.2,0.6,0.3,0.9
		c0.2,0,0.4,0,0.5,0c0.1,0.3,0.2,0.6,0.3,0.9c0.2,0,0.4,0,0.5,0c0.1,0.3,0.2,0.6,0.3,0.9c0.2,0,0.4,0,0.5,0c0.1,0.3,0.2,0.6,0.3,0.9
		c0.2,0,0.4,0,0.5,0c0.1,0.3,0.2,0.6,0.3,0.9c0.2,0,0.4,0,0.5,0c0.1,0.3,0.2,0.6,0.3,0.9c0.2,0,0.4,0,0.5,0c0.1,0.3,0.2,0.6,0.3,0.9
		c0.2,0,0.4,0,0.5,0c0.1,0.3,0.2,0.6,0.3,0.9c0.2,0,0.4,0,0.5,0c0.1,0.3,0.2,0.6,0.3,0.9c0.2,0,0.4,0,0.5,0c0.1,0.3,0.2,0.6,0.3,0.9
		c0.2,0,0.4,0,0.5,0c0.1,0.3,0.2,0.6,0.3,0.9c0.2,0,0.4,0,0.5,0c0.1,0.3,0.2,0.6,0.3,0.9c0.2,0,0.4,0,0.5,0c0.1,0.3,0.2,0.6,0.3,0.9
		c0.2,0,0.4,0,0.5,0c0.1,0.3,0.2,0.6,0.3,0.9c0.2,0,0.4,0,0.5,0c0.1,0.3,0.2,0.6,0.3,0.9c0.2,0,0.4,0,0.5,0c0.1,0.3,0.2,0.6,0.3,0.9
		c0.2,0,0.4,0,0.5,0c0.1,0.3,0.2,0.6,0.3,0.9c0.2,0,0.4,0,0.5,0c0.1,0.2,0.2,0.4,0.2,0.6c26.8-6.5,48-27.3,54.9-53.8h-0.5
		c0-0.3,0-0.6,0-0.9h-0.9c0-0.3,0-0.6,0-0.9h-0.9c0-0.3,0-0.6,0-0.9h-0.9c0-0.3,0-0.6,0-0.9h-0.9c0-0.3,0-0.6,0-0.9h-0.9
		c0-0.3,0-0.6,0-0.9h-0.9c0-0.3,0-0.6,0-0.9h-0.9c0-0.3,0-0.6,0-0.9H140c0-0.3,0-0.6,0-0.9h-0.9c0-0.3,0-0.6,0-0.9h-0.9
		c0-0.3,0-0.6,0-0.9h-0.9c0-0.3,0-0.6,0-0.9h-0.9c0-0.3,0-0.6,0-0.9h-0.9c0-0.3,0-0.6,0-0.9h-0.9c0-0.3,0-0.6,0-0.9h-0.9
		c0-0.3,0-0.6,0-0.9h-0.9c0-0.3,0-0.6,0-0.9H132c0-0.3,0-0.6,0-0.9h-0.9c0-0.3,0-0.6,0-0.9h-0.9c0-0.3,0-0.6,0-0.9h-0.9
		c0-0.3,0-0.6,0-0.9h-0.9c0-0.3,0-0.6,0-0.9h-0.9c0-0.3,0-0.6,0-0.9h-0.9c0-0.3,0-0.6,0-0.9h-0.9c0-0.3,0-0.6,0-0.9h-0.9
		c0-0.3,0-0.6,0-0.9H124c0-0.3,0-0.6,0-0.9h-0.9c0-0.3,0-0.6,0-0.9h-0.9c0-0.3,0-0.6,0-0.9h-0.9c0-0.3,0-0.6,0-0.9h-0.9
		c0-0.3,0-0.6,0-0.9h-0.9c0-0.3,0-0.6,0-0.9h-0.9c0-0.3,0-0.6,0-0.9h-0.9c0-0.3,0-0.6,0-0.9h-0.9c0-0.3,0-0.6,0-0.9H116
		c0-0.3,0-0.6,0-0.9h-0.9c0-0.3,0-0.6,0-0.9h-0.9c0-0.3,0-0.6,0-0.9h-0.9c0-0.3,0-0.6,0-0.9h-0.9c0-0.3,0-0.6,0-0.9h-0.9
		c0-0.3,0-0.6,0-0.9h-0.9c0-0.3,0-0.6,0-0.9h-0.9c0-0.3,0-0.6,0-0.9h-0.9c0-0.3,0-0.6,0-0.9H108c0-0.3,0-0.6,0-0.9h-0.9
		c0-0.3,0-0.6,0-0.9h-0.9c0-0.3,0-0.6,0-0.9h-0.9c0-0.3,0-0.6,0-0.9h-0.9c0-0.3,0-0.6,0-0.9h-0.9c0-0.3,0-0.6,0-0.9h-0.9
		c0-0.3,0-0.6,0-0.9h-0.9c0-0.3,0-0.6,0-0.9H101c0-0.3,0-0.6,0-0.9h-0.9c0-0.3,0-0.6,0-0.9h-0.9c0-0.3,0-0.6,0-0.9h-0.9
		c0-0.3,0-0.6,0-0.9h-0.9c0-0.3,0-0.6,0-0.9h-0.9c0-0.3,0-0.6,0-0.9h-0.9c0-0.3,0-0.6,0-0.9h-0.9c0-0.3,0-0.6,0-0.9h-0.9
		c0-0.3,0-0.6,0-0.9H93c0-0.3,0-0.6,0-0.9h-0.9c0-0.3,0-0.6,0-0.9h-0.9c0-0.3,0-0.6,0-0.9h-0.9c0-0.3,0-0.6,0-0.9h-0.9
		c0-0.3,0-0.6,0-0.9h-0.9c0-0.3,0-0.6,0-0.9h-0.9c0-0.3,0-0.6,0-0.9h-0.9c0-0.3,0-0.6,0-0.9h-0.9c0-0.3,0-0.6,0-0.9H85
		c0-0.3,0-0.6,0-0.9h-0.9c0-0.3,0-0.6,0-0.9h-0.9c0-0.3,0-0.6,0-0.9h-0.9c0-0.3,0-0.6,0-0.9h-0.9c0-0.3,0-0.6,0-0.9h-0.9
		c0-0.3,0-0.6,0-0.9h-0.9c0-0.3,0-0.6,0-0.9h-0.9c0-0.3,0-0.6,0-0.9h-0.9c0-0.3,0-0.6,0-0.9H77C77,23.7,77,23.4,77,23.1"/>
	<g>
		<defs>
			<rect id="SVGID_3_" x="0" y="0" width="150" height="150"/>
		</defs>
		<clipPath id="SVGID_4_">
			<use xlink:href="#SVGID_3_"  style="overflow:visible;"/>
		</clipPath>
		<path class="st2" d="M62.2,57.5C48,69.2,50.8,82.2,62.2,88c8.7,0,18.1,0,26.7,0c2.4,1.4,1.8,3,0,4.5c-9.3,0-20.2,0-29.4,0
			c-5-0.1-7.3,4.1-7.2,8.3c0.1,4.2,2.6,8.3,7.2,8.3c9.8,0,17.1,0,26.8,0c4,1.4,4.2,4.7,0,4.7c-3.7,0-7.4,0-11.1,0
			c-6,4.8-5.4,9-3.7,13c1.6,0,3.2,0,4.8,0c0.8-4.4,2.6-6.9,5.6-6.9c3.6,0,6.6,0,10.2,0c7.5-5.6,6.5-14.5-2.4-16.7
			c-8.8,0.5-18.1,0.2-26.9,0.7c0-1.5,0.3-3.5,0.3-5c8.4,0,16.8,0,25.2,0c11.2,0.6,13.3-15.3,1.9-17.3c-8.5,0-16.4,0-25,0
			c-5.3-3.7-4.9-7.7,0.6-10.3C81,70,85.5,68.7,87.2,60.5c0.2-8.2-4.7-8.9-6.9-11.3c-4-2.3-3.7-6.3-3.3-11.4c0-7.9,0-6.8,0-14.7h-7
			c0,10,0,11.4,0,21.4C70.5,51.1,66.1,54.5,62.2,57.5"/>
		<path class="st3" d="M150,74.9c0.1,41.4-33.4,75.1-74.9,75.1C33.7,150.1,0.1,116.6,0,75.1C-0.1,33.7,33.4,0.1,74.9,0
			C116.3-0.1,149.9,33.4,150,74.9"/>
	</g>
	<g>
		<defs>
			<path id="SVGID_5_" d="M150,74.9c0.1,41.4-33.4,75.1-74.9,75.1C33.7,150.1,0.1,116.6,0,75.1C-0.1,33.7,33.4,0.1,74.9,0
				C116.3-0.1,149.9,33.4,150,74.9"/>
		</defs>
		<defs>
			<rect id="SVGID_6_" x="0" y="0" width="150" height="150"/>
		</defs>
		<clipPath id="SVGID_7_">
			<use xlink:href="#SVGID_5_"  style="overflow:visible;"/>
		</clipPath>
		<clipPath id="SVGID_8_" class="st4">
			<use xlink:href="#SVGID_6_"  style="overflow:visible;"/>
		</clipPath>
		<path class="st5" d="M92.2,148l-22.5-22.4l5.4-90.8h4.5v-7.3l67.5,68.2C139.7,121.6,118.6,141.8,92.2,148"/>
	</g>
	<path class="st6" d="M75.2,41.9c4,0,8-4,8-8c0-4.8-4-8-8-8c-5,0-8,3.2-8,8C67.2,37.9,70.2,41.9,75.2,41.9L75.2,41.9z M101.8,78.1
		l-5.8-24.2c-1.7-5.1-5.5-10-13.3-10h-7.5h-7.6c-7.8,0-11.5,4.8-13.3,10l-5.8,24.2c-1,4.3,3.8,5.1,4.6,2.7l7.1-22.4h2.2
		c-6.5,19.1-6.6,20.1,2.3,62.2c0,3,2.2,5,5,5c2,0,4.6-2,4.6-5V86.4h0.8h0.7v34.2c0,3,2.7,5,4.6,5c3,0,5-2,5-5
		c9.1-42.2,9-43.2,2.3-62.2H90l7.1,22.4C97.9,83.3,102.8,82.4,101.8,78.1L101.8,78.1z"/>
</g>
</svg>
