<?xml version="1.0" encoding="utf-8"?>
<!-- Generator: Adobe Illustrator 18.1.1, SVG Export Plug-In . SVG Version: 6.00 Build 0)  -->
<!DOCTYPE svg PUBLIC "-//W3C//DTD SVG 1.1//EN" "http://www.w3.org/Graphics/SVG/1.1/DTD/svg11.dtd">
<svg version="1.1" id="Layer_1" xmlns="http://www.w3.org/2000/svg" xmlns:xlink="http://www.w3.org/1999/xlink" x="0px" y="0px"
	 viewBox="0 0 150 150" enable-background="new 0 0 150 150" xml:space="preserve">
<g>
	<g>
		<defs>
			<rect id="SVGID_1_" x="0" y="0" width="150" height="150"/>
		</defs>
		<clipPath id="SVGID_2_">
			<use xlink:href="#SVGID_1_"  overflow="visible"/>
		</clipPath>
		<path clip-path="url(#SVGID_2_)" fill="#5DBAB0" d="M150,75c0,41.4-33.6,75-75,75c-41.4,0-75-33.6-75-75C0,33.6,33.6,0,75,0
			C116.4,0,150,33.6,150,75"/>
	</g>
	<path fill="#228879" d="M97.5,146.6c-0.1-0.1-0.3-0.3-0.4-0.5c-0.4-0.2-0.7-0.5-0.9-0.9c-0.4-0.2-0.7-0.5-0.9-0.9
		c-0.4-0.2-0.7-0.5-0.9-0.9c-0.4-0.2-0.7-0.5-0.9-0.9c-0.4-0.2-0.7-0.5-0.9-0.9c-0.4-0.2-0.7-0.5-0.9-0.9c-0.4-0.2-0.7-0.5-0.9-0.9
		c-0.4-0.2-0.7-0.5-0.9-0.9c-0.4-0.2-0.7-0.5-0.9-0.9c-0.4-0.2-0.7-0.5-0.9-0.9c-0.4-0.2-0.7-0.5-0.9-0.9c-0.4-0.2-0.7-0.5-0.9-0.9
		c-0.4-0.2-0.7-0.5-0.9-0.9c-0.4-0.2-0.7-0.5-0.9-0.9c-0.4-0.2-0.7-0.5-0.9-0.9c-0.4-0.2-0.7-0.5-0.9-0.9c-0.4-0.2-0.7-0.5-0.9-0.9
		c-0.4-0.2-0.7-0.5-0.9-0.9c-0.4-0.2-0.7-0.5-0.9-0.9c-0.4-0.2-0.7-0.5-0.9-0.9c-0.4-0.2-0.7-0.5-0.9-0.9c-0.4-0.2-0.7-0.5-0.9-0.9
		c-0.4-0.2-0.7-0.5-0.9-0.9c-0.4-0.2-0.7-0.5-0.9-0.9c-0.4-0.2-0.7-0.5-0.9-0.9c-0.4-0.2-0.7-0.5-0.9-0.9c-0.4-0.2-0.7-0.5-0.9-0.9
		c-0.4-0.2-0.7-0.5-0.9-0.9c-0.4-0.2-0.7-0.5-0.9-0.9c-0.4-0.2-0.7-0.5-0.9-0.9c-0.4-0.2-0.7-0.5-0.9-0.9c-0.4-0.2-0.7-0.5-0.9-0.9
		c-0.4-0.2-0.7-0.5-0.9-0.9c-0.4-0.2-0.7-0.5-0.9-0.9c-0.4-0.2-0.7-0.5-0.9-0.9c-0.4-0.2-0.7-0.5-0.9-0.9c-0.4-0.2-0.7-0.5-0.9-0.9
		c-0.4-0.2-0.7-0.5-0.9-0.9c-0.4-0.2-0.7-0.5-0.9-0.9c-0.4-0.2-0.7-0.5-0.9-0.9c-0.4-0.2-0.7-0.5-0.9-0.9c-0.4-0.2-0.7-0.5-0.9-0.9
		c-0.4-0.2-0.7-0.5-0.9-0.9c-0.4-0.2-0.7-0.5-0.9-0.9c-0.4-0.2-0.7-0.5-0.9-0.9c-0.4-0.2-0.7-0.5-0.9-0.9c-0.4-0.2-0.7-0.5-0.9-0.9
		c-0.4-0.2-0.7-0.5-0.9-0.9c-0.4-0.2-0.7-0.5-0.9-0.9c-0.4-0.2-0.7-0.5-0.9-0.9c-0.4-0.2-0.7-0.5-0.9-0.9c-0.4-0.2-0.7-0.5-0.9-0.9
		c-0.4-0.2-0.7-0.5-0.9-0.9c-0.4-0.2-0.7-0.5-0.9-0.9c-0.4-0.2-0.7-0.5-0.9-0.9c-0.4-0.2-0.7-0.5-0.9-0.9c-0.4-0.2-0.7-0.5-0.9-0.9
		c-0.4-0.2-0.7-0.5-0.9-0.9c-0.4-0.2-0.7-0.5-0.9-0.9c-0.4-0.2-0.7-0.5-0.9-0.9c-0.4-0.2-0.7-0.5-0.9-0.9c-0.4-0.2-0.7-0.5-0.9-0.9
		c-0.4-0.2-0.7-0.5-0.9-0.9c-0.4-0.2-0.7-0.5-0.9-0.9c-1.1-0.6-1.5-1.8-1.1-3.7c3.6-6.4,8.1-7.9,8.2-33.6c1.3-1.6,2.7-2.9,4.7-2.9
		c0,0,0,0,0,0c1.3,0,2.8,0.5,4.6,1.9l0,0.3c0.3,0.2,0.6,0.4,0.9,0.6l0,0.3c0.3,0.2,0.6,0.4,0.9,0.6l0,0.3c0.3,0.2,0.6,0.4,0.9,0.6
		l0,0.3c0.3,0.2,0.6,0.4,0.9,0.6l0,0.3c0.3,0.2,0.6,0.4,0.9,0.6l0,0.3c0.3,0.2,0.6,0.4,0.9,0.6l0,0.3c0.3,0.2,0.6,0.4,0.9,0.6l0,0.3
		c0.3,0.2,0.6,0.4,0.9,0.6l0,0.3c0.3,0.2,0.6,0.4,0.9,0.6l0,0.3c0.3,0.2,0.6,0.4,0.9,0.6l0,0.3c0.3,0.2,0.6,0.4,0.9,0.6l0,0.2
		c1.9-3.9,4.3-7.7,7.3-11.2c-0.3-0.3-0.6-0.6-0.9-0.9c-0.4-0.3-0.7-0.6-0.9-0.9c-0.4-0.3-0.7-0.6-0.9-0.9c-0.4-0.3-0.7-0.6-0.9-0.9
		c-0.4-0.3-0.7-0.6-0.9-0.9c-1-0.8-1.6-1.8-1.5-2.9c-0.4-2.1,1.2-3.9,4.7-5.4c1.5,0.5,3.4,1.3,4.5,2.7c0.3,0.3,0.6,0.6,0.9,0.9
		c0.3,0.3,0.6,0.6,0.9,0.9c0.3,0.3,0.6,0.6,0.9,0.9c0.3,0.3,0.6,0.6,0.9,0.9l0,0c3.1-2.4,6.6-4.5,10.8-6.2c2,0.6,3.4,1.5,4.2,2.5
		c0.4,0.3,0.7,0.6,0.9,0.9c0.4,0.3,0.7,0.6,0.9,0.9c0.4,0.3,0.7,0.6,0.9,0.9c0.4,0.3,0.7,0.6,0.9,0.9c0.4,0.3,0.7,0.6,0.9,0.9
		c0.4,0.3,0.7,0.6,0.9,0.9c0.4,0.3,0.7,0.6,0.9,0.9c0.4,0.3,0.7,0.6,0.9,0.9c0.4,0.3,0.7,0.6,0.9,0.9c0.4,0.3,0.7,0.6,0.9,0.9
		c0.4,0.3,0.7,0.6,0.9,0.9c0.4,0.3,0.7,0.6,0.9,0.9c0.4,0.3,0.7,0.6,0.9,0.9c0.4,0.3,0.7,0.6,0.9,0.9c0.4,0.3,0.7,0.6,0.9,0.9
		c0.4,0.3,0.7,0.6,0.9,0.9c0.4,0.3,0.7,0.6,0.9,0.9c0.4,0.3,0.7,0.6,0.9,0.9c0.4,0.3,0.7,0.6,0.9,0.9c0.4,0.3,0.7,0.6,0.9,0.9
		c0.4,0.3,0.7,0.6,0.9,0.9c0.4,0.3,0.7,0.6,0.9,0.9c0.4,0.3,0.7,0.6,0.9,0.9c0.4,0.3,0.7,0.6,0.9,0.9c0.4,0.3,0.7,0.6,0.9,0.9
		c0.4,0.3,0.7,0.6,0.9,0.9c0.4,0.3,0.7,0.6,0.9,0.9c0.4,0.3,0.7,0.6,0.9,0.9c0.4,0.3,0.7,0.6,0.9,0.9c0.4,0.3,0.7,0.6,0.9,0.9
		c0.4,0.3,0.7,0.6,0.9,0.9c0.4,0.3,0.7,0.6,0.9,0.9c0.4,0.3,0.7,0.6,0.9,0.9c0.4,0.3,0.7,0.6,0.9,0.9c0.4,0.3,0.7,0.6,0.9,0.9
		c0.4,0.3,0.7,0.6,0.9,0.9c0.4,0.3,0.7,0.6,0.9,0.9c0.4,0.3,0.7,0.6,0.9,0.9c0.4,0.3,0.7,0.6,0.9,0.9c0.4,0.3,0.7,0.6,0.9,0.9
		c0.4,0.3,0.7,0.6,0.9,0.9c0.4,0.3,0.7,0.6,0.9,0.9c0.4,0.3,0.7,0.6,0.9,0.9c0.4,0.3,0.7,0.6,0.9,0.9c0.4,0.3,0.7,0.6,0.9,0.9
		c0.4,0.3,0.7,0.6,0.9,0.9c0.4,0.3,0.7,0.6,0.9,0.9c0.4,0.3,0.7,0.6,0.9,0.9c0.4,0.3,0.7,0.6,0.9,0.9c0.4,0.3,0.7,0.6,0.9,0.9
		c0.4,0.3,0.7,0.6,0.9,0.9c0.4,0.3,0.7,0.6,0.9,0.9c0.4,0.3,0.7,0.6,0.9,0.9c0.4,0.3,0.7,0.6,0.9,0.9c0.4,0.3,0.7,0.6,0.9,0.9
		c0.4,0.3,0.7,0.6,0.9,0.9c0.4,0.3,0.7,0.6,0.9,0.9c0.4,0.3,0.7,0.6,0.9,0.9c0.4,0.3,0.7,0.6,0.9,0.9L148,92
		C142,117.9,122.6,138.7,97.5,146.6"/>
	<path fill="#FFFEE2" d="M110.4,55.1c1.3,4.5,0.4,7.1-4.4,7.3c-3.6-1-7.2-2.7-10.7-3.7c-3.1,4.4-5.8,9.9-8.9,14.3
		c-1.1,1.5-0.3,2.2,2.5,1.5c2.1-3,4.1-6.4,6.2-9.4c13.1,8.4,10,20.8,2.1,33.1c-8.8,16.7-19.9,18.7-28.7,9
		C65,100.1,52,89.3,61.8,74.9c1.3-1.6,0.7-2.7-1.8-3.2c-3.3-1-5.2,0.4-5.7,4.3c-1.3,6.6-3.7,9.8-8.3,13.7c-5.3,0.6-7.5-0.2-6.8-4.1
		c3.6-6.4,8.1-7.9,8.2-33.6c2.1-2.6,4.5-4.5,9.3-1.1c-0.1,4.1-0.2,8.1-0.4,12.2c3.1,0.4,5.6,0.5,8.7,0.9
		C69.6,53.5,76.9,43.1,91.4,37c5.1,1.5,7,5.1,0.7,6.9c-5.2,3.2-11.1,5.9-15.5,15.8c-0.3,2.1,1.2,1.8,3.1,1.6
		c2.6-1.3,2.5,0.9-0.4,4.6c-3.1,3.8-2.8,5.1,0.7,3.9c2.3-3.8,4.5-7.6,6.8-11.4c1.6-2.5-0.1-3.1-1.8-3.9c-0.5-2.4,3.2-5.4,6.6-6.7
		C98.1,49.8,103.8,53.2,110.4,55.1L110.4,55.1z"/>
	<path fill="#FFFEE2" d="M77.8,41.1c-1.7,1.7-4.2,3.8-5.8,5.4c-2.7-0.8-4.2-2.3-4.1-4.1c-0.4-2.1,1.2-3.9,4.7-5.4
		C74.5,37.6,76.9,38.8,77.8,41.1L77.8,41.1z"/>
</g>
</svg>
