<?xml version="1.0" encoding="utf-8"?>
<!-- Generator: Adobe Illustrator 18.1.1, SVG Export Plug-In . SVG Version: 6.00 Build 0)  -->
<!DOCTYPE svg PUBLIC "-//W3C//DTD SVG 1.1//EN" "http://www.w3.org/Graphics/SVG/1.1/DTD/svg11.dtd">
<svg version="1.1" id="Layer_1" xmlns="http://www.w3.org/2000/svg" xmlns:xlink="http://www.w3.org/1999/xlink" x="0px" y="0px"
	 viewBox="0 0 150 150" enable-background="new 0 0 150 150" xml:space="preserve">
<g>
	<g>
		<defs>
			<rect id="SVGID_1_" x="0" y="0" width="150" height="150"/>
		</defs>
		<clipPath id="SVGID_2_">
			<use xlink:href="#SVGID_1_"  overflow="visible"/>
		</clipPath>
		<path clip-path="url(#SVGID_2_)" fill="none" stroke="#5DBAB0" stroke-width="8" d="M75,146c39.1,0,71-31.8,71-71
			c0-39.1-31.9-71-71-71C35.9,4,4,35.9,4,75C4,114.2,35.9,146,75,146L75,146z"/>
	</g>
	<polygon fill="#5DBAB0" points="107.9,68.4 81.6,68.4 81.6,42.1 68.4,42.1 68.4,68.4 42.1,68.4 42.1,81.6 68.4,81.6 68.4,107.9 
		81.6,107.9 81.6,81.6 107.9,81.6 107.9,68.4 	"/>
</g>
</svg>
