<?xml version="1.0" encoding="utf-8"?>
<!-- Generator: Adobe Illustrator 18.1.1, SVG Export Plug-In . SVG Version: 6.00 Build 0)  -->
<!DOCTYPE svg PUBLIC "-//W3C//DTD SVG 1.1//EN" "http://www.w3.org/Graphics/SVG/1.1/DTD/svg11.dtd">
<svg version="1.1" id="Layer_1" xmlns="http://www.w3.org/2000/svg" xmlns:xlink="http://www.w3.org/1999/xlink" x="0px" y="0px"
	 viewBox="0 0 150 150" enable-background="new 0 0 150 150" xml:space="preserve">
<g>
	<g>
		<defs>
			<rect id="SVGID_1_" x="0" y="0" width="150" height="150"/>
		</defs>
		<clipPath id="SVGID_2_">
			<use xlink:href="#SVGID_1_"  overflow="visible"/>
		</clipPath>
		<path clip-path="url(#SVGID_2_)" fill="#5DBAB0" d="M150,74.9c0.1,41.4-33.4,75.1-74.9,75.1C33.7,150.1,0.1,116.6,0,75.1
			C-0.1,33.7,33.4,0.1,74.9,0C116.3-0.1,149.9,33.4,150,74.9"/>
	</g>
	<path fill="#228879" d="M92.6,147.9l-0.6-0.6h-0.1l0-0.1l-0.8-0.8H91l0-0.1l-0.8-0.8h-0.1l0-0.1l-0.8-0.8h-0.1l0-0.1l-0.8-0.8h0
		l0-0.1l-0.8-0.8h0l0-0.1l-0.8-0.8h0l0-0.1l-0.8-0.8h0l0-0.1l-0.8-0.8h0l0,0l-0.8-0.8h0l0,0l-0.9-0.8h0l0,0l-0.9-0.9h0l0,0l-0.9-0.9
		h0l0,0l-0.9-0.9h0l0,0l-8.9-8.9v-0.1c-0.5-1.3-1-2.7-1.1-4c-0.3-0.3-0.6-0.6-0.9-0.9c-0.3-0.3-0.6-0.6-0.9-0.9
		c-0.3-0.3-0.6-0.6-0.9-0.9c-0.3-0.3-0.6-0.6-0.9-0.9c-0.3-0.3-0.6-0.6-0.9-0.9c-0.3-0.3-0.6-0.6-0.9-0.9c-0.3-0.3-0.6-0.6-0.9-0.9
		c-0.3-0.3-0.6-0.6-0.9-0.9c-0.3-0.3-0.6-0.6-0.9-0.9c-0.3-0.3-0.6-0.6-0.9-0.9c-0.3-0.3-0.6-0.6-0.9-0.9c-0.3-0.3-0.6-0.6-0.9-0.9
		c-0.3-0.3-0.6-0.6-0.9-0.9c-0.3-0.3-0.6-0.6-0.9-0.9c-0.3-0.3-0.6-0.6-0.9-0.9c-0.3-0.3-0.6-0.6-0.9-0.9c-0.3-0.3-0.6-0.5-0.9-0.8
		c-5-4-4-15.2,4-15.2l0,0l0.1,0c1.9,0,3.8,0,5.7,0c-0.2-0.2-0.4-0.4-0.6-0.6c-0.3-0.3-0.6-0.6-0.9-0.9c-0.3-0.3-0.6-0.6-0.9-0.9
		c-0.3-0.3-0.6-0.6-0.9-0.9c-0.3-0.3-0.6-0.6-0.9-0.9c-0.3-0.3-0.6-0.6-0.9-0.9c-0.3-0.3-0.6-0.6-0.9-0.9c-0.3-0.3-0.6-0.6-0.9-0.9
		c-0.3-0.3-0.6-0.6-0.9-0.9c-7.2-6.6-7.3-17.5,4.7-27.3c3.9-3,8.3-6.4,7.8-13c0-10,0-11.4,0-21.4h7v0l0.9,0.9h0v0l69.8,69.4
		C140.9,120.3,119.6,141.4,92.6,147.9"/>
	<path fill="#FFFEE2" d="M62.2,57.5C48,69.2,50.8,82.2,62.2,88c8.7,0,18.1,0,26.7,0c2.4,1.4,1.8,3,0,4.5c-9.3,0-20.2,0-29.4,0
		c-10-0.1-9.2,16.7,0,16.7c9.8,0,17.1,0,26.8,0c4,1.4,4.2,4.7,0,4.7c-3.7,0-7.4,0-11.1,0c-6,4.8-5.4,9-3.7,13c1.6,0,3.2,0,4.8,0
		c0.8-4.4,2.6-6.9,5.6-6.9c3.6,0,6.6,0,10.2,0c7.5-5.6,6.5-14.5-2.4-16.7c-8.8,0.5-18.1,0.2-26.9,0.7c0-1.5,0.3-3.5,0.3-5
		c8.4,0,16.8,0,25.2,0c11.2,0.6,13.3-15.3,1.9-17.3c-8.5,0-16.4,0-25,0c-5.3-3.7-4.9-7.7,0.6-10.3C81,70,85.5,68.7,87.2,60.5
		c0.2-8.2-4.7-8.9-6.9-11.3c-4-2.3-3.7-6.3-3.3-11.4c0-7.9,0-6.8,0-14.7h-7c0,10,0,11.4,0,21.4C70.5,51.1,66.1,54.5,62.2,57.5
		L62.2,57.5z"/>
</g>
</svg>
