<?xml version="1.0" encoding="utf-8"?>
<!-- Generator: Adobe Illustrator 18.1.1, SVG Export Plug-In . SVG Version: 6.00 Build 0)  -->
<!DOCTYPE svg PUBLIC "-//W3C//DTD SVG 1.1//EN" "http://www.w3.org/Graphics/SVG/1.1/DTD/svg11.dtd">
<svg version="1.1" id="Layer_1" xmlns="http://www.w3.org/2000/svg" xmlns:xlink="http://www.w3.org/1999/xlink" x="0px" y="0px"
	 viewBox="0 0 150 150" enable-background="new 0 0 150 150" xml:space="preserve">
<g>
	<g>
		<defs>
			<rect id="SVGID_1_" x="0" y="0" width="150" height="150"/>
		</defs>
		<clipPath id="SVGID_2_">
			<use xlink:href="#SVGID_1_"  overflow="visible"/>
		</clipPath>
		<path clip-path="url(#SVGID_2_)" fill="#5DBAB0" d="M150,75c0,41.4-33.6,75-75,75c-41.4,0-75-33.6-75-75C0,33.6,33.6,0,75,0
			C116.4,0,150,33.6,150,75"/>
	</g>
	<path fill="#228879" d="M87,149L87,149c-0.3-0.3-0.6-0.6-0.9-0.9c-0.3-0.3-0.6-0.6-0.9-0.9c-0.3-0.3-0.6-0.6-0.9-0.9
		c-0.3-0.3-0.6-0.6-0.9-0.9c-0.3-0.3-0.6-0.6-0.9-0.9c-0.3-0.3-0.6-0.6-0.9-0.9c-0.3-0.3-0.6-0.6-0.9-0.9c-0.3-0.3-0.6-0.6-0.9-0.9
		c-0.3-0.3-0.6-0.6-0.9-0.9c-0.3-0.3-0.6-0.6-0.9-0.9c-0.3-0.3-0.6-0.6-0.9-0.9c-0.3-0.3-0.6-0.6-0.9-0.9c-0.3-0.3-0.6-0.6-0.9-0.9
		c-0.3-0.3-0.6-0.6-0.9-0.9c-0.3-0.3-0.6-0.6-0.9-0.9c-0.3-0.3-0.6-0.6-0.9-0.9c-0.3-0.3-0.6-0.6-0.9-0.9c-0.3-0.3-0.6-0.6-0.9-0.9
		c-0.3-0.3-0.6-0.6-0.9-0.9c-0.3-0.3-0.6-0.6-0.9-0.9c-0.3-0.3-0.6-0.6-0.9-0.9c-0.3-0.3-0.6-0.6-0.9-0.9c-0.3-0.3-0.6-0.6-0.9-0.9
		c-0.3-0.3-0.6-0.6-0.9-0.9c-0.3-0.3-0.6-0.6-0.9-0.9c-0.3-0.3-0.6-0.6-0.9-0.9c-0.3-0.3-0.6-0.6-0.9-0.9c-0.3-0.3-0.6-0.6-0.9-0.9
		c-0.3-0.3-0.6-0.6-0.9-0.9c-0.3-0.3-0.6-0.6-0.9-0.9c-0.3-0.3-0.6-0.6-0.9-0.9c-0.3-0.3-0.6-0.6-0.9-0.9c-0.3-0.3-0.6-0.6-0.9-0.9
		c-0.3-0.3-0.6-0.6-0.9-0.9c-0.3-0.3-0.6-0.6-0.9-0.9c-0.3-0.3-0.6-0.6-0.9-0.9c-0.3-0.3-0.6-0.6-0.9-0.9c-0.3-0.3-0.6-0.6-0.9-0.9
		c-0.3-0.3-0.6-0.6-0.9-0.9c-0.3-0.3-0.6-0.6-0.9-0.9c-0.3-0.3-0.6-0.6-0.9-0.9c-0.3-0.3-0.6-0.6-0.9-0.9c-0.3-0.3-0.6-0.6-0.9-0.9
		c-0.3-0.3-0.6-0.6-0.9-0.9c-0.3-0.3-0.6-0.6-0.9-0.9c-0.3-0.3-0.6-0.6-0.9-0.9c-0.3-0.3-0.6-0.6-0.9-0.9c-0.2-0.2-0.4-0.4-0.6-0.6
		c7.9,7.5,18.6,12.2,30.3,12.2c24.2,0,43.9-19.7,43.9-43.9c0-11.7-4.6-22.4-12.1-30.3c0.2,0.2,0.4,0.4,0.6,0.6
		c0.3,0.3,0.6,0.6,0.9,0.9c0.3,0.3,0.6,0.6,0.9,0.9c0.3,0.3,0.6,0.6,0.9,0.9c0.3,0.3,0.6,0.6,0.9,0.9c0.3,0.3,0.6,0.6,0.9,0.9
		c0.3,0.3,0.6,0.6,0.9,0.9c0.3,0.3,0.6,0.6,0.9,0.9c0.3,0.3,0.6,0.6,0.9,0.9c0.3,0.3,0.6,0.6,0.9,0.9c0.3,0.3,0.6,0.6,0.9,0.9
		c0.3,0.3,0.6,0.6,0.9,0.9c0.3,0.3,0.6,0.6,0.9,0.9c0.3,0.3,0.6,0.6,0.9,0.9c0.3,0.3,0.6,0.6,0.9,0.9c0.3,0.3,0.6,0.6,0.9,0.9
		c0.3,0.3,0.6,0.6,0.9,0.9c0.3,0.3,0.6,0.6,0.9,0.9c0.3,0.3,0.6,0.6,0.9,0.9c0.3,0.3,0.6,0.6,0.9,0.9c0.3,0.3,0.6,0.6,0.9,0.9
		c0.3,0.3,0.6,0.6,0.9,0.9c0.3,0.3,0.6,0.6,0.9,0.9c0.3,0.3,0.6,0.6,0.9,0.9c0.3,0.3,0.6,0.6,0.9,0.9c0.3,0.3,0.6,0.6,0.9,0.9
		c0.3,0.3,0.6,0.6,0.9,0.9c0.3,0.3,0.6,0.6,0.9,0.9c0.3,0.3,0.6,0.6,0.9,0.9c0.3,0.3,0.6,0.6,0.9,0.9c0.3,0.3,0.6,0.6,0.9,0.9
		c0.3,0.3,0.6,0.6,0.9,0.9c0.3,0.3,0.6,0.6,0.9,0.9c0.3,0.3,0.6,0.6,0.9,0.9c0.3,0.3,0.6,0.6,0.9,0.9c0.3,0.3,0.6,0.6,0.9,0.9
		c0.3,0.3,0.6,0.6,0.9,0.9c0.3,0.3,0.6,0.6,0.9,0.9c0.3,0.3,0.6,0.6,0.9,0.9c0.3,0.3,0.6,0.6,0.9,0.9c0.3,0.3,0.6,0.6,0.9,0.9
		c0.3,0.3,0.6,0.6,0.9,0.9c0.3,0.3,0.6,0.6,0.9,0.9c0.3,0.3,0.6,0.6,0.9,0.9c0.3,0.3,0.6,0.6,0.9,0.9c0.3,0.3,0.6,0.6,0.9,0.9
		c0.3,0.3,0.6,0.6,0.9,0.9c0.3,0.3,0.6,0.6,0.9,0.9C143.9,118.8,118.8,143.9,87,149 M31.1,75.7L31.1,75.7L31.1,75.7 M31.1,75.7
		L31.1,75.7L31.1,75.7 M31.1,75.6L31.1,75.6L31.1,75.6 M31.1,75.5L31.1,75.5L31.1,75.5 M31.1,75.4L31.1,75.4L31.1,75.4 M31.1,75.4
		L31.1,75.4L31.1,75.4 M31.1,75.3L31.1,75.3L31.1,75.3 M31.1,75.2L31.1,75.2L31.1,75.2 M31.1,75.2L31.1,75.2L31.1,75.2 M31.1,75.1
		L31.1,75.1L31.1,75.1 M75.6,31.1L75.6,31.1L75.6,31.1 M75.5,31.1L75.5,31.1L75.5,31.1 M75.4,31.1L75.4,31.1L75.4,31.1 M75.4,31.1
		L75.4,31.1L75.4,31.1 M75.3,31.1L75.3,31.1L75.3,31.1 M75.2,31.1L75.2,31.1L75.2,31.1 M75.2,31.1L75.2,31.1L75.2,31.1 M75.1,31.1
		L75.1,31.1L75.1,31.1"/>
	<path fill="#666669" d="M118.9,75c0,24.2-19.7,43.9-43.9,43.9c-24.2,0-43.9-19.7-43.9-43.9c0-24.2,19.6-43.9,43.9-43.9
		C99.2,31.1,118.9,50.8,118.9,75"/>
	<path fill="#FFFEE2" d="M104.7,75.1c0.3,0.3,0.4,0.7,0.4,1.1c0,0.5-0.2,1-0.5,1.3l0.1,0.1l-0.1-0.1c-0.5,0.4-0.7,1.1-0.7,1.7
		c0,0.4,0.1,0.8,0.4,1.2l0.1-0.1l-0.1,0.1c0.2,0.2,0.2,0.5,0.2,0.8c0,0.6-0.3,1.3-0.8,1.5l0.1,0.2l-0.1-0.2c-0.7,0.4-1.1,1.2-1.1,2
		c0,0.3,0.1,0.6,0.2,0.8l0.2-0.1l-0.2,0.1c0.1,0.2,0.1,0.4,0.1,0.5c0,0.7-0.5,1.5-1.1,1.7l0.1,0.2l-0.1-0.2
		c-0.8,0.3-1.4,1.2-1.4,2.1c0,0.2,0,0.3,0.1,0.5l0.2,0l-0.2,0c0,0.1,0,0.2,0,0.3c0,0.8-0.6,1.6-1.4,1.7l0,0.2l0-0.2
		c-1,0.2-1.8,1.2-1.8,2.2l0,0.1l0.2,0l-0.2,0l0,0c0,0.4-0.2,0.8-0.5,1.2c-0.3,0.3-0.7,0.5-1.1,0.5h0l0,0.2l0-0.2l0,0
		c-1,0-2,0.9-2.2,1.9l0.2,0l-0.2,0c-0.1,0.7-1,1.5-1.7,1.4l-0.2,0l0,0.2l0-0.2c-0.1,0-0.2,0-0.4,0c-0.9,0-1.9,0.7-2.1,1.5l0.2,0
		l-0.2-0.1c-0.2,0.6-1,1.1-1.7,1.1c-0.2,0-0.3,0-0.5-0.1l-0.1,0.2l0.1-0.2c-0.2-0.1-0.5-0.1-0.7-0.1c-0.8,0-1.7,0.4-2,1.2l0.2,0.1
		l-0.2-0.1c-0.3,0.5-0.9,0.8-1.6,0.8c-0.3,0-0.5-0.1-0.8-0.2l-0.1,0.2l0.1-0.1c-0.3-0.2-0.7-0.3-1.1-0.3c-0.7,0-1.4,0.3-1.8,0.8
		l0.1,0.1l-0.1-0.1c-0.3,0.4-0.8,0.6-1.3,0.6c-0.4,0-0.8-0.1-1.1-0.4l-0.1,0.1l0.1-0.1c-0.4-0.4-0.9-0.5-1.5-0.5
		c-0.5,0-1.1,0.2-1.5,0.5l0.1,0.1l-0.1-0.1c-0.3,0.2-0.7,0.4-1.1,0.4c-0.5,0-1.1-0.2-1.3-0.6l-0.1,0.1l0.1-0.1
		c-0.4-0.5-1.1-0.8-1.8-0.8c-0.4,0-0.8,0.1-1.1,0.3l0.1,0.2l-0.1-0.2c-0.2,0.1-0.5,0.2-0.8,0.2c-0.6,0-1.3-0.3-1.6-0.8l-0.2,0.1
		l0.2-0.1c-0.4-0.7-1.2-1.2-2-1.2c-0.2,0-0.5,0-0.7,0.1l0.1,0.2l-0.1-0.2c-0.1,0.1-0.3,0.1-0.5,0.1c-0.7,0-1.5-0.5-1.7-1.1l-0.2,0.1
		l0.2,0c-0.3-0.9-1.2-1.5-2.1-1.5c-0.1,0-0.2,0-0.4,0l0,0.2l0-0.2l-0.2,0c-0.8,0-1.6-0.7-1.7-1.4l-0.2,0l0.2,0
		c-0.1-1-1.1-1.9-2.2-1.9l-0.1,0l0,0.2l0-0.2c-0.4,0-0.8-0.2-1.1-0.5c-0.3-0.3-0.5-0.8-0.5-1.2l0,0l-0.2,0l0.2,0l0-0.1
		c0-1-0.8-2-1.8-2.2l0,0.2l0-0.2c-0.7-0.1-1.4-1-1.4-1.7c0-0.1,0-0.2,0-0.3l-0.2,0l0.2,0c0-0.1,0.1-0.3,0.1-0.5
		c0-0.9-0.6-1.8-1.4-2.1L48.1,88l0.1-0.2c-0.6-0.2-1.1-1-1.1-1.7c0-0.2,0-0.4,0.1-0.5L47,85.5l0.2,0.1c0.1-0.3,0.2-0.5,0.2-0.8
		c0-0.8-0.4-1.6-1.1-2l-0.1,0.2l0.1-0.2c-0.5-0.3-0.8-0.9-0.8-1.5c0-0.3,0.1-0.6,0.2-0.8l-0.1-0.1l0.1,0.1c0.2-0.3,0.4-0.8,0.4-1.2
		c0-0.6-0.2-1.3-0.7-1.7l-0.1,0.1l0.1-0.1c-0.3-0.3-0.5-0.8-0.5-1.3c0-0.4,0.1-0.9,0.4-1.1L45.1,75l0.1,0.1c0.4-0.4,0.6-1,0.6-1.6
		c0-0.5-0.1-1-0.5-1.4l-0.1,0.1l0.1-0.1c-0.2-0.3-0.3-0.6-0.3-1c0-0.6,0.2-1.1,0.6-1.4l-0.1-0.1l0.1,0.1c0.6-0.4,0.9-1.1,0.9-1.9
		c0-0.4-0.1-0.7-0.3-1l-0.2,0.1l0.2-0.1c-0.1-0.2-0.2-0.4-0.2-0.7c0-0.7,0.4-1.4,0.9-1.6L47,64.5l0.1,0.2c0.8-0.3,1.3-1.2,1.3-2.1
		c0-0.2,0-0.4-0.1-0.6L48.1,62l0.2-0.1c0-0.1-0.1-0.3-0.1-0.4c0-0.7,0.5-1.5,1.2-1.7l0-0.2l0,0.2c0.9-0.2,1.6-1.2,1.6-2.1
		c0-0.1,0-0.2,0-0.3l-0.2,0l0.2,0l0-0.2c0-0.8,0.8-1.7,1.5-1.7l0-0.2l0,0.2c1-0.1,2-1.1,2-2.1l-0.2,0l0.2,0c0-0.4,0.2-0.8,0.6-1.1
		c0.3-0.3,0.8-0.5,1.2-0.5l0.1,0l0-0.2l0,0.2l0.2,0c1,0,2-0.8,2.2-1.7l-0.2,0l0.2,0c0.1-0.7,1-1.3,1.7-1.3c0.1,0,0.2,0,0.3,0l0-0.2
		l-0.1,0.2c0.2,0.1,0.4,0.1,0.5,0.1c0.9,0,1.8-0.5,2.1-1.4l-0.2-0.1l0.2,0.1c0.2-0.6,1-1,1.6-1c0.2,0,0.4,0,0.6,0.1l0.1-0.2
		l-0.1,0.2c0.3,0.1,0.6,0.2,0.9,0.2c0.7,0,1.5-0.4,1.9-1l-0.2-0.1l0.1,0.1c0.3-0.4,0.9-0.7,1.5-0.7c0.3,0,0.7,0.1,0.9,0.3l0.1-0.1
		l-0.1,0.1c0.4,0.3,0.8,0.4,1.3,0.4c0.6,0,1.2-0.2,1.6-0.7l-0.1-0.1l0.1,0.1c0.3-0.3,0.8-0.5,1.2-0.5c0.5,0,0.9,0.2,1.2,0.5l0.1-0.1
		l-0.1,0.1c0.4,0.4,1,0.7,1.6,0.7c0.5,0,0.9-0.1,1.3-0.4L79,45.4l0.1,0.1c0.2-0.2,0.6-0.3,0.9-0.3c0.6,0,1.2,0.3,1.5,0.7l0.1-0.1
		L81.5,46c0.4,0.6,1.2,1,1.9,1c0.3,0,0.6-0.1,0.9-0.2l-0.1-0.2l0.1,0.2c0.2-0.1,0.4-0.1,0.6-0.1c0.7,0,1.4,0.4,1.7,1l0.2-0.1
		l-0.2,0.1c0.3,0.8,1.2,1.3,2.1,1.4c0.2,0,0.4,0,0.5-0.1l-0.1-0.2l0,0.2c0.1,0,0.2,0,0.3,0c0.7,0,1.6,0.6,1.7,1.3l0.2,0l-0.2,0
		c0.2,1,1.2,1.7,2.2,1.7l0.2,0l0-0.2l0,0.2l0.1,0c0.4,0,0.8,0.2,1.2,0.5c0.3,0.3,0.5,0.7,0.6,1.1l0.2,0l-0.2,0c0,0.5,0.3,1,0.6,1.4
		c0.4,0.4,0.9,0.7,1.4,0.7l0-0.2l0,0.2c0.8,0.1,1.5,0.9,1.5,1.7l0,0.2l0.2,0l-0.2,0c0,0.1,0,0.2,0,0.3c0,0.9,0.7,1.9,1.6,2.1l0-0.2
		l0,0.2c0.7,0.2,1.2,1,1.2,1.7c0,0.1,0,0.3-0.1,0.4l0.2,0.1l-0.2-0.1c-0.1,0.2-0.1,0.4-0.1,0.6c0,0.8,0.5,1.7,1.3,2.1l0.1-0.2
		l-0.1,0.2c0.5,0.3,0.9,1,0.9,1.6c0,0.2-0.1,0.5-0.2,0.7l0.2,0.1l-0.2-0.1c-0.2,0.3-0.3,0.6-0.3,1c0,0.7,0.3,1.5,0.9,1.9l0.1-0.1
		l-0.1,0.1c0.4,0.3,0.6,0.9,0.6,1.4c0,0.4-0.1,0.7-0.3,1l0.1,0.1l-0.1-0.1c-0.3,0.4-0.5,0.9-0.5,1.4
		C104.1,74.1,104.3,74.7,104.7,75.1l0.3-0.3c-0.3-0.3-0.5-0.8-0.5-1.3c0-0.4,0.1-0.8,0.4-1.1l0,0l0,0c0.3-0.3,0.4-0.8,0.4-1.2
		c0-0.7-0.3-1.3-0.8-1.7l0,0l0,0c-0.5-0.3-0.7-1-0.7-1.6c0-0.3,0.1-0.6,0.2-0.8l0,0l0,0c0.1-0.3,0.2-0.6,0.2-0.9
		c0-0.8-0.4-1.6-1.1-1.9l0,0l0,0c-0.6-0.3-1-1-1-1.7c0-0.2,0-0.4,0.1-0.5l0,0l0,0c0.1-0.2,0.1-0.3,0.1-0.5c0-0.9-0.6-1.8-1.5-2.1
		l0,0l0,0c-0.7-0.2-1.4-1-1.4-1.8l0-0.2l0,0l0,0l0-0.2c0-1-0.9-2-1.8-2.1l0,0l0,0c-0.4,0-0.8-0.2-1.2-0.6c-0.3-0.3-0.5-0.8-0.5-1.2
		l0,0l0,0c0-0.5-0.3-1-0.7-1.3c-0.4-0.4-0.9-0.6-1.4-0.6l-0.1,0l0,0l0,0l-0.2,0c-0.8,0-1.7-0.7-1.8-1.4l0,0l0,0
		c-0.2-0.9-1.2-1.6-2.1-1.6c-0.1,0-0.3,0-0.4,0.1l0,0l0,0c-0.1,0-0.3,0.1-0.4,0.1c-0.7,0-1.5-0.5-1.8-1.1l0,0l0,0
		c-0.3-0.7-1.2-1.2-2-1.2c-0.3,0-0.5,0.1-0.8,0.2l0,0l0,0c-0.2,0.1-0.5,0.2-0.7,0.2c-0.6,0-1.3-0.3-1.6-0.8l0,0l0,0
		c-0.4-0.6-1.1-0.9-1.8-0.9c-0.4,0-0.8,0.1-1.1,0.3l0,0l0,0c-0.3,0.2-0.7,0.3-1.1,0.3c-0.5,0-1.1-0.2-1.4-0.5l0,0l0,0
		c-0.4-0.4-0.9-0.6-1.5-0.6c-0.5,0-1.1,0.2-1.5,0.6l0,0l0,0c-0.3,0.3-0.8,0.5-1.4,0.5c-0.4,0-0.8-0.1-1.1-0.3l0,0l0,0
		c-0.3-0.2-0.7-0.3-1.1-0.3c-0.7,0-1.4,0.3-1.8,0.9l0,0l0,0c-0.3,0.5-1,0.8-1.6,0.8c-0.3,0-0.5-0.1-0.7-0.2l0,0l0,0
		c-0.2-0.1-0.5-0.2-0.8-0.2c-0.8,0-1.7,0.5-2,1.2l0,0l0,0c-0.2,0.6-1,1.1-1.8,1.1c-0.2,0-0.3,0-0.4-0.1l0,0l0,0
		c-0.1,0-0.3-0.1-0.4-0.1c-0.9,0-1.9,0.7-2.1,1.6l0,0l0,0c-0.1,0.8-1,1.5-1.8,1.4l-0.2,0l0,0l0,0l-0.1,0c-0.5,0-1,0.2-1.4,0.6
		c-0.4,0.4-0.7,0.8-0.7,1.3l0,0v0c0,0.8-0.9,1.7-1.7,1.8l0,0l0,0c-1,0.1-1.8,1.1-1.8,2.1l0,0.2l0,0l0,0l0,0.2c0,0.8-0.6,1.6-1.4,1.8
		l0,0l0,0c-0.9,0.2-1.5,1.2-1.5,2.1c0,0.2,0,0.4,0.1,0.5l0,0l0,0c0.1,0.2,0.1,0.3,0.1,0.5c0,0.7-0.4,1.5-1,1.7l0,0l0,0
		c-0.7,0.3-1.1,1.2-1.1,1.9c0,0.3,0.1,0.6,0.2,0.9l0,0l0,0c0.1,0.2,0.2,0.5,0.2,0.8c0,0.6-0.3,1.2-0.7,1.6l0,0l0,0
		c-0.5,0.4-0.8,1-0.8,1.7c0,0.4,0.1,0.9,0.4,1.2l0,0l0,0c0.2,0.3,0.4,0.7,0.4,1.1c0,0.5-0.2,1-0.5,1.3l0,0l0,0
		c-0.3,0.4-0.5,0.9-0.5,1.4c0,0.6,0.2,1.2,0.6,1.6l0,0l0,0c0.4,0.3,0.6,0.9,0.6,1.4c0,0.4-0.1,0.7-0.3,1l0,0l0,0
		c-0.2,0.3-0.3,0.7-0.3,1c0,0.7,0.3,1.5,0.9,1.8l0,0l0,0c0.5,0.3,0.9,1,0.9,1.7c0,0.2,0,0.5-0.1,0.7l0,0l0,0
		c-0.1,0.2-0.1,0.5-0.1,0.7c0,0.8,0.5,1.7,1.3,2l0,0l0,0c0.7,0.2,1.2,1,1.2,1.8c0,0.1,0,0.2,0,0.4l0,0l0,0c0,0.1,0,0.2,0,0.4
		c0,0.9,0.7,1.9,1.7,2.1l0,0l0,0c0.8,0.1,1.5,1,1.5,1.8l0,0.1l0,0l0,0l0,0.1c0,0.5,0.3,1,0.6,1.4c0.4,0.4,0.9,0.6,1.4,0.6l0,0l0,0
		l0,0c0.8,0,1.7,0.8,1.8,1.6l0,0l0,0c0.1,1,1.1,1.7,2.1,1.8c0.1,0,0.2,0,0.3,0l0,0l0,0c0.1,0,0.2,0,0.3,0c0.8,0,1.6,0.6,1.8,1.3l0,0
		l0,0c0.3,0.8,1.2,1.4,2,1.4c0.2,0,0.4,0,0.6-0.1l0,0l0,0c0.2-0.1,0.4-0.1,0.6-0.1c0.7,0,1.4,0.4,1.7,1l0,0l0,0c0.4,0.7,1.1,1,1.9,1
		c0.3,0,0.7-0.1,0.9-0.2l0,0l0,0c0.2-0.2,0.6-0.2,0.9-0.2c0.6,0,1.2,0.3,1.5,0.7l0,0l0,0c0.4,0.5,1,0.7,1.6,0.7
		c0.5,0,0.9-0.1,1.3-0.4l0,0l0,0c0.3-0.3,0.8-0.4,1.2-0.4c0.5,0,0.9,0.2,1.2,0.4l0,0l0,0c0.4,0.3,0.8,0.4,1.3,0.4
		c0.6,0,1.2-0.2,1.6-0.7l0,0l0,0c0.3-0.4,0.9-0.7,1.5-0.7c0.3,0,0.6,0.1,0.9,0.2l0,0l0,0c0.3,0.2,0.6,0.2,0.9,0.2
		c0.7,0,1.5-0.4,1.9-1l0,0l0,0c0.3-0.6,1-1,1.7-1c0.2,0,0.4,0,0.6,0.1l0,0l0,0c0.2,0.1,0.4,0.1,0.6,0.1c0.9,0,1.8-0.6,2-1.4l0,0l0,0
		c0.2-0.7,1-1.3,1.8-1.3c0.1,0,0.2,0,0.3,0l0,0h0c0.1,0,0.2,0,0.3,0c1,0,1.9-0.8,2.1-1.8l0,0l0,0c0.1-0.8,1-1.6,1.8-1.6l0,0l0,0h0h0
		c0.5,0,1-0.3,1.4-0.6c0.4-0.4,0.6-0.9,0.6-1.4l0-0.1l0,0l0,0l0-0.1c0-0.8,0.7-1.7,1.5-1.8l0,0l0,0c0.9-0.2,1.7-1.1,1.7-2.1
		c0-0.1,0-0.2,0-0.4v0l0,0c0-0.1,0-0.2,0-0.4c0-0.7,0.5-1.6,1.2-1.8l0,0l0,0c0.8-0.3,1.3-1.2,1.3-2c0-0.2,0-0.5-0.1-0.7l0,0l0,0
		c-0.1-0.2-0.1-0.4-0.1-0.7c0-0.7,0.4-1.4,0.9-1.7l0,0l0,0c0.6-0.4,0.9-1.1,0.9-1.8c0-0.4-0.1-0.7-0.3-1l0,0l0,0
		c-0.2-0.3-0.3-0.6-0.3-1c0-0.6,0.2-1.1,0.6-1.4l0,0l0,0c0.4-0.4,0.6-1,0.6-1.6c0-0.5-0.2-1-0.5-1.4L104.7,75.1L104.7,75.1z"/>
	<path fill="#FFFEE2" d="M90.4,75c0,8.5-6.9,15.4-15.4,15.4c-8.5,0-15.4-6.9-15.4-15.4c0-8.5,6.9-15.4,15.4-15.4
		C83.5,59.6,90.4,66.5,90.4,75"/>
	<path fill="#FFFEE2" d="M99.4,75.1c0.2,0.2,0.3,0.6,0.3,0.9c0,0.4-0.1,0.8-0.4,1l0.1,0.1l-0.1-0.1c-0.4,0.3-0.6,0.9-0.6,1.4
		c0,0.3,0.1,0.7,0.3,1c0.1,0.2,0.2,0.4,0.2,0.7c0,0.5-0.2,1-0.6,1.3l0.1,0.1l-0.1-0.1c-0.6,0.3-0.9,1-0.9,1.6c0,0.2,0,0.5,0.1,0.7
		l0.1-0.1l-0.1,0.1c0.1,0.1,0.1,0.3,0.1,0.4c0,0.6-0.4,1.2-0.9,1.4l0.1,0.1l0-0.1c-0.7,0.2-1.2,1-1.2,1.7c0,0.1,0,0.3,0,0.4l0.1,0
		l-0.1,0l0,0.2c0,0.6-0.5,1.3-1.1,1.4l0,0.1l0-0.1c-0.8,0.1-1.5,0.9-1.5,1.8l0,0.1l0.1,0l-0.1,0l0,0c0,0.3-0.2,0.7-0.4,1
		c-0.3,0.3-0.6,0.4-0.9,0.4l0,0h0l0,0c-0.9,0-1.7,0.7-1.8,1.6l0.1,0l-0.1,0c-0.1,0.6-0.8,1.2-1.4,1.2l-0.2,0l0,0.1l0-0.1
		c-0.1,0-0.2,0-0.3,0c-0.8,0-1.5,0.5-1.8,1.3l0.1,0l-0.1,0c-0.2,0.5-0.8,0.9-1.4,0.9c-0.1,0-0.3,0-0.4-0.1l-0.1,0.1l0.1-0.1
		c-0.2-0.1-0.4-0.1-0.6-0.1c-0.7,0-1.3,0.4-1.7,1l0.1,0.1l-0.1-0.1c-0.2,0.4-0.8,0.7-1.3,0.7c-0.2,0-0.4-0.1-0.6-0.2l-0.1,0.1
		l0.1-0.1c-0.3-0.2-0.6-0.2-0.9-0.2c-0.6,0-1.1,0.2-1.5,0.7l0.1,0.1l-0.1-0.1c-0.2,0.3-0.7,0.5-1.1,0.5c-0.3,0-0.7-0.1-0.9-0.3
		l-0.1,0.1l0.1-0.1c-0.3-0.3-0.8-0.4-1.2-0.4c-0.4,0-0.9,0.1-1.2,0.4l0.1,0.1l-0.1-0.1c-0.2,0.2-0.5,0.3-0.9,0.3
		c-0.4,0-0.9-0.2-1.1-0.5l-0.1,0.1l0.1-0.1c-0.3-0.4-0.9-0.7-1.5-0.7c-0.3,0-0.6,0.1-0.9,0.2l0.1,0.1l-0.1-0.1
		c-0.2,0.1-0.4,0.2-0.6,0.2c-0.5,0-1.1-0.3-1.3-0.7l-0.1,0.1l0.1-0.1c-0.3-0.6-1-1-1.7-1c-0.2,0-0.4,0-0.6,0.1l0.1,0.1l-0.1-0.1
		c-0.1,0-0.2,0.1-0.4,0.1c-0.6,0-1.2-0.4-1.4-0.9l-0.1,0l0.1,0c-0.2-0.7-1-1.3-1.8-1.3c-0.1,0-0.2,0-0.3,0l0,0.1l0-0.1l-0.2,0
		c-0.6,0-1.4-0.6-1.4-1.2l-0.1,0l0.1,0c-0.1-0.8-0.9-1.6-1.8-1.6l0,0l0,0.1l0-0.1c-0.3,0-0.7-0.2-0.9-0.4c-0.3-0.3-0.4-0.6-0.4-1
		l0,0l-0.1,0l0.1,0l0-0.1c0-0.8-0.7-1.7-1.5-1.8l0,0.1l0-0.1c-0.6-0.1-1.1-0.8-1.1-1.4l0-0.2l-0.1,0l0.1,0c0-0.1,0-0.2,0-0.4
		c0-0.7-0.5-1.5-1.2-1.7l0,0.1l0.1-0.1c-0.5-0.2-0.9-0.8-0.9-1.4c0-0.2,0-0.3,0.1-0.4l-0.1-0.1l0.1,0.1c0.1-0.2,0.1-0.4,0.1-0.7
		c0-0.6-0.3-1.3-0.9-1.6l-0.1,0.1l0.1-0.1c-0.4-0.2-0.6-0.8-0.6-1.3c0-0.3,0.1-0.5,0.2-0.7c0.2-0.3,0.3-0.6,0.3-1
		c0-0.5-0.2-1.1-0.6-1.4l-0.1,0.1l0.1-0.1c-0.3-0.2-0.4-0.6-0.4-1c0-0.4,0.1-0.7,0.3-0.9L50.5,75l0.1,0.1c0.3-0.3,0.5-0.8,0.5-1.3
		c0-0.4-0.1-0.8-0.4-1.1l-0.1,0.1l0.1-0.1c-0.2-0.2-0.3-0.5-0.3-0.8c0-0.5,0.2-0.9,0.5-1.1c0.5-0.3,0.7-0.9,0.7-1.5
		c0-0.3-0.1-0.6-0.2-0.8l-0.1,0.1l0.1-0.1c-0.1-0.2-0.1-0.4-0.1-0.6c0-0.5,0.3-1.1,0.7-1.3l-0.1-0.1l0.1,0.1c0.6-0.3,1-1,1-1.7
		c0-0.2,0-0.4-0.1-0.5L53,64.4l0.1,0c0-0.1,0-0.2,0-0.3c0-0.6,0.4-1.3,1-1.4l0-0.1l0,0.1c0.8-0.2,1.3-1,1.3-1.8l0-0.2l-0.1,0l0.1,0
		l0-0.1c0-0.7,0.6-1.4,1.2-1.4l0-0.1l0,0.1c0.8-0.1,1.6-0.9,1.7-1.7c0-0.6,0.7-1.3,1.4-1.3l0.1,0l0-0.1l0,0.1l0.2,0
		c0.8,0,1.6-0.6,1.8-1.4l-0.1,0l0.1,0c0.1-0.6,0.8-1.1,1.4-1.1c0.1,0,0.2,0,0.3,0l0-0.1l0,0.1c0.1,0,0.3,0.1,0.5,0.1
		c0.7,0,1.4-0.4,1.7-1.1l-0.1-0.1l0.1,0.1c0.2-0.5,0.8-0.8,1.4-0.8c0.2,0,0.4,0,0.5,0.1l0.1-0.1l-0.1,0.1c0.2,0.1,0.5,0.2,0.7,0.2
		c0.6,0,1.2-0.3,1.6-0.8l-0.1-0.1l0.1,0.1c0.2-0.4,0.7-0.6,1.2-0.6c0.3,0,0.5,0.1,0.8,0.2l0.1-0.1l-0.1,0.1c0.3,0.2,0.7,0.3,1.1,0.3
		c0.5,0,1-0.2,1.3-0.5l-0.1-0.1l0.1,0.1c0.2-0.2,0.6-0.4,1-0.4c0.4,0,0.8,0.1,1,0.4l0.1-0.1L76,50.7c0.3,0.4,0.8,0.5,1.3,0.5
		c0.4,0,0.8-0.1,1.1-0.3l-0.1-0.1l0.1,0.1c0.2-0.1,0.5-0.2,0.8-0.2c0.5,0,1,0.2,1.2,0.6l0.1-0.1l-0.1,0.1c0.3,0.5,1,0.8,1.6,0.8
		c0.3,0,0.5-0.1,0.7-0.2l-0.1-0.1l0.1,0.1c0.1-0.1,0.3-0.1,0.5-0.1c0.5,0,1.2,0.3,1.4,0.8l0.1-0.1l-0.1,0.1c0.3,0.7,1,1.1,1.7,1.1
		c0.2,0,0.3,0,0.5-0.1l0-0.1l0,0.1c0.1,0,0.2,0,0.3,0c0.6,0,1.3,0.5,1.4,1.1l0.1,0l-0.1,0c0.2,0.8,1,1.4,1.8,1.4l0.2,0l0-0.1l0,0.1
		l0.1,0c0.7,0,1.4,0.7,1.4,1.3l0.1,0l-0.1,0c0,0.8,0.8,1.7,1.7,1.7l0-0.1l0,0.1c0.6,0,1.3,0.8,1.2,1.4l0,0.1l0.1,0l-0.1,0l0,0.2
		c0,0.8,0.6,1.6,1.3,1.8l0-0.1l0,0.1c0.5,0.1,1,0.8,1,1.4c0,0.1,0,0.2,0,0.3l0.1,0l-0.1-0.1c-0.1,0.2-0.1,0.3-0.1,0.5
		c0,0.7,0.4,1.4,1,1.7l0.1-0.1l-0.1,0.1c0.4,0.2,0.7,0.8,0.7,1.3c0,0.2,0,0.4-0.1,0.6l0.1,0.1l-0.1-0.1c-0.1,0.2-0.2,0.5-0.2,0.8
		c0,0.6,0.3,1.2,0.7,1.5c0.3,0.2,0.5,0.7,0.5,1.1c0,0.3-0.1,0.6-0.3,0.8l0.1,0.1l-0.1-0.1c-0.3,0.3-0.4,0.7-0.4,1.1
		C98.9,74.3,99,74.8,99.4,75.1l0.2-0.2c-0.3-0.3-0.4-0.7-0.4-1.1c0-0.4,0.1-0.7,0.3-0.9l0,0l0,0c0.2-0.3,0.3-0.6,0.3-1
		c0-0.5-0.2-1.1-0.6-1.4c-0.4-0.3-0.6-0.8-0.6-1.3c0-0.2,0.1-0.5,0.2-0.7l0,0l0,0c0.1-0.2,0.2-0.5,0.2-0.7c0-0.6-0.3-1.3-0.9-1.6
		l0,0l0,0c-0.5-0.2-0.9-0.8-0.9-1.4c0-0.1,0-0.3,0.1-0.4l0,0l0,0c0-0.1,0.1-0.3,0.1-0.4c0-0.7-0.5-1.5-1.2-1.7l0,0l0,0
		c-0.6-0.1-1.1-0.8-1.1-1.5l0-0.2l0,0l0,0l0-0.2c0-0.8-0.7-1.6-1.5-1.7l0,0l0,0c-0.7,0-1.4-0.8-1.4-1.4v0l0,0c0-0.8-0.9-1.6-1.7-1.6
		l-0.1,0l0,0l0,0l-0.1,0c-0.7,0-1.4-0.6-1.5-1.2l0,0l0,0c-0.2-0.7-1-1.3-1.7-1.3c-0.1,0-0.2,0-0.4,0l0,0l0,0c-0.1,0-0.2,0.1-0.4,0.1
		c-0.6,0-1.2-0.4-1.4-0.9l0,0l0,0c-0.3-0.6-1-1-1.6-1c-0.2,0-0.4,0-0.6,0.1l0,0l0,0c-0.2,0.1-0.4,0.1-0.6,0.1
		c-0.5,0-1.1-0.3-1.3-0.7l0,0l0,0c-0.3-0.5-0.9-0.7-1.4-0.7c-0.3,0-0.7,0.1-0.9,0.3l0,0l0,0c-0.2,0.2-0.5,0.3-0.9,0.3
		c-0.4,0-0.9-0.2-1.1-0.4l0,0l0,0C75.9,50.1,75.5,50,75,50c-0.4,0-0.9,0.1-1.2,0.5l0,0l0,0c-0.3,0.3-0.7,0.4-1.1,0.4
		c-0.3,0-0.6-0.1-0.9-0.3l0,0l0,0c-0.3-0.2-0.6-0.3-0.9-0.3c-0.6,0-1.1,0.2-1.4,0.7l0,0l0,0c-0.3,0.4-0.8,0.7-1.3,0.7
		c-0.2,0-0.4,0-0.6-0.1l0,0l0,0c-0.2-0.1-0.4-0.1-0.6-0.1c-0.7,0-1.4,0.4-1.6,1l0,0l0,0c-0.2,0.5-0.8,0.9-1.4,0.9
		c-0.1,0-0.2,0-0.4-0.1l0,0l0,0c-0.1,0-0.2,0-0.4,0c-0.8,0-1.5,0.5-1.7,1.3l0,0l0,0c-0.1,0.6-0.8,1.2-1.5,1.2l-0.1,0l0,0l0,0l-0.1,0
		c-0.8,0-1.7,0.8-1.7,1.6c0,0.7-0.7,1.4-1.4,1.4l0,0l0,0c-0.8,0.1-1.5,0.9-1.5,1.7l0,0.2l0,0l0,0l0,0.2c0,0.6-0.5,1.3-1.1,1.5l0,0
		l0,0c-0.7,0.2-1.2,1-1.2,1.7c0,0.1,0,0.3,0.1,0.4l0,0l0,0c0,0.1,0.1,0.3,0.1,0.4c0,0.6-0.4,1.2-0.9,1.4l0,0l0,0
		c-0.6,0.3-0.9,1-0.9,1.6c0,0.2,0.1,0.5,0.2,0.7l0,0l0,0c0.1,0.2,0.2,0.4,0.2,0.7c0,0.5-0.2,1-0.6,1.3c-0.4,0.3-0.6,0.9-0.6,1.4
		c0,0.4,0.1,0.7,0.3,1l0,0l0,0c0.2,0.2,0.3,0.6,0.3,0.9c0,0.4-0.1,0.8-0.4,1.1l0,0l0,0C50.1,75.2,50,75.6,50,76c0,0.5,0.2,1,0.5,1.3
		l0,0l0,0c0.3,0.3,0.5,0.7,0.5,1.2c0,0.3-0.1,0.6-0.2,0.8c-0.2,0.2-0.2,0.5-0.2,0.8c0,0.6,0.3,1.2,0.8,1.5l0,0l0,0
		c0.4,0.2,0.7,0.8,0.7,1.4c0,0.2,0,0.4-0.1,0.5l0,0l0,0c-0.1,0.2-0.1,0.4-0.1,0.6c0,0.7,0.4,1.4,1.1,1.7l0,0l0,0
		c0.6,0.2,1,0.8,1,1.5c0,0.1,0,0.2,0,0.3l0,0l0,0c0,0.1,0,0.2,0,0.3c0,0.8,0.6,1.6,1.4,1.7l0,0l0,0c0.6,0.1,1.3,0.8,1.2,1.5l0,0.1
		l0,0l0,0l0,0.1c0,0.9,0.8,1.7,1.7,1.7l0,0l0,0l0,0c0.7,0,1.4,0.7,1.5,1.3l0,0l0,0c0.1,0.8,0.9,1.4,1.7,1.4l0.2,0l0,0l0,0l0.2,0
		c0.6,0,1.3,0.5,1.5,1.1l0,0l0,0c0.2,0.7,1,1.1,1.7,1.1c0.2,0,0.3,0,0.5-0.1l0,0l0,0c0.1-0.1,0.3-0.1,0.5-0.1c0.6,0,1.2,0.3,1.4,0.8
		l0,0l0,0c0.3,0.5,0.9,0.8,1.5,0.8c0.3,0,0.5-0.1,0.8-0.2l0,0l0,0c0.2-0.1,0.5-0.2,0.7-0.2c0.5,0,1,0.2,1.2,0.5l0,0l0,0
		c0.3,0.4,0.8,0.6,1.3,0.6c0.4,0,0.8-0.1,1.1-0.4l0,0l0,0c0.2-0.2,0.6-0.4,1-0.4c0.4,0,0.8,0.1,1,0.4l0,0l0,0
		c0.3,0.2,0.7,0.4,1.1,0.4c0.5,0,1-0.2,1.3-0.6l0,0l0,0c0.2-0.3,0.8-0.6,1.2-0.5c0.3,0,0.5,0.1,0.7,0.2l0,0l0,0
		c0.2,0.1,0.5,0.2,0.8,0.2c0.6,0,1.3-0.3,1.5-0.8l0,0l0,0c0.2-0.5,0.8-0.8,1.4-0.8c0.2,0,0.3,0,0.5,0.1l0,0l0,0
		c0.2,0.1,0.3,0.1,0.5,0.1c0.7,0,1.5-0.5,1.7-1.1l0,0l0,0c0.2-0.6,0.8-1.1,1.5-1.1l0.2,0l0,0l0,0l0.2,0c0.8,0,1.6-0.6,1.7-1.4l0,0
		l0,0c0.1-0.7,0.8-1.3,1.5-1.3l0,0h0l0,0c0.8,0,1.6-0.8,1.6-1.7l0-0.1l0,0l0,0l0-0.1c0-0.7,0.6-1.4,1.2-1.5l0,0l0,0
		c0.8-0.1,1.4-0.9,1.4-1.7c0-0.1,0-0.2,0-0.3l0,0l0,0c0-0.1,0-0.2,0-0.3c0-0.6,0.4-1.3,1-1.5l0,0l0,0c0.6-0.3,1-1,1.1-1.7
		c0-0.2,0-0.4-0.1-0.6l0,0l0,0c-0.1-0.2-0.1-0.3-0.1-0.5c0-0.5,0.3-1.1,0.7-1.4l0,0l0,0c0.5-0.3,0.8-0.9,0.8-1.5
		c0-0.3-0.1-0.6-0.2-0.8C99,79.1,99,78.8,99,78.5c0-0.5,0.2-0.9,0.5-1.2l0,0l0,0c0.4-0.3,0.5-0.8,0.5-1.3c0-0.4-0.1-0.8-0.4-1.1
		L99.4,75.1L99.4,75.1z"/>
</g>
</svg>
