<?xml version="1.0" encoding="utf-8"?>
<!-- Generator: Adobe Illustrator 18.1.1, SVG Export Plug-In . SVG Version: 6.00 Build 0)  -->
<!DOCTYPE svg PUBLIC "-//W3C//DTD SVG 1.1//EN" "http://www.w3.org/Graphics/SVG/1.1/DTD/svg11.dtd">
<svg version="1.1" id="Layer_1" xmlns="http://www.w3.org/2000/svg" xmlns:xlink="http://www.w3.org/1999/xlink" x="0px" y="0px"
	 viewBox="0 0 150 150" enable-background="new 0 0 150 150" xml:space="preserve">
<g>
	<g>
		<defs>
			<rect id="SVGID_1_" x="0" y="0" width="150" height="150"/>
		</defs>
		<clipPath id="SVGID_2_">
			<use xlink:href="#SVGID_1_"  overflow="visible"/>
		</clipPath>
		<path clip-path="url(#SVGID_2_)" fill="#5DBAB0" d="M150,75c0,41.4-33.6,75-75,75c-41.4,0-75-33.6-75-75C0,33.6,33.6,0,75,0
			C116.4,0,150,33.6,150,75"/>
	</g>
	<path fill="#228879" d="M96.3,146.9c-0.3-0.2-0.6-0.5-0.8-0.8c-0.4-0.2-0.7-0.5-0.9-0.9c-0.4-0.2-0.7-0.5-0.9-0.9
		c-0.4-0.2-0.7-0.5-0.9-0.9c-0.4-0.2-0.7-0.5-0.9-0.9c-0.4-0.2-0.7-0.5-0.9-0.9c-0.4-0.2-0.7-0.5-0.9-0.9c-0.4-0.2-0.7-0.5-0.9-0.9
		c-0.4-0.2-0.6-0.5-0.8-0.8c-0.4-0.2-0.7-0.5-0.9-0.9c-0.4-0.2-0.7-0.5-0.9-0.9c-0.4-0.2-0.7-0.5-0.9-0.9c-0.4-0.2-0.7-0.5-0.9-0.9
		c-0.4-0.2-0.7-0.5-0.9-0.9c-0.4-0.2-0.7-0.5-0.9-0.9c-0.4-0.2-0.7-0.5-0.9-0.9c-0.4-0.2-0.7-0.5-0.9-0.9c-0.4-0.2-0.7-0.5-0.9-0.9
		c-0.4-0.2-0.7-0.5-0.9-0.9c-0.4-0.2-0.6-0.5-0.8-0.8c-0.4-0.2-0.7-0.5-0.9-0.9c-0.4-0.2-0.7-0.5-0.9-0.9c-0.4-0.2-0.7-0.5-0.9-0.9
		c-0.4-0.2-0.7-0.5-0.9-0.9c-0.4-0.2-0.7-0.5-0.9-0.9c-0.4-0.2-0.7-0.5-0.9-0.9c-0.4-0.2-0.6-0.5-0.8-0.8c-0.4-0.2-0.7-0.5-0.9-0.9
		c-0.4-0.2-0.7-0.5-0.9-0.9c-0.4-0.2-0.7-0.5-0.9-0.9c-0.4-0.2-0.7-0.5-0.9-0.9c-0.4-0.2-0.7-0.5-0.9-0.9c-0.7-0.4-1.2-1.1-1.2-1.9
		v-3.4c0-1.2,1-2.2,2.2-2.2h1.1c-0.1-0.1-0.2-0.3-0.3-0.4c-0.4-0.2-0.7-0.5-0.9-0.9c-0.4-0.2-0.7-0.5-0.9-0.9
		c-0.7-0.4-1.2-1.1-1.2-1.9v-3.4c0-0.8,0.4-1.5,1.1-1.8l0,0c-0.3-0.3-0.6-0.6-0.9-0.9c-0.3-0.3-0.6-0.6-0.9-0.9
		c-0.3-0.3-0.6-0.6-0.9-0.9c-0.3-0.3-0.6-0.6-0.9-0.9c-0.3-0.3-0.6-0.6-0.9-0.9c-0.3-0.3-0.6-0.6-0.9-0.9c-0.3-0.3-0.6-0.6-0.9-0.9
		c-0.3-0.3-0.6-0.6-0.9-0.9c-0.3-0.3-0.6-0.6-0.9-0.9c-0.3-0.3-0.6-0.6-0.9-0.9c-0.3-0.3-0.6-0.6-0.9-0.9c-0.3-0.3-0.6-0.6-0.9-0.9
		c-0.3-0.3-0.6-0.6-0.9-0.9c-0.3-0.3-0.6-0.6-0.9-0.9c-0.3-0.3-0.6-0.6-0.9-0.9c-0.3-0.3-0.6-0.6-0.9-0.9c-0.3-0.3-0.6-0.6-0.9-0.9
		c-0.3-0.3-0.6-0.6-0.9-0.9c-1.9-1.8-2.9-3.5-3-3.6c-5.1-7.9-8.3-22.2-2.2-34.4C54.5,32.3,71.7,31.1,77,31.1c1,0,1.6,0,1.6,0
		c9.6,0.3,15.5,3.6,19.3,7.6c0.3,0.3,0.6,0.6,0.9,0.9c0.3,0.3,0.6,0.6,0.9,0.9c0.3,0.3,0.6,0.6,0.9,0.9c0.3,0.3,0.6,0.6,0.9,0.9
		c0.3,0.3,0.6,0.6,0.9,0.9c0.3,0.3,0.6,0.6,0.9,0.9c0.3,0.3,0.6,0.6,0.9,0.9c0.3,0.3,0.6,0.6,0.9,0.9c0.3,0.3,0.6,0.6,0.9,0.9
		c0.3,0.3,0.6,0.6,0.9,0.9c0.3,0.3,0.6,0.6,0.9,0.9c0.3,0.3,0.6,0.6,0.9,0.9c0.3,0.3,0.6,0.6,0.9,0.9c0.3,0.3,0.6,0.6,0.9,0.9
		c0.3,0.3,0.6,0.6,0.9,0.9c0.3,0.3,0.6,0.6,0.9,0.9c0.3,0.3,0.6,0.6,0.9,0.9c0.3,0.3,0.6,0.6,0.9,0.9c0.3,0.3,0.6,0.6,0.9,0.9
		c0.3,0.3,0.6,0.6,0.9,0.9c0.3,0.3,0.6,0.6,0.9,0.9c0.3,0.3,0.6,0.6,0.9,0.9c0.3,0.3,0.6,0.6,0.9,0.9c0.3,0.3,0.6,0.6,0.9,0.9
		c0.3,0.3,0.6,0.6,0.9,0.9c0.3,0.3,0.6,0.6,0.9,0.9c0.3,0.3,0.6,0.6,0.9,0.9c0.3,0.3,0.6,0.6,0.9,0.9c0.3,0.3,0.6,0.6,0.9,0.9
		c0.3,0.3,0.6,0.6,0.9,0.9c0.3,0.3,0.6,0.6,0.9,0.9c0.3,0.3,0.6,0.6,0.9,0.9c0.3,0.3,0.6,0.6,0.9,0.9c0.3,0.3,0.6,0.6,0.9,0.9
		c0.3,0.3,0.6,0.6,0.9,0.9c0.3,0.3,0.6,0.6,0.9,0.9c0.3,0.3,0.6,0.6,0.9,0.9c0.3,0.3,0.6,0.6,0.9,0.9c0.3,0.3,0.6,0.6,0.9,0.9
		c0.3,0.3,0.6,0.6,0.9,0.9c0.3,0.3,0.6,0.6,0.9,0.9c0.3,0.3,0.6,0.6,0.9,0.9c0.3,0.3,0.6,0.6,0.9,0.9c0.3,0.3,0.6,0.6,0.9,0.9
		c0.3,0.3,0.6,0.6,0.9,0.9c0.3,0.3,0.6,0.6,0.9,0.9c0.3,0.3,0.6,0.6,0.9,0.9c0.3,0.3,0.6,0.6,0.9,0.9c0.3,0.3,0.6,0.6,0.9,0.9
		c0.3,0.3,0.6,0.6,0.9,0.9c0.3,0.3,0.6,0.6,0.9,0.9c0.3,0.3,0.6,0.6,0.9,0.9c0.3,0.3,0.6,0.6,0.9,0.9c0.3,0.3,0.6,0.6,0.9,0.9
		c0.3,0.3,0.6,0.6,0.9,0.9c0.3,0.3,0.6,0.6,0.9,0.9c0.3,0.3,0.6,0.6,0.9,0.9l0.2,0.2C143.2,117,122.8,139.1,96.3,146.9"/>
	<path fill="#FFFEE2" d="M49,82.2c0.1,0.2,2.4,4,7,6.5c2.9,1.5,4.2,2,6.6,2c3.1,0,4.1-2.1,5.2-5.2c0.4-1.2,1.5-2.3,2.7-2.9
		c0.2,2,1.3,5.2,3.8,7.6c0.6,0.5,1,1,1.4,1.5h-6.5c-1.2,0-2.2,1-2.2,2.2v3.4c0,1.2,1,2.2,2.2,2.2h8.2c0.3,0,0.6-0.1,0.9-0.2
		c1.2,2.6,3.4,3.2,6.7,3.4c3.4,0.2,6.8,1.7,11.1,2.8c4.3,1,7.5,0.4,9.3-1.1c1.8-1.5,1-3.7,0.1-5.2c-0.9-1.5-0.6-2.3-0.3-3.5
		c0,0,0.9-2.1-0.7-2.5c0,0-1.7-0.3-2.2,1.8c0,0,0-1.8-1.4-1.9c-1-0.1-1.7,1-1.7,1.6c0,0-0.1-1.6-1.4-1.6c-1.3,0-1.5,1.8-1.5,1.8
		s0.1-1.7-1.5-1.7c0,0-1.4,0-1.5,1.8c0,0,0.2-1.8-1.6-1.9c0,0-1.4,0.2-1.4,1.8c0,0,0.1-1.8-1.5-1.8c-1.6,0-1.5,2.1-1.5,2.1
		s-2.2,0-3.5-3.8c-0.9-2.6-1.9-7.1-2.4-9.6c0.5,0,1,0,1.7,0c0,0,2.2-0.1,3.5,2.9c0.7,1.6,0.7,2.4,1.2,5.1c0,0,0.2,2.1,1.7,2.1
		c1.3,0,1.4-1.3,1.4-1.7c0,0.5,0.2,1.9,1.6,1.9c0,0,1.3,0,1.4-1.7c0,0,0.2,1.8,1.6,1.8c0,0,1.5,0.2,1.5-1.7c0.1,1.7,1.7,1.7,1.7,1.7
		c1.6-0.1,1.7-1.6,1.7-1.6c0,0.7,0.5,1.7,1.5,1.7c1.4,0,1.6-1.6,1.6-1.6s0.2,1.7,1.6,1.6c1.3-0.1,1.5-1.6,1.5-1.6
		c0.1-1.4-0.2-1.6-0.4-3.6c-0.2-2.8,0.2-3.8,0.4-5.1c0.2-1.2,0.1-2.3-1.1-1.3c-0.5,0.4-2,0.5-2.2-1c-0.3-1.6,2-3.8,2.6-5.6
		c0.6-1.8,1.1-1.3-1-4.2c-2.1-2.9-1-7.2-0.2-10c0,0,1.6-2.8,0.3-7.1c-1.4-4.4-4.4-20.8-26.2-21.4c0,0-22.5-1.8-31.8,16.7
		C40.7,60,43.9,74.3,49,82.2L49,82.2z M93.3,64.3c0.9-4.6,2.8-6.1,5.2-5.5c0,0,2.2,1.1,1.6,5.6c-0.4,3.4-1.3,7.8-3.8,7.7
		C93.3,72.2,92.6,68.2,93.3,64.3L93.3,64.3z M81.2,74.8c-3.2,0.5-4.5,0-4.5,0s7,0,7.5-4.5c0.5-4.9,0.5-7.2,3.1-9.8
		c2.6-2.6,1.5-7-0.5-10.3c0,0,3.9,3.9,3.5,7.1c-0.6,4.4-3.5,4.6-3.8,8.8C86.1,70.3,85.6,74.1,81.2,74.8L81.2,74.8z"/>
	<path fill="#FFFEE2" d="M69.1,101.5h8.2c1.2,0,2.2,1,2.2,2.2v3.4c0,1.2-1,2.2-2.2,2.2h-8.2c-1.2,0-2.2-1-2.2-2.2v-3.4
		C66.9,102.4,67.9,101.5,69.1,101.5L69.1,101.5z"/>
	<path fill="#FFFEE2" d="M69.1,111.1h8.2c1.2,0,2.2,1,2.2,2.2v3.4c0,1.2-1,2.2-2.2,2.2h-8.2c-1.2,0-2.2-1-2.2-2.2v-3.4
		C66.9,112.1,67.9,111.1,69.1,111.1L69.1,111.1z"/>
</g>
</svg>
