<?xml version="1.0" encoding="utf-8"?>
<!-- Generator: Adobe Illustrator 18.1.1, SVG Export Plug-In . SVG Version: 6.00 Build 0)  -->
<!DOCTYPE svg PUBLIC "-//W3C//DTD SVG 1.1//EN" "http://www.w3.org/Graphics/SVG/1.1/DTD/svg11.dtd">
<svg version="1.1" id="Layer_1" xmlns="http://www.w3.org/2000/svg" xmlns:xlink="http://www.w3.org/1999/xlink" x="0px" y="0px"
	 viewBox="0 0 356.8 149.6" enable-background="new 0 0 356.8 149.6" xml:space="preserve">
<g>
	<path fill="#5DBAB0" d="M261.9,41.9h26.2V15.7c0-4.1,3.3-7.3,7.3-7.3H316c4.1,0,7.3,3.3,7.3,7.3V20c-2,1.1-3.9,2.8-4,2.9l-10.8,8.2
		c-0.6,0.5-1,1.2-1,2c0,1.5,1.2,2.6,2.7,2.6c0.6,0,1.1-0.2,1.5-0.5l7.1-5.4c0.1-0.1,0.2-0.1,0.3-0.1c0.3,0,0.5,0.2,0.5,0.5
		c0,0.1-0.1,0.3-0.2,0.4l-10.8,8.2c-0.6,0.5-1,1.2-1,2.1c0,1.5,1.2,2.6,2.6,2.6c0.6,0,1.2-0.2,1.6-0.5l8.4-6.4
		c0.1-0.1,0.2-0.1,0.3-0.1c0.3,0,0.5,0.2,0.5,0.5c0,0.1-0.1,0.3-0.2,0.4l-10.1,7.7c-0.7,0.5-1.1,1.3-1.1,2.2c0,1.5,1.2,2.6,2.6,2.6
		c0.6,0,1.1-0.2,1.6-0.5l8.4-6.4c0.1-0.1,0.2-0.1,0.3-0.1c0.3,0,0.5,0.2,0.5,0.5c0,0.1,0,0.3-0.2,0.4l-15.7,11.9
		c-0.5,0.5-0.8,1.1-0.8,1.9c0,1.5,1.2,2.6,2.6,2.6c0.6,0,1.2-0.2,1.6-0.6l23-17.4c0.2-0.1,0.4-0.2,0.6-0.2c0.6,0,1.1,0.5,1.1,1.1
		c0,0,0,0.1,0,0.1l-1.1,7.8c0,0.1,0,0.2,0,0.3c0,1.5,1.2,2.6,2.6,2.6c1.3,0,2.4-1,2.6-2.3l1.4-9.9h8.5c4.1,0,7.3,3.3,7.3,7.3v20.6
		c0,4.1-3.3,7.3-7.3,7.3h-26.2v26.2c0,4.1-3.3,7.3-7.3,7.3h-20.6c-4.1,0-7.3-3.3-7.3-7.3v-4.1l0.2,0c2.3,0,6.6-3.7,6.7-3.8l10.8-8.2
		c0.6-0.5,1-1.2,1-2c0-1.5-1.2-2.6-2.6-2.6c-0.6,0-1.1,0.2-1.5,0.5l-7.1,5.4c-0.1,0.1-0.2,0.1-0.3,0.1c-0.3,0-0.5-0.2-0.5-0.5
		c0-0.1,0.1-0.3,0.2-0.4l10.8-8.2c0.6-0.5,1-1.2,1-2.1c0-1.5-1.2-2.6-2.7-2.6c-0.6,0-1.1,0.2-1.6,0.5l-8.4,6.4
		c-0.1,0.1-0.2,0.1-0.3,0.1c-0.3,0-0.5-0.2-0.5-0.5c0-0.1,0.1-0.3,0.2-0.4l10.1-7.7c0.7-0.5,1.1-1.3,1.1-2.2c0-1.5-1.2-2.6-2.6-2.6
		c-0.6,0-1.1,0.2-1.6,0.5l-8.4,6.4c-0.1,0.1-0.2,0.1-0.3,0.1c-0.3,0-0.5-0.2-0.5-0.5c0-0.1,0.1-0.3,0.2-0.4l15.5-11.7
		c0.5-0.5,0.8-1.1,0.8-1.9c0-1.5-1.2-2.6-2.6-2.6c-0.6,0-1.2,0.2-1.6,0.6l-22.8,17.3c-0.2,0.1-0.4,0.2-0.6,0.2
		c-0.6,0-1.1-0.5-1.1-1.1c0,0,0-0.1,0-0.1l1.1-7.8c0-0.1,0-0.2,0-0.3c0-1.5-1.2-2.6-2.6-2.6c-1.3,0-2.4,1-2.6,2.3l-1.4,10.2
		c0,0,0,0.1-0.1,0.4h-11.2c-4.1,0-7.4-3.3-7.4-7.3V49.3C254.5,45.2,257.8,41.9,261.9,41.9"/>
	<path fill="#E67015" d="M35.7,0l11.8,10.4c4.4,3.8,6.7,8,6.7,13.3c0,16.6-22.4,18.2-16.6,40.2c0.2,2,1.7,5.9,2.2,6
		c11.2,2.7,17.1-3.8,16.1-14.4c-0.1-2.8-1.2-4.6-2.8-6.8h0.7l11.9,10.6c2.1,2.7,3.8,4.6,3.8,8.2c0,7.9-7.2,14.1-16.1,14.1
		c-4,0-7.3-1.3-9.7-3.4L30.1,66.2c-4-3.5-6.1-8.9-6.1-14.1c0-16.7,15-24.2,15-40.7c0-4.6-0.5-8.1-3.6-11.3H35.7L35.7,0z"/>
	<path fill="#003873" d="M80.7,92.9L94,105.2l-0.1,0.1c-4.8-3-11.2-3.3-14.4-3.7c-21.1-2.1-30.7,15.5-51.7,15.5
		c-6.8,0-13.4-2.3-18-6.3L0,101.3c0,0,9.4,1.5,11.7,1.8c31.2,4.5,30.8-17.1,52-17.1C70.6,86.1,75.8,88.4,80.7,92.9"/>
	<polygon fill="#E67015" points="41.2,131.6 45.8,131.6 45.8,138 51.9,138 51.9,131.6 56.5,131.6 56.5,149.2 51.9,149.2 51.9,142 
		45.8,142 45.8,149.2 41.2,149.2 41.2,131.6 	"/>
	<polygon fill="#E67015" points="72.7,131.6 86.8,131.6 86.8,135.3 77.3,135.3 77.3,138.4 85.9,138.4 85.9,141.9 77.3,141.9 
		77.3,145.3 87,145.3 87,149.2 72.7,149.2 72.7,131.6 	"/>
	<path fill="#E67015" d="M110.1,142.7h4l-2-6.2h0L110.1,142.7L110.1,142.7z M109.8,131.6h4.7l6.6,17.6h-4.8l-1.1-3.2H109l-1.1,3.2
		h-4.7L109.8,131.6L109.8,131.6z"/>
	<polygon fill="#E67015" points="134.6,131.6 139.2,131.6 139.2,145.3 147.4,145.3 147.4,149.2 134.6,149.2 134.6,131.6 	"/>
	<polygon fill="#E67015" points="174.6,135.5 169.3,135.5 169.3,149.2 164.7,149.2 164.7,135.5 159.4,135.5 159.4,131.6 
		174.6,131.6 174.6,135.5 	"/>
	<polygon fill="#E67015" points="190.8,131.6 195.4,131.6 195.4,138 201.4,138 201.4,131.6 206,131.6 206,149.2 201.4,149.2 
		201.4,142 195.4,142 195.4,149.2 190.8,149.2 190.8,131.6 	"/>
	<path fill="#E67015" d="M234.6,137.9c-0.2-1.8-1.6-2.7-3.6-2.7c-3,0-4.1,2.6-4.1,5.2s1.1,5.2,4.1,5.2c2.1,0,3.4-1.2,3.6-3.3h4.6
		c-0.2,4.5-3.6,7.2-8.1,7.2c-5.3,0-8.8-4.1-8.8-9.2c0-5.1,3.5-9.2,8.8-9.2c3.8,0,7.9,2.4,8.1,6.7H234.6L234.6,137.9z"/>
	<path fill="#E67015" d="M259.7,142.7h4l-2-6.2h0L259.7,142.7L259.7,142.7z M259.4,131.6h4.7l6.6,17.6h-4.8l-1.1-3.2h-6.2l-1.1,3.2
		h-4.7L259.4,131.6L259.4,131.6z"/>
	<path fill="#E67015" d="M291.1,139.3h3.9c1.4,0,2.1-0.7,2.1-2.1c0-1.3-1-1.9-2.3-1.9h-3.7V139.3L291.1,139.3z M286.5,131.6h9
		c3.1,0,6.2,1.4,6.2,5c0,1.9-0.9,3.7-2.8,4.4v0c1.9,0.4,2.4,2.5,2.6,4.2c0,0.7,0.1,3.3,0.7,4h-4.5c-0.4-0.6-0.5-2.3-0.5-2.8
		c-0.1-1.8-0.4-3.6-2.6-3.6h-3.5v6.4h-4.6V131.6L286.5,131.6z"/>
	<polygon fill="#E67015" points="318.4,131.6 332.5,131.6 332.5,135.3 323,135.3 323,138.4 331.6,138.4 331.6,141.9 323,141.9 
		323,145.3 332.7,145.3 332.7,149.2 318.4,149.2 318.4,131.6 	"/>
	<path fill="#003873" d="M177.6,88.2h17.7v-1.1h-1.7c-3.7,0-4.5-0.8-4.5-1.7c0-0.8,0.6-2,1.4-3.1L202,67.6L216.4,87l-7.3,0v1.1h26.4
		v-1.1h-5.1l-20.8-28.4l7.3-9c3.9-5.1,6.5-6.5,9.6-6.5h1.4V42h-15.8v1.1h1.1c3.1,0,4.2,0.6,4.2,1.7c0,0.8-0.8,2-2.2,3.7l-6.8,8.4
		l-10.1-13.8h5.9V42h-25.9v1.1h5.6l16.9,23.4l-11.5,13.8c-3.1,3.7-5.6,6.8-10.4,6.8h-1.4L177.6,88.2L177.6,88.2L177.6,88.2z"/>
	<path fill="#003873" d="M142.1,88.2h14.1v-1.1h-2c-1.7,0-3.7-0.3-3.7-2.5c0-0.6,0-1.4,0.3-1.7l3.9-9.3h7.3v-1.4h-6.8l6.8-16.3v-4.5
		l-13.5,31.8c-0.8,2.3-2.3,3.9-5.1,3.9h-1.4V88.2L142.1,88.2z M162.1,73.5h7.6l5.6,13.5h-6.2v1.1h22.8v-1.1h-3.7l-20.8-45.9h-1.1
		l-4.2,10.1v4.5l6.8,16.3h-6.8V73.5L162.1,73.5z"/>
	<path fill="#003873" d="M85.5,88.2h14.9v-1.1h-1.1c-4.2,0-5.6-0.8-5.6-6.2V43.7H94l18.3,44.5h2.3l17.7-43.9h0.3v42.8h-6.8v1.1h24.5
		v-1.1h-5.6V43.2h5.6V42h-18.6l-12.9,31.8h-0.3L105.8,42H86.1v1.1h5.6v38.3c0,2.8-0.8,5.6-5.9,5.6h-0.3V88.2L85.5,88.2z"/>
</g>
</svg>
